<svg id="svg" version="1.1" xmlns="http://www.w3.org/2000/svg" xmlns:xlink="http://www.w3.org/1999/xlink" width="400" height="400" viewBox="0, 0, 400,400"><g id="svgg"><path id="path0" d="M175.718 39.549 C 173.913 39.687,172.212 40.025,171.938 40.300 C 171.664 40.575,171.019 40.800,170.504 40.800 C 169.989 40.800,168.862 41.160,168.000 41.600 C 167.138 42.040,166.084 42.400,165.659 42.400 C 165.234 42.400,164.788 42.653,164.670 42.962 C 164.551 43.272,163.902 43.646,163.227 43.794 C 162.552 43.942,162.000 44.235,162.000 44.444 C 162.000 44.654,161.685 44.946,161.300 45.093 C 160.449 45.419,158.555 46.702,157.200 47.870 C 156.650 48.345,155.474 49.333,154.586 50.066 C 153.088 51.304,147.600 57.339,147.600 57.748 C 147.600 57.848,146.970 58.887,146.200 60.056 C 145.430 61.225,144.794 62.456,144.787 62.791 C 144.780 63.126,144.510 63.749,144.187 64.176 C 143.864 64.604,143.599 65.234,143.598 65.576 C 143.596 65.919,143.333 66.703,143.012 67.317 C 142.692 67.931,142.313 69.101,142.170 69.917 C 142.027 70.733,141.667 71.788,141.370 72.263 C 140.998 72.858,140.745 75.433,140.554 80.557 C 140.190 90.321,142.614 89.254,120.878 89.220 C 97.426 89.184,85.097 89.709,83.707 90.801 C 83.149 91.241,82.480 91.600,82.221 91.600 C 81.582 91.600,80.306 93.390,79.263 95.751 C 78.482 97.516,78.400 98.396,78.400 104.981 L 78.400 112.261 77.367 113.230 C 76.388 114.150,76.061 114.202,71.067 114.244 L 65.800 114.288 65.694 125.544 L 65.588 136.800 71.894 136.801 C 84.999 136.805,89.574 137.188,90.333 138.346 C 90.950 139.288,91.015 146.733,91.200 237.441 C 91.383 327.392,91.454 335.578,92.053 336.258 C 92.412 336.666,92.833 337.450,92.990 338.000 C 93.407 339.468,94.812 342.360,95.235 342.621 C 95.436 342.746,95.600 343.109,95.600 343.430 C 95.600 344.855,101.217 351.179,105.061 354.081 C 106.237 354.969,107.200 355.854,107.200 356.048 C 107.200 356.242,107.610 356.400,108.111 356.400 C 108.612 356.400,109.330 356.760,109.707 357.200 C 110.084 357.640,110.825 358.000,111.353 358.000 C 111.882 358.000,112.409 358.247,112.525 358.550 C 112.641 358.852,113.571 359.225,114.591 359.378 C 115.618 359.532,116.545 359.911,116.666 360.228 C 117.074 361.290,286.538 361.064,287.891 360.000 C 288.450 359.560,289.404 359.200,290.011 359.200 C 290.623 359.200,291.217 358.933,291.345 358.600 C 291.471 358.270,292.036 358.000,292.600 358.000 C 293.164 358.000,293.726 357.737,293.850 357.415 C 293.973 357.094,294.440 356.714,294.887 356.572 C 298.791 355.333,306.863 347.117,308.908 342.300 C 309.165 341.695,309.508 341.200,309.670 341.200 C 309.831 341.200,310.081 340.576,310.224 339.814 C 310.367 339.052,310.735 338.220,311.042 337.965 C 311.349 337.710,311.601 337.119,311.601 336.651 C 311.602 336.183,311.962 335.211,312.401 334.490 C 313.194 333.191,313.200 332.416,313.200 235.852 C 313.200 142.319,313.228 138.498,313.926 137.867 C 314.550 137.303,316.304 137.171,326.277 136.941 L 337.902 136.674 338.195 125.901 C 338.383 119.009,338.348 114.988,338.098 114.738 C 337.882 114.522,335.416 114.313,332.617 114.273 C 325.789 114.175,326.000 114.433,326.000 106.201 C 326.000 101.560,325.856 99.816,325.402 98.946 C 325.074 98.316,324.804 97.162,324.802 96.382 C 324.800 95.048,322.316 91.600,321.357 91.600 C 321.189 91.600,320.667 91.239,320.197 90.797 C 319.023 89.695,307.867 89.212,283.380 89.205 C 269.593 89.201,264.839 89.079,264.480 88.720 C 264.152 88.392,264.000 86.454,264.000 82.605 C 264.000 77.759,263.888 76.749,263.200 75.400 C 262.738 74.495,262.400 73.041,262.400 71.964 C 262.400 70.869,262.173 69.909,261.850 69.641 C 261.547 69.390,261.182 68.445,261.037 67.542 C 260.893 66.638,260.510 65.521,260.187 65.060 C 259.864 64.599,259.600 63.924,259.600 63.560 C 259.600 63.196,259.330 62.674,259.000 62.400 C 258.670 62.126,258.400 61.652,258.400 61.347 C 258.400 61.042,257.410 59.454,256.200 57.817 C 254.990 56.181,254.000 54.760,254.000 54.658 C 254.000 53.925,246.092 46.800,245.278 46.800 C 245.083 46.800,244.598 46.440,244.200 46.000 C 243.802 45.560,243.262 45.200,243.000 45.200 C 242.738 45.200,242.198 44.840,241.800 44.400 C 241.402 43.960,240.673 43.600,240.181 43.600 C 239.688 43.600,239.182 43.330,239.055 43.000 C 238.929 42.670,238.394 42.400,237.866 42.400 C 237.339 42.400,236.450 42.040,235.891 41.600 C 235.331 41.160,234.286 40.800,233.568 40.800 C 232.850 40.800,231.915 40.485,231.490 40.100 C 230.681 39.368,184.114 38.909,175.718 39.549 M226.338 63.755 C 226.922 64.060,227.850 64.509,228.400 64.752 C 231.620 66.176,237.600 72.570,237.600 74.590 C 237.600 75.001,237.907 75.676,238.282 76.091 C 239.824 77.794,239.182 83.978,237.568 82.980 C 237.361 82.852,237.200 83.726,237.200 84.976 C 237.200 86.199,237.349 87.200,237.531 87.200 C 237.713 87.200,237.782 86.658,237.685 85.996 C 237.485 84.633,238.176 83.539,239.029 83.867 C 240.244 84.333,239.224 88.913,237.821 89.287 C 235.641 89.870,165.080 88.924,164.628 88.306 C 163.942 87.367,164.264 79.751,165.042 78.514 C 165.349 78.027,165.600 77.181,165.600 76.635 C 165.600 75.613,167.169 72.339,168.212 71.187 C 168.535 70.830,168.800 70.361,168.800 70.146 C 168.800 69.409,172.601 66.199,174.600 65.249 C 175.700 64.726,177.050 64.068,177.600 63.786 C 179.132 63.001,224.840 62.972,226.338 63.755 M167.309 84.000 C 167.309 84.990,167.387 85.395,167.482 84.900 C 167.578 84.405,167.578 83.595,167.482 83.100 C 167.387 82.605,167.309 83.010,167.309 84.000 M67.700 111.497 C 69.185 111.574,71.615 111.574,73.100 111.497 C 74.585 111.420,73.370 111.357,70.400 111.357 C 67.430 111.357,66.215 111.420,67.700 111.497 M333.583 111.494 C 337.873 111.583,339.873 111.772,340.114 112.111 C 340.364 112.464,340.415 112.433,340.298 112.000 C 340.161 111.500,339.078 111.397,333.767 111.383 L 327.400 111.367 333.583 111.494 M289.982 138.268 L 290.822 139.336 290.611 170.368 C 290.494 187.436,290.289 224.170,290.154 252.000 C 290.019 279.830,289.794 308.818,289.654 316.417 L 289.400 330.234 288.014 332.017 C 286.408 334.083,284.896 335.600,284.441 335.600 C 284.267 335.600,283.798 335.960,283.400 336.400 C 283.002 336.840,282.378 337.200,282.014 337.200 C 281.651 337.200,281.004 337.464,280.576 337.787 C 279.401 338.676,124.199 338.676,123.024 337.787 C 122.596 337.464,121.930 337.200,121.543 337.200 C 119.706 337.200,115.332 331.893,114.592 328.766 C 113.533 324.296,113.114 139.801,114.159 138.207 L 114.818 137.200 201.980 137.200 L 289.142 137.200 289.982 138.268 M216.196 238.000 C 216.196 279.250,216.243 296.125,216.300 275.500 C 216.357 254.875,216.357 221.125,216.300 200.500 C 216.243 179.875,216.196 196.750,216.196 238.000 M153.300 163.900 L 140.800 164.011 140.800 237.806 L 140.800 311.600 153.400 311.600 L 166.000 311.600 166.000 237.600 C 166.000 196.900,165.955 163.642,165.900 163.694 C 165.845 163.746,160.175 163.838,153.300 163.900 M240.670 164.064 C 240.312 164.265,240.224 181.881,240.302 237.970 L 240.404 311.612 251.608 311.506 L 262.811 311.400 262.808 237.800 L 262.805 164.200 251.973 164.000 C 246.015 163.890,240.929 163.919,240.670 164.064 M190.000 237.794 L 190.000 311.600 201.801 311.600 L 213.602 311.600 213.501 237.900 L 213.400 164.200 201.700 164.094 L 190.000 163.988 190.000 237.794 M165.501 237.412 C 165.557 277.202,165.452 309.908,165.268 310.092 C 163.536 311.824,163.600 314.619,163.600 237.591 C 163.600 163.433,163.577 164.611,165.000 164.967 C 165.264 165.033,165.434 189.600,165.501 237.412 " stroke="none" fill="#040404" fill-rule="evenodd"></path><path id="path1" d="M171.881 37.769 C 171.486 38.069,170.807 38.222,170.371 38.108 C 169.871 37.978,169.308 38.214,168.843 38.751 C 168.349 39.320,167.636 39.600,166.680 39.600 C 165.605 39.600,165.191 39.797,165.000 40.400 C 164.837 40.913,164.395 41.200,163.768 41.200 C 162.765 41.200,161.468 41.797,160.467 42.720 C 160.157 43.005,159.401 43.340,158.787 43.463 C 158.144 43.591,157.586 44.012,157.470 44.454 C 157.359 44.877,157.118 45.196,156.934 45.164 C 156.040 45.007,155.535 45.254,155.728 45.756 C 155.845 46.062,155.562 46.720,155.098 47.218 L 154.254 48.123 155.403 47.835 C 156.035 47.676,156.854 47.199,157.223 46.773 C 157.592 46.348,158.002 46.000,158.133 46.000 C 158.400 46.000,163.125 43.048,163.883 42.408 C 164.149 42.184,164.710 42.000,165.129 42.000 C 165.549 42.000,166.350 41.640,166.909 41.200 C 167.469 40.760,168.393 40.400,168.963 40.400 C 169.533 40.400,170.360 40.040,170.800 39.600 C 171.586 38.814,172.133 38.800,201.629 38.800 C 230.013 38.800,231.651 38.762,231.524 38.100 C 231.340 37.147,173.124 36.824,171.881 37.769 M232.636 38.651 C 232.333 39.441,233.436 40.369,234.700 40.387 C 235.699 40.401,235.941 39.301,235.120 38.480 C 234.427 37.787,232.928 37.890,232.636 38.651 M236.534 40.227 C 236.204 41.087,236.950 41.733,237.919 41.426 C 238.473 41.250,238.655 40.931,238.512 40.386 C 238.267 39.448,236.876 39.336,236.534 40.227 M239.884 42.000 C 240.094 42.802,241.600 43.154,241.600 42.400 C 241.600 42.180,241.409 42.000,241.176 42.000 C 240.943 42.000,240.864 41.820,241.000 41.600 C 241.136 41.380,240.893 41.200,240.461 41.200 C 239.872 41.200,239.727 41.400,239.884 42.000 M242.552 42.981 C 242.270 43.715,242.680 44.400,243.401 44.400 C 243.705 44.400,244.190 44.715,244.477 45.100 C 244.765 45.485,245.533 46.070,246.185 46.400 C 247.507 47.070,254.800 53.902,254.800 54.471 C 254.800 54.670,254.979 55.051,255.197 55.317 C 257.116 57.654,258.802 60.067,258.809 60.488 C 258.814 60.770,259.170 61.450,259.600 62.000 C 260.030 62.550,260.386 63.191,260.391 63.425 C 260.396 63.659,260.760 64.595,261.200 65.506 C 261.640 66.416,262.000 67.530,262.000 67.981 C 262.000 68.431,262.164 68.800,262.365 68.800 C 262.566 68.800,262.845 69.565,262.986 70.500 C 263.527 74.086,263.644 74.400,264.432 74.400 C 265.043 74.400,265.200 74.114,265.200 73.000 C 265.200 72.230,265.020 71.600,264.800 71.600 C 264.580 71.600,264.400 71.075,264.400 70.433 C 264.400 69.792,264.175 69.185,263.900 69.086 C 263.506 68.943,263.503 68.730,263.883 68.085 C 264.285 67.403,264.234 67.097,263.583 66.269 C 263.152 65.722,262.800 64.809,262.800 64.240 C 262.800 63.640,262.465 62.997,262.000 62.707 C 261.514 62.404,261.200 61.774,261.200 61.104 C 261.200 60.399,260.987 60.000,260.612 60.000 C 260.284 60.000,259.531 58.944,258.912 57.614 C 258.300 56.302,257.575 55.222,257.300 55.214 C 257.025 55.206,256.800 55.057,256.800 54.881 C 256.800 54.088,251.402 48.271,250.300 47.876 C 249.915 47.738,249.600 47.349,249.600 47.013 C 249.600 46.667,249.252 46.400,248.800 46.400 C 248.350 46.400,248.000 46.133,248.000 45.790 C 248.000 45.455,247.550 45.009,247.000 44.800 C 246.450 44.591,246.000 44.205,246.000 43.943 C 246.000 43.681,245.885 43.581,245.745 43.722 C 245.605 43.862,244.992 43.622,244.383 43.188 C 243.060 42.246,242.843 42.222,242.552 42.981 M152.112 48.700 C 151.967 49.085,151.343 49.877,150.725 50.460 C 149.432 51.679,149.282 52.400,150.322 52.400 C 151.320 52.400,153.600 49.953,153.600 48.881 C 153.600 47.821,152.493 47.686,152.112 48.700 M147.291 53.792 C 146.801 54.252,146.400 55.044,146.400 55.552 C 146.400 56.138,146.109 56.551,145.600 56.684 C 145.157 56.800,144.800 57.230,144.800 57.647 C 144.800 58.061,144.544 58.400,144.232 58.400 C 143.914 58.400,143.542 58.973,143.387 59.700 C 143.235 60.415,142.877 61.270,142.592 61.600 C 142.306 61.930,142.012 62.650,141.936 63.200 C 141.861 63.755,141.536 64.200,141.207 64.200 C 140.781 64.200,140.575 64.762,140.475 66.200 C 140.398 67.300,140.170 68.371,139.968 68.580 C 139.766 68.789,139.600 69.646,139.600 70.485 C 139.600 71.324,139.392 72.413,139.138 72.905 C 138.883 73.397,138.523 74.113,138.338 74.495 C 137.920 75.354,137.887 81.602,138.300 81.594 C 139.173 81.576,139.485 80.592,139.938 76.419 C 140.212 73.900,140.580 71.650,140.756 71.419 C 140.932 71.189,141.310 70.100,141.597 69.000 C 141.883 67.900,142.271 66.829,142.459 66.620 C 142.647 66.411,142.800 65.818,142.800 65.303 C 142.800 64.788,143.160 63.980,143.600 63.508 C 144.040 63.036,144.400 62.233,144.400 61.725 C 144.400 61.216,144.552 60.800,144.737 60.800 C 144.923 60.800,145.487 59.998,145.991 59.018 C 146.495 58.037,147.224 56.895,147.611 56.480 C 148.271 55.772,149.600 53.476,149.600 53.045 C 149.600 52.552,148.092 53.040,147.291 53.792 M180.300 64.065 C 179.126 64.494,179.020 64.698,179.546 65.527 C 179.805 65.935,180.772 65.993,183.840 65.787 C 191.250 65.288,208.910 65.150,209.347 65.587 C 210.094 66.334,224.665 66.129,224.957 65.367 C 225.309 64.449,225.333 64.475,223.700 64.021 C 221.705 63.467,181.827 63.507,180.300 64.065 M174.600 66.021 C 172.684 67.239,169.600 70.074,169.600 70.617 C 169.600 71.641,170.677 71.475,171.425 70.337 C 171.853 69.686,172.693 69.055,173.300 68.929 C 173.905 68.803,174.400 68.453,174.400 68.150 C 174.400 67.806,174.848 67.600,175.600 67.600 C 176.411 67.600,176.800 67.401,176.800 66.987 C 176.800 66.651,177.070 66.271,177.400 66.145 C 177.730 66.018,178.000 65.754,178.000 65.557 C 178.000 64.935,175.847 65.229,174.600 66.021 M227.063 65.780 C 226.712 66.694,227.205 67.658,227.950 67.514 C 228.341 67.439,228.600 66.995,228.600 66.400 C 228.600 65.274,227.437 64.805,227.063 65.780 M229.506 67.281 C 229.307 67.878,230.398 69.200,231.089 69.200 C 231.370 69.200,231.555 69.418,231.500 69.685 C 231.445 69.952,231.805 70.355,232.300 70.580 C 232.795 70.805,233.200 71.324,233.200 71.732 C 233.200 72.141,233.560 72.569,234.000 72.684 C 234.562 72.831,234.800 73.230,234.800 74.024 C 234.800 74.742,235.128 75.386,235.700 75.789 C 236.463 76.326,236.509 76.480,236.000 76.800 C 235.480 77.127,235.520 77.405,236.301 78.889 C 236.797 79.830,237.202 81.005,237.201 81.500 C 237.200 82.732,237.854 82.636,238.175 81.358 C 238.492 80.095,238.047 76.800,237.559 76.800 C 237.367 76.800,237.096 76.088,236.957 75.218 C 236.817 74.349,236.365 73.331,235.952 72.956 C 235.538 72.582,235.200 72.084,235.200 71.850 C 235.200 70.472,229.869 66.194,229.506 67.281 M168.711 72.113 C 166.436 73.939,163.521 86.762,165.151 87.770 C 166.081 88.345,166.927 86.816,166.852 84.696 C 166.811 83.539,166.975 82.539,167.231 82.381 C 167.563 82.176,167.565 81.882,167.240 81.275 C 166.949 80.730,166.935 80.364,167.199 80.201 C 167.420 80.064,167.600 79.434,167.600 78.800 C 167.600 78.166,167.780 77.536,168.000 77.400 C 168.220 77.264,168.400 76.616,168.400 75.960 C 168.400 75.303,168.760 74.380,169.200 73.908 C 170.457 72.559,170.044 71.043,168.711 72.113 M264.489 82.295 C 264.587 87.159,264.680 87.805,265.300 87.924 C 266.176 88.092,266.382 78.142,265.520 77.280 C 264.519 76.279,264.381 76.953,264.489 82.295 M84.400 88.000 C 84.083 88.440,83.395 88.800,82.872 88.800 C 82.331 88.800,81.438 89.317,80.800 90.000 C 80.183 90.660,79.493 91.200,79.266 91.200 C 79.040 91.200,78.740 91.560,78.600 92.000 C 78.460 92.440,78.107 92.800,77.816 92.800 C 77.166 92.800,76.800 93.681,76.800 95.247 C 76.800 95.897,76.512 96.867,76.161 97.403 C 75.506 98.404,75.523 103.638,76.193 107.317 C 76.367 108.271,76.298 109.041,76.007 109.391 C 75.518 109.981,76.076 111.600,76.770 111.600 C 76.957 111.600,77.214 109.035,77.340 105.900 C 77.767 95.302,78.152 94.208,82.847 90.251 C 83.203 89.952,84.013 89.601,84.647 89.472 C 88.029 88.784,88.606 88.561,88.718 87.900 C 88.900 86.811,85.195 86.897,84.400 88.000 M315.713 87.956 C 315.635 88.995,318.342 89.604,319.574 88.824 C 320.601 88.175,319.318 87.200,317.436 87.200 C 316.090 87.200,315.759 87.345,315.713 87.956 M320.800 89.586 C 320.800 90.018,321.205 90.587,321.700 90.851 C 323.005 91.546,324.773 93.641,325.032 94.800 C 325.481 96.810,326.002 97.658,326.704 97.523 C 327.732 97.324,327.764 94.536,326.741 94.269 C 326.299 94.153,326.000 93.715,326.000 93.183 C 326.000 92.219,324.305 90.400,323.406 90.400 C 323.103 90.400,322.740 90.040,322.600 89.600 C 322.264 88.542,320.800 88.530,320.800 89.586 M326.800 106.200 C 326.800 111.680,326.898 112.800,327.376 112.800 C 328.121 112.800,328.687 111.896,328.071 111.690 C 327.738 111.579,327.600 109.787,327.600 105.567 C 327.600 101.856,327.449 99.600,327.200 99.600 C 326.949 99.600,326.800 102.067,326.800 106.200 M63.429 111.829 C 62.474 112.783,62.478 138.991,63.433 139.357 C 64.237 139.666,72.124 139.588,77.600 139.218 C 81.062 138.984,81.343 138.922,79.197 138.867 C 77.766 138.830,75.966 138.615,75.197 138.388 C 74.429 138.162,71.925 137.899,69.634 137.805 C 66.841 137.689,65.353 137.462,65.122 137.116 C 64.933 136.832,64.828 130.885,64.889 123.900 C 65.004 110.759,64.949 110.308,63.429 111.829 M339.054 137.080 C 338.891 137.243,336.202 137.621,333.079 137.921 C 322.497 138.937,322.313 138.998,328.800 139.350 C 338.215 139.860,340.197 139.666,340.199 138.235 C 340.200 137.084,339.628 136.506,339.054 137.080 M114.572 138.929 C 114.200 139.899,114.720 318.511,115.103 321.400 C 115.307 322.940,115.502 323.900,115.537 323.533 C 115.572 323.167,115.825 322.792,116.100 322.700 C 116.650 322.516,116.885 141.583,116.337 140.400 C 116.184 140.070,115.961 139.485,115.842 139.100 C 115.586 138.274,114.861 138.177,114.572 138.929 M314.134 138.880 C 313.874 139.220,313.700 173.097,313.630 236.773 C 313.537 320.989,313.444 334.266,312.943 335.031 C 312.298 336.015,312.598 338.133,313.348 337.885 C 313.596 337.802,313.959 337.209,314.153 336.567 C 314.348 335.925,314.645 335.040,314.813 334.600 C 314.981 334.160,315.319 333.260,315.563 332.600 C 316.362 330.439,315.971 139.799,315.166 138.994 C 314.653 138.482,314.455 138.460,314.134 138.880 M140.400 161.394 C 140.400 161.727,140.076 162.000,139.680 162.000 C 137.943 162.000,138.000 159.422,138.000 237.662 L 138.000 312.364 139.018 313.382 L 140.036 314.400 152.390 314.400 C 165.101 314.400,166.000 314.292,166.000 312.771 C 166.000 312.551,160.906 312.400,153.449 312.400 C 143.374 312.400,140.809 312.293,140.448 311.858 C 140.117 311.459,140.025 291.690,140.099 237.358 L 140.200 163.400 152.900 163.294 C 163.821 163.204,165.600 163.106,165.600 162.594 C 165.600 162.227,165.218 162.000,164.600 162.000 C 164.013 162.000,163.641 161.793,163.700 161.500 C 163.778 161.111,161.202 160.976,152.100 160.894 C 141.868 160.801,140.400 160.864,140.400 161.394 M187.467 161.067 C 187.320 161.213,187.200 195.773,187.200 237.867 L 187.200 314.400 201.600 314.400 C 212.853 314.400,216.000 314.291,216.000 313.900 C 216.003 290.627,216.005 161.982,216.003 161.500 C 216.000 160.780,188.176 160.358,187.467 161.067 M240.145 161.400 C 240.315 161.844,240.088 162.000,239.267 162.000 C 238.658 162.000,237.944 162.216,237.680 162.480 C 237.310 162.850,237.200 180.136,237.200 237.853 L 237.200 312.746 238.362 313.573 C 239.475 314.365,240.032 314.400,251.588 314.400 C 263.858 314.400,265.200 314.251,265.200 312.886 C 265.200 312.250,264.331 312.210,253.372 312.336 C 246.866 312.411,241.106 312.363,240.571 312.228 L 239.598 311.984 239.699 237.692 L 239.800 163.400 252.500 163.400 C 264.329 163.400,265.200 163.352,265.200 162.700 C 265.200 162.195,264.878 162.000,264.043 162.000 C 263.383 162.000,262.787 161.742,262.655 161.400 C 262.458 160.886,260.806 160.800,251.170 160.800 C 241.329 160.800,239.943 160.875,240.145 161.400 M214.157 163.833 C 214.919 165.818,214.397 311.574,213.626 311.986 C 212.467 312.606,190.305 312.545,189.680 311.920 C 189.171 311.411,188.937 165.151,189.443 163.833 C 189.811 162.872,213.789 162.872,214.157 163.833 M288.000 301.577 C 288.000 315.005,287.969 315.576,287.216 316.104 C 286.490 316.613,286.432 317.153,286.432 323.524 L 286.432 330.395 285.016 331.695 C 284.237 332.410,283.600 333.209,283.600 333.471 C 283.600 333.733,283.105 334.004,282.500 334.073 C 281.709 334.164,281.433 334.397,281.518 334.900 C 281.598 335.377,281.374 335.600,280.818 335.600 C 280.368 335.600,280.000 335.780,280.000 336.000 C 280.000 336.669,282.350 336.446,283.162 335.700 C 283.581 335.315,284.398 334.671,284.979 334.269 C 285.559 333.867,286.646 332.607,287.396 331.469 L 288.758 329.400 288.809 309.000 C 288.868 285.456,288.909 287.600,288.400 287.600 C 288.141 287.600,288.000 292.526,288.000 301.577 M115.700 326.287 C 114.216 326.820,116.103 331.886,118.600 334.073 C 119.731 335.063,120.128 334.964,119.827 333.766 C 119.562 332.709,119.279 332.287,117.700 330.599 C 117.078 329.934,116.800 329.144,116.800 328.042 C 116.800 326.385,116.548 325.983,115.700 326.287 M88.800 334.373 C 88.800 335.595,88.979 336.003,89.600 336.200 C 90.195 336.389,90.400 336.805,90.400 337.827 C 90.400 338.582,90.580 339.200,90.800 339.200 C 91.020 339.200,91.200 339.626,91.200 340.146 C 91.200 340.666,91.560 341.550,92.000 342.109 C 92.440 342.669,92.800 343.418,92.800 343.776 C 92.800 344.133,93.070 344.529,93.400 344.655 C 93.730 344.782,94.000 345.158,94.000 345.491 C 94.000 346.142,96.040 349.561,96.443 349.585 C 96.577 349.593,97.656 350.500,98.840 351.600 C 100.024 352.700,101.219 353.600,101.496 353.600 C 101.773 353.600,102.000 353.960,102.000 354.400 C 102.000 354.918,102.267 355.200,102.757 355.200 C 103.174 355.200,103.618 355.470,103.745 355.800 C 103.871 356.130,104.357 356.400,104.825 356.400 C 105.308 356.400,105.756 356.712,105.864 357.123 C 106.144 358.195,111.205 360.677,112.080 360.172 C 112.366 360.007,112.465 360.021,112.299 360.203 C 111.785 360.770,113.265 362.000,114.462 362.000 C 115.312 362.000,115.600 361.808,115.600 361.243 C 115.600 360.456,114.865 360.000,113.596 360.000 C 113.190 360.000,112.560 359.703,112.197 359.340 C 111.834 358.977,111.011 358.695,110.369 358.713 C 109.596 358.735,109.200 358.549,109.200 358.163 C 109.200 357.843,108.788 357.423,108.284 357.232 C 107.780 357.040,107.127 356.595,106.835 356.242 C 106.542 355.889,105.976 355.600,105.578 355.600 C 105.180 355.600,104.740 355.240,104.600 354.800 C 104.460 354.360,104.113 354.000,103.829 354.000 C 103.188 354.000,97.209 347.761,96.432 346.281 C 96.120 345.687,95.715 345.200,95.532 345.200 C 95.350 345.200,95.200 344.868,95.200 344.462 C 95.200 344.056,94.840 343.398,94.400 343.000 C 93.960 342.602,93.600 342.031,93.600 341.733 C 93.600 341.434,93.430 340.877,93.221 340.495 C 91.980 338.217,90.886 335.583,90.643 334.289 C 90.229 332.081,88.800 332.146,88.800 334.373 M121.055 334.600 C 120.706 335.510,121.194 336.400,122.043 336.400 C 122.932 336.400,122.943 336.351,122.336 335.019 C 121.809 333.862,121.391 333.726,121.055 334.600 M125.089 336.382 C 124.915 337.046,125.164 337.212,126.742 337.482 C 129.256 337.912,273.067 337.890,276.592 337.458 L 279.384 337.117 278.448 336.358 C 276.952 335.147,125.406 335.171,125.089 336.382 M311.800 338.706 C 311.308 339.067,309.597 342.435,309.599 343.038 C 309.600 343.279,309.240 343.802,308.800 344.200 C 308.360 344.598,307.999 345.121,307.999 345.362 C 307.995 346.398,301.515 353.251,298.905 354.978 C 297.092 356.178,296.498 357.162,297.286 357.662 C 298.099 358.178,298.459 358.060,298.683 357.204 C 298.797 356.767,299.031 356.495,299.201 356.601 C 299.372 356.706,300.251 356.074,301.156 355.196 C 302.061 354.318,302.912 353.600,303.047 353.600 C 303.593 353.600,307.600 348.952,307.600 348.319 C 307.600 348.143,307.870 348.000,308.200 348.000 C 308.530 348.000,308.800 347.661,308.800 347.247 C 308.800 346.830,309.157 346.400,309.600 346.284 C 310.199 346.127,310.400 345.738,310.400 344.734 C 310.400 343.826,310.658 343.231,311.200 342.893 C 311.640 342.618,312.000 342.045,312.000 341.620 C 312.000 341.195,312.180 340.736,312.400 340.600 C 312.862 340.315,312.949 338.397,312.500 338.406 C 312.335 338.409,312.020 338.544,311.800 338.706 M294.800 358.200 C 294.800 359.249,295.523 359.517,296.289 358.751 C 296.910 358.130,296.472 357.200,295.557 357.200 C 295.016 357.200,294.800 357.486,294.800 358.200 M291.819 359.169 C 291.694 359.372,291.051 359.657,290.391 359.802 C 289.732 359.947,288.891 360.366,288.524 360.733 C 287.906 361.352,281.675 361.400,202.629 361.400 C 146.272 361.400,117.300 361.536,117.106 361.800 C 116.944 362.020,116.809 362.335,116.806 362.500 C 116.797 362.948,287.472 362.875,288.305 362.426 C 288.687 362.221,289.585 361.817,290.300 361.529 C 291.015 361.240,291.600 360.869,291.600 360.702 C 291.600 360.536,291.960 360.400,292.400 360.400 C 292.933 360.400,293.200 360.133,293.200 359.600 C 293.200 358.790,292.239 358.490,291.819 359.169 " stroke="none" fill="#7f7f7f" fill-rule="evenodd"></path><path id="path2" d="M231.600 38.226 C 231.600 38.827,232.454 39.932,233.089 40.154 C 233.768 40.391,233.768 40.377,233.093 39.852 C 232.674 39.525,232.488 39.037,232.636 38.651 C 232.803 38.216,232.672 38.000,232.243 38.000 C 231.889 38.000,231.600 38.102,231.600 38.226 M170.700 39.633 C 169.968 40.435,170.313 40.727,171.083 39.957 C 171.327 39.713,172.128 39.372,172.863 39.198 L 174.200 38.882 172.800 38.874 C 171.923 38.870,171.139 39.153,170.700 39.633 M235.600 39.976 C 235.600 40.647,236.309 40.813,236.546 40.198 C 236.685 39.835,236.544 39.600,236.187 39.600 C 235.864 39.600,235.600 39.769,235.600 39.976 M239.728 42.195 C 239.775 42.662,240.138 43.025,240.605 43.072 C 241.181 43.132,241.214 43.099,240.725 42.952 C 240.353 42.842,239.958 42.447,239.848 42.075 C 239.701 41.586,239.668 41.619,239.728 42.195 M164.000 42.272 C 164.000 42.495,163.595 42.873,163.100 43.112 C 162.605 43.351,162.391 43.558,162.624 43.573 C 163.296 43.616,164.630 42.496,164.299 42.166 C 164.135 42.001,164.000 42.049,164.000 42.272 M253.000 52.800 C 253.859 53.680,254.652 54.400,254.762 54.400 C 254.872 54.400,254.259 53.680,253.400 52.800 C 252.541 51.920,251.748 51.200,251.638 51.200 C 251.528 51.200,252.141 51.920,253.000 52.800 M149.393 52.788 C 149.525 53.002,149.351 53.722,149.006 54.388 C 148.661 55.055,148.469 55.600,148.579 55.600 C 148.689 55.600,149.079 55.015,149.446 54.300 C 149.812 53.585,150.312 52.868,150.556 52.706 C 150.811 52.537,150.608 52.410,150.076 52.406 C 149.568 52.403,149.261 52.575,149.393 52.788 M179.400 64.090 C 178.960 64.346,177.970 64.680,177.200 64.832 C 175.964 65.076,175.929 65.113,176.900 65.154 C 177.505 65.179,178.003 65.425,178.006 65.700 C 178.010 66.033,178.142 66.000,178.400 65.600 C 178.658 65.200,178.790 65.167,178.794 65.500 C 178.797 65.775,178.992 66.000,179.227 66.000 C 179.465 66.000,179.547 65.662,179.412 65.238 C 179.229 64.660,179.439 64.378,180.285 64.070 C 180.898 63.846,181.130 63.654,180.800 63.644 C 180.470 63.633,179.840 63.834,179.400 64.090 M223.922 64.053 C 225.027 64.372,225.204 64.578,225.002 65.317 C 224.778 66.141,224.793 66.149,225.237 65.436 C 225.797 64.535,224.829 63.575,223.424 63.636 C 222.882 63.660,223.052 63.802,223.922 64.053 M171.400 68.235 L 170.200 69.266 171.500 68.406 C 172.215 67.933,172.800 67.468,172.800 67.373 C 172.800 67.073,172.631 67.178,171.400 68.235 M169.200 70.840 C 169.200 71.100,168.885 71.567,168.500 71.878 C 167.853 72.402,167.860 72.415,168.600 72.062 C 169.040 71.851,169.550 71.676,169.733 71.673 C 170.324 71.662,170.332 71.412,169.760 70.884 C 169.355 70.511,169.200 70.499,169.200 70.840 M139.701 78.600 C 139.705 79.480,139.787 79.793,139.883 79.295 C 139.979 78.798,139.975 78.078,139.875 77.695 C 139.775 77.313,139.696 77.720,139.701 78.600 M138.500 81.465 C 137.846 81.729,137.830 86.070,138.480 86.720 C 139.375 87.615,139.543 87.206,139.512 84.200 C 139.494 82.550,139.372 81.214,139.240 81.232 C 139.108 81.249,138.775 81.354,138.500 81.465 M88.669 87.763 C 88.444 88.350,88.704 88.800,89.267 88.800 C 89.713 88.800,89.694 87.705,89.242 87.426 C 89.045 87.304,88.787 87.456,88.669 87.763 M314.400 87.528 C 313.413 87.975,313.515 88.800,314.557 88.800 C 315.476 88.800,316.204 87.937,315.706 87.439 C 315.420 87.153,315.193 87.169,314.400 87.528 M316.600 89.181 C 317.368 89.529,319.510 89.756,319.167 89.453 C 319.075 89.372,318.280 89.196,317.400 89.062 C 316.285 88.893,316.042 88.929,316.600 89.181 M325.200 96.644 C 325.200 97.276,326.097 98.000,326.880 98.000 C 327.276 98.000,327.600 97.826,327.600 97.613 C 327.600 97.399,327.304 97.339,326.942 97.478 C 326.539 97.632,326.074 97.442,325.742 96.989 C 325.444 96.581,325.200 96.425,325.200 96.644 M77.459 101.088 C 77.321 101.919,77.232 103.770,77.260 105.200 C 77.306 107.511,77.348 107.358,77.640 103.817 C 77.979 99.700,77.895 98.446,77.459 101.088 M75.600 107.357 C 75.600 108.908,75.741 109.560,76.036 109.378 C 76.303 109.213,76.387 108.408,76.251 107.302 C 75.930 104.682,75.600 104.709,75.600 107.357 M77.264 110.267 C 77.229 110.963,76.975 111.614,76.700 111.712 C 76.425 111.810,76.338 112.038,76.507 112.219 C 77.073 112.825,77.660 111.714,77.493 110.351 L 77.328 109.000 77.264 110.267 M338.800 112.800 C 338.800 113.020,339.070 113.200,339.400 113.200 C 339.730 113.200,340.000 113.020,340.000 112.800 C 340.000 112.580,339.730 112.400,339.400 112.400 C 339.070 112.400,338.800 112.580,338.800 112.800 M338.576 137.022 C 337.832 137.618,337.838 137.626,338.708 137.204 C 339.208 136.961,339.821 136.889,340.070 137.043 C 340.348 137.215,340.413 137.145,340.238 136.862 C 339.857 136.245,339.503 136.279,338.576 137.022 M72.800 138.036 C 74.010 138.235,76.530 138.533,78.400 138.699 L 81.800 139.000 78.000 139.222 C 75.041 139.395,75.816 139.455,81.500 139.495 C 88.558 139.544,88.800 139.519,88.800 138.743 C 88.800 138.011,88.544 137.943,85.900 137.965 C 84.305 137.978,80.210 137.918,76.800 137.832 C 72.196 137.714,71.166 137.767,72.800 138.036 M322.200 137.979 C 321.540 138.135,320.425 138.182,319.722 138.083 C 317.439 137.761,314.667 138.357,315.239 139.047 C 315.593 139.474,315.809 139.510,316.015 139.176 C 316.221 138.842,316.376 138.837,316.574 139.157 C 316.757 139.455,318.841 139.576,322.924 139.528 C 327.609 139.472,328.313 139.404,326.000 139.228 L 323.000 139.000 325.800 138.663 C 327.340 138.478,329.770 138.191,331.200 138.026 C 333.404 137.772,333.007 137.723,328.600 137.710 C 325.740 137.702,322.860 137.822,322.200 137.979 M115.600 138.600 C 115.874 138.930,116.278 139.200,116.498 139.200 C 116.721 139.200,116.678 138.935,116.400 138.600 C 116.126 138.270,115.722 138.000,115.502 138.000 C 115.279 138.000,115.322 138.265,115.600 138.600 M117.276 138.700 C 117.404 139.364,121.856 139.405,203.105 139.501 C 259.770 139.568,288.800 139.737,288.800 140.001 C 288.800 140.220,288.980 140.400,289.200 140.400 C 289.883 140.400,289.640 139.529,288.739 138.747 C 287.435 137.616,117.058 137.570,117.276 138.700 M313.777 152.200 C 313.777 158.800,313.832 161.556,313.899 158.325 C 313.966 155.093,313.966 149.693,313.899 146.325 C 313.832 142.956,313.777 145.600,313.777 152.200 M214.196 237.600 C 214.196 277.750,214.243 294.175,214.300 274.100 C 214.357 254.025,214.357 221.175,214.300 201.100 C 214.243 181.025,214.196 197.450,214.196 237.600 M140.196 237.600 C 140.196 277.530,140.243 293.865,140.300 273.900 C 140.357 253.935,140.357 221.265,140.300 201.300 C 140.243 181.335,140.196 197.670,140.196 237.600 M189.396 237.600 C 189.396 277.530,189.443 293.865,189.500 273.900 C 189.557 253.935,189.557 221.265,189.500 201.300 C 189.443 181.335,189.396 197.670,189.396 237.600 M264.400 237.576 C 264.400 285.592,264.535 310.000,264.800 310.000 C 265.354 310.000,265.354 165.743,264.800 165.400 C 264.534 165.236,264.400 189.396,264.400 237.576 M89.039 255.894 C 88.255 256.678,88.810 332.800,89.600 332.800 C 90.394 332.800,90.400 332.533,90.400 294.443 C 90.400 255.320,90.373 254.560,89.039 255.894 M288.982 307.200 C 288.982 315.890,289.035 319.445,289.100 315.100 C 289.164 310.755,289.164 303.645,289.100 299.300 C 289.035 294.955,288.982 298.510,288.982 307.200 M114.632 317.800 C 114.813 325.167,115.015 326.364,116.069 326.285 C 116.772 326.232,116.785 326.178,116.201 325.751 C 115.784 325.446,115.704 325.183,115.976 325.015 C 116.497 324.693,116.543 322.800,116.029 322.800 C 115.825 322.800,115.576 323.115,115.476 323.500 C 115.375 323.885,115.249 323.300,115.196 322.200 C 114.827 314.615,114.490 311.985,114.632 317.800 M146.900 312.299 C 150.365 312.366,156.035 312.366,159.500 312.299 C 162.965 312.233,160.130 312.178,153.200 312.178 C 146.270 312.178,143.435 312.233,146.900 312.299 M195.700 312.299 C 198.945 312.366,204.255 312.366,207.500 312.299 C 210.745 312.232,208.090 312.177,201.600 312.177 C 195.110 312.177,192.455 312.232,195.700 312.299 M245.900 312.299 C 249.035 312.367,254.165 312.367,257.300 312.299 C 260.435 312.232,257.870 312.176,251.600 312.176 C 245.330 312.176,242.765 312.232,245.900 312.299 M116.554 317.600 C 116.554 320.350,116.618 321.475,116.696 320.100 C 116.774 318.725,116.774 316.475,116.696 315.100 C 116.618 313.725,116.554 314.850,116.554 317.600 M119.811 333.661 C 120.670 336.443,122.670 337.948,123.039 336.090 C 123.094 335.810,123.049 335.764,122.937 335.990 C 122.620 336.628,121.313 336.472,121.041 335.764 C 120.907 335.414,120.895 334.971,121.013 334.778 C 121.132 334.586,120.845 334.045,120.375 333.575 L 119.521 332.721 119.811 333.661 M90.658 334.400 C 90.975 336.125,91.202 336.451,91.194 335.167 C 91.191 334.635,91.011 333.930,90.794 333.600 C 90.518 333.178,90.477 333.415,90.658 334.400 M124.405 336.390 C 123.981 337.183,125.625 338.108,126.285 337.448 C 126.422 337.312,126.160 337.200,125.704 337.200 C 125.072 337.200,124.925 337.010,125.084 336.400 C 125.353 335.373,124.953 335.367,124.405 336.390 M278.442 336.376 C 279.597 337.337,280.174 337.239,271.400 337.578 L 264.200 337.857 270.200 337.911 C 273.500 337.941,277.010 337.783,278.000 337.560 C 278.990 337.338,280.430 337.006,281.200 336.824 L 282.600 336.492 281.300 336.446 C 280.585 336.421,280.000 336.258,280.000 336.085 C 280.000 335.912,279.434 335.727,278.742 335.674 L 277.485 335.579 278.442 336.376 M312.446 337.071 C 312.421 337.331,312.117 337.826,311.771 338.171 C 311.100 338.843,311.447 339.011,312.339 338.446 C 312.636 338.258,312.792 337.766,312.686 337.352 C 312.580 336.938,312.472 336.812,312.446 337.071 M130.100 337.898 C 132.025 337.971,135.175 337.971,137.100 337.898 C 139.025 337.825,137.450 337.765,133.600 337.765 C 129.750 337.765,128.175 337.825,130.100 337.898 M142.713 337.895 C 143.876 337.976,145.676 337.976,146.713 337.893 C 147.751 337.811,146.800 337.745,144.600 337.746 C 142.400 337.747,141.551 337.814,142.713 337.895 M257.116 337.897 C 258.499 337.975,260.659 337.974,261.916 337.895 C 263.172 337.816,262.040 337.752,259.400 337.753 C 256.760 337.753,255.732 337.818,257.116 337.897 M296.667 356.667 C 296.146 357.188,296.411 358.000,297.100 357.994 C 297.654 357.989,297.685 357.915,297.249 357.639 C 296.946 357.447,296.821 357.089,296.972 356.845 C 297.275 356.355,297.087 356.246,296.667 356.667 M161.132 361.500 C 183.864 361.557,220.944 361.557,243.532 361.500 C 266.119 361.443,247.520 361.396,202.200 361.396 C 156.880 361.396,138.399 361.443,161.132 361.500 " stroke="none" fill="#5c5c5c" fill-rule="evenodd"></path><path id="path3" d="M177.119 39.098 C 178.944 39.172,181.824 39.172,183.519 39.097 C 185.214 39.022,183.720 38.961,180.200 38.962 C 176.680 38.962,175.294 39.024,177.119 39.098 M224.313 39.095 C 225.476 39.176,227.276 39.176,228.313 39.093 C 229.351 39.011,228.400 38.945,226.200 38.946 C 224.000 38.947,223.151 39.014,224.313 39.095 M231.059 39.197 C 231.532 39.388,232.037 39.737,232.183 39.972 C 232.328 40.207,232.617 40.400,232.824 40.400 C 233.031 40.400,232.840 40.040,232.400 39.600 C 231.960 39.160,231.285 38.811,230.900 38.825 C 230.342 38.846,230.374 38.921,231.059 39.197 M239.319 41.959 C 239.417 43.124,240.576 43.984,241.202 43.358 C 241.501 43.059,241.364 42.943,240.738 42.967 C 240.124 42.990,239.756 42.692,239.544 42.000 C 239.239 41.000,239.239 41.000,239.319 41.959 M224.918 64.042 C 225.389 64.316,225.551 64.724,225.391 65.230 C 225.253 65.662,225.334 66.000,225.573 66.000 C 225.808 66.000,226.000 65.676,226.000 65.280 C 226.000 64.480,225.267 63.593,224.620 63.612 C 224.389 63.619,224.523 63.812,224.918 64.042 M263.301 74.400 C 263.390 74.730,263.899 75.033,264.431 75.074 C 265.195 75.132,265.231 75.101,264.600 74.928 C 264.160 74.807,263.651 74.503,263.470 74.254 C 263.251 73.954,263.194 74.004,263.301 74.400 M238.509 80.400 C 238.509 81.390,238.587 81.795,238.682 81.300 C 238.778 80.805,238.778 79.995,238.682 79.500 C 238.587 79.005,238.509 79.410,238.509 80.400 M166.909 84.000 C 166.909 84.990,166.987 85.395,167.082 84.900 C 167.178 84.405,167.178 83.595,167.082 83.100 C 166.987 82.605,166.909 83.010,166.909 84.000 M138.000 86.809 C 138.000 87.038,138.278 87.332,138.617 87.462 C 139.555 87.822,139.666 87.433,138.782 86.881 C 138.287 86.572,138.000 86.546,138.000 86.809 M89.475 87.964 C 89.609 88.476,89.432 88.790,88.937 88.920 C 88.532 89.026,89.100 89.019,90.200 88.904 C 93.399 88.572,93.667 87.221,90.537 87.206 C 89.491 87.201,89.309 87.330,89.475 87.964 M311.050 87.815 C 310.918 88.158,311.064 88.526,311.378 88.647 C 312.182 88.956,313.640 88.671,313.586 88.216 C 313.561 88.004,313.869 87.702,314.270 87.544 C 314.737 87.360,314.330 87.246,313.143 87.228 C 311.822 87.208,311.217 87.378,311.050 87.815 M326.561 106.400 C 326.561 109.810,326.622 111.205,326.697 109.500 C 326.772 107.795,326.772 105.005,326.697 103.300 C 326.622 101.595,326.561 102.990,326.561 106.400 M77.731 104.600 C 77.733 106.140,77.805 106.721,77.892 105.891 C 77.979 105.061,77.977 103.801,77.889 103.091 C 77.800 102.381,77.729 103.060,77.731 104.600 M77.577 110.769 C 77.397 112.165,76.400 113.025,76.400 111.784 C 76.400 111.268,76.273 111.208,75.878 111.536 C 75.590 111.774,73.580 112.021,71.410 112.085 C 68.554 112.168,67.416 112.348,67.288 112.735 C 67.145 113.166,68.045 113.243,71.942 113.135 C 77.346 112.984,78.186 112.621,77.908 110.554 C 77.756 109.420,77.750 109.423,77.577 110.769 M338.192 112.157 C 337.545 112.630,337.510 112.810,337.964 113.357 C 338.550 114.063,340.000 114.237,340.000 113.600 C 340.000 113.380,339.730 113.200,339.400 113.200 C 339.070 113.200,338.800 113.020,338.800 112.800 C 338.800 112.580,339.081 112.400,339.424 112.400 C 339.767 112.400,339.936 112.220,339.800 112.000 C 339.466 111.460,339.095 111.496,338.192 112.157 M330.500 112.265 C 329.169 112.802,330.308 113.200,333.176 113.200 C 336.296 113.200,337.660 112.724,335.896 112.251 C 334.836 111.967,331.215 111.976,330.500 112.265 M64.976 125.400 C 64.976 131.560,65.032 134.024,65.099 130.876 C 65.167 127.727,65.167 122.687,65.099 119.676 C 65.031 116.664,64.976 119.240,64.976 125.400 M339.265 130.217 C 339.009 130.778,338.800 132.389,338.800 133.796 C 338.800 135.987,338.672 136.444,337.911 136.977 C 336.743 137.796,337.345 137.785,338.596 136.966 C 339.129 136.617,339.721 136.427,339.911 136.545 C 340.202 136.725,340.119 129.603,339.827 129.298 C 339.774 129.242,339.521 129.656,339.265 130.217 M82.400 137.969 C 82.950 138.128,84.615 138.176,86.100 138.075 C 88.796 137.893,88.800 137.894,88.800 138.946 C 88.800 139.526,88.980 140.000,89.200 140.000 C 89.650 140.000,89.722 139.184,89.357 138.233 C 89.157 137.712,88.430 137.607,85.257 137.640 C 82.952 137.664,81.802 137.796,82.400 137.969 M116.162 138.359 C 116.696 138.948,116.732 139.164,116.324 139.327 C 116.035 139.443,116.187 139.551,116.663 139.568 C 117.334 139.593,117.479 139.423,117.316 138.800 C 117.031 137.711,287.454 137.512,288.543 138.600 C 289.440 139.497,289.836 139.324,289.000 138.400 C 288.280 137.605,287.768 137.600,201.876 137.600 C 117.076 137.600,115.489 137.614,116.162 138.359 M314.862 137.953 C 314.554 138.149,316.164 138.231,318.630 138.146 C 320.998 138.064,323.025 137.908,323.134 137.799 C 323.485 137.448,315.421 137.599,314.862 137.953 M288.043 149.381 C 287.939 159.086,288.196 163.774,288.811 163.393 C 288.988 163.284,289.223 163.421,289.334 163.698 C 289.446 163.974,289.551 158.950,289.568 152.533 C 289.586 146.116,289.707 140.536,289.838 140.133 C 290.040 139.510,290.005 139.490,289.607 140.000 C 289.254 140.453,289.089 140.478,288.936 140.100 C 288.325 138.593,288.138 140.535,288.043 149.381 M114.196 222.800 C 114.196 268.010,114.243 286.505,114.300 263.900 C 114.357 241.295,114.357 204.305,114.300 181.700 C 114.243 159.095,114.196 177.590,114.196 222.800 M116.588 184.200 C 116.588 197.180,116.638 202.432,116.700 195.871 C 116.762 189.311,116.761 178.691,116.700 172.271 C 116.638 165.852,116.587 171.220,116.588 184.200 M163.700 163.476 C 164.085 163.576,164.715 163.576,165.100 163.476 C 165.485 163.375,165.170 163.293,164.400 163.293 C 163.630 163.293,163.315 163.375,163.700 163.476 M263.200 163.800 C 263.750 164.114,264.470 164.371,264.800 164.370 C 265.130 164.369,264.794 164.106,264.054 163.784 C 262.351 163.045,261.894 163.053,263.200 163.800 M239.697 238.076 C 239.644 278.488,239.735 311.636,239.900 311.738 C 240.171 311.906,240.170 261.957,239.897 191.200 C 239.840 176.570,239.751 197.664,239.697 238.076 M263.867 165.067 C 263.376 165.557,263.552 310.400,264.043 310.400 C 264.286 310.400,264.382 310.670,264.255 311.000 C 264.115 311.365,264.255 311.600,264.613 311.600 C 264.936 311.600,265.200 311.240,265.200 310.800 C 265.200 310.360,265.020 310.000,264.800 310.000 C 264.535 310.000,264.400 285.592,264.400 237.576 C 264.400 189.396,264.534 165.236,264.800 165.400 C 265.020 165.536,265.200 165.457,265.200 165.224 C 265.200 164.755,264.286 164.648,263.867 165.067 M288.413 206.100 C 288.420 206.815,288.690 207.749,289.013 208.176 C 289.553 208.891,289.600 208.788,289.600 206.876 C 289.600 205.297,289.456 204.800,289.000 204.800 C 288.587 204.800,288.404 205.205,288.413 206.100 M89.075 211.058 C 88.269 211.865,88.787 255.829,89.603 255.890 C 90.400 255.950,90.406 255.767,90.303 233.509 C 90.204 211.929,90.100 210.033,89.075 211.058 M289.324 290.200 C 289.326 291.520,289.401 292.012,289.490 291.293 C 289.579 290.574,289.577 289.494,289.486 288.893 C 289.395 288.292,289.322 288.880,289.324 290.200 M90.586 313.400 C 90.586 324.400,90.637 328.842,90.700 323.272 C 90.763 317.702,90.762 308.702,90.700 303.272 C 90.637 297.842,90.585 302.400,90.586 313.400 M114.440 322.233 C 114.461 323.535,114.626 325.590,114.806 326.800 C 115.033 328.330,115.067 327.661,114.919 324.600 C 114.690 319.884,114.374 318.327,114.440 322.233 M116.400 323.520 C 116.400 324.136,116.208 324.832,115.973 325.067 C 115.671 325.369,115.729 325.564,116.173 325.734 C 116.685 325.931,116.800 325.646,116.800 324.187 C 116.800 323.204,116.710 322.400,116.600 322.400 C 116.490 322.400,116.400 322.904,116.400 323.520 M288.931 327.000 C 288.933 328.540,289.005 329.121,289.092 328.291 C 289.179 327.461,289.177 326.201,289.089 325.491 C 289.000 324.781,288.929 325.460,288.931 327.000 M123.127 336.000 C 122.863 336.768,124.669 338.004,126.000 337.966 C 127.065 337.935,126.868 337.817,125.091 337.425 C 124.087 337.203,124.027 337.096,124.457 336.290 C 124.876 335.502,124.859 335.459,124.304 335.917 C 123.792 336.339,123.646 336.339,123.506 335.917 C 123.377 335.531,123.281 335.552,123.127 336.000 M279.871 337.062 C 279.727 337.206,278.932 337.456,278.104 337.616 L 276.600 337.908 278.051 337.954 C 278.902 337.981,279.708 337.752,280.000 337.400 C 280.488 336.812,280.387 336.546,279.871 337.062 M301.178 352.700 L 299.800 354.200 301.300 352.822 C 302.696 351.538,302.984 351.200,302.678 351.200 C 302.612 351.200,301.937 351.875,301.178 352.700 M296.600 356.400 C 296.464 356.620,296.014 356.800,295.600 356.800 C 295.186 356.800,294.752 356.954,294.636 357.142 C 294.288 357.704,296.337 357.158,296.837 356.556 C 297.090 356.250,297.197 356.000,297.073 356.000 C 296.949 356.000,296.736 356.180,296.600 356.400 M116.006 361.076 C 116.003 361.558,116.180 362.064,116.400 362.200 C 116.909 362.515,116.909 361.588,116.400 360.800 C 116.085 360.312,116.011 360.364,116.006 361.076 " stroke="none" fill="#545454" fill-rule="evenodd"></path><path id="path4" d="M195.300 39.100 C 200.305 39.163,208.495 39.163,213.500 39.100 C 218.505 39.036,214.410 38.984,204.400 38.984 C 194.390 38.984,190.295 39.036,195.300 39.100 M171.854 39.802 C 171.224 40.131,170.407 40.400,170.039 40.400 C 169.671 40.400,168.663 40.760,167.800 41.200 C 166.937 41.640,165.937 42.000,165.577 42.000 C 165.218 42.000,164.598 42.360,164.200 42.800 C 163.768 43.277,163.668 43.600,163.951 43.600 C 164.212 43.600,164.529 43.330,164.655 43.000 C 164.782 42.670,165.234 42.400,165.659 42.400 C 166.084 42.400,167.138 42.040,168.000 41.600 C 168.862 41.160,169.989 40.800,170.504 40.800 C 171.019 40.800,171.664 40.575,171.938 40.300 C 172.212 40.025,173.913 39.695,175.718 39.568 L 179.000 39.335 176.000 39.270 C 174.004 39.227,172.616 39.405,171.854 39.802 M228.064 39.497 C 230.126 39.588,231.287 39.823,231.613 40.216 C 231.880 40.537,232.723 40.800,233.486 40.800 C 234.268 40.800,235.318 41.149,235.891 41.600 C 236.450 42.040,237.339 42.400,237.866 42.400 C 238.394 42.400,238.929 42.670,239.055 43.000 C 239.182 43.330,239.482 43.600,239.723 43.600 C 240.015 43.600,240.001 43.441,239.680 43.120 C 239.416 42.856,239.200 42.316,239.200 41.920 C 239.200 41.524,239.020 41.200,238.800 41.200 C 238.580 41.200,238.400 41.380,238.400 41.600 C 238.400 42.296,236.954 42.033,236.200 41.200 C 235.723 40.673,234.968 40.400,233.987 40.400 C 233.151 40.400,232.279 40.137,232.000 39.800 C 231.621 39.343,230.727 39.219,228.251 39.280 L 225.000 39.361 228.064 39.497 M241.461 42.890 C 241.219 43.813,242.143 45.200,243.000 45.200 C 243.262 45.200,243.802 45.560,244.200 46.000 C 244.598 46.440,245.083 46.800,245.278 46.800 C 245.937 46.800,248.121 48.588,250.862 51.371 C 252.363 52.895,253.681 54.053,253.790 53.944 C 254.023 53.710,248.299 48.047,247.202 47.425 C 244.096 45.666,241.944 43.856,242.127 43.156 C 242.236 42.741,242.182 42.313,242.008 42.205 C 241.834 42.097,241.587 42.405,241.461 42.890 M161.400 44.400 C 161.002 44.840,160.875 45.200,161.118 45.200 C 161.361 45.200,161.704 44.956,161.880 44.659 C 162.056 44.361,162.470 44.015,162.800 43.890 C 163.310 43.697,163.305 43.658,162.762 43.632 C 162.411 43.614,161.798 43.960,161.400 44.400 M157.600 46.986 C 156.390 47.967,155.085 48.776,154.700 48.785 C 154.315 48.793,154.000 49.045,154.000 49.345 C 154.000 49.645,153.100 50.732,152.000 51.761 C 150.900 52.790,150.000 53.734,150.000 53.858 C 150.000 53.983,149.445 54.786,148.766 55.642 C 146.693 58.260,147.811 57.376,150.447 54.314 C 151.813 52.726,153.666 50.820,154.565 50.078 C 156.808 48.226,158.415 46.926,159.600 46.004 C 160.150 45.577,160.420 45.221,160.200 45.215 C 159.980 45.208,158.810 46.006,157.600 46.986 M254.000 54.524 C 254.000 55.033,256.897 58.836,257.118 58.615 C 257.238 58.495,256.946 57.981,256.468 57.473 C 255.991 56.964,255.600 56.418,255.600 56.257 C 255.600 56.097,255.240 55.580,254.800 55.108 C 254.360 54.636,254.000 54.373,254.000 54.524 M145.839 59.714 C 145.048 60.907,144.400 62.247,144.400 62.692 C 144.400 63.138,144.130 63.726,143.800 64.000 C 143.470 64.274,143.200 64.892,143.200 65.373 C 143.200 65.854,142.936 66.596,142.613 67.024 C 142.290 67.451,142.034 68.250,142.044 68.800 C 142.055 69.363,142.153 69.538,142.267 69.200 C 142.380 68.870,142.726 68.033,143.036 67.340 C 143.346 66.646,143.600 65.826,143.600 65.516 C 143.600 65.206,143.864 64.604,144.187 64.176 C 144.510 63.749,144.780 63.126,144.787 62.791 C 144.794 62.456,145.436 61.217,146.213 60.037 C 146.990 58.857,147.547 57.814,147.452 57.719 C 147.357 57.623,146.631 58.521,145.839 59.714 M257.738 59.931 C 258.102 60.334,258.400 60.942,258.400 61.283 C 258.400 61.623,258.670 62.126,259.000 62.400 C 259.330 62.674,259.600 63.196,259.600 63.560 C 259.600 63.924,259.864 64.599,260.187 65.060 C 260.510 65.521,260.893 66.638,261.037 67.542 C 261.182 68.445,261.547 69.390,261.850 69.641 C 262.173 69.909,262.400 70.869,262.400 71.964 C 262.400 73.041,262.738 74.495,263.200 75.400 C 263.888 76.749,264.000 77.759,264.000 82.605 C 264.000 86.454,264.152 88.392,264.480 88.720 C 264.839 89.079,269.593 89.201,283.380 89.205 C 307.867 89.212,319.023 89.695,320.197 90.797 C 320.667 91.239,321.189 91.600,321.357 91.600 C 322.316 91.600,324.800 95.048,324.802 96.382 C 324.804 97.162,325.074 98.316,325.402 98.946 C 325.856 99.816,326.000 101.560,326.000 106.201 C 326.000 114.433,325.789 114.175,332.617 114.273 C 335.416 114.313,337.882 114.522,338.098 114.738 C 338.348 114.988,338.383 119.009,338.195 125.901 L 337.902 136.674 326.277 136.941 C 316.304 137.171,314.550 137.303,313.926 137.867 C 313.228 138.498,313.200 142.319,313.200 235.852 C 313.200 332.416,313.194 333.191,312.401 334.490 C 311.962 335.211,311.602 336.183,311.601 336.651 C 311.601 337.119,311.330 337.726,311.000 338.000 C 310.670 338.274,310.400 338.770,310.400 339.103 C 310.400 339.506,310.668 339.368,311.200 338.691 C 311.640 338.131,312.001 337.252,312.003 336.737 C 312.004 336.222,312.363 335.260,312.800 334.600 C 313.587 333.411,313.595 332.513,313.597 235.964 L 313.600 138.528 314.619 138.064 C 315.311 137.749,319.068 137.600,326.330 137.600 C 339.136 137.600,338.800 137.702,338.800 133.796 C 338.800 129.707,339.732 128.201,340.029 131.811 C 340.156 133.345,340.266 129.560,340.275 123.400 C 340.284 117.240,340.213 112.605,340.118 113.100 C 339.914 114.160,338.746 114.299,337.964 113.357 C 337.510 112.810,337.545 112.630,338.192 112.157 C 338.856 111.671,338.288 111.600,333.714 111.600 C 328.672 111.600,328.483 111.630,328.684 112.400 C 328.854 113.048,328.696 113.200,327.854 113.200 C 326.441 113.200,326.313 112.479,326.470 105.385 C 326.564 101.100,326.738 99.420,327.100 99.299 C 327.679 99.107,327.784 98.000,327.224 98.000 C 327.017 98.000,326.729 98.191,326.585 98.424 C 326.166 99.102,325.227 97.551,325.213 96.156 C 325.199 94.785,322.589 91.441,321.186 90.995 C 320.688 90.838,320.400 90.389,320.400 89.773 C 320.400 88.766,319.789 88.432,319.505 89.285 C 319.219 90.144,310.968 88.775,311.118 87.892 C 311.271 86.989,267.854 86.798,267.433 87.700 C 267.250 88.094,267.149 88.089,266.960 87.679 C 266.775 87.279,266.602 87.318,266.217 87.844 C 265.917 88.254,265.451 88.429,265.058 88.278 C 264.287 87.982,264.036 76.400,264.800 76.400 C 265.020 76.400,265.200 76.130,265.200 75.800 C 265.200 75.470,264.851 75.200,264.424 75.200 C 263.403 75.200,263.209 74.824,262.935 72.310 C 262.808 71.149,262.480 69.837,262.205 69.394 C 261.930 68.951,261.573 67.987,261.412 67.252 C 261.040 65.560,259.699 62.508,259.189 62.193 C 258.975 62.061,258.800 61.549,258.800 61.056 C 258.800 60.130,258.127 59.200,257.458 59.200 C 257.248 59.200,257.374 59.529,257.738 59.931 M177.600 63.786 C 177.050 64.068,175.700 64.726,174.600 65.249 C 172.601 66.199,168.800 69.409,168.800 70.146 C 168.800 70.361,168.535 70.830,168.212 71.187 C 167.100 72.416,165.600 75.643,165.640 76.721 C 165.673 77.614,165.743 77.535,166.041 76.267 C 166.239 75.424,167.031 73.785,167.801 72.625 C 168.570 71.466,169.200 70.401,169.200 70.260 C 169.200 69.859,172.951 66.406,173.400 66.393 C 173.620 66.387,174.250 66.030,174.800 65.600 C 175.350 65.170,176.250 64.808,176.800 64.796 C 177.350 64.784,178.149 64.510,178.576 64.187 C 179.238 63.687,182.730 63.600,202.196 63.600 C 226.078 63.600,226.000 63.594,226.000 65.309 C 226.000 65.989,226.057 66.000,226.629 65.429 C 227.480 64.577,228.292 64.638,228.893 65.600 C 229.168 66.040,229.680 66.400,230.031 66.400 C 230.930 66.400,235.663 71.478,236.555 73.400 C 236.964 74.280,237.546 75.510,237.849 76.133 C 239.156 78.818,238.794 83.752,237.383 82.481 C 237.212 82.326,237.196 82.417,237.349 82.683 C 237.764 83.406,238.774 82.844,239.052 81.734 C 239.443 80.179,238.978 76.859,238.258 76.064 C 237.896 75.664,237.600 75.001,237.600 74.590 C 237.600 72.570,231.620 66.176,228.400 64.752 C 227.850 64.509,226.922 64.060,226.338 63.755 C 224.840 62.972,179.132 63.001,177.600 63.786 M141.646 70.468 C 141.621 70.835,141.343 71.645,141.028 72.268 C 140.515 73.284,139.575 82.280,139.593 86.000 L 139.600 87.400 115.700 87.299 C 100.529 87.235,92.015 87.336,92.388 87.577 C 93.551 88.326,89.597 89.480,85.562 89.568 C 84.663 89.588,83.853 89.900,83.400 90.400 C 83.002 90.840,82.478 91.200,82.237 91.200 C 79.650 91.200,78.062 96.209,77.921 104.814 L 77.800 112.177 76.800 112.682 C 75.410 113.385,67.067 113.401,67.299 112.700 C 67.413 112.356,68.699 112.164,71.428 112.084 C 73.608 112.021,75.520 111.841,75.677 111.684 C 75.834 111.528,73.654 111.455,70.833 111.522 L 65.703 111.643 65.451 113.477 C 64.971 116.986,65.160 136.600,65.680 137.120 C 66.031 137.471,69.252 137.600,77.672 137.600 L 89.185 137.600 89.456 138.679 C 89.627 139.360,89.556 139.815,89.263 139.912 C 88.386 140.205,88.622 211.125,89.500 211.056 C 90.163 211.003,90.214 214.071,90.464 268.400 C 90.765 333.828,90.789 335.114,91.770 336.610 C 92.151 337.193,92.568 337.565,92.696 337.437 C 92.824 337.309,92.585 336.825,92.164 336.361 C 91.417 335.536,91.395 333.276,91.200 237.441 C 91.015 146.733,90.950 139.288,90.333 138.346 C 89.574 137.188,84.999 136.805,71.894 136.801 L 65.588 136.800 65.694 125.544 L 65.800 114.288 71.067 114.244 C 76.061 114.202,76.388 114.150,77.367 113.230 L 78.400 112.261 78.400 104.981 C 78.400 98.396,78.482 97.516,79.263 95.751 C 80.306 93.390,81.582 91.600,82.221 91.600 C 82.480 91.600,83.149 91.241,83.707 90.801 C 85.097 89.709,97.426 89.184,120.878 89.220 C 142.614 89.254,140.190 90.321,140.554 80.557 C 140.765 74.890,140.977 72.902,141.448 72.182 C 141.788 71.664,141.982 70.915,141.880 70.520 C 141.720 69.906,141.686 69.899,141.646 70.468 M164.882 78.666 C 164.242 79.895,164.042 87.504,164.628 88.306 C 165.080 88.924,235.641 89.870,237.821 89.287 C 239.224 88.913,240.244 84.333,239.029 83.867 C 238.176 83.539,237.485 84.633,237.685 85.996 L 237.861 87.200 202.831 87.263 C 183.564 87.298,167.485 87.300,167.100 87.268 C 166.715 87.236,166.400 87.477,166.400 87.805 C 166.400 88.497,165.375 88.607,164.974 87.957 C 164.556 87.281,164.787 79.972,165.254 79.100 C 165.480 78.677,165.575 78.241,165.465 78.131 C 165.355 78.021,165.093 78.262,164.882 78.666 M335.896 112.251 C 337.660 112.724,336.296 113.200,333.176 113.200 C 330.308 113.200,329.169 112.802,330.500 112.265 C 331.215 111.976,334.836 111.967,335.896 112.251 M114.208 138.131 C 113.666 138.959,113.609 147.684,113.700 216.831 L 113.802 294.600 113.901 216.709 L 114.000 138.818 114.931 138.208 C 115.760 137.665,125.378 137.609,202.188 137.699 L 288.514 137.800 289.157 138.800 C 289.724 139.682,289.775 141.237,289.588 152.000 C 289.472 158.710,289.337 163.964,289.288 163.676 C 289.240 163.388,289.032 163.257,288.826 163.384 C 288.620 163.511,288.379 163.027,288.290 162.308 C 288.201 161.588,288.099 189.020,288.064 223.267 C 288.013 272.762,288.103 285.571,288.500 285.717 C 288.893 285.861,288.896 286.011,288.514 286.416 C 288.130 286.824,288.168 287.035,288.697 287.422 C 289.311 287.870,289.357 289.638,289.249 308.643 L 289.132 329.374 288.143 331.061 C 287.599 331.989,286.400 333.397,285.477 334.191 C 284.555 334.984,283.515 335.896,283.166 336.217 C 282.818 336.538,282.075 336.800,281.515 336.800 C 280.956 336.800,280.274 337.070,280.000 337.400 C 279.252 338.301,125.367 338.313,124.176 337.413 C 123.749 337.090,122.933 336.820,122.362 336.813 C 121.791 336.806,120.998 336.440,120.600 336.000 C 120.202 335.560,119.716 335.200,119.521 335.200 C 119.037 335.200,117.501 333.661,116.524 332.200 C 114.845 329.687,114.694 328.551,114.415 316.400 L 114.145 304.600 114.073 315.321 C 113.976 329.609,114.192 330.644,118.067 334.466 C 119.591 335.970,121.156 337.200,121.543 337.200 C 121.930 337.200,122.596 337.464,123.024 337.787 C 124.199 338.676,279.401 338.676,280.576 337.787 C 281.004 337.464,281.651 337.200,282.014 337.200 C 282.378 337.200,283.002 336.840,283.400 336.400 C 283.798 335.960,284.267 335.600,284.441 335.600 C 284.896 335.600,286.408 334.083,288.014 332.017 L 289.400 330.234 289.654 316.417 C 289.794 308.818,290.019 279.830,290.154 252.000 C 290.289 224.170,290.494 187.436,290.611 170.368 L 290.822 139.336 289.982 138.268 L 289.142 137.200 201.980 137.200 L 114.818 137.200 114.208 138.131 M140.597 163.669 C 140.486 163.961,140.441 197.410,140.497 238.000 L 140.600 311.800 153.300 312.000 C 160.285 312.110,166.000 312.065,166.000 311.900 C 166.000 311.735,160.330 311.600,153.400 311.600 L 140.800 311.600 140.800 237.800 L 140.800 164.000 153.176 164.000 C 159.983 164.000,165.645 163.852,165.757 163.670 C 165.869 163.489,160.299 163.295,153.379 163.240 C 143.225 163.158,140.759 163.241,140.597 163.669 M189.785 163.700 C 189.680 163.975,189.641 197.410,189.697 238.000 L 189.800 311.800 201.800 311.800 L 213.800 311.800 213.903 238.000 C 213.999 168.970,213.961 164.168,213.326 163.700 C 212.821 163.328,209.751 163.200,201.311 163.200 C 192.610 163.200,189.931 163.316,189.785 163.700 M240.329 163.729 C 239.893 164.164,239.835 177.215,240.000 238.029 L 240.200 311.800 251.615 311.906 C 261.520 311.998,263.135 311.928,263.815 311.381 C 264.370 310.934,264.454 310.689,264.100 310.542 C 263.703 310.376,263.600 295.435,263.600 237.729 L 263.600 165.125 264.425 164.909 C 265.117 164.728,264.982 164.574,263.581 163.947 C 261.429 162.984,241.263 162.794,240.329 163.729 M262.808 237.800 L 262.811 311.400 251.608 311.506 L 240.404 311.612 240.302 237.970 C 240.224 181.881,240.312 164.265,240.670 164.064 C 240.929 163.919,246.015 163.890,251.973 164.000 L 262.805 164.200 262.808 237.800 M213.501 237.900 L 213.602 311.600 201.801 311.600 L 190.000 311.600 190.000 237.794 L 190.000 163.988 201.700 164.094 L 213.400 164.200 213.501 237.900 M164.100 165.067 C 163.217 165.420,163.384 309.831,164.267 310.170 C 164.634 310.311,165.084 310.276,165.268 310.092 C 165.763 309.597,165.496 165.091,165.000 164.967 C 164.780 164.912,164.375 164.957,164.100 165.067 M289.600 206.876 C 289.600 208.788,289.553 208.891,289.013 208.176 C 288.216 207.123,288.207 204.800,289.000 204.800 C 289.456 204.800,289.600 205.297,289.600 206.876 M92.840 338.377 C 92.786 339.162,95.456 344.583,96.202 345.201 C 96.531 345.474,96.800 345.916,96.800 346.183 C 96.800 346.722,103.186 353.344,104.917 354.600 C 105.524 355.040,106.286 355.638,106.610 355.929 C 106.935 356.219,107.200 356.286,107.200 356.077 C 107.200 355.867,106.237 354.969,105.061 354.081 C 101.217 351.179,95.600 344.855,95.600 343.430 C 95.600 343.109,95.417 342.734,95.194 342.596 C 94.806 342.357,93.762 340.304,93.162 338.600 C 92.996 338.130,92.863 338.038,92.840 338.377 M310.032 340.500 C 310.014 340.885,309.859 341.200,309.688 341.200 C 309.516 341.200,309.165 341.695,308.908 342.300 C 308.651 342.905,307.977 344.179,307.410 345.130 C 306.842 346.082,306.548 346.756,306.756 346.627 C 307.421 346.216,310.435 340.700,310.245 340.241 C 310.145 339.998,310.049 340.115,310.032 340.500 M303.180 350.194 C 300.316 353.126,296.502 356.060,294.887 356.572 C 294.440 356.714,293.973 357.094,293.850 357.415 C 293.726 357.737,293.164 358.000,292.600 358.000 C 292.036 358.000,291.471 358.270,291.345 358.600 C 291.217 358.933,290.623 359.200,290.011 359.200 C 289.404 359.200,288.450 359.560,287.891 360.000 C 286.538 361.064,117.074 361.290,116.666 360.228 C 116.545 359.911,115.618 359.532,114.591 359.378 C 113.571 359.225,112.641 358.852,112.525 358.550 C 112.409 358.247,111.929 358.011,111.457 358.025 C 110.609 358.050,110.610 358.055,111.500 358.412 C 111.995 358.611,112.400 358.960,112.400 359.187 C 112.400 359.414,112.842 359.600,113.381 359.600 C 114.533 359.600,116.400 360.382,116.400 360.864 C 116.400 361.714,287.429 361.252,288.200 360.400 C 288.598 359.960,289.377 359.600,289.930 359.600 C 290.484 359.600,291.280 359.290,291.699 358.910 C 292.394 358.282,292.556 358.275,293.531 358.834 C 294.590 359.442,294.600 359.436,294.600 358.234 C 294.600 357.338,294.809 356.980,295.400 356.866 C 296.667 356.623,302.522 351.680,305.570 348.281 C 307.570 346.051,305.994 347.312,303.180 350.194 M108.259 356.797 C 108.732 356.988,109.237 357.337,109.383 357.572 C 109.528 357.807,109.815 358.000,110.020 358.000 C 110.225 358.000,110.084 357.640,109.707 357.200 C 109.330 356.760,108.657 356.411,108.211 356.425 C 107.429 356.450,107.431 356.463,108.259 356.797 " stroke="none" fill="#393939" fill-rule="evenodd"></path></g></svg>