<svg id="svg" version="1.1" xmlns="http://www.w3.org/2000/svg" xmlns:xlink="http://www.w3.org/1999/xlink" width="400" height="400" viewBox="0, 0, 400,400"><g id="svgg"><path id="path0" d="M231.600 38.290 C 231.600 38.486,231.842 38.978,232.137 39.382 C 232.642 40.072,232.671 40.060,232.606 39.181 C 232.542 38.319,231.600 37.484,231.600 38.290 M154.394 47.007 C 153.967 47.522,153.967 47.721,154.396 48.117 C 154.808 48.499,154.853 48.486,154.607 48.055 C 154.425 47.734,154.519 47.374,154.837 47.177 C 155.134 46.994,155.273 46.739,155.145 46.612 C 155.018 46.485,154.680 46.663,154.394 47.007 M178.200 64.614 C 177.441 64.962,177.257 65.171,177.700 65.182 C 178.085 65.192,178.400 65.380,178.400 65.600 C 178.400 66.434,179.115 65.956,179.298 65.000 C 179.403 64.450,179.469 64.015,179.445 64.032 C 179.420 64.050,178.860 64.312,178.200 64.614 M225.000 65.000 C 225.000 65.770,225.207 66.000,225.900 66.000 C 227.006 66.000,227.021 65.821,226.000 64.800 C 224.997 63.797,225.000 63.796,225.000 65.000 M228.654 67.002 C 228.515 67.365,228.656 67.600,229.013 67.600 C 229.660 67.600,229.807 66.975,229.242 66.626 C 229.045 66.504,228.781 66.674,228.654 67.002 M138.996 82.007 C 138.858 82.230,138.577 82.309,138.372 82.183 C 138.157 82.050,138.000 83.059,138.000 84.576 L 138.000 87.200 113.357 87.200 C 91.051 87.200,88.737 87.260,88.957 87.833 C 89.091 88.181,89.200 88.541,89.200 88.633 C 89.200 88.996,93.568 88.775,93.800 88.400 C 93.960 88.141,101.804 88.000,116.024 88.000 C 130.408 88.000,138.000 87.862,138.000 87.600 C 138.000 87.380,138.360 87.200,138.800 87.200 C 139.524 87.200,139.600 86.933,139.600 84.400 C 139.600 81.640,139.491 81.206,138.996 82.007 M166.909 84.000 C 166.909 84.990,166.987 85.395,167.082 84.900 C 167.178 84.405,167.178 83.595,167.082 83.100 C 166.987 82.605,166.909 83.010,166.909 84.000 M237.480 86.386 C 237.656 87.057,237.767 87.090,238.243 86.614 C 238.997 85.861,238.944 85.600,238.037 85.600 C 237.476 85.600,237.329 85.808,237.480 86.386 M166.200 87.600 C 166.036 87.866,177.929 88.000,201.576 88.000 C 225.059 88.000,237.200 87.864,237.200 87.600 C 237.200 87.336,225.141 87.200,201.824 87.200 C 178.671 87.200,166.362 87.338,166.200 87.600 M266.000 87.600 C 266.000 87.861,273.059 88.000,286.376 88.000 C 299.529 88.000,306.840 88.142,307.000 88.400 C 307.534 89.264,315.200 88.890,315.200 88.000 C 315.200 87.209,314.933 87.200,290.600 87.200 C 274.467 87.200,266.000 87.338,266.000 87.600 M326.200 98.000 C 326.064 98.220,326.143 98.400,326.376 98.400 C 326.609 98.400,326.800 98.670,326.800 99.000 C 326.800 99.330,326.980 99.600,327.200 99.600 C 327.420 99.600,327.600 99.150,327.600 98.600 C 327.600 97.595,326.691 97.206,326.200 98.000 M77.693 101.200 C 77.693 101.970,77.775 102.285,77.876 101.900 C 77.976 101.515,77.976 100.885,77.876 100.500 C 77.775 100.115,77.693 100.430,77.693 101.200 M77.285 107.362 C 77.200 112.096,77.195 112.120,76.400 111.400 C 75.946 110.989,75.600 110.876,75.600 111.138 C 75.600 111.464,74.065 111.600,70.400 111.600 C 65.274 111.600,65.200 111.613,65.199 112.500 C 65.199 113.393,65.236 113.399,70.399 113.278 C 73.309 113.209,75.600 112.989,75.600 112.778 C 75.600 112.570,75.966 112.400,76.413 112.400 C 77.550 112.400,77.646 111.922,77.499 106.974 L 77.370 102.600 77.285 107.362 M75.701 108.200 C 75.705 109.080,75.787 109.393,75.883 108.895 C 75.979 108.398,75.975 107.678,75.875 107.295 C 75.775 106.913,75.696 107.320,75.701 108.200 M328.243 112.233 C 328.109 112.581,328.000 112.941,328.000 113.033 C 328.000 113.125,330.318 113.200,333.151 113.200 C 337.269 113.200,338.403 113.322,338.806 113.807 C 339.563 114.719,339.157 136.073,338.363 137.083 C 337.851 137.735,337.863 137.751,338.495 137.255 C 338.877 136.956,339.462 136.815,339.795 136.943 C 340.419 137.182,340.762 113.809,340.157 112.233 C 339.951 111.697,339.042 111.600,334.200 111.600 C 329.358 111.600,328.449 111.697,328.243 112.233 M74.108 137.842 C 74.241 137.975,75.396 138.066,76.675 138.044 C 79.581 137.995,82.400 138.383,82.400 138.831 C 82.400 139.019,80.555 139.230,78.300 139.302 C 75.722 139.383,76.910 139.463,81.500 139.516 L 88.800 139.600 88.896 236.100 C 88.949 289.175,89.041 323.804,89.100 313.054 C 89.195 295.789,89.277 293.566,89.804 294.003 C 90.332 294.441,90.400 287.016,90.400 229.249 C 90.400 186.016,90.265 164.000,90.000 164.000 C 89.742 164.000,89.600 159.630,89.600 151.689 C 89.600 136.043,90.538 137.600,81.111 137.600 C 77.126 137.600,73.975 137.709,74.108 137.842 M115.800 138.000 C 115.360 138.189,115.225 138.356,115.500 138.372 C 115.775 138.387,116.000 138.670,116.000 139.000 C 116.000 139.531,125.822 139.600,202.000 139.600 L 288.000 139.600 288.000 213.600 C 288.000 262.667,288.135 287.600,288.400 287.600 C 288.662 287.600,288.800 279.733,288.800 264.800 C 288.800 249.867,288.938 242.000,289.200 242.000 C 289.465 242.000,289.600 224.623,289.600 190.670 L 289.600 139.339 288.674 138.470 L 287.748 137.600 202.174 137.628 C 155.108 137.644,116.240 137.811,115.800 138.000 M315.900 137.876 C 315.152 138.071,315.100 138.256,315.528 139.200 C 315.760 139.711,316.778 139.768,322.400 139.585 C 326.212 139.461,327.606 139.334,325.700 139.285 C 320.684 139.156,322.007 138.014,327.142 138.040 C 328.100 138.045,328.985 137.948,329.109 137.824 C 329.374 137.560,316.924 137.608,315.900 137.876 M313.776 152.000 C 313.776 158.270,313.832 160.835,313.899 157.700 C 313.967 154.565,313.967 149.435,313.899 146.300 C 313.832 143.165,313.776 145.730,313.776 152.000 M116.588 184.200 C 116.588 197.180,116.638 202.432,116.700 195.871 C 116.762 189.311,116.761 178.691,116.700 172.271 C 116.638 165.852,116.587 171.220,116.588 184.200 M262.902 163.716 C 263.568 164.261,263.599 168.137,263.502 238.146 C 263.446 278.766,263.520 312.000,263.667 312.000 C 265.277 312.000,265.200 315.739,265.200 237.557 C 265.200 178.661,265.098 163.599,264.700 163.595 C 264.425 163.592,263.750 163.488,263.200 163.365 C 262.281 163.159,262.257 163.187,262.902 163.716 M140.098 237.620 C 140.022 294.612,140.109 311.549,140.480 311.920 C 140.835 312.275,143.838 312.376,151.980 312.310 L 163.000 312.219 151.800 312.010 L 140.600 311.800 140.398 237.800 L 140.197 163.800 140.098 237.620 M214.196 237.600 C 214.196 277.530,214.243 293.865,214.300 273.900 C 214.357 253.935,214.357 221.265,214.300 201.300 C 214.243 181.335,214.196 197.670,214.196 237.600 M239.796 237.600 C 239.796 277.530,239.843 293.865,239.900 273.900 C 239.957 253.935,239.957 221.265,239.900 201.300 C 239.843 181.335,239.796 197.670,239.796 237.600 M164.900 166.265 C 163.900 166.668,164.200 309.200,165.200 309.200 C 165.997 309.200,166.000 308.933,166.000 237.600 C 166.000 198.220,165.865 166.014,165.700 166.032 C 165.535 166.049,165.175 166.154,164.900 166.265 M90.185 313.600 C 90.185 323.830,90.236 328.015,90.300 322.900 C 90.363 317.785,90.363 309.415,90.300 304.300 C 90.236 299.185,90.185 303.370,90.185 313.600 M114.612 319.133 C 114.746 326.789,114.685 326.460,115.917 326.137 C 116.660 325.943,116.800 325.626,116.800 324.130 C 116.800 323.047,116.644 322.449,116.400 322.600 C 116.180 322.736,116.000 323.287,116.000 323.824 C 116.000 324.361,115.820 324.800,115.600 324.800 C 115.122 324.800,115.170 325.203,114.793 318.000 L 114.490 312.200 114.612 319.133 M195.700 312.299 C 198.945 312.366,204.255 312.366,207.500 312.299 C 210.745 312.232,208.090 312.177,201.600 312.177 C 195.110 312.177,192.455 312.232,195.700 312.299 M246.100 312.299 C 249.125 312.367,254.075 312.367,257.100 312.299 C 260.125 312.231,257.650 312.175,251.600 312.175 C 245.550 312.175,243.075 312.231,246.100 312.299 M120.138 334.138 C 120.172 334.722,120.335 335.200,120.500 335.200 C 120.906 335.200,120.868 334.328,120.432 333.639 C 120.178 333.237,120.094 333.379,120.138 334.138 M123.200 335.795 C 123.200 336.079,124.539 337.600,124.789 337.600 C 124.905 337.600,125.000 337.150,125.000 336.600 C 125.000 335.830,124.793 335.600,124.100 335.600 C 123.605 335.600,123.200 335.688,123.200 335.795 M278.400 336.000 C 278.400 336.220,278.580 336.400,278.800 336.400 C 279.478 336.400,279.241 337.131,278.500 337.324 C 277.944 337.470,277.975 337.517,278.651 337.554 C 279.119 337.579,279.726 337.330,280.000 337.000 C 280.371 336.553,280.378 336.400,280.025 336.400 C 279.765 336.400,279.664 336.220,279.800 336.000 C 279.936 335.780,279.677 335.600,279.224 335.600 C 278.771 335.600,278.400 335.780,278.400 336.000 M129.500 337.898 C 131.315 337.972,134.285 337.972,136.100 337.898 C 137.915 337.823,136.430 337.763,132.800 337.763 C 129.170 337.763,127.685 337.823,129.500 337.898 M268.518 337.898 C 270.233 337.973,272.933 337.972,274.518 337.897 C 276.103 337.821,274.700 337.759,271.400 337.760 C 268.100 337.761,266.803 337.822,268.518 337.898 M293.600 359.200 C 293.600 359.420,294.095 359.597,294.700 359.594 C 295.557 359.589,295.668 359.502,295.200 359.200 C 294.417 358.694,293.600 358.694,293.600 359.200 M112.000 359.877 C 112.000 360.261,112.314 360.340,113.100 360.151 C 114.608 359.790,114.620 359.723,113.219 359.517 C 112.375 359.394,112.000 359.504,112.000 359.877 M115.600 361.091 C 115.600 361.544,115.874 362.020,116.209 362.148 C 116.721 362.345,116.745 362.240,116.355 361.491 C 115.692 360.216,115.600 360.167,115.600 361.091 M160.932 361.500 C 183.554 361.557,220.454 361.557,242.932 361.500 C 265.409 361.443,246.900 361.396,201.800 361.396 C 156.700 361.396,138.309 361.443,160.932 361.500 " stroke="none" fill="#544f4f" fill-rule="evenodd"></path><path id="path1" d="M172.080 37.680 C 171.816 37.944,171.600 38.259,171.600 38.380 C 171.600 38.789,230.985 38.621,231.279 38.211 C 231.432 37.996,231.342 37.684,231.079 37.517 C 230.223 36.973,172.628 37.132,172.080 37.680 M168.800 38.800 C 168.404 39.350,167.765 39.600,166.754 39.600 C 165.249 39.600,164.372 40.532,165.147 41.307 C 165.582 41.742,167.200 41.321,167.200 40.773 C 167.200 40.568,167.695 40.394,168.300 40.387 C 169.737 40.371,170.886 39.490,170.564 38.651 C 170.226 37.770,169.498 37.832,168.800 38.800 M233.033 38.657 C 232.748 39.400,232.712 39.342,233.839 39.927 C 234.953 40.506,235.737 39.804,235.167 38.739 C 234.677 37.823,233.373 37.773,233.033 38.657 M236.800 40.371 C 236.800 40.943,237.057 41.200,237.629 41.200 C 238.202 41.200,238.417 40.985,238.325 40.505 C 238.124 39.462,236.800 39.346,236.800 40.371 M161.992 41.810 C 161.714 42.145,161.400 42.334,161.295 42.229 C 161.191 42.124,160.834 42.308,160.504 42.639 C 160.174 42.969,159.401 43.340,158.787 43.463 C 158.126 43.595,157.586 44.011,157.462 44.483 C 157.348 44.922,157.062 45.162,156.827 45.017 C 156.592 44.872,156.400 44.954,156.400 45.200 C 156.400 45.446,156.201 45.524,155.957 45.374 C 155.575 45.137,155.795 46.651,156.212 47.129 C 156.350 47.287,160.279 44.588,161.426 43.548 C 161.880 43.137,162.645 42.800,163.126 42.800 C 163.733 42.800,164.000 42.556,164.000 42.000 C 164.000 41.033,162.736 40.913,161.992 41.810 M240.000 42.000 C 240.000 42.533,240.267 42.800,240.800 42.800 C 241.747 42.800,241.804 42.547,241.029 41.771 C 240.253 40.996,240.000 41.053,240.000 42.000 M243.043 42.690 C 242.383 43.351,242.847 44.400,243.800 44.400 C 244.350 44.400,244.800 44.173,244.800 43.896 C 244.800 43.302,243.395 42.338,243.043 42.690 M245.278 44.105 C 244.754 44.737,245.022 46.000,245.680 46.000 C 247.102 46.000,257.186 56.403,257.204 57.889 C 257.206 58.060,257.750 58.629,258.414 59.153 C 259.224 59.793,259.547 60.338,259.397 60.811 C 259.274 61.199,259.449 61.792,259.786 62.129 C 260.124 62.467,260.400 62.902,260.400 63.096 C 260.400 63.291,260.760 64.195,261.200 65.106 C 261.640 66.016,262.000 67.090,262.000 67.492 C 262.000 67.894,262.360 68.483,262.800 68.800 C 263.441 69.262,263.600 69.835,263.600 71.688 C 263.600 73.733,263.692 74.000,264.400 74.000 C 265.261 74.000,265.574 72.278,264.800 71.800 C 264.580 71.664,264.400 71.124,264.400 70.600 C 264.400 70.076,264.220 69.536,264.000 69.400 C 263.780 69.264,263.600 68.703,263.600 68.153 C 263.600 67.527,263.765 67.255,264.040 67.425 C 264.358 67.621,264.358 67.468,264.038 66.871 C 263.795 66.416,263.417 65.934,263.198 65.799 C 262.979 65.663,262.800 65.025,262.800 64.380 C 262.800 63.640,262.505 63.022,262.000 62.707 C 261.514 62.404,261.200 61.774,261.200 61.104 C 261.200 60.399,260.987 60.000,260.612 60.000 C 260.284 60.000,259.531 58.944,258.912 57.614 C 258.300 56.302,257.575 55.222,257.300 55.214 C 257.025 55.206,256.800 55.057,256.800 54.881 C 256.800 54.097,251.414 48.300,250.300 47.886 C 249.915 47.742,249.600 47.349,249.600 47.013 C 249.600 46.676,249.465 46.421,249.300 46.447 C 248.471 46.578,248.000 46.340,248.000 45.790 C 248.000 45.455,247.569 45.016,247.042 44.816 C 246.515 44.616,246.013 44.240,245.927 43.982 C 245.818 43.654,245.622 43.691,245.278 44.105 M152.123 48.670 C 151.973 49.072,151.343 49.877,150.725 50.460 C 149.365 51.743,149.325 52.009,150.500 51.971 C 151.955 51.924,153.846 49.389,153.033 48.576 C 152.453 47.995,152.374 48.004,152.123 48.670 M148.073 53.687 C 147.813 53.947,147.600 54.012,147.600 53.831 C 147.600 53.650,147.330 53.726,147.000 54.000 C 146.670 54.274,146.400 54.943,146.400 55.486 C 146.400 56.138,146.128 56.546,145.600 56.684 C 145.157 56.800,144.800 57.230,144.800 57.647 C 144.800 58.061,144.530 58.400,144.200 58.400 C 143.870 58.400,143.573 58.715,143.539 59.100 C 143.506 59.485,143.458 59.992,143.432 60.228 C 143.407 60.463,143.075 61.132,142.693 61.714 C 142.312 62.296,142.000 63.146,142.000 63.603 C 142.000 64.157,141.779 64.396,141.341 64.318 C 140.817 64.224,140.646 64.614,140.511 66.200 C 140.417 67.300,140.174 68.371,139.970 68.580 C 139.767 68.789,139.600 69.477,139.600 70.109 C 139.600 71.831,140.917 71.414,141.222 69.596 C 141.351 68.828,141.759 67.624,142.128 66.920 C 142.498 66.216,142.800 65.263,142.800 64.803 C 142.800 64.343,143.160 63.580,143.600 63.108 C 144.040 62.636,144.400 61.934,144.400 61.548 C 144.400 61.163,144.583 60.734,144.806 60.596 C 145.029 60.459,145.585 59.613,146.043 58.717 C 146.500 57.821,147.202 56.735,147.603 56.304 C 148.758 55.065,149.210 52.550,148.073 53.687 M182.701 63.989 C 179.690 64.296,179.472 64.400,179.838 65.355 C 180.063 65.942,180.566 65.992,183.947 65.765 C 191.177 65.280,208.861 65.153,209.379 65.583 C 210.999 66.927,225.973 65.840,224.610 64.477 C 223.835 63.702,189.442 63.302,182.701 63.989 M174.519 66.132 C 172.664 67.089,172.047 68.807,173.600 68.690 C 174.040 68.657,174.400 68.398,174.400 68.115 C 174.400 67.814,174.880 67.600,175.553 67.600 C 176.291 67.600,176.796 67.348,176.954 66.900 C 177.089 66.515,177.305 65.975,177.434 65.700 C 177.787 64.943,176.435 65.143,174.519 66.132 M227.246 65.744 C 226.767 66.321,227.031 67.600,227.629 67.600 C 227.817 67.600,228.154 67.259,228.378 66.842 C 228.918 65.832,227.951 64.895,227.246 65.744 M229.725 67.457 C 229.199 67.671,230.493 69.200,231.200 69.200 C 231.420 69.200,231.555 69.418,231.500 69.685 C 231.445 69.952,231.805 70.355,232.300 70.580 C 232.795 70.805,233.200 71.288,233.200 71.652 C 233.200 72.362,234.236 72.948,234.836 72.578 C 235.485 72.177,235.235 71.744,233.035 69.454 C 230.892 67.224,230.652 67.079,229.725 67.457 M170.700 69.388 C 169.494 71.047,170.015 71.930,171.338 70.469 C 172.011 69.725,172.246 68.390,171.700 68.413 C 171.535 68.419,171.085 68.858,170.700 69.388 M167.558 74.301 C 165.486 78.872,164.131 87.622,165.500 87.594 C 166.527 87.573,166.925 86.742,166.855 84.766 C 166.809 83.475,166.968 82.544,167.264 82.360 C 167.641 82.128,167.635 81.924,167.240 81.448 C 166.948 81.096,166.869 80.615,167.055 80.318 C 167.234 80.033,167.440 79.350,167.515 78.800 C 167.589 78.250,167.818 77.629,168.025 77.420 C 168.231 77.211,168.400 76.528,168.400 75.903 C 168.400 75.278,168.760 74.380,169.200 73.908 C 170.187 72.849,170.231 72.000,169.300 72.001 C 168.836 72.002,168.249 72.776,167.558 74.301 M138.956 73.107 C 138.838 73.488,138.575 74.113,138.371 74.495 C 137.949 75.285,137.864 79.730,138.263 80.130 C 139.036 80.903,139.600 79.324,139.600 76.384 C 139.600 74.316,139.761 73.213,140.080 73.107 C 140.376 73.008,140.294 72.845,139.865 72.680 C 139.397 72.501,139.100 72.641,138.956 73.107 M234.800 73.920 C 234.800 74.968,235.412 76.000,236.033 76.000 C 236.616 76.000,236.683 74.411,236.133 73.626 C 235.329 72.478,234.800 72.595,234.800 73.920 M236.394 77.100 C 236.389 77.698,236.331 77.713,236.000 77.200 C 235.669 76.687,235.611 76.702,235.606 77.300 C 235.603 77.685,235.791 78.000,236.024 78.000 C 236.257 78.000,236.352 78.153,236.236 78.341 C 236.120 78.529,236.284 79.024,236.600 79.441 C 236.916 79.858,237.180 80.605,237.187 81.100 C 237.194 81.595,237.380 82.000,237.600 82.000 C 238.169 82.000,238.098 77.458,237.520 76.880 C 236.839 76.199,236.401 76.285,236.394 77.100 M264.781 77.620 C 264.461 77.822,264.380 77.990,264.600 77.993 C 264.851 77.997,264.949 79.650,264.864 82.418 C 264.720 87.101,264.945 88.649,265.615 87.589 C 266.069 86.871,266.128 77.727,265.681 77.450 C 265.505 77.342,265.100 77.418,264.781 77.620 M84.500 87.798 C 83.385 89.065,84.354 89.527,86.724 88.860 C 87.766 88.567,87.927 88.053,87.134 87.551 C 86.329 87.041,85.062 87.160,84.500 87.798 M317.067 87.467 C 316.088 88.446,317.614 89.465,319.188 88.883 C 320.035 88.569,320.049 88.507,319.417 87.874 C 318.731 87.188,317.550 86.984,317.067 87.467 M80.863 90.000 C 80.172 90.660,79.438 91.200,79.231 91.200 C 79.023 91.200,78.740 91.560,78.600 92.000 C 78.460 92.440,78.107 92.800,77.816 92.800 C 77.146 92.800,76.800 93.689,76.800 95.409 C 76.800 96.148,76.617 96.866,76.393 97.004 C 76.170 97.142,76.083 97.410,76.200 97.600 C 76.317 97.790,76.230 98.058,76.007 98.196 C 75.465 98.531,75.484 101.481,76.030 101.819 C 76.267 101.965,76.402 102.741,76.330 103.542 C 76.259 104.344,76.380 105.048,76.600 105.107 C 76.820 105.166,77.041 104.446,77.091 103.507 C 77.425 97.283,78.677 93.763,81.459 91.231 C 82.416 90.360,83.200 89.456,83.200 89.223 C 83.200 88.436,82.125 88.793,80.863 90.000 M321.043 89.433 C 320.700 90.326,320.727 90.400,321.397 90.400 C 321.725 90.400,322.218 90.760,322.493 91.200 C 322.768 91.640,323.174 92.001,323.396 92.003 C 323.901 92.006,325.196 94.236,325.213 95.132 C 325.231 96.084,326.172 97.200,326.957 97.200 C 327.932 97.200,327.716 94.524,326.720 94.263 C 326.278 94.148,326.000 93.703,326.000 93.113 C 326.000 92.271,324.198 90.400,323.388 90.400 C 322.934 90.400,322.036 89.298,322.286 89.048 C 322.422 88.911,322.253 88.800,321.909 88.800 C 321.566 88.800,321.176 89.085,321.043 89.433 M326.800 106.200 C 326.800 111.628,326.880 112.400,327.443 112.400 C 327.865 112.400,328.002 112.182,327.843 111.767 C 327.709 111.419,327.600 108.629,327.600 105.567 C 327.600 102.122,327.448 100.000,327.200 100.000 C 326.951 100.000,326.800 102.333,326.800 106.200 M63.429 111.829 C 62.588 112.669,62.465 138.989,63.300 139.301 C 63.575 139.404,65.960 139.370,68.600 139.227 C 73.080 138.983,73.267 138.941,71.400 138.598 C 70.300 138.396,68.573 138.264,67.562 138.305 C 64.735 138.420,64.758 138.544,64.888 123.900 C 65.004 110.759,64.949 110.308,63.429 111.829 M338.113 137.792 C 337.406 138.099,336.086 138.340,335.181 138.328 C 334.276 138.315,333.334 138.506,333.088 138.752 C 332.757 139.083,333.265 139.208,335.020 139.231 C 336.329 139.247,337.760 139.332,338.200 139.418 C 339.493 139.670,340.293 139.243,340.245 138.324 C 340.187 137.222,339.704 137.101,338.113 137.792 M114.541 139.409 C 114.210 140.273,114.783 310.065,115.136 315.400 C 115.435 319.932,115.996 319.540,116.241 314.628 C 116.513 309.176,116.597 140.800,116.328 140.800 C 116.178 140.800,115.998 140.409,115.928 139.931 C 115.768 138.842,114.886 138.510,114.541 139.409 M314.256 139.078 C 314.115 139.218,313.999 182.998,313.998 236.367 C 313.995 321.659,313.923 333.539,313.398 334.546 C 312.656 335.967,312.593 338.135,313.300 337.901 C 313.575 337.809,313.959 337.209,314.153 336.567 C 314.540 335.291,314.865 334.387,315.547 332.689 C 316.144 331.203,316.197 140.400,315.601 140.400 C 315.380 140.400,315.200 140.141,315.200 139.824 C 315.200 139.155,314.629 138.704,314.256 139.078 M140.400 161.394 C 140.400 161.727,140.220 162.000,140.000 162.000 C 137.923 162.000,138.022 158.194,138.017 238.120 C 138.014 279.216,138.162 312.747,138.346 312.633 C 138.529 312.520,138.917 312.871,139.207 313.414 L 139.735 314.400 152.168 314.394 C 164.573 314.388,165.935 314.249,165.471 313.040 C 165.253 312.472,163.831 312.400,152.893 312.400 C 143.834 312.400,140.433 312.273,140.080 311.920 C 139.571 311.411,139.337 165.151,139.843 163.833 C 140.057 163.275,141.523 163.200,152.210 163.200 C 158.879 163.200,164.619 163.091,164.967 162.957 C 165.941 162.584,165.717 162.000,164.600 162.000 C 164.013 162.000,163.641 161.793,163.700 161.500 C 163.778 161.111,161.202 160.976,152.100 160.894 C 141.868 160.801,140.400 160.864,140.400 161.394 M187.467 161.067 C 187.320 161.213,187.200 195.773,187.200 237.867 L 187.200 314.400 201.600 314.400 C 212.853 314.400,216.000 314.291,216.000 313.900 C 216.003 290.627,216.005 161.982,216.003 161.500 C 216.000 160.780,188.176 160.358,187.467 161.067 M240.145 161.400 C 240.316 161.847,240.084 162.000,239.236 162.000 C 238.165 162.000,236.968 162.834,237.408 163.274 C 237.652 163.518,237.666 310.631,237.422 311.890 C 236.981 314.169,238.284 314.400,251.588 314.400 C 263.858 314.400,265.200 314.251,265.200 312.886 C 265.200 312.252,264.230 312.200,252.500 312.200 L 239.800 312.200 239.600 238.371 C 239.490 197.765,239.458 164.240,239.529 163.871 C 239.647 163.260,240.793 163.200,252.429 163.200 C 263.514 163.200,265.200 163.121,265.200 162.600 C 265.200 162.205,264.805 162.000,264.043 162.000 C 263.383 162.000,262.787 161.742,262.655 161.400 C 262.458 160.886,260.806 160.800,251.170 160.800 C 241.329 160.800,239.943 160.875,240.145 161.400 M214.181 163.569 C 214.699 164.408,214.425 311.737,213.904 312.068 C 213.042 312.615,189.836 312.476,189.280 311.920 C 188.641 311.281,188.576 165.165,189.214 163.974 C 189.670 163.121,213.663 162.732,214.181 163.569 M288.000 301.577 C 288.000 315.055,287.972 315.574,287.208 316.109 C 286.465 316.630,286.421 317.084,286.508 323.453 L 286.600 330.241 285.100 331.618 C 284.275 332.375,283.600 333.221,283.600 333.497 C 283.600 333.774,283.330 334.023,283.000 334.050 C 281.552 334.171,281.406 334.255,281.518 334.909 C 281.587 335.316,281.381 335.600,281.018 335.600 C 280.678 335.600,280.400 335.780,280.400 336.000 C 280.400 336.603,282.046 336.480,282.766 335.822 C 283.115 335.504,284.217 334.526,285.216 333.649 C 288.941 330.376,288.800 331.384,288.800 308.056 C 288.800 294.685,288.661 287.600,288.400 287.600 C 288.141 287.600,288.000 292.526,288.000 301.577 M115.739 327.015 C 115.320 328.107,115.997 330.923,116.817 331.497 C 117.247 331.798,117.600 332.231,117.600 332.459 C 117.600 332.990,119.307 334.381,119.678 334.152 C 120.055 333.919,118.417 331.136,117.515 330.477 C 117.014 330.111,116.800 329.423,116.800 328.177 C 116.800 326.439,116.208 325.791,115.739 327.015 M88.800 334.600 C 88.800 335.370,88.875 336.000,88.967 336.000 C 89.059 336.000,89.419 336.109,89.767 336.243 C 90.281 336.440,90.400 336.176,90.400 334.843 C 90.400 333.467,90.270 333.200,89.600 333.200 C 88.952 333.200,88.800 333.467,88.800 334.600 M121.200 335.200 C 121.200 336.133,121.378 336.400,122.000 336.400 C 122.935 336.400,122.946 336.357,122.336 335.019 C 121.712 333.650,121.200 333.732,121.200 335.200 M128.525 335.963 C 126.381 336.226,125.647 336.580,126.167 337.100 C 126.547 337.480,265.682 337.753,272.343 337.386 C 276.928 337.134,277.238 337.067,276.629 336.457 C 275.950 335.778,133.895 335.304,128.525 335.963 M90.400 338.000 C 90.400 338.660,90.580 339.200,90.800 339.200 C 91.020 339.200,91.200 339.626,91.200 340.146 C 91.200 340.666,91.560 341.550,92.000 342.109 C 92.440 342.669,92.800 343.404,92.800 343.743 C 92.800 344.083,93.073 344.513,93.408 344.700 C 93.742 344.887,94.098 345.481,94.199 346.020 C 94.300 346.559,94.755 347.305,95.209 347.678 C 95.663 348.051,96.027 348.456,96.018 348.578 C 95.957 349.341,96.040 349.600,96.343 349.600 C 96.532 349.600,97.656 350.500,98.840 351.600 C 100.024 352.700,101.219 353.600,101.496 353.600 C 101.773 353.600,102.000 353.960,102.000 354.400 C 102.000 354.875,102.267 355.200,102.656 355.200 C 103.017 355.200,103.551 355.515,103.843 355.900 C 104.328 356.539,104.376 356.508,104.387 355.546 C 104.396 354.846,104.054 354.265,103.370 353.817 C 101.472 352.574,96.563 347.242,95.670 345.455 C 95.185 344.483,94.520 343.466,94.194 343.195 C 93.867 342.924,93.600 342.308,93.600 341.826 C 93.600 341.345,93.240 340.564,92.800 340.092 C 92.360 339.620,92.000 338.795,92.000 338.260 C 92.000 337.454,91.358 336.800,90.567 336.800 C 90.475 336.800,90.400 337.340,90.400 338.000 M311.467 339.067 C 311.320 339.213,311.200 339.671,311.200 340.083 C 311.200 340.496,310.840 341.220,310.400 341.692 C 309.960 342.164,309.600 342.862,309.600 343.242 C 309.600 343.622,309.455 343.993,309.277 344.067 C 309.099 344.140,308.348 345.100,307.609 346.200 C 305.253 349.702,299.286 355.600,298.098 355.600 C 297.353 355.600,297.151 356.923,297.797 357.569 C 298.366 358.137,298.445 358.113,298.657 357.302 C 298.786 356.811,299.035 356.498,299.212 356.607 C 299.388 356.716,300.240 356.084,301.104 355.203 C 301.968 354.321,302.871 353.600,303.111 353.600 C 303.350 353.600,303.660 353.240,303.800 352.800 C 303.940 352.360,304.272 352.000,304.539 352.000 C 304.805 352.000,305.288 351.618,305.612 351.151 C 305.935 350.684,306.425 350.067,306.700 349.780 C 306.975 349.492,307.200 348.974,307.200 348.629 C 307.200 348.267,307.539 348.000,308.000 348.000 C 308.517 348.000,308.800 347.733,308.800 347.247 C 308.800 346.830,309.157 346.400,309.600 346.284 C 310.199 346.127,310.400 345.738,310.400 344.734 C 310.400 343.826,310.658 343.231,311.200 342.893 C 311.640 342.618,312.000 342.045,312.000 341.620 C 312.000 341.195,312.180 340.736,312.400 340.600 C 312.992 340.234,312.886 338.800,312.267 338.800 C 311.973 338.800,311.613 338.920,311.467 339.067 M105.569 355.630 C 105.553 355.724,105.478 356.116,105.405 356.502 C 105.331 356.888,105.434 357.102,105.635 356.978 C 105.836 356.854,106.000 357.000,106.000 357.302 C 106.000 358.018,108.679 359.319,109.019 358.769 C 109.308 358.302,108.505 357.200,107.877 357.200 C 107.643 357.200,107.035 356.809,106.526 356.330 C 106.017 355.852,105.586 355.537,105.569 355.630 M295.067 357.467 C 294.516 358.017,294.829 358.800,295.600 358.800 C 296.133 358.800,296.400 358.533,296.400 358.000 C 296.400 357.229,295.617 356.916,295.067 357.467 M109.200 359.153 C 109.200 359.348,109.515 359.618,109.900 359.754 C 110.285 359.889,110.825 360.105,111.100 360.234 C 111.415 360.380,111.600 360.158,111.600 359.633 C 111.600 358.974,111.349 358.800,110.400 358.800 C 109.740 358.800,109.200 358.959,109.200 359.153 M290.514 359.757 C 289.049 360.490,288.110 362.000,289.120 362.000 C 289.700 362.000,291.594 361.006,291.597 360.700 C 291.599 360.535,291.960 360.400,292.400 360.400 C 292.933 360.400,293.200 360.133,293.200 359.600 C 293.200 358.630,292.710 358.658,290.514 359.757 M112.867 360.319 C 111.974 360.458,111.964 360.497,112.629 361.232 C 113.551 362.251,115.200 362.261,115.200 361.247 C 115.200 360.431,114.343 360.090,112.867 360.319 M117.438 361.822 C 117.087 362.078,116.800 362.403,116.800 362.544 C 116.800 362.685,155.320 362.800,202.400 362.800 C 249.480 362.800,288.000 362.663,288.000 362.496 C 288.000 361.642,286.404 361.269,284.150 361.598 C 281.229 362.025,123.927 362.087,120.538 361.664 C 118.846 361.452,117.876 361.502,117.438 361.822 " stroke="none" fill="#888787" fill-rule="evenodd"></path><path id="path2" d="M171.690 40.001 C 170.970 40.441,169.980 40.801,169.490 40.803 C 169.001 40.804,168.060 41.163,167.400 41.600 C 166.740 42.037,165.907 42.396,165.549 42.397 C 165.191 42.399,164.674 42.670,164.400 43.000 C 164.126 43.330,163.655 43.600,163.352 43.600 C 163.049 43.600,161.925 44.230,160.853 45.000 C 159.781 45.770,158.716 46.400,158.486 46.400 C 158.255 46.400,158.007 46.535,157.933 46.700 C 157.479 47.722,155.072 49.192,154.555 48.763 C 154.109 48.393,154.000 48.481,154.000 49.211 C 154.000 49.779,153.251 50.838,152.000 52.037 C 150.900 53.092,150.000 54.063,150.000 54.195 C 150.000 54.327,149.542 54.922,148.982 55.517 C 148.422 56.113,147.421 57.541,146.758 58.692 C 146.094 59.842,145.382 60.888,145.175 61.015 C 144.969 61.143,144.800 61.613,144.800 62.061 C 144.800 62.508,144.440 63.331,144.000 63.891 C 143.560 64.450,143.200 65.323,143.200 65.830 C 143.200 66.338,143.050 66.845,142.868 66.958 C 142.685 67.071,142.305 68.207,142.023 69.482 C 141.741 70.757,141.374 71.980,141.206 72.200 C 140.890 72.614,140.032 81.182,139.884 85.400 C 139.814 87.411,139.687 87.791,139.100 87.744 C 138.715 87.714,138.400 87.844,138.400 88.035 C 138.400 88.225,128.545 88.449,116.500 88.534 C 104.455 88.618,93.880 88.803,93.000 88.945 C 92.120 89.087,89.645 89.403,87.500 89.647 C 85.355 89.891,83.600 90.254,83.600 90.454 C 83.600 90.654,83.105 91.036,82.500 91.304 C 79.327 92.707,78.407 95.520,78.118 104.702 L 77.875 112.404 76.676 113.002 C 75.808 113.435,74.125 113.600,70.581 113.600 C 66.486 113.600,65.646 113.703,65.443 114.233 C 65.126 115.058,65.126 135.742,65.443 136.567 C 65.656 137.124,67.058 137.200,77.073 137.200 C 88.387 137.200,88.466 137.206,89.264 138.102 C 90.308 139.275,90.306 139.121,90.717 248.000 C 90.894 294.970,91.184 333.940,91.361 334.600 C 91.984 336.924,95.336 344.009,96.593 345.661 C 97.037 346.244,97.806 347.255,98.303 347.908 C 99.896 350.001,102.003 352.078,104.331 353.851 C 105.579 354.801,106.820 355.765,107.089 355.995 C 107.359 356.224,108.034 356.585,108.589 356.796 C 109.145 357.007,109.600 357.365,109.600 357.590 C 109.600 357.816,110.028 358.000,110.551 358.000 C 111.074 358.000,111.726 358.270,112.000 358.600 C 112.274 358.930,112.845 359.200,113.269 359.200 C 114.159 359.200,116.400 360.281,116.400 360.710 C 116.400 361.352,287.292 360.841,288.003 360.197 C 288.366 359.869,288.922 359.600,289.238 359.600 C 289.554 359.600,290.440 359.263,291.206 358.850 C 292.190 358.321,292.865 358.200,293.500 358.440 C 294.283 358.736,294.400 358.651,294.400 357.790 C 294.400 357.073,294.616 356.800,295.184 356.800 C 295.616 356.800,296.291 356.479,296.684 356.086 C 297.078 355.694,298.120 354.887,299.000 354.294 C 303.425 351.311,308.722 344.467,310.764 339.094 C 310.993 338.492,311.365 338.000,311.590 338.000 C 311.816 338.000,312.000 337.383,312.000 336.629 C 312.000 335.874,312.270 334.987,312.600 334.657 C 313.130 334.127,313.200 322.683,313.200 236.491 L 313.200 138.924 314.041 138.162 C 314.816 137.460,315.796 137.384,326.409 137.200 C 332.749 137.090,338.048 136.887,338.186 136.749 C 338.777 136.155,338.949 114.339,338.364 113.970 C 338.054 113.773,335.520 113.609,332.733 113.606 C 325.752 113.598,326.400 114.366,326.400 106.089 C 326.400 100.238,326.294 98.946,325.766 98.363 C 325.417 97.977,325.039 96.965,324.924 96.113 C 324.707 94.492,323.093 92.361,321.134 91.108 C 320.373 90.621,320.129 90.194,320.281 89.613 C 320.536 88.638,320.172 88.571,319.308 89.435 C 318.884 89.859,318.330 89.984,317.637 89.811 C 317.067 89.669,314.440 89.453,311.800 89.330 C 309.160 89.208,306.798 88.946,306.551 88.747 C 306.296 88.543,297.155 88.395,285.435 88.407 C 274.068 88.418,264.596 88.321,264.384 88.190 C 263.694 87.764,263.897 76.814,264.600 76.545 C 265.568 76.173,265.302 75.200,264.233 75.200 C 263.276 75.200,262.400 72.908,262.400 70.404 C 262.400 69.988,262.220 69.536,262.000 69.400 C 261.780 69.264,261.600 68.827,261.600 68.430 C 261.600 67.492,260.062 63.702,259.127 62.338 C 258.727 61.754,258.400 61.087,258.400 60.856 C 258.400 60.074,254.612 54.896,252.213 52.400 C 249.604 49.685,247.977 48.252,246.100 47.014 C 245.165 46.398,244.400 45.777,244.400 45.635 C 244.400 45.492,243.860 45.172,243.200 44.922 C 242.357 44.604,241.991 44.191,241.968 43.535 C 241.951 43.021,241.846 42.825,241.735 43.100 C 241.466 43.766,240.212 43.737,239.642 43.051 C 239.391 42.749,239.299 42.209,239.436 41.851 C 239.764 40.997,238.837 40.997,238.212 41.851 C 237.708 42.541,236.000 42.028,236.000 41.186 C 236.000 40.974,235.278 40.800,234.396 40.800 C 233.287 40.800,232.581 40.553,232.107 40.000 C 231.034 38.746,173.747 38.748,171.690 40.001 M225.709 64.000 C 226.269 64.440,227.186 64.800,227.749 64.800 C 228.362 64.800,228.943 65.120,229.200 65.600 C 229.435 66.040,229.961 66.400,230.368 66.400 C 231.395 66.400,235.595 71.000,236.769 73.410 C 239.255 78.512,239.683 81.666,237.963 82.212 C 236.639 82.632,236.869 85.698,238.200 85.364 C 239.016 85.159,239.200 85.260,239.200 85.910 C 239.200 86.370,238.862 86.795,238.400 86.916 C 237.960 87.031,237.600 87.412,237.600 87.763 C 237.600 88.630,165.022 88.754,164.689 87.887 C 164.365 87.043,164.829 79.431,165.229 79.020 C 165.433 78.811,165.600 78.116,165.600 77.474 C 165.600 76.496,166.207 74.962,167.550 72.551 C 168.665 70.550,170.712 67.986,171.473 67.639 C 171.983 67.407,172.400 67.033,172.400 66.809 C 172.400 66.584,172.625 66.396,172.900 66.391 C 173.175 66.386,173.850 66.030,174.400 65.600 C 174.950 65.170,175.760 64.806,176.200 64.792 C 176.640 64.778,177.630 64.422,178.400 64.000 C 180.629 62.780,224.158 62.780,225.709 64.000 M289.158 138.162 L 290.000 138.924 290.000 190.629 C 290.000 219.580,289.847 242.392,289.652 242.467 C 289.461 242.540,289.284 252.680,289.260 265.000 C 289.120 335.904,289.198 330.117,288.361 331.026 C 287.942 331.480,287.600 331.969,287.600 332.112 C 287.600 332.575,285.020 335.200,284.565 335.200 C 284.322 335.200,283.798 335.560,283.400 336.000 C 283.002 336.440,282.349 336.800,281.950 336.800 C 281.551 336.800,280.531 337.161,279.684 337.603 C 277.428 338.779,125.012 338.678,123.710 337.500 C 123.285 337.115,122.463 336.800,121.883 336.800 C 121.238 336.800,120.662 336.489,120.400 336.000 C 120.165 335.560,119.722 335.200,119.417 335.200 C 118.710 335.200,115.606 331.603,115.603 330.780 C 115.601 330.439,115.446 329.989,115.257 329.780 C 113.920 328.296,113.172 139.178,114.500 138.087 C 115.435 137.319,117.021 137.306,202.658 137.353 C 286.296 137.399,288.336 137.418,289.158 138.162 M165.079 163.455 C 164.939 163.595,159.419 163.673,152.812 163.629 L 140.800 163.550 140.800 237.575 L 140.800 311.600 152.500 311.605 C 158.935 311.608,164.605 311.719,165.100 311.852 C 165.913 312.070,166.000 311.952,166.000 310.639 C 166.000 309.287,165.930 309.202,164.999 309.436 L 163.998 309.687 164.099 237.944 L 164.200 166.200 165.100 166.072 C 165.834 165.968,166.000 165.691,166.000 164.572 C 166.000 163.283,165.661 162.872,165.079 163.455 M189.798 164.500 C 189.679 164.995,189.630 198.250,189.691 238.400 L 189.800 311.400 201.900 311.506 L 214.000 311.612 214.000 238.086 C 214.000 181.432,213.890 164.450,213.520 164.080 C 213.169 163.729,209.948 163.600,201.528 163.600 L 190.015 163.600 189.798 164.500 M240.620 163.967 C 240.496 164.169,240.350 197.469,240.297 237.967 L 240.200 311.600 251.700 311.600 L 263.200 311.600 263.200 238.080 C 263.200 181.431,263.090 164.450,262.720 164.080 C 262.134 163.494,240.980 163.386,240.620 163.967 " stroke="none" fill="#e30424" fill-rule="evenodd"></path><path id="path3" d="M202.173 39.100 C 230.728 39.203,231.361 39.222,232.088 40.003 C 232.554 40.502,233.348 40.800,234.216 40.800 C 235.081 40.800,235.909 41.109,236.425 41.625 C 237.315 42.515,238.057 42.495,238.305 41.575 C 238.435 41.095,238.394 41.097,238.052 41.590 C 237.702 42.093,237.504 42.050,236.695 41.290 C 236.126 40.754,235.241 40.400,234.474 40.400 C 233.733 40.400,232.865 40.065,232.400 39.600 C 231.613 38.813,231.133 38.802,202.300 38.897 L 173.000 38.995 202.173 39.100 M171.376 39.787 C 170.949 40.110,170.060 40.384,169.400 40.396 C 168.740 40.408,167.750 40.770,167.200 41.200 C 166.650 41.630,165.877 41.986,165.483 41.991 C 165.089 41.996,164.380 42.360,163.908 42.800 C 163.436 43.240,163.241 43.600,163.476 43.600 C 163.710 43.600,164.126 43.330,164.400 43.000 C 164.674 42.670,165.191 42.399,165.549 42.397 C 165.907 42.396,166.740 42.037,167.400 41.600 C 168.060 41.163,169.001 40.804,169.490 40.803 C 169.980 40.801,170.970 40.441,171.690 40.001 C 172.411 39.562,172.809 39.202,172.576 39.201 C 172.344 39.201,171.804 39.464,171.376 39.787 M239.436 41.851 C 239.299 42.209,239.391 42.749,239.642 43.051 C 240.166 43.682,241.600 43.795,241.600 43.205 C 241.600 42.987,241.195 42.852,240.700 42.905 C 239.982 42.981,239.819 42.818,239.895 42.100 C 240.007 41.045,239.790 40.927,239.436 41.851 M242.000 43.211 C 242.000 44.242,242.217 44.551,243.200 44.922 C 243.860 45.172,244.400 45.492,244.400 45.635 C 244.400 45.777,245.165 46.398,246.100 47.014 C 248.977 48.911,252.874 52.764,255.463 56.271 C 256.304 57.410,257.047 58.286,257.116 58.218 C 257.682 57.652,249.205 48.366,247.106 47.252 C 246.538 46.951,245.506 46.186,244.812 45.552 C 244.118 44.918,243.271 44.400,242.929 44.400 C 242.479 44.400,242.360 44.120,242.500 43.390 C 242.606 42.835,242.537 42.285,242.346 42.167 C 242.156 42.049,242.000 42.519,242.000 43.211 M161.030 44.424 C 160.607 44.851,160.022 45.200,159.730 45.200 C 159.439 45.200,159.200 45.380,159.200 45.600 C 159.200 45.820,158.975 46.007,158.700 46.016 C 158.425 46.025,157.577 46.565,156.815 47.216 C 154.913 48.842,153.130 48.588,154.466 46.882 C 154.947 46.268,154.930 46.255,154.300 46.749 C 153.888 47.072,153.600 47.836,153.600 48.607 C 153.600 50.048,151.764 52.400,150.640 52.400 C 150.288 52.400,150.000 52.643,150.000 52.940 C 150.000 53.237,149.442 54.272,148.761 55.240 L 147.522 57.000 148.761 55.722 C 149.442 55.019,150.000 54.333,150.000 54.199 C 150.000 54.065,150.900 53.092,152.000 52.037 C 153.251 50.838,154.000 49.779,154.000 49.211 C 154.000 48.481,154.109 48.393,154.555 48.763 C 155.053 49.176,156.510 48.349,158.000 46.806 C 158.110 46.692,158.665 46.360,159.234 46.067 C 160.580 45.375,162.716 43.626,162.200 43.638 C 161.980 43.643,161.454 43.997,161.030 44.424 M146.666 58.031 C 146.275 58.489,146.012 59.035,146.082 59.246 C 146.152 59.457,146.533 59.083,146.928 58.415 C 147.764 56.998,147.669 56.859,146.666 58.031 M257.700 59.475 C 258.085 59.908,258.400 60.491,258.400 60.770 C 258.400 61.048,258.734 61.754,259.143 62.338 C 259.552 62.922,259.987 63.670,260.111 64.000 C 260.269 64.419,260.346 64.347,260.368 63.762 C 260.386 63.301,260.040 62.598,259.600 62.200 C 259.160 61.802,258.800 61.097,258.800 60.634 C 258.800 60.171,258.395 59.544,257.900 59.240 C 257.024 58.701,257.019 58.708,257.700 59.475 M144.900 60.598 C 144.625 60.911,144.400 61.596,144.400 62.121 C 144.400 62.646,144.040 63.402,143.600 63.800 C 143.160 64.198,142.800 65.025,142.800 65.638 C 142.800 66.251,142.640 66.851,142.445 66.972 C 142.250 67.093,141.965 67.868,141.812 68.696 C 141.659 69.523,141.298 70.740,141.009 71.400 C 140.398 72.799,139.599 80.114,139.599 84.300 C 139.600 86.934,139.526 87.200,138.800 87.200 C 138.360 87.200,138.000 87.380,138.000 87.600 C 138.000 87.862,130.408 88.000,116.024 88.000 C 101.804 88.000,93.960 88.141,93.800 88.400 C 93.664 88.620,92.761 88.800,91.793 88.800 C 88.620 88.800,83.833 89.670,83.000 90.399 C 82.560 90.783,81.930 91.197,81.600 91.318 C 81.126 91.491,81.146 91.543,81.700 91.568 C 82.085 91.586,82.742 91.258,83.159 90.841 C 83.700 90.300,84.940 89.956,87.459 89.645 C 89.407 89.405,91.810 89.094,92.800 88.954 C 93.790 88.814,104.455 88.627,116.500 88.540 C 128.545 88.452,138.400 88.225,138.400 88.035 C 138.400 87.844,138.715 87.714,139.100 87.744 C 139.687 87.791,139.814 87.411,139.884 85.400 C 140.032 81.182,140.890 72.614,141.206 72.200 C 141.374 71.980,141.741 70.757,142.023 69.482 C 142.305 68.207,142.685 67.071,142.868 66.958 C 143.050 66.845,143.200 66.338,143.200 65.830 C 143.200 65.323,143.560 64.450,144.000 63.891 C 144.440 63.331,144.800 62.556,144.800 62.168 C 144.800 61.780,145.098 61.134,145.462 60.731 C 145.826 60.329,145.961 60.007,145.762 60.015 C 145.563 60.024,145.175 60.286,144.900 60.598 M178.400 64.000 C 176.747 64.905,177.499 65.080,179.219 64.190 C 180.242 63.661,183.356 63.595,202.726 63.690 L 225.053 63.800 226.127 64.958 C 226.717 65.596,227.200 65.911,227.200 65.658 C 227.200 64.863,228.696 65.161,228.916 66.000 C 229.044 66.489,229.462 66.800,229.989 66.800 C 230.913 66.800,235.600 71.389,235.600 72.294 C 235.600 72.572,235.756 72.800,235.946 72.800 C 236.137 72.800,236.692 73.895,237.180 75.233 C 237.668 76.571,238.172 77.561,238.301 77.433 C 238.548 77.186,238.331 76.615,236.769 73.410 C 235.595 71.000,231.395 66.400,230.368 66.400 C 229.961 66.400,229.435 66.040,229.200 65.600 C 228.943 65.120,228.362 64.800,227.749 64.800 C 227.186 64.800,226.269 64.440,225.709 64.000 C 224.158 62.780,180.629 62.780,178.400 64.000 M174.400 65.600 C 173.850 66.030,173.603 66.386,173.851 66.391 C 174.099 66.396,174.517 66.141,174.780 65.824 C 175.043 65.507,175.650 65.172,176.129 65.078 C 176.911 64.926,176.919 64.904,176.200 64.863 C 175.760 64.838,174.950 65.170,174.400 65.600 M261.066 66.685 C 261.418 67.738,261.862 68.913,262.053 69.295 C 262.244 69.677,262.400 70.253,262.400 70.575 C 262.400 73.083,263.295 75.199,264.333 75.146 C 265.248 75.099,265.274 75.067,264.519 74.920 C 263.575 74.737,263.413 74.388,262.980 71.615 C 262.826 70.634,262.561 69.554,262.390 69.215 C 262.218 68.877,261.849 67.826,261.568 66.880 C 261.288 65.934,260.917 65.072,260.743 64.965 C 260.569 64.857,260.715 65.631,261.066 66.685 M172.400 66.809 C 172.400 67.033,171.983 67.407,171.473 67.639 C 170.712 67.986,168.665 70.550,167.550 72.551 C 166.193 74.988,165.606 76.492,165.636 77.454 C 165.671 78.560,165.685 78.552,166.052 77.200 C 166.722 74.736,168.143 72.056,168.883 71.863 C 169.308 71.751,169.600 71.303,169.600 70.762 C 169.600 70.182,170.292 69.222,171.500 68.126 C 172.545 67.179,173.175 66.403,172.900 66.402 C 172.625 66.401,172.400 66.584,172.400 66.809 M264.267 76.667 C 263.844 77.089,263.955 87.925,264.384 88.190 C 264.595 88.321,274.123 88.418,285.556 88.407 C 299.230 88.394,306.431 88.526,306.596 88.793 C 306.737 89.022,308.540 89.204,310.724 89.210 C 312.856 89.215,315.386 89.401,316.346 89.622 C 318.187 90.047,319.600 89.830,319.600 89.124 C 319.600 88.861,319.374 88.890,319.001 89.199 C 318.540 89.582,317.996 89.593,316.624 89.248 C 315.646 89.002,313.136 88.800,311.046 88.800 C 308.903 88.800,307.138 88.623,306.996 88.393 C 306.831 88.126,299.666 87.991,286.072 88.000 C 274.702 88.008,265.175 88.011,264.900 88.007 C 264.524 88.002,264.400 86.616,264.400 82.433 C 264.400 78.354,264.534 76.813,264.900 76.665 C 265.179 76.552,265.209 76.449,264.967 76.432 C 264.728 76.414,264.413 76.520,264.267 76.667 M238.400 79.713 C 238.400 81.050,238.207 81.673,237.700 81.968 C 237.315 82.192,237.212 82.381,237.471 82.388 C 238.509 82.415,239.152 81.217,238.918 79.697 C 238.589 77.568,238.400 77.574,238.400 79.713 M167.309 84.000 C 167.309 84.990,167.387 85.395,167.482 84.900 C 167.578 84.405,167.578 83.595,167.482 83.100 C 167.387 82.605,167.309 83.010,167.309 84.000 M238.400 85.606 C 238.933 85.956,238.933 86.044,238.400 86.394 C 237.886 86.731,237.901 86.789,238.500 86.794 C 238.935 86.798,239.200 86.498,239.200 86.000 C 239.200 85.502,238.935 85.202,238.500 85.206 C 237.901 85.211,237.886 85.269,238.400 85.606 M237.200 86.998 L 237.200 87.996 200.900 88.100 L 164.600 88.204 201.100 88.302 L 237.600 88.400 237.600 87.200 C 237.600 86.540,237.510 86.000,237.400 86.000 C 237.290 86.000,237.200 86.449,237.200 86.998 M320.800 90.775 C 323.274 92.736,324.802 94.627,324.860 95.798 L 324.920 97.000 325.087 95.892 C 325.296 94.509,323.455 92.049,321.296 90.828 C 319.945 90.064,319.897 90.059,320.800 90.775 M78.596 95.752 C 78.174 96.642,78.006 97.836,78.103 99.252 L 78.252 101.400 78.326 98.924 C 78.367 97.562,78.558 96.349,78.752 96.230 C 79.101 96.014,79.656 94.400,79.381 94.400 C 79.302 94.400,78.949 95.008,78.596 95.752 M325.200 97.476 C 325.200 97.710,325.470 98.126,325.800 98.400 C 326.292 98.808,326.400 100.176,326.400 106.006 C 326.400 114.379,325.749 113.598,332.733 113.606 C 335.520 113.609,338.054 113.773,338.364 113.970 C 338.949 114.339,338.777 136.155,338.186 136.749 C 338.048 136.887,332.749 137.090,326.409 137.200 C 315.796 137.384,314.816 137.460,314.041 138.162 L 313.200 138.924 313.200 236.491 C 313.200 322.683,313.130 334.127,312.600 334.657 C 312.270 334.987,312.000 335.874,312.000 336.629 C 312.000 337.383,311.822 338.000,311.605 338.000 C 311.153 338.000,309.916 340.749,310.109 341.326 C 310.179 341.536,310.482 340.964,310.782 340.054 C 311.171 338.876,311.550 338.400,312.099 338.400 C 312.771 338.400,312.837 338.204,312.612 336.869 C 312.420 335.732,312.514 335.204,312.976 334.820 C 313.538 334.353,313.600 324.595,313.600 236.541 L 313.600 138.780 314.700 138.290 C 315.459 137.952,319.231 137.764,326.866 137.682 C 336.126 137.584,338.013 137.467,338.431 136.963 C 339.231 135.999,339.506 114.352,338.726 113.705 C 338.352 113.394,336.173 113.184,332.573 113.112 L 327.000 113.000 326.891 105.873 C 326.792 99.414,326.707 98.667,325.991 97.898 C 325.556 97.431,325.200 97.241,325.200 97.476 M77.512 107.300 C 77.404 112.038,77.370 112.204,76.500 112.328 C 76.005 112.398,75.600 112.623,75.600 112.828 C 75.600 113.037,73.423 113.200,70.614 113.200 C 66.094 113.200,65.589 113.272,65.214 113.974 C 64.595 115.131,64.656 136.496,65.280 137.120 C 65.631 137.471,68.804 137.600,77.057 137.600 C 91.234 137.600,89.600 135.764,89.600 151.689 C 89.600 159.573,89.743 164.000,89.997 164.000 C 90.259 164.000,90.442 193.052,90.533 248.900 C 90.664 328.429,90.767 336.800,91.617 336.800 C 91.798 336.800,92.068 337.205,92.218 337.700 C 92.496 338.623,93.350 340.701,94.108 342.300 C 94.343 342.795,94.666 343.200,94.826 343.200 C 94.986 343.200,94.700 342.345,94.191 341.300 C 92.703 338.248,91.707 335.888,91.361 334.600 C 91.184 333.940,90.894 294.970,90.717 248.000 C 90.306 139.121,90.308 139.275,89.264 138.102 C 88.466 137.206,88.387 137.200,77.073 137.200 C 67.058 137.200,65.656 137.124,65.443 136.567 C 65.126 135.742,65.126 115.058,65.443 114.233 C 65.646 113.703,66.486 113.600,70.581 113.600 C 74.233 113.600,75.798 113.440,76.739 112.971 L 78.000 112.341 78.000 107.371 C 78.000 100.969,77.659 100.920,77.512 107.300 M67.700 111.497 C 69.185 111.574,71.615 111.574,73.100 111.497 C 74.585 111.420,73.370 111.357,70.400 111.357 C 67.430 111.357,66.215 111.420,67.700 111.497 M333.583 111.494 C 337.873 111.583,339.873 111.772,340.114 112.111 C 340.364 112.464,340.415 112.433,340.298 112.000 C 340.161 111.500,339.078 111.397,333.767 111.383 L 327.400 111.367 333.583 111.494 M159.268 137.500 C 182.735 137.557,221.255 137.557,244.868 137.500 C 268.481 137.443,249.280 137.396,202.200 137.396 C 155.120 137.396,135.801 137.443,159.268 137.500 M114.480 138.080 C 113.148 139.412,113.942 328.351,115.286 329.800 C 115.518 330.050,115.571 329.825,115.427 329.200 C 114.516 325.224,114.406 314.565,114.403 229.733 L 114.400 138.467 115.500 138.065 C 116.392 137.739,116.445 137.657,115.780 137.632 C 115.329 137.614,114.744 137.816,114.480 138.080 M288.730 138.526 L 289.600 139.452 289.600 190.726 C 289.600 224.642,289.465 242.000,289.200 242.000 C 288.939 242.000,288.833 246.837,288.895 255.900 L 288.989 269.800 289.100 256.100 C 289.170 247.430,289.355 242.400,289.605 242.400 C 290.447 242.400,290.113 139.026,289.269 138.262 C 288.162 137.261,287.738 137.469,288.730 138.526 M165.101 163.032 C 164.973 163.160,159.363 163.244,152.633 163.218 L 140.398 163.170 140.499 237.485 L 140.600 311.800 152.700 311.809 L 164.800 311.818 152.800 311.703 L 140.800 311.588 140.800 237.569 L 140.800 163.550 152.739 163.629 C 160.864 163.683,164.921 163.567,165.439 163.266 C 165.857 163.023,166.005 162.819,165.767 162.812 C 165.528 162.805,165.229 162.905,165.101 163.032 M189.648 163.742 C 189.317 164.141,189.225 183.858,189.299 238.042 L 189.400 311.800 201.800 311.812 L 214.200 311.824 202.000 311.612 L 189.800 311.400 189.691 238.400 C 189.630 198.250,189.679 164.995,189.798 164.500 L 190.015 163.600 201.585 163.600 C 213.087 163.600,213.158 163.605,213.777 164.489 C 214.480 165.492,214.617 165.153,213.986 163.974 C 213.448 162.968,190.472 162.749,189.648 163.742 M216.196 238.000 C 216.196 279.250,216.243 296.125,216.300 275.500 C 216.357 254.875,216.357 221.125,216.300 200.500 C 216.243 179.875,216.196 196.750,216.196 238.000 M240.300 163.757 C 239.915 164.049,239.600 164.533,239.600 164.833 C 239.600 165.146,239.866 164.999,240.223 164.489 C 240.961 163.435,261.698 163.058,262.720 164.080 C 263.090 164.450,263.200 181.431,263.200 238.080 L 263.200 311.600 251.700 311.600 L 240.200 311.600 240.305 238.528 C 240.363 198.338,240.321 165.546,240.211 165.656 C 240.101 165.766,240.003 198.694,239.995 238.828 L 239.979 311.800 251.689 311.800 L 263.400 311.800 263.501 238.045 C 263.597 168.160,263.565 164.262,262.901 163.758 C 261.884 162.986,241.317 162.985,240.300 163.757 M164.267 166.267 C 163.549 166.985,163.980 309.601,164.700 309.568 C 165.118 309.550,165.199 309.456,164.900 309.335 C 164.503 309.175,164.400 294.492,164.400 237.800 C 164.400 181.108,164.503 166.425,164.900 166.265 C 165.179 166.152,165.209 166.049,164.967 166.032 C 164.728 166.014,164.413 166.120,164.267 166.267 M289.107 294.937 C 289.268 307.095,289.444 308.144,289.520 297.400 C 289.557 292.120,289.456 287.592,289.294 287.337 C 289.132 287.082,289.048 290.502,289.107 294.937 M288.892 320.538 C 288.790 330.707,288.896 330.274,285.656 333.700 C 284.876 334.525,284.410 335.200,284.622 335.200 C 285.036 335.200,287.600 332.542,287.600 332.112 C 287.600 331.969,287.963 331.465,288.408 330.992 C 289.177 330.172,289.210 329.696,289.100 320.766 L 288.985 311.400 288.892 320.538 M115.634 330.800 C 115.596 331.588,118.702 335.200,119.417 335.200 C 119.722 335.200,120.165 335.560,120.400 336.000 C 120.662 336.489,121.238 336.800,121.883 336.800 C 122.463 336.800,123.285 337.115,123.710 337.500 C 124.964 338.634,278.438 338.581,280.112 337.446 C 280.724 337.031,281.130 336.597,281.015 336.482 C 280.899 336.366,280.425 336.615,279.960 337.036 C 278.696 338.181,125.060 338.244,124.224 337.100 C 123.898 336.655,123.181 336.400,122.256 336.400 C 121.237 336.400,120.800 336.222,120.800 335.808 C 120.800 335.482,120.345 335.101,119.789 334.961 C 118.830 334.721,116.362 332.090,115.885 330.800 C 115.688 330.267,115.660 330.267,115.634 330.800 M309.232 342.322 C 309.126 344.060,302.258 352.097,299.000 354.294 C 298.120 354.887,297.078 355.694,296.684 356.086 C 296.291 356.479,295.616 356.800,295.184 356.800 C 294.582 356.800,294.413 357.055,294.454 357.900 C 294.501 358.843,294.534 358.872,294.682 358.100 C 294.804 357.469,295.139 357.200,295.801 357.200 C 296.395 357.200,296.840 356.903,297.000 356.400 C 297.140 355.960,297.489 355.600,297.775 355.600 C 299.548 355.600,310.020 343.660,309.458 342.279 C 309.318 341.935,309.254 341.947,309.232 342.322 M95.206 343.969 C 95.203 344.281,95.499 344.867,95.864 345.271 C 96.230 345.675,96.725 346.395,96.964 346.871 C 97.204 347.347,97.670 347.810,98.000 347.899 C 98.365 347.997,98.439 347.931,98.191 347.730 C 97.757 347.380,96.530 345.660,95.706 344.247 C 95.406 343.733,95.209 343.623,95.206 343.969 M100.779 351.378 C 101.920 352.592,102.174 352.673,101.625 351.647 C 101.404 351.233,100.906 350.773,100.521 350.625 C 99.998 350.424,100.063 350.616,100.779 351.378 M103.914 353.961 C 104.857 354.894,105.780 355.599,105.966 355.529 C 106.151 355.458,105.379 354.695,104.251 353.833 L 102.200 352.266 103.914 353.961 M106.800 355.891 C 106.800 356.468,107.715 357.200,108.437 357.200 C 108.810 357.200,109.218 357.470,109.345 357.800 C 109.471 358.130,110.009 358.400,110.538 358.400 C 111.068 358.400,111.726 358.670,112.000 359.000 C 112.274 359.330,112.848 359.600,113.275 359.600 C 115.005 359.600,116.531 360.920,116.164 362.100 C 116.038 362.506,116.153 362.800,116.440 362.800 C 116.711 362.800,116.822 362.689,116.686 362.552 C 115.337 361.204,115.562 361.200,202.608 361.200 C 287.068 361.200,287.681 361.194,288.691 360.400 C 289.250 359.960,289.473 359.600,289.185 359.600 C 288.898 359.600,288.366 359.869,288.003 360.197 C 287.292 360.841,116.400 361.352,116.400 360.710 C 116.400 360.281,114.159 359.200,113.269 359.200 C 112.845 359.200,112.274 358.930,112.000 358.600 C 111.726 358.270,111.093 358.000,110.594 358.000 C 110.094 358.000,109.582 357.730,109.455 357.400 C 109.329 357.070,108.962 356.800,108.641 356.800 C 108.320 356.800,107.774 356.517,107.429 356.171 C 107.083 355.826,106.800 355.700,106.800 355.891 M291.192 358.860 C 290.315 359.331,290.075 359.600,290.535 359.600 C 290.932 359.600,291.511 359.346,291.822 359.036 C 292.132 358.725,292.749 358.566,293.193 358.682 C 293.637 358.798,294.000 358.803,294.000 358.693 C 294.000 358.117,292.401 358.212,291.192 358.860 " stroke="none" fill="#9c2939" fill-rule="evenodd"></path><path id="path4" d="M170.564 38.651 C 170.711 39.033,170.522 39.545,170.107 39.893 C 169.515 40.389,169.567 40.386,170.429 39.879 C 170.995 39.546,171.895 39.192,172.429 39.092 C 173.357 38.917,173.360 38.907,172.500 38.854 C 172.005 38.825,171.600 38.620,171.600 38.400 C 171.600 38.180,171.311 38.000,170.957 38.000 C 170.528 38.000,170.397 38.216,170.564 38.651 M232.510 38.799 C 232.454 39.546,233.832 40.701,234.264 40.269 C 234.372 40.161,234.079 39.952,233.613 39.804 C 233.002 39.610,232.834 39.322,233.010 38.768 C 233.144 38.345,233.100 38.000,232.912 38.000 C 232.724 38.000,232.543 38.360,232.510 38.799 M190.529 38.700 C 197.089 38.762,207.709 38.761,214.129 38.700 C 220.548 38.638,215.180 38.587,202.200 38.588 C 189.220 38.588,183.968 38.638,190.529 38.700 M236.534 40.396 C 236.579 41.072,236.857 41.418,237.400 41.473 C 237.976 41.531,238.011 41.498,237.525 41.352 C 237.153 41.242,236.764 40.757,236.659 40.275 C 236.500 39.542,236.480 39.561,236.534 40.396 M164.000 41.600 C 164.000 41.820,164.495 41.997,165.100 41.994 C 165.957 41.989,166.068 41.902,165.600 41.600 C 164.817 41.094,164.000 41.094,164.000 41.600 M160.800 44.084 C 160.030 44.773,159.850 45.031,160.400 44.657 C 160.950 44.284,161.940 43.720,162.600 43.405 C 163.520 42.965,163.614 42.831,163.000 42.832 C 162.560 42.832,161.570 43.396,160.800 44.084 M244.552 44.142 C 244.218 44.525,244.257 44.850,244.706 45.427 C 245.275 46.159,245.294 46.160,245.047 45.449 C 244.904 45.036,244.991 44.451,245.242 44.149 C 245.817 43.456,245.158 43.450,244.552 44.142 M157.071 46.700 C 156.483 47.288,156.315 47.309,156.022 46.835 C 155.727 46.358,155.570 46.373,155.011 46.932 C 154.647 47.296,154.452 47.761,154.578 47.964 C 154.844 48.395,156.874 47.475,157.607 46.592 C 158.285 45.775,157.924 45.848,157.071 46.700 M148.908 52.541 C 148.417 52.784,147.918 53.237,147.799 53.548 C 147.613 54.032,147.679 54.033,148.257 53.557 C 148.872 53.050,148.908 53.108,148.660 54.200 C 148.404 55.330,148.423 55.355,148.994 54.624 C 149.327 54.196,149.600 53.534,149.600 53.151 C 149.600 52.748,149.978 52.383,150.500 52.282 C 151.234 52.141,151.252 52.108,150.600 52.104 C 150.160 52.101,149.398 52.297,148.908 52.541 M258.714 60.392 C 258.812 61.062,259.015 61.685,259.164 61.778 C 259.614 62.056,259.434 60.074,258.967 59.607 C 258.657 59.297,258.585 59.520,258.714 60.392 M182.100 63.887 C 182.705 63.978,183.695 63.978,184.300 63.887 C 184.905 63.795,184.410 63.720,183.200 63.720 C 181.990 63.720,181.495 63.795,182.100 63.887 M219.100 63.889 C 219.815 63.978,220.985 63.978,221.700 63.889 C 222.415 63.801,221.830 63.728,220.400 63.728 C 218.970 63.728,218.385 63.801,219.100 63.889 M179.467 64.267 C 179.039 64.694,179.160 66.000,179.627 66.000 C 179.866 66.000,179.947 65.662,179.810 65.233 C 179.641 64.700,179.786 64.408,180.283 64.279 C 180.840 64.134,180.858 64.082,180.367 64.046 C 180.018 64.021,179.613 64.120,179.467 64.267 M224.117 64.279 C 224.642 64.415,224.763 64.697,224.572 65.333 C 224.366 66.016,224.416 66.100,224.808 65.727 C 225.470 65.098,225.010 63.988,224.113 64.046 C 223.434 64.091,223.434 64.102,224.117 64.279 M141.449 68.215 C 141.312 68.573,141.218 69.256,141.241 69.733 C 141.267 70.281,141.403 70.086,141.610 69.203 C 141.960 67.716,141.865 67.133,141.449 68.215 M171.800 68.027 C 171.360 68.201,171.225 68.356,171.500 68.372 C 171.775 68.387,172.000 68.706,172.000 69.080 C 172.000 69.572,172.121 69.639,172.438 69.322 C 173.172 68.588,172.717 67.663,171.800 68.027 M263.600 68.400 C 263.600 68.840,263.420 69.200,263.200 69.200 C 262.980 69.200,262.800 69.020,262.800 68.800 C 262.800 68.580,262.598 68.400,262.351 68.400 C 262.022 68.400,262.021 68.543,262.345 68.933 C 262.588 69.227,262.949 70.442,263.147 71.633 L 263.506 73.800 263.553 71.476 C 263.579 70.198,263.754 69.248,263.942 69.364 C 264.130 69.481,264.199 69.131,264.096 68.588 C 263.868 67.397,263.600 67.296,263.600 68.400 M170.213 69.585 C 169.823 70.017,169.609 70.647,169.739 70.985 C 170.007 71.683,170.634 71.793,170.997 71.205 C 171.137 70.978,170.977 70.911,170.621 71.047 C 169.796 71.364,169.821 70.461,170.662 69.531 C 171.026 69.129,171.234 68.800,171.124 68.800 C 171.014 68.800,170.604 69.153,170.213 69.585 M140.300 71.103 C 139.571 71.265,139.299 72.800,140.000 72.800 C 140.220 72.800,140.400 72.545,140.400 72.233 C 140.400 71.922,140.625 71.586,140.900 71.488 C 141.619 71.231,141.131 70.918,140.300 71.103 M235.714 73.320 C 236.201 73.826,236.674 74.187,236.764 74.123 C 236.998 73.955,235.542 72.400,235.152 72.400 C 234.974 72.400,235.227 72.814,235.714 73.320 M139.600 75.867 C 139.600 77.333,139.666 78.458,139.746 78.367 C 140.091 77.972,140.291 73.200,139.962 73.200 C 139.763 73.200,139.600 74.400,139.600 75.867 M264.000 74.400 C 264.776 74.901,265.200 74.901,265.200 74.400 C 265.200 74.180,264.795 74.003,264.300 74.006 C 263.572 74.011,263.515 74.086,264.000 74.400 M236.400 75.437 C 236.400 75.861,236.769 76.438,237.219 76.719 C 238.012 77.214,237.764 76.545,236.521 74.833 C 236.454 74.742,236.400 75.013,236.400 75.437 M238.114 79.400 C 238.117 80.500,238.195 80.903,238.287 80.295 C 238.379 79.686,238.377 78.786,238.282 78.295 C 238.187 77.803,238.111 78.300,238.114 79.400 M264.400 82.776 C 264.400 85.403,264.535 87.636,264.700 87.738 C 264.865 87.839,265.000 85.690,265.000 82.961 C 265.000 80.232,264.865 78.000,264.700 78.000 C 264.535 78.000,264.400 80.149,264.400 82.776 M139.072 79.907 C 138.892 80.185,138.577 80.309,138.372 80.183 C 138.168 80.056,138.000 80.403,138.000 80.953 C 138.000 81.503,138.160 82.051,138.355 82.172 C 138.919 82.521,139.674 81.332,139.530 80.322 C 139.438 79.676,139.301 79.552,139.072 79.907 M164.883 83.876 C 164.800 87.551,165.154 88.610,166.135 87.621 C 166.489 87.264,166.437 87.215,165.915 87.413 C 165.305 87.645,165.217 87.269,165.099 83.937 L 164.966 80.200 164.883 83.876 M87.134 87.551 C 87.428 87.737,87.646 88.049,87.618 88.245 C 87.591 88.440,87.961 88.661,88.440 88.735 C 89.116 88.840,89.255 88.720,89.056 88.202 C 88.915 87.835,88.800 87.459,88.800 87.367 C 88.800 87.275,88.305 87.203,87.700 87.206 C 86.944 87.210,86.767 87.318,87.134 87.551 M315.200 88.000 C 315.200 88.440,315.455 88.800,315.767 88.800 C 316.079 88.800,316.664 88.907,317.067 89.038 C 317.632 89.221,317.672 89.184,317.242 88.878 C 316.935 88.660,316.794 88.193,316.929 87.840 C 317.114 87.360,316.929 87.200,316.187 87.200 C 315.467 87.200,315.200 87.416,315.200 88.000 M82.854 89.908 C 82.447 90.859,82.458 90.910,82.938 90.300 C 83.240 89.915,83.993 89.600,84.611 89.600 C 85.915 89.600,85.829 89.415,84.361 89.064 C 83.496 88.857,83.243 88.998,82.854 89.908 M325.636 96.852 C 325.982 97.663,326.280 97.849,326.942 97.668 C 327.759 97.444,327.762 97.424,327.010 97.270 C 326.575 97.180,325.988 96.813,325.703 96.453 C 325.272 95.907,325.260 95.972,325.636 96.852 M77.385 100.185 C 77.230 101.423,77.190 102.523,77.295 102.629 C 77.401 102.734,77.607 101.801,77.754 100.554 C 77.900 99.307,77.941 98.207,77.843 98.110 C 77.746 98.012,77.539 98.946,77.385 100.185 M75.722 106.191 C 75.929 112.414,77.200 114.560,77.200 108.686 C 77.200 106.110,77.069 105.226,76.700 105.300 C 76.348 105.370,76.239 104.908,76.330 103.742 C 76.403 102.814,76.264 101.963,76.014 101.809 C 75.692 101.610,75.611 102.831,75.722 106.191 M64.893 112.800 C 64.893 113.570,64.975 113.885,65.076 113.500 C 65.176 113.115,65.176 112.485,65.076 112.100 C 64.975 111.715,64.893 112.030,64.893 112.800 M328.000 111.933 C 328.000 112.190,327.685 112.403,327.300 112.406 C 326.708 112.411,326.692 112.470,327.194 112.788 C 327.802 113.172,328.735 112.202,328.237 111.703 C 328.106 111.573,328.000 111.677,328.000 111.933 M65.225 137.489 C 65.678 138.217,66.105 138.364,67.589 138.304 C 68.585 138.264,70.300 138.403,71.400 138.613 L 73.400 138.996 69.600 139.243 C 67.510 139.379,69.490 139.407,74.000 139.306 C 78.510 139.205,82.275 139.049,82.367 138.961 C 83.017 138.333,81.736 138.198,70.600 137.716 C 67.939 137.601,65.549 137.306,65.236 137.054 C 64.751 136.664,64.750 136.726,65.225 137.489 M338.626 137.158 C 338.505 137.354,338.837 137.489,339.364 137.458 C 339.892 137.426,340.240 137.265,340.138 137.100 C 339.882 136.685,338.895 136.723,338.626 137.158 M329.082 137.852 C 329.015 137.918,327.573 138.041,325.876 138.124 C 323.044 138.263,321.991 138.524,322.441 138.974 C 322.536 139.070,326.031 139.233,330.207 139.337 C 334.383 139.440,336.630 139.407,335.200 139.263 C 332.343 138.974,332.453 138.276,335.346 138.334 C 336.259 138.352,337.275 138.196,337.603 137.986 C 337.998 137.735,336.676 137.627,333.701 137.669 C 331.227 137.703,329.148 137.785,329.082 137.852 M114.400 138.714 C 114.400 138.887,114.760 139.029,115.200 139.029 C 115.640 139.029,116.000 138.887,116.000 138.714 C 116.000 138.541,115.640 138.400,115.200 138.400 C 114.760 138.400,114.400 138.541,114.400 138.714 M314.027 138.967 C 313.756 139.294,313.618 139.885,313.721 140.281 C 313.871 140.860,313.916 140.829,313.954 140.124 C 314.021 138.856,314.742 138.596,315.199 139.674 L 315.592 140.600 315.496 139.631 C 315.380 138.462,314.701 138.155,314.027 138.967 M139.843 163.833 C 139.145 165.652,139.595 311.498,140.300 312.051 C 140.921 312.538,140.944 312.528,140.497 311.955 C 140.096 311.441,140.015 296.264,140.097 237.255 C 140.154 196.525,140.174 163.200,140.143 163.200 C 140.111 163.200,139.976 163.485,139.843 163.833 M237.200 237.400 C 237.200 278.283,237.289 311.644,237.398 311.535 C 237.661 311.272,237.667 163.534,237.404 163.271 C 237.292 163.159,237.200 196.517,237.200 237.400 M313.796 248.400 C 313.796 295.370,313.843 314.585,313.900 291.100 C 313.957 267.615,313.957 229.185,313.900 205.700 C 313.843 182.215,313.796 201.430,313.796 248.400 M188.899 237.851 C 188.805 307.587,188.837 311.531,189.500 312.051 C 190.120 312.537,190.143 312.527,189.701 311.960 C 189.307 311.456,189.181 295.790,189.100 237.760 L 188.998 164.200 188.899 237.851 M116.579 262.400 C 116.579 269.550,116.633 272.475,116.699 268.900 C 116.766 265.325,116.766 259.475,116.699 255.900 C 116.633 252.325,116.579 255.250,116.579 262.400 M114.654 298.000 C 114.739 311.090,114.916 322.475,115.048 323.300 C 115.315 324.970,116.000 325.347,116.000 323.824 C 116.000 323.287,116.161 322.748,116.359 322.626 C 116.556 322.504,116.725 319.928,116.735 316.902 C 116.748 312.998,116.641 311.678,116.368 312.357 C 116.157 312.884,116.022 314.324,116.070 315.557 C 116.118 316.791,115.947 318.160,115.691 318.600 C 115.084 319.641,115.146 321.243,114.795 295.600 L 114.501 274.200 114.654 298.000 M116.572 285.000 C 116.572 290.060,116.629 292.075,116.699 289.477 C 116.769 286.880,116.768 282.740,116.698 280.277 C 116.628 277.815,116.571 279.940,116.572 285.000 M288.977 299.800 C 288.977 306.400,289.032 309.156,289.099 305.925 C 289.166 302.693,289.166 297.293,289.099 293.925 C 289.032 290.556,288.977 293.200,288.977 299.800 M89.200 312.687 C 89.200 323.273,89.091 332.219,88.957 332.567 C 88.790 333.004,88.944 333.200,89.457 333.200 C 90.320 333.200,90.468 294.708,89.608 293.848 C 89.331 293.571,89.200 299.595,89.200 312.687 M163.800 312.280 C 164.460 312.385,165.254 312.680,165.565 312.935 C 166.012 313.303,166.089 313.275,165.934 312.800 C 165.809 312.416,165.173 312.180,164.169 312.145 C 162.984 312.103,162.894 312.136,163.800 312.280 M115.467 326.267 C 115.320 326.413,115.225 327.088,115.254 327.767 C 115.302 328.846,115.331 328.875,115.483 328.000 C 115.578 327.450,115.948 326.775,116.305 326.500 C 116.864 326.069,116.869 326.000,116.343 326.000 C 116.008 326.000,115.613 326.120,115.467 326.267 M116.897 332.054 C 117.949 334.056,120.400 335.685,120.400 334.382 C 120.400 334.153,120.175 334.011,119.900 334.066 C 119.234 334.201,117.600 333.126,117.600 332.553 C 117.600 332.303,117.329 331.873,116.997 331.598 C 116.468 331.159,116.456 331.215,116.897 332.054 M285.315 333.610 C 284.389 334.485,283.767 335.200,283.934 335.200 C 284.101 335.200,284.941 334.480,285.800 333.600 C 287.810 331.541,287.500 331.548,285.315 333.610 M90.443 335.057 C 90.403 336.595,91.238 337.695,91.924 337.009 C 92.039 336.894,91.934 336.800,91.690 336.800 C 91.446 336.800,91.076 336.035,90.866 335.100 L 90.486 333.400 90.443 335.057 M124.952 336.181 C 124.507 337.341,125.236 337.600,128.724 337.520 L 132.200 337.439 129.100 337.303 C 124.905 337.118,124.962 336.308,129.200 335.872 C 129.970 335.793,129.379 335.699,127.887 335.664 C 125.841 335.616,125.120 335.743,124.952 336.181 M274.595 335.897 C 277.553 336.199,277.650 336.969,274.766 337.254 C 272.240 337.505,272.252 337.508,275.468 337.453 C 279.027 337.392,279.621 337.164,278.676 336.219 C 278.231 335.774,277.348 335.619,275.529 335.667 C 273.671 335.717,273.423 335.778,274.595 335.897 M92.000 338.600 C 92.000 339.150,92.155 339.600,92.345 339.600 C 92.534 339.600,92.603 339.150,92.498 338.600 C 92.393 338.050,92.238 337.600,92.153 337.600 C 92.069 337.600,92.000 338.050,92.000 338.600 M170.700 337.900 C 188.135 337.958,216.665 337.958,234.100 337.900 C 251.535 337.842,237.270 337.795,202.400 337.795 C 167.530 337.795,153.265 337.842,170.700 337.900 M95.684 345.403 C 95.840 345.645,96.144 346.283,96.359 346.822 C 96.606 347.440,96.759 347.559,96.775 347.144 C 96.789 346.784,96.485 346.145,96.100 345.725 C 95.715 345.306,95.528 345.160,95.684 345.403 M104.400 355.541 C 104.400 355.967,104.640 356.407,104.933 356.519 C 105.227 356.632,105.467 356.508,105.467 356.244 C 105.467 355.981,105.227 355.541,104.933 355.267 C 104.501 354.863,104.400 354.915,104.400 355.541 M296.864 356.619 C 296.225 358.022,296.255 358.618,296.937 358.052 C 297.232 357.807,297.631 357.740,297.824 357.903 C 298.016 358.067,297.951 357.908,297.680 357.551 C 297.408 357.194,297.299 356.609,297.436 356.251 C 297.838 355.204,297.372 355.503,296.864 356.619 M110.875 358.648 C 111.247 358.758,111.636 359.243,111.741 359.725 C 111.900 360.458,111.920 360.439,111.866 359.604 C 111.821 358.928,111.543 358.582,111.000 358.527 C 110.424 358.469,110.389 358.502,110.875 358.648 M161.700 361.900 C 183.645 361.957,219.555 361.957,241.500 361.900 C 263.445 361.843,245.490 361.796,201.600 361.796 C 157.710 361.796,139.755 361.843,161.700 361.900 " stroke="none" fill="#7c7c7c" fill-rule="evenodd"></path></g></svg>