<svg id="svg" version="1.1" xmlns="http://www.w3.org/2000/svg" xmlns:xlink="http://www.w3.org/1999/xlink" width="400" height="400" viewBox="0, 0, 400,400"><g id="svgg"><path id="path0" d="M274.143 44.777 C 272.510 45.660,271.600 46.588,271.600 47.371 C 271.600 47.733,271.261 48.000,270.800 48.000 C 270.348 48.000,270.000 48.267,270.000 48.613 C 270.000 48.949,269.685 49.340,269.300 49.481 C 268.915 49.622,268.133 50.201,267.562 50.768 C 266.237 52.085,264.800 52.936,264.800 52.403 C 264.800 52.182,264.621 52.000,264.402 52.000 C 263.854 52.000,260.000 55.817,260.000 56.360 C 260.000 56.602,259.724 56.800,259.387 56.800 C 259.051 56.800,258.660 57.099,258.520 57.465 C 258.379 57.831,256.927 59.406,255.292 60.965 C 250.079 65.937,245.200 70.763,245.200 70.949 C 245.200 71.334,240.951 75.457,240.295 75.708 C 239.913 75.855,239.600 76.230,239.600 76.541 C 239.600 76.852,239.240 77.201,238.800 77.316 C 237.821 77.572,237.571 81.600,238.534 81.600 C 238.828 81.600,244.370 76.335,250.849 69.900 C 273.014 47.888,275.179 46.000,278.257 46.000 C 279.526 46.000,281.697 44.880,281.389 44.383 C 280.985 43.729,275.534 44.026,274.143 44.777 M284.267 44.267 C 283.548 44.985,285.420 46.000,287.466 46.000 C 290.552 46.000,290.095 45.585,323.131 78.323 C 351.909 106.841,353.200 108.247,353.200 111.079 C 353.200 112.455,354.052 114.400,354.654 114.400 C 355.799 114.400,355.225 107.032,354.067 106.868 C 353.196 106.744,353.182 106.702,353.852 106.212 C 354.701 105.591,354.069 103.600,353.023 103.600 C 352.696 103.600,352.235 103.240,352.000 102.800 C 351.765 102.360,351.308 102.000,350.986 102.000 C 350.664 102.000,350.400 101.864,350.400 101.698 C 350.400 101.235,345.655 96.400,345.200 96.400 C 344.980 96.400,344.800 96.230,344.800 96.022 C 344.800 95.814,343.900 94.758,342.800 93.676 C 341.700 92.593,340.800 91.497,340.800 91.241 C 340.800 90.985,340.485 90.655,340.100 90.508 C 339.257 90.187,328.800 79.693,328.800 79.168 C 328.800 78.966,328.530 78.800,328.200 78.800 C 327.870 78.800,327.600 78.524,327.600 78.187 C 327.600 77.851,327.285 77.460,326.900 77.319 C 326.188 77.059,319.992 70.886,316.000 66.460 C 314.790 65.118,313.666 64.015,313.503 64.010 C 313.028 63.994,307.385 58.260,307.092 57.495 C 306.945 57.113,306.570 56.800,306.259 56.800 C 305.948 56.800,305.595 56.425,305.475 55.967 C 305.313 55.345,304.972 55.153,304.129 55.209 C 301.720 55.370,301.104 55.227,301.359 54.563 C 301.522 54.138,301.336 53.856,300.802 53.716 C 300.361 53.601,300.000 53.320,300.000 53.091 C 300.000 52.439,296.935 49.600,296.231 49.600 C 295.867 49.600,295.600 49.262,295.600 48.800 C 295.600 48.267,295.333 48.000,294.800 48.000 C 294.302 48.000,294.000 47.733,294.000 47.294 C 294.000 45.256,285.821 42.713,284.267 44.267 M238.000 83.000 C 238.000 83.550,238.180 84.000,238.400 84.000 C 238.620 84.000,238.800 84.258,238.800 84.573 C 238.800 84.888,239.160 85.260,239.600 85.400 C 240.040 85.540,240.400 85.912,240.400 86.227 C 240.400 86.542,240.760 86.800,241.200 86.800 C 241.644 86.800,242.000 87.067,242.000 87.400 C 242.000 87.730,242.258 88.000,242.573 88.000 C 242.888 88.000,243.260 88.360,243.400 88.800 C 243.540 89.240,243.912 89.600,244.227 89.600 C 244.542 89.600,244.800 89.858,244.800 90.173 C 244.800 90.488,245.160 90.860,245.600 91.000 C 246.040 91.140,246.400 91.512,246.400 91.827 C 246.400 92.142,246.760 92.400,247.200 92.400 C 247.733 92.400,248.000 92.667,248.000 93.200 C 248.000 93.733,248.267 94.000,248.800 94.000 C 249.333 94.000,249.600 94.267,249.600 94.800 C 249.600 95.339,249.867 95.600,250.418 95.600 C 250.894 95.600,251.186 95.824,251.118 96.137 C 250.966 96.830,253.720 99.600,254.560 99.600 C 254.933 99.600,255.200 99.933,255.200 100.400 C 255.200 100.933,255.467 101.200,256.000 101.200 C 256.533 101.200,256.800 101.467,256.800 102.000 C 256.800 102.533,257.067 102.800,257.600 102.800 C 258.133 102.800,258.400 103.067,258.400 103.600 C 258.400 104.040,258.658 104.400,258.973 104.400 C 259.288 104.400,259.660 104.760,259.800 105.200 C 259.940 105.640,260.312 106.000,260.627 106.000 C 260.942 106.000,261.200 106.258,261.200 106.573 C 261.200 106.888,261.563 107.261,262.006 107.402 C 262.449 107.543,262.708 107.826,262.580 108.032 C 262.453 108.237,262.624 108.511,262.959 108.640 C 263.295 108.769,263.679 109.217,263.812 109.637 C 263.945 110.057,264.228 110.400,264.440 110.400 C 264.653 110.400,265.355 110.940,266.000 111.600 C 266.645 112.260,267.449 112.800,267.787 112.800 C 268.133 112.800,268.400 113.148,268.400 113.600 C 268.400 114.133,268.667 114.400,269.200 114.400 C 269.733 114.400,270.000 114.667,270.000 115.200 C 270.000 115.733,270.267 116.000,270.800 116.000 C 271.333 116.000,271.600 116.267,271.600 116.800 C 271.600 117.333,271.867 117.600,272.400 117.600 C 272.933 117.600,273.200 117.867,273.200 118.400 C 273.200 118.929,273.467 119.200,273.987 119.200 C 274.521 119.200,274.701 119.392,274.546 119.797 C 274.415 120.137,274.592 120.499,274.958 120.639 C 275.311 120.775,275.600 121.115,275.600 121.396 C 275.600 121.677,275.960 122.001,276.400 122.116 C 276.840 122.231,277.200 122.612,277.200 122.963 C 277.200 123.313,277.470 123.600,277.800 123.600 C 278.130 123.600,278.400 123.768,278.400 123.973 C 278.400 124.178,278.760 124.460,279.200 124.600 C 279.640 124.740,280.000 125.112,280.000 125.427 C 280.000 125.742,280.360 126.000,280.800 126.000 C 281.333 126.000,281.600 126.267,281.600 126.800 C 281.600 127.333,281.867 127.600,282.400 127.600 C 282.933 127.600,283.200 127.867,283.200 128.400 C 283.200 128.933,283.467 129.200,284.000 129.200 C 284.533 129.200,284.800 129.467,284.800 130.000 C 284.800 130.533,285.067 130.800,285.600 130.800 C 286.133 130.800,286.400 131.067,286.400 131.600 C 286.400 132.040,286.664 132.400,286.987 132.400 C 287.329 132.400,287.484 132.636,287.359 132.964 C 287.228 133.303,287.473 133.633,287.971 133.791 C 288.427 133.936,288.800 134.300,288.800 134.600 C 288.800 134.900,289.160 135.260,289.600 135.400 C 290.040 135.540,290.400 135.822,290.400 136.027 C 290.400 136.232,290.760 136.400,291.200 136.400 C 291.733 136.400,292.000 136.667,292.000 137.200 C 292.000 137.640,292.258 138.000,292.573 138.000 C 292.888 138.000,293.260 138.360,293.400 138.800 C 293.540 139.240,293.912 139.600,294.227 139.600 C 294.542 139.600,294.800 139.858,294.800 140.173 C 294.800 140.488,295.160 140.860,295.600 141.000 C 296.040 141.140,296.400 141.512,296.400 141.827 C 296.400 142.142,296.760 142.400,297.200 142.400 C 297.733 142.400,298.000 142.667,298.000 143.200 C 298.000 143.747,298.267 144.000,298.843 144.000 C 299.437 144.000,299.616 144.182,299.450 144.615 C 299.317 144.961,299.466 145.327,299.792 145.452 C 300.109 145.574,300.479 146.017,300.612 146.437 C 300.745 146.857,301.093 147.200,301.384 147.200 C 301.676 147.200,302.025 147.489,302.161 147.842 C 302.301 148.208,302.663 148.385,303.003 148.254 C 303.408 148.099,303.600 148.279,303.600 148.813 C 303.600 149.333,303.871 149.600,304.400 149.600 C 304.933 149.600,305.200 149.867,305.200 150.400 C 305.200 150.933,305.467 151.200,306.000 151.200 C 306.533 151.200,306.800 151.467,306.800 152.000 C 306.800 152.533,307.067 152.800,307.600 152.800 C 308.133 152.800,308.400 153.067,308.400 153.600 C 308.400 154.040,308.572 154.400,308.782 154.400 C 309.281 154.400,311.173 156.294,310.923 156.543 C 310.818 156.649,311.107 156.936,311.566 157.182 C 312.025 157.427,312.400 157.892,312.400 158.214 C 312.400 158.536,312.658 158.800,312.973 158.800 C 313.288 158.800,313.660 159.160,313.800 159.600 C 313.940 160.040,314.312 160.400,314.627 160.400 C 314.942 160.400,315.200 160.580,315.200 160.800 C 315.200 161.587,321.094 161.285,321.677 160.468 C 321.965 160.065,322.695 159.415,323.300 159.022 C 323.905 158.629,324.400 158.080,324.400 157.801 C 324.400 157.522,324.760 157.199,325.200 157.084 C 325.640 156.969,326.000 156.588,326.000 156.237 C 326.000 155.867,326.335 155.600,326.800 155.600 C 327.240 155.600,327.600 155.342,327.600 155.027 C 327.600 154.712,327.960 154.340,328.400 154.200 C 329.298 153.915,329.485 152.445,328.720 151.680 C 328.347 151.307,328.347 151.200,328.720 151.200 C 328.984 151.200,329.200 150.840,329.200 150.400 C 329.200 149.867,329.467 149.600,330.000 149.600 C 330.444 149.600,330.800 149.333,330.800 149.000 C 330.800 148.670,331.061 148.400,331.380 148.400 C 331.699 148.400,332.104 148.161,332.280 147.870 C 332.456 147.578,332.915 147.224,333.300 147.082 C 333.685 146.941,334.000 146.549,334.000 146.213 C 334.000 145.876,334.287 145.600,334.637 145.600 C 334.988 145.600,335.369 145.240,335.484 144.800 C 335.599 144.360,335.942 144.000,336.247 144.000 C 336.551 144.000,336.800 143.805,336.800 143.566 C 336.800 143.019,344.038 135.825,344.935 135.480 C 345.301 135.340,345.600 134.970,345.600 134.659 C 345.600 134.348,345.960 133.999,346.400 133.884 C 346.840 133.769,347.200 133.409,347.200 133.084 C 347.200 132.759,347.560 132.399,348.000 132.284 C 348.440 132.169,348.800 131.809,348.800 131.484 C 348.800 131.159,349.160 130.799,349.600 130.684 C 350.040 130.569,350.400 130.209,350.400 129.884 C 350.400 129.559,350.760 129.199,351.200 129.084 C 351.640 128.969,352.000 128.588,352.000 128.237 C 352.000 127.832,352.348 127.600,352.953 127.600 C 353.928 127.600,354.688 126.225,353.962 125.777 C 353.356 125.402,353.555 124.868,354.400 124.600 C 355.402 124.282,355.654 117.600,354.664 117.600 C 354.015 117.600,353.200 119.274,353.200 120.607 C 353.200 122.307,351.539 124.910,348.354 128.200 C 346.651 129.960,344.914 131.798,344.496 132.284 C 343.364 133.598,328.990 148.565,322.860 154.811 L 317.521 160.253 278.402 121.127 C 256.887 99.607,238.995 82.000,238.642 82.000 C 238.224 82.000,238.000 82.349,238.000 83.000 M218.799 99.555 C 217.844 100.429,217.218 101.306,217.372 101.555 C 217.540 101.827,217.326 102.000,216.824 102.000 C 216.267 102.000,216.000 102.259,216.000 102.800 C 216.000 103.333,215.733 103.600,215.200 103.600 C 214.667 103.600,214.400 103.867,214.400 104.400 C 214.400 104.933,214.133 105.200,213.600 105.200 C 213.067 105.200,212.800 105.467,212.800 106.000 C 212.800 106.533,212.533 106.800,212.000 106.800 C 211.467 106.800,211.200 107.067,211.200 107.600 C 211.200 108.040,210.975 108.403,210.700 108.407 C 210.090 108.415,208.400 110.142,208.400 110.756 C 208.400 111.000,208.175 111.206,207.900 111.213 C 207.232 111.231,205.600 112.616,205.600 113.164 C 205.600 113.404,205.330 113.600,205.000 113.600 C 204.667 113.600,204.400 113.956,204.400 114.400 C 204.400 114.933,204.133 115.200,203.600 115.200 C 203.067 115.200,202.800 115.467,202.800 116.000 C 202.800 116.533,202.533 116.800,202.000 116.800 C 201.467 116.800,201.200 117.067,201.200 117.600 C 201.200 118.133,200.933 118.400,200.400 118.400 C 199.867 118.400,199.600 118.667,199.600 119.200 C 199.600 119.733,199.333 120.000,198.800 120.000 C 198.267 120.000,198.000 120.267,198.000 120.800 C 198.000 121.333,197.733 121.600,197.200 121.600 C 196.704 121.600,196.400 121.867,196.400 122.302 C 196.400 122.705,195.865 123.242,195.148 123.559 C 194.459 123.864,193.808 124.448,193.701 124.857 C 193.594 125.265,193.258 125.600,192.953 125.600 C 192.649 125.600,192.400 125.870,192.400 126.200 C 192.400 126.530,192.130 126.800,191.800 126.800 C 191.467 126.800,191.200 127.156,191.200 127.600 C 191.200 128.133,190.933 128.400,190.400 128.400 C 189.867 128.400,189.600 128.667,189.600 129.200 C 189.600 129.733,189.333 130.000,188.800 130.000 C 188.267 130.000,188.000 130.267,188.000 130.800 C 188.000 131.333,187.733 131.600,187.200 131.600 C 186.667 131.600,186.400 131.867,186.400 132.400 C 186.400 132.933,186.133 133.200,185.600 133.200 C 185.067 133.200,184.800 133.467,184.800 134.000 C 184.800 134.440,184.533 134.800,184.207 134.800 C 183.396 134.800,180.572 137.605,180.718 138.266 C 180.786 138.575,180.491 138.800,180.018 138.800 C 179.467 138.800,179.200 139.061,179.200 139.600 C 179.200 140.133,178.933 140.400,178.400 140.400 C 177.867 140.400,177.600 140.667,177.600 141.200 C 177.600 141.652,177.333 142.000,176.987 142.000 C 176.651 142.000,176.271 142.270,176.145 142.600 C 176.018 142.930,175.664 143.200,175.357 143.200 C 175.051 143.200,174.800 143.560,174.800 144.000 C 174.800 144.533,174.533 144.800,174.000 144.800 C 173.467 144.800,173.200 145.067,173.200 145.600 C 173.200 146.133,172.933 146.400,172.400 146.400 C 171.948 146.400,171.600 146.667,171.600 147.013 C 171.600 147.349,171.285 147.745,170.900 147.892 C 169.828 148.302,168.686 149.493,168.953 149.924 C 169.084 150.136,168.833 150.403,168.396 150.517 C 167.958 150.631,167.600 151.012,167.600 151.363 C 167.600 151.733,167.265 152.000,166.800 152.000 C 166.267 152.000,166.000 152.267,166.000 152.800 C 166.000 153.333,165.733 153.600,165.200 153.600 C 164.667 153.600,164.400 153.867,164.400 154.400 C 164.400 154.933,164.133 155.200,163.600 155.200 C 163.067 155.200,162.800 155.467,162.800 156.000 C 162.800 156.533,162.533 156.800,162.000 156.800 C 161.467 156.800,161.200 157.067,161.200 157.600 C 161.200 158.040,160.973 158.400,160.696 158.400 C 160.418 158.400,159.745 158.940,159.200 159.600 C 158.655 160.260,158.081 160.800,157.925 160.800 C 157.321 160.800,155.541 162.781,155.787 163.179 C 155.937 163.421,155.698 163.600,155.224 163.600 C 154.667 163.600,154.400 163.859,154.400 164.400 C 154.400 164.933,154.133 165.200,153.600 165.200 C 153.067 165.200,152.800 165.467,152.800 166.000 C 152.800 166.533,152.533 166.800,152.000 166.800 C 151.467 166.800,151.200 167.067,151.200 167.600 C 151.200 168.133,150.933 168.400,150.400 168.400 C 149.883 168.400,149.600 168.667,149.600 169.153 C 149.600 169.570,149.243 170.000,148.800 170.116 C 148.360 170.231,148.000 170.612,148.000 170.963 C 148.000 171.313,147.732 171.600,147.405 171.600 C 146.660 171.600,145.200 172.820,145.200 173.442 C 145.200 173.698,144.835 174.002,144.389 174.119 C 143.942 174.236,143.627 174.482,143.689 174.666 C 143.827 175.081,142.145 176.800,141.600 176.800 C 141.380 176.800,141.200 177.160,141.200 177.600 C 141.200 178.133,140.933 178.400,140.400 178.400 C 139.867 178.400,139.600 178.667,139.600 179.200 C 139.600 179.733,139.333 180.000,138.800 180.000 C 138.267 180.000,138.000 180.267,138.000 180.800 C 138.000 181.333,137.733 181.600,137.200 181.600 C 136.667 181.600,136.400 181.867,136.400 182.400 C 136.400 182.840,136.133 183.200,135.807 183.200 C 134.996 183.200,132.172 186.005,132.318 186.666 C 132.386 186.975,132.091 187.200,131.618 187.200 C 131.067 187.200,130.800 187.461,130.800 188.000 C 130.800 188.533,130.533 188.800,130.000 188.800 C 129.467 188.800,129.200 189.067,129.200 189.600 C 129.200 190.133,128.933 190.400,128.400 190.400 C 127.867 190.400,127.600 190.667,127.600 191.200 C 127.600 191.640,127.375 192.003,127.100 192.007 C 126.490 192.015,124.800 193.742,124.800 194.356 C 124.800 194.600,124.440 194.800,124.000 194.800 C 123.504 194.800,123.200 195.067,123.200 195.502 C 123.200 195.905,122.665 196.442,121.948 196.759 C 121.259 197.064,120.608 197.648,120.501 198.057 C 120.394 198.465,120.058 198.800,119.753 198.800 C 119.449 198.800,119.200 199.160,119.200 199.600 C 119.200 200.133,118.933 200.400,118.400 200.400 C 117.867 200.400,117.600 200.667,117.600 201.200 C 117.600 201.733,117.333 202.000,116.800 202.000 C 116.267 202.000,116.000 202.267,116.000 202.800 C 116.000 203.333,115.733 203.600,115.200 203.600 C 114.667 203.600,114.400 203.867,114.400 204.400 C 114.400 204.933,114.133 205.200,113.600 205.200 C 113.067 205.200,112.800 205.467,112.800 206.000 C 112.800 206.533,112.533 206.800,112.000 206.800 C 111.467 206.800,111.200 207.067,111.200 207.600 C 111.200 208.040,110.955 208.400,110.656 208.400 C 109.872 208.400,107.102 211.118,107.398 211.597 C 107.535 211.819,107.277 212.000,106.824 212.000 C 106.284 212.000,106.000 212.259,106.000 212.753 C 106.000 213.170,105.643 213.600,105.200 213.716 C 104.760 213.831,104.400 214.212,104.400 214.563 C 104.400 214.933,104.065 215.200,103.600 215.200 C 103.067 215.200,102.800 215.467,102.800 216.000 C 102.800 216.533,102.533 216.800,102.000 216.800 C 101.467 216.800,101.200 217.067,101.200 217.600 C 101.200 218.133,100.933 218.400,100.400 218.400 C 99.867 218.400,99.600 218.667,99.600 219.200 C 99.600 219.663,99.333 220.000,98.967 220.000 C 98.162 220.000,95.373 222.834,95.523 223.500 C 95.585 223.775,95.267 224.000,94.818 224.000 C 94.368 224.000,94.000 224.204,94.000 224.454 C 94.000 224.988,92.130 226.800,91.579 226.800 C 91.371 226.800,91.200 227.160,91.200 227.600 C 91.200 228.133,90.933 228.400,90.400 228.400 C 89.867 228.400,89.600 228.667,89.600 229.200 C 89.600 229.733,89.333 230.000,88.800 230.000 C 88.267 230.000,88.000 230.267,88.000 230.800 C 88.000 231.333,87.733 231.600,87.200 231.600 C 86.748 231.600,86.400 231.867,86.400 232.213 C 86.400 232.549,86.085 232.945,85.700 233.092 C 84.583 233.519,83.491 234.700,83.781 235.169 C 83.938 235.424,83.710 235.600,83.224 235.600 C 82.667 235.600,82.400 235.859,82.400 236.400 C 82.400 236.933,82.133 237.200,81.600 237.200 C 81.067 237.200,80.800 237.467,80.800 238.000 C 80.800 238.533,80.533 238.800,80.000 238.800 C 79.467 238.800,79.200 239.067,79.200 239.600 C 79.200 240.133,78.933 240.400,78.400 240.400 C 77.867 240.400,77.600 240.667,77.600 241.200 C 77.600 241.640,77.375 242.003,77.100 242.007 C 76.490 242.015,74.800 243.742,74.800 244.356 C 74.800 244.600,74.575 244.803,74.300 244.806 C 73.508 244.815,70.293 247.903,70.584 248.374 C 70.738 248.623,70.504 248.800,70.024 248.800 C 69.467 248.800,69.200 249.059,69.200 249.600 C 69.200 250.133,68.933 250.400,68.400 250.400 C 67.867 250.400,67.600 250.667,67.600 251.200 C 67.600 251.733,67.333 252.000,66.800 252.000 C 66.267 252.000,66.000 252.267,66.000 252.800 C 66.000 253.333,65.733 253.600,65.200 253.600 C 64.667 253.600,64.400 253.867,64.400 254.400 C 64.400 254.933,64.133 255.200,63.600 255.200 C 63.067 255.200,62.800 255.467,62.800 256.000 C 62.800 256.442,62.533 256.800,62.205 256.800 C 61.434 256.800,60.000 258.029,60.000 258.689 C 60.000 258.970,59.730 259.200,59.400 259.200 C 59.070 259.200,58.800 259.470,58.800 259.800 C 58.800 260.130,58.530 260.400,58.200 260.400 C 57.867 260.400,57.600 260.756,57.600 261.200 C 57.600 261.640,57.420 262.000,57.200 262.000 C 56.980 262.000,56.800 262.450,56.800 263.000 C 56.800 263.550,56.848 264.000,56.906 264.000 C 56.965 264.000,93.730 227.269,138.606 182.375 C 183.483 137.481,220.540 100.561,220.955 100.331 C 221.717 99.909,299.200 176.666,299.200 177.843 C 299.200 178.208,146.415 331.306,137.840 339.533 C 135.111 342.152,134.595 343.200,136.033 343.200 C 136.859 343.200,139.882 340.477,139.696 339.900 C 139.643 339.735,139.858 339.600,140.173 339.600 C 140.488 339.600,140.860 339.240,141.000 338.800 C 141.140 338.360,141.512 338.000,141.827 338.000 C 142.142 338.000,142.400 337.640,142.400 337.200 C 142.400 336.667,142.667 336.400,143.200 336.400 C 143.733 336.400,144.000 336.133,144.000 335.600 C 144.000 335.067,144.267 334.800,144.800 334.800 C 145.333 334.800,145.600 334.533,145.600 334.000 C 145.600 333.467,145.867 333.200,146.400 333.200 C 146.933 333.200,147.200 332.933,147.200 332.400 C 147.200 331.960,147.467 331.600,147.793 331.600 C 148.604 331.600,151.428 328.795,151.282 328.134 C 151.214 327.825,151.509 327.600,151.982 327.600 C 152.533 327.600,152.800 327.339,152.800 326.800 C 152.800 326.267,153.067 326.000,153.600 326.000 C 154.040 326.000,154.400 325.742,154.400 325.427 C 154.400 325.112,154.760 324.740,155.200 324.600 C 155.640 324.460,156.000 324.088,156.000 323.773 C 156.000 323.458,156.258 323.200,156.573 323.200 C 156.888 323.200,157.260 322.840,157.400 322.400 C 157.540 321.960,157.912 321.600,158.227 321.600 C 158.542 321.600,158.800 321.240,158.800 320.800 C 158.800 320.267,159.067 320.000,159.600 320.000 C 160.133 320.000,160.400 319.733,160.400 319.200 C 160.400 318.758,160.667 318.400,160.995 318.400 C 161.766 318.400,163.200 317.171,163.200 316.511 C 163.200 316.230,163.470 316.000,163.800 316.000 C 164.133 316.000,164.400 315.644,164.400 315.200 C 164.400 314.667,164.667 314.400,165.200 314.400 C 165.733 314.400,166.000 314.133,166.000 313.600 C 166.000 313.067,166.267 312.800,166.800 312.800 C 167.333 312.800,167.600 312.533,167.600 312.000 C 167.600 311.467,167.867 311.200,168.400 311.200 C 168.933 311.200,169.200 310.933,169.200 310.400 C 169.200 309.867,169.467 309.600,170.000 309.600 C 170.440 309.600,170.800 309.342,170.800 309.027 C 170.800 308.712,171.160 308.340,171.600 308.200 C 172.040 308.060,172.400 307.688,172.400 307.373 C 172.400 307.058,172.535 306.800,172.700 306.799 C 173.371 306.798,176.485 303.661,176.228 303.245 C 176.060 302.973,176.274 302.800,176.776 302.800 C 177.333 302.800,177.600 302.541,177.600 302.000 C 177.600 301.467,177.867 301.200,178.400 301.200 C 178.933 301.200,179.200 300.933,179.200 300.400 C 179.200 299.867,179.467 299.600,180.000 299.600 C 180.533 299.600,180.800 299.333,180.800 298.800 C 180.800 298.267,181.067 298.000,181.600 298.000 C 182.133 298.000,182.400 297.733,182.400 297.200 C 182.400 296.667,182.667 296.400,183.200 296.400 C 183.733 296.400,184.000 296.133,184.000 295.600 C 184.000 295.137,184.267 294.800,184.633 294.800 C 185.295 294.800,188.258 292.004,188.105 291.524 C 188.056 291.373,188.373 291.136,188.808 290.997 C 189.244 290.859,189.600 290.488,189.600 290.173 C 189.600 289.858,189.858 289.600,190.173 289.600 C 190.488 289.600,190.860 289.240,191.000 288.800 C 191.140 288.360,191.512 288.000,191.827 288.000 C 192.142 288.000,192.400 287.640,192.400 287.200 C 192.400 286.667,192.667 286.400,193.200 286.400 C 193.733 286.400,194.000 286.133,194.000 285.600 C 194.000 285.067,194.267 284.800,194.800 284.800 C 195.333 284.800,195.600 284.533,195.600 284.000 C 195.600 283.467,195.867 283.200,196.400 283.200 C 196.852 283.200,197.200 282.933,197.200 282.587 C 197.200 282.251,197.507 281.857,197.882 281.713 C 199.045 281.267,199.940 280.308,199.722 279.741 C 199.588 279.392,199.813 279.200,200.357 279.200 C 200.933 279.200,201.200 278.947,201.200 278.400 C 201.200 277.867,201.467 277.600,202.000 277.600 C 202.533 277.600,202.800 277.333,202.800 276.800 C 202.800 276.267,203.067 276.000,203.600 276.000 C 204.040 276.000,204.400 275.742,204.400 275.427 C 204.400 275.112,204.760 274.740,205.200 274.600 C 205.640 274.460,206.000 274.088,206.000 273.773 C 206.000 273.458,206.258 273.200,206.573 273.200 C 206.888 273.200,207.260 272.840,207.400 272.400 C 207.540 271.960,207.912 271.600,208.227 271.600 C 208.542 271.600,208.800 271.240,208.800 270.800 C 208.800 270.347,209.067 270.000,209.416 270.000 C 210.243 270.000,213.319 266.917,213.003 266.405 C 212.865 266.182,213.122 266.000,213.576 266.000 C 214.133 266.000,214.400 265.741,214.400 265.200 C 214.400 264.667,214.667 264.400,215.200 264.400 C 215.733 264.400,216.000 264.133,216.000 263.600 C 216.000 263.067,216.267 262.800,216.800 262.800 C 217.333 262.800,217.600 262.533,217.600 262.000 C 217.600 261.467,217.867 261.200,218.400 261.200 C 218.933 261.200,219.200 260.933,219.200 260.400 C 219.200 259.867,219.467 259.600,220.000 259.600 C 220.444 259.600,220.800 259.333,220.800 259.000 C 220.800 258.670,220.935 258.400,221.100 258.399 C 221.634 258.398,224.800 255.396,224.800 254.890 C 224.800 254.621,225.070 254.400,225.400 254.400 C 225.733 254.400,226.000 254.044,226.000 253.600 C 226.000 253.067,226.267 252.800,226.800 252.800 C 227.333 252.800,227.600 252.533,227.600 252.000 C 227.600 251.467,227.867 251.200,228.400 251.200 C 228.933 251.200,229.200 250.933,229.200 250.400 C 229.200 249.867,229.467 249.600,230.000 249.600 C 230.533 249.600,230.800 249.333,230.800 248.800 C 230.800 248.267,231.067 248.000,231.600 248.000 C 232.133 248.000,232.400 247.733,232.400 247.200 C 232.400 246.760,232.667 246.400,232.993 246.400 C 233.804 246.400,236.628 243.595,236.482 242.934 C 236.414 242.625,236.709 242.400,237.182 242.400 C 237.632 242.400,238.000 242.142,238.000 241.827 C 238.000 241.512,238.360 241.140,238.800 241.000 C 239.240 240.860,239.600 240.488,239.600 240.173 C 239.600 239.858,239.858 239.600,240.173 239.600 C 240.488 239.600,240.860 239.240,241.000 238.800 C 241.140 238.360,241.512 238.000,241.827 238.000 C 242.142 238.000,242.400 237.640,242.400 237.200 C 242.400 236.667,242.667 236.400,243.200 236.400 C 243.733 236.400,244.000 236.133,244.000 235.600 C 244.000 235.067,244.267 234.800,244.800 234.800 C 245.333 234.800,245.600 234.533,245.600 234.000 C 245.600 233.558,245.867 233.200,246.195 233.200 C 246.966 233.200,248.400 231.971,248.400 231.311 C 248.400 231.030,248.670 230.800,249.000 230.800 C 249.333 230.800,249.600 230.444,249.600 230.000 C 249.600 229.467,249.867 229.200,250.400 229.200 C 250.933 229.200,251.200 228.933,251.200 228.400 C 251.200 227.867,251.467 227.600,252.000 227.600 C 252.533 227.600,252.800 227.333,252.800 226.800 C 252.800 226.267,253.067 226.000,253.600 226.000 C 254.040 226.000,254.400 225.742,254.400 225.427 C 254.400 225.112,254.760 224.740,255.200 224.600 C 255.640 224.460,256.000 224.088,256.000 223.773 C 256.000 223.458,256.258 223.200,256.573 223.200 C 256.888 223.200,257.260 222.840,257.400 222.400 C 257.540 221.960,257.814 221.600,258.010 221.600 C 258.679 221.600,261.679 218.451,261.415 218.025 C 261.263 217.778,261.497 217.600,261.976 217.600 C 262.533 217.600,262.800 217.341,262.800 216.800 C 262.800 216.267,263.067 216.000,263.600 216.000 C 264.133 216.000,264.400 215.733,264.400 215.200 C 264.400 214.667,264.667 214.400,265.200 214.400 C 265.733 214.400,266.000 214.133,266.000 213.600 C 266.000 213.067,266.267 212.800,266.800 212.800 C 267.333 212.800,267.600 212.533,267.600 212.000 C 267.600 211.467,267.867 211.200,268.400 211.200 C 268.933 211.200,269.200 210.933,269.200 210.400 C 269.200 209.937,269.467 209.600,269.833 209.600 C 270.515 209.600,273.456 206.797,273.296 206.300 C 273.243 206.135,273.458 206.000,273.773 206.000 C 274.088 206.000,274.460 205.640,274.600 205.200 C 274.740 204.760,275.112 204.400,275.427 204.400 C 275.742 204.400,276.000 204.040,276.000 203.600 C 276.000 203.067,276.267 202.800,276.800 202.800 C 277.333 202.800,277.600 202.533,277.600 202.000 C 277.600 201.467,277.867 201.200,278.400 201.200 C 278.933 201.200,279.200 200.933,279.200 200.400 C 279.200 199.867,279.467 199.600,280.000 199.600 C 280.533 199.600,280.800 199.333,280.800 198.800 C 280.800 198.267,281.067 198.000,281.600 198.000 C 282.052 198.000,282.400 197.733,282.400 197.387 C 282.400 197.051,282.707 196.657,283.082 196.513 C 284.245 196.067,285.140 195.108,284.922 194.541 C 284.788 194.192,285.013 194.000,285.557 194.000 C 286.133 194.000,286.400 193.747,286.400 193.200 C 286.400 192.667,286.667 192.400,287.200 192.400 C 287.640 192.400,288.000 192.142,288.000 191.827 C 288.000 191.512,288.360 191.140,288.800 191.000 C 289.240 190.860,289.600 190.488,289.600 190.173 C 289.600 189.858,289.858 189.600,290.173 189.600 C 290.488 189.600,290.860 189.240,291.000 188.800 C 291.140 188.360,291.512 188.000,291.827 188.000 C 292.142 188.000,292.400 187.640,292.400 187.200 C 292.400 186.667,292.667 186.400,293.200 186.400 C 293.733 186.400,294.000 186.133,294.000 185.600 C 294.000 185.147,294.267 184.800,294.616 184.800 C 295.443 184.800,298.519 181.717,298.203 181.205 C 298.065 180.982,298.291 180.800,298.704 180.800 C 299.948 180.800,301.200 178.992,301.200 177.197 C 301.200 175.900,301.059 175.600,300.447 175.600 C 300.030 175.600,299.600 175.243,299.484 174.800 C 299.369 174.360,298.988 174.000,298.637 174.000 C 298.287 174.000,298.000 173.724,298.000 173.387 C 298.000 173.051,297.695 172.658,297.322 172.515 C 296.495 172.197,294.187 169.864,293.862 169.016 C 293.731 168.677,293.349 168.400,293.013 168.400 C 292.676 168.400,292.400 168.061,292.400 167.647 C 292.400 167.230,292.043 166.800,291.600 166.684 C 291.160 166.569,290.800 166.188,290.800 165.837 C 290.800 165.487,290.638 165.200,290.440 165.200 C 290.241 165.200,289.025 164.165,287.737 162.900 C 286.450 161.635,284.754 160.049,283.970 159.375 C 283.185 158.701,282.427 157.846,282.284 157.475 C 282.142 157.104,281.749 156.800,281.413 156.800 C 281.067 156.800,280.800 156.452,280.800 156.000 C 280.800 155.467,280.533 155.200,280.000 155.200 C 279.467 155.200,279.200 154.933,279.200 154.400 C 279.200 153.867,278.933 153.600,278.400 153.600 C 277.867 153.600,277.600 153.333,277.600 152.800 C 277.600 152.267,277.333 152.000,276.800 152.000 C 276.267 152.000,276.000 151.733,276.000 151.200 C 276.000 150.760,275.792 150.400,275.538 150.400 C 275.284 150.400,273.929 149.230,272.527 147.800 C 271.125 146.370,269.802 145.200,269.589 145.200 C 269.375 145.200,269.200 144.936,269.200 144.614 C 269.200 144.292,268.840 143.835,268.400 143.600 C 267.960 143.365,267.600 142.908,267.600 142.586 C 267.600 142.264,267.240 142.000,266.800 142.000 C 266.267 142.000,266.000 141.733,266.000 141.200 C 266.000 140.667,265.733 140.400,265.200 140.400 C 264.667 140.400,264.400 140.133,264.400 139.600 C 264.400 139.067,264.133 138.800,263.600 138.800 C 263.067 138.800,262.800 138.533,262.800 138.000 C 262.800 137.560,262.545 137.200,262.234 137.200 C 261.713 137.200,258.800 134.668,258.800 134.215 C 258.800 133.780,250.514 125.600,250.073 125.600 C 249.813 125.600,249.600 125.324,249.600 124.987 C 249.600 124.651,249.295 124.258,248.922 124.115 C 248.095 123.797,245.787 121.464,245.462 120.616 C 245.331 120.277,244.949 120.000,244.613 120.000 C 244.267 120.000,244.000 119.652,244.000 119.200 C 244.000 118.667,243.733 118.400,243.200 118.400 C 242.683 118.400,242.400 118.133,242.400 117.647 C 242.400 117.230,242.043 116.800,241.600 116.684 C 241.160 116.569,240.800 116.188,240.800 115.837 C 240.800 115.487,240.633 115.200,240.429 115.200 C 240.225 115.200,238.497 113.670,236.588 111.800 C 234.680 109.930,232.957 108.400,232.759 108.400 C 232.562 108.400,232.400 108.040,232.400 107.600 C 232.400 107.067,232.133 106.800,231.600 106.800 C 231.067 106.800,230.800 106.533,230.800 106.000 C 230.800 105.467,230.533 105.200,230.000 105.200 C 229.467 105.200,229.200 104.933,229.200 104.400 C 229.200 103.867,228.933 103.600,228.400 103.600 C 227.867 103.600,227.600 103.333,227.600 102.800 C 227.600 102.267,227.333 102.000,226.800 102.000 C 226.360 102.000,226.000 101.813,226.000 101.584 C 226.000 101.355,225.251 100.455,224.335 99.584 C 222.165 97.520,221.032 97.514,218.799 99.555 M56.800 342.000 C 56.800 342.933,56.978 343.200,57.600 343.200 C 58.536 343.200,58.661 342.204,57.829 341.371 C 56.996 340.538,56.800 340.658,56.800 342.000 " stroke="none" fill="#6c6c6c" fill-rule="evenodd"></path><path id="path1" d="M278.000 46.794 C 276.331 47.154,274.275 48.187,273.593 49.008 C 273.323 49.334,272.947 49.600,272.758 49.600 C 272.387 49.600,270.838 51.103,252.500 69.263 C 245.845 75.853,240.400 81.449,240.400 81.699 C 240.400 82.671,316.560 158.395,317.541 158.397 C 318.522 158.400,320.982 156.007,331.800 144.527 C 336.467 139.575,347.133 128.505,350.171 125.461 C 350.815 124.816,351.365 123.998,351.392 123.644 C 351.420 123.290,351.758 122.522,352.143 121.937 C 353.186 120.355,353.032 110.803,351.941 109.416 C 351.534 108.898,351.200 108.205,351.200 107.877 C 351.200 107.257,311.364 67.200,310.748 67.200 C 310.557 67.200,310.400 67.045,310.400 66.856 C 310.400 66.667,308.662 64.822,306.538 62.756 C 304.414 60.690,300.924 57.265,298.782 55.144 C 294.485 50.889,291.014 48.000,290.197 48.000 C 289.906 48.000,289.601 47.803,289.521 47.562 C 289.192 46.577,281.412 46.058,278.000 46.794 M139.800 182.123 L 58.600 263.383 58.600 301.992 L 58.600 340.600 97.145 340.702 L 135.690 340.804 137.292 339.202 C 138.173 338.321,138.927 337.600,138.966 337.600 C 139.200 337.600,148.400 328.186,148.400 327.946 C 148.400 327.785,148.760 327.540,149.200 327.400 C 149.640 327.260,150.000 326.903,150.000 326.606 C 150.000 326.310,150.188 326.004,150.417 325.928 C 151.004 325.732,160.400 316.314,160.400 315.922 C 160.400 315.745,160.564 315.600,160.764 315.600 C 161.161 315.600,173.316 303.395,173.533 302.778 C 173.607 302.570,173.910 302.400,174.206 302.400 C 174.503 302.400,174.860 302.040,175.000 301.600 C 175.140 301.160,175.389 300.800,175.555 300.800 C 175.958 300.800,198.400 278.320,198.400 277.916 C 198.400 277.742,198.548 277.600,198.730 277.600 C 199.161 277.600,210.400 266.361,210.400 265.930 C 210.400 265.748,210.578 265.600,210.797 265.600 C 211.015 265.600,211.748 265.015,212.427 264.300 C 214.454 262.163,224.024 252.525,228.976 247.632 C 231.519 245.119,233.600 242.929,233.600 242.765 C 233.600 242.601,233.780 242.407,234.001 242.333 C 234.594 242.135,246.800 229.933,246.800 229.538 C 246.800 229.352,246.952 229.200,247.139 229.200 C 247.537 229.200,258.532 218.203,258.731 217.606 C 258.806 217.383,259.110 217.200,259.406 217.200 C 259.703 217.200,260.060 216.840,260.200 216.400 C 260.340 215.960,260.601 215.600,260.781 215.600 C 260.961 215.600,263.514 213.160,266.454 210.177 C 274.984 201.525,281.201 195.411,281.616 195.267 C 281.827 195.193,282.000 194.890,282.000 194.594 C 282.000 194.297,282.360 193.940,282.800 193.800 C 283.240 193.660,283.600 193.288,283.600 192.973 C 283.600 192.658,283.745 192.400,283.922 192.400 C 284.314 192.400,293.732 183.004,293.928 182.417 C 294.004 182.188,294.223 182.000,294.415 182.000 C 294.872 182.000,296.800 180.067,296.800 179.609 C 296.800 179.414,297.160 179.140,297.600 179.000 C 298.040 178.860,298.400 178.478,298.400 178.150 C 298.400 177.525,221.895 100.777,221.327 100.831 C 221.147 100.848,184.460 137.430,139.800 182.123 " stroke="none" fill="#040404" fill-rule="evenodd"></path><path id="path2" d="M281.388 44.381 C 281.518 44.591,281.123 45.046,280.512 45.394 L 279.400 46.026 280.800 45.743 C 282.432 45.413,282.910 45.414,284.800 45.755 C 286.154 46.000,286.163 45.993,285.073 45.562 C 284.367 45.282,284.027 44.908,284.161 44.558 C 284.322 44.138,283.977 44.000,282.764 44.000 C 281.845 44.000,281.254 44.164,281.388 44.381 M296.800 52.600 C 298.217 54.030,299.467 55.200,299.577 55.200 C 299.687 55.200,298.617 54.030,297.200 52.600 C 295.783 51.170,294.533 50.000,294.423 50.000 C 294.313 50.000,295.383 51.170,296.800 52.600 M252.581 68.100 L 251.000 69.800 252.700 68.219 C 254.281 66.748,254.584 66.400,254.281 66.400 C 254.216 66.400,253.451 67.165,252.581 68.100 M241.785 78.900 L 239.800 81.000 241.900 79.015 C 243.851 77.171,244.183 76.800,243.885 76.800 C 243.822 76.800,242.877 77.745,241.785 78.900 M238.600 81.872 C 239.040 81.993,239.549 82.297,239.730 82.546 C 239.949 82.846,240.006 82.796,239.899 82.400 C 239.810 82.070,239.301 81.767,238.769 81.726 C 238.005 81.668,237.969 81.699,238.600 81.872 M336.600 92.000 C 338.350 93.760,339.871 95.200,339.981 95.200 C 340.091 95.200,338.750 93.760,337.000 92.000 C 335.250 90.240,333.729 88.800,333.619 88.800 C 333.509 88.800,334.850 90.240,336.600 92.000 M345.600 101.000 C 347.681 103.090,349.474 104.800,349.584 104.800 C 349.694 104.800,348.081 103.090,346.000 101.000 C 343.919 98.910,342.126 97.200,342.016 97.200 C 341.906 97.200,343.519 98.910,345.600 101.000 M353.492 113.600 C 353.829 115.267,353.812 117.028,353.446 118.400 C 353.184 119.382,353.188 119.384,353.651 118.500 C 353.910 118.005,354.365 117.600,354.661 117.600 C 355.023 117.600,355.200 117.075,355.200 116.000 C 355.200 114.886,355.028 114.400,354.633 114.400 C 354.322 114.400,353.874 113.905,353.638 113.300 C 353.243 112.286,353.232 112.309,353.492 113.600 M340.989 135.700 L 338.200 138.600 341.100 135.811 C 342.695 134.277,344.000 132.972,344.000 132.911 C 344.000 132.617,343.580 133.006,340.989 135.700 M332.400 144.600 C 331.428 145.590,330.723 146.400,330.833 146.400 C 330.943 146.400,331.828 145.590,332.800 144.600 C 333.772 143.610,334.477 142.800,334.367 142.800 C 334.257 142.800,333.372 143.610,332.400 144.600 M322.786 154.700 L 320.600 157.000 322.900 154.814 C 324.165 153.611,325.200 152.576,325.200 152.514 C 325.200 152.217,324.818 152.563,322.786 154.700 M57.500 263.757 C 56.328 264.646,56.426 340.354,57.600 341.200 C 58.040 341.517,58.400 342.097,58.400 342.488 C 58.400 343.166,60.255 343.200,96.800 343.200 C 134.933 343.200,135.200 343.194,135.200 342.400 C 135.200 341.606,134.933 341.600,96.880 341.600 C 67.609 341.600,58.447 341.487,58.080 341.120 C 57.384 340.424,57.384 264.376,58.080 263.680 C 58.715 263.045,58.379 263.090,57.500 263.757 " stroke="none" fill="#545454" fill-rule="evenodd"></path><path id="path3" d="M281.100 46.293 C 282.035 46.377,283.565 46.377,284.500 46.293 C 285.435 46.209,284.670 46.140,282.800 46.140 C 280.930 46.140,280.165 46.209,281.100 46.293 M275.800 47.200 C 275.140 47.637,274.789 47.996,275.020 47.997 C 275.251 47.999,275.647 47.793,275.900 47.540 C 276.152 47.288,277.043 46.948,277.880 46.786 C 279.270 46.517,279.298 46.488,278.200 46.449 C 277.540 46.425,276.460 46.763,275.800 47.200 M287.784 46.797 C 288.654 46.964,289.434 47.303,289.517 47.551 C 289.599 47.798,289.906 48.000,290.197 48.000 C 290.489 48.000,291.639 48.720,292.752 49.600 C 294.945 51.333,295.997 51.819,294.099 50.222 C 291.510 48.044,288.600 46.401,287.409 46.446 C 286.327 46.487,286.366 46.524,287.784 46.797 M273.600 48.600 C 273.326 48.930,272.905 49.200,272.664 49.200 C 272.235 49.200,257.849 63.245,255.455 66.000 C 254.331 67.295,258.916 62.884,268.507 53.445 C 270.656 51.330,272.563 49.600,272.745 49.600 C 272.927 49.600,273.402 49.240,273.800 48.800 C 274.198 48.360,274.428 48.000,274.311 48.000 C 274.194 48.000,273.874 48.270,273.600 48.600 M301.042 57.460 C 301.679 58.043,303.910 60.153,306.000 62.150 C 309.429 65.426,309.351 65.322,305.207 61.090 C 302.680 58.511,300.449 56.400,300.248 56.400 C 300.047 56.400,300.404 56.877,301.042 57.460 M250.095 71.066 C 249.818 71.178,249.403 71.659,249.173 72.135 C 248.816 72.876,248.833 72.914,249.296 72.400 C 249.593 72.070,250.089 71.575,250.398 71.300 C 250.987 70.776,250.929 70.731,250.095 71.066 M317.170 73.347 C 318.252 74.523,318.466 74.638,318.180 73.891 C 318.072 73.612,317.583 73.138,317.092 72.839 C 316.241 72.320,316.245 72.344,317.170 73.347 M242.873 78.271 C 241.703 79.442,240.897 80.400,241.083 80.400 C 241.484 80.400,245.388 76.438,245.158 76.263 C 245.071 76.197,244.043 77.101,242.873 78.271 M322.000 78.125 C 322.000 78.194,322.585 78.779,323.300 79.425 L 324.600 80.600 323.425 79.300 C 322.330 78.088,322.000 77.816,322.000 78.125 M240.205 81.192 C 240.072 81.407,240.140 81.902,240.356 82.292 C 240.847 83.177,316.094 158.397,316.989 158.898 C 317.736 159.316,319.608 158.302,319.588 157.491 C 319.581 157.221,319.392 157.315,319.168 157.700 C 317.951 159.790,318.488 160.283,278.448 120.222 C 251.257 93.016,240.365 81.869,240.535 81.424 C 240.801 80.732,240.584 80.579,240.205 81.192 M334.922 90.934 C 335.760 91.740,336.549 92.400,336.677 92.400 C 336.968 92.400,335.271 90.774,334.200 90.026 C 333.760 89.719,334.085 90.127,334.922 90.934 M339.600 95.692 C 339.600 95.753,340.140 96.313,340.801 96.936 C 341.461 97.559,341.896 97.794,341.767 97.459 C 341.572 96.951,339.600 95.343,339.600 95.692 M215.095 106.305 C 212.073 109.333,209.600 111.950,209.600 112.121 C 209.600 112.292,212.120 109.898,215.200 106.800 C 220.178 101.793,221.088 100.800,220.695 100.800 C 220.637 100.800,218.117 103.277,215.095 106.305 M240.934 120.075 C 251.530 130.677,268.885 148.041,279.500 158.662 C 290.115 169.283,298.800 177.846,298.800 177.691 C 298.800 177.331,222.296 100.800,221.937 100.800 C 221.789 100.800,230.337 109.474,240.934 120.075 M345.209 101.042 C 345.221 101.495,349.554 105.779,349.777 105.557 C 349.867 105.466,348.875 104.332,347.571 103.037 C 346.267 101.743,345.204 100.844,345.209 101.042 M350.500 106.631 C 350.885 107.089,351.206 107.719,351.214 108.031 C 351.222 108.344,351.688 109.140,352.250 109.800 C 352.947 110.619,353.132 110.721,352.833 110.122 C 352.593 109.640,352.217 109.134,351.998 108.999 C 351.779 108.863,351.600 108.431,351.600 108.038 C 351.600 107.645,351.195 106.981,350.700 106.562 C 349.801 105.801,349.801 105.801,350.500 106.631 M352.944 116.000 C 352.944 118.090,353.012 118.945,353.094 117.900 C 353.176 116.855,353.176 115.145,353.094 114.100 C 353.012 113.055,352.944 113.910,352.944 116.000 M200.300 121.124 C 197.275 124.160,194.800 126.778,194.800 126.942 C 194.800 127.106,197.320 124.702,200.400 121.600 C 205.361 116.603,206.286 115.594,205.900 115.602 C 205.845 115.603,203.325 118.088,200.300 121.124 M351.881 122.239 C 351.486 122.768,351.308 123.200,351.485 123.200 C 351.834 123.200,352.938 121.601,352.728 121.400 C 352.657 121.333,352.277 121.711,351.881 122.239 M343.925 131.900 C 336.767 139.219,333.200 143.004,333.200 143.280 C 333.200 143.397,334.860 141.761,336.889 139.646 C 338.919 137.531,342.741 133.595,345.383 130.900 C 348.026 128.205,350.077 126.000,349.942 126.000 C 349.807 126.000,347.099 128.655,343.925 131.900 M186.625 134.797 C 183.091 138.315,180.328 141.195,180.484 141.197 C 180.641 141.199,183.652 138.320,187.175 134.800 C 190.699 131.280,193.462 128.400,193.316 128.400 C 193.169 128.400,190.159 131.279,186.625 134.797 M169.694 151.722 C 164.142 157.289,159.600 161.976,159.600 162.138 C 159.600 162.300,161.895 160.128,164.700 157.313 C 167.505 154.498,172.188 149.810,175.106 146.897 C 178.024 143.984,180.271 141.600,180.099 141.600 C 179.928 141.600,175.245 146.155,169.694 151.722 M330.061 146.307 C 329.545 146.908,328.466 148.120,327.663 149.000 C 326.573 150.195,326.742 150.093,328.331 148.600 C 329.502 147.500,330.633 146.285,330.844 145.900 C 331.383 144.918,331.151 145.038,330.061 146.307 M322.375 154.325 C 320.575 156.208,319.796 157.200,320.117 157.200 C 320.208 157.200,321.296 156.120,322.535 154.800 C 323.775 153.480,324.656 152.403,324.494 152.408 C 324.332 152.412,323.379 153.275,322.375 154.325 M151.080 170.344 C 147.626 173.833,144.800 176.810,144.800 176.959 C 144.800 177.107,147.680 174.331,151.200 170.788 C 156.976 164.974,157.877 164.000,157.480 164.000 C 157.415 164.000,154.535 166.855,151.080 170.344 M136.600 184.800 C 133.085 188.320,130.339 191.200,130.498 191.200 C 130.657 191.200,133.673 188.320,137.200 184.800 C 140.727 181.280,143.473 178.400,143.302 178.400 C 143.131 178.400,140.115 181.280,136.600 184.800 M288.992 187.700 L 285.000 191.800 289.100 187.808 C 291.355 185.612,293.200 183.767,293.200 183.708 C 293.200 183.418,292.701 183.892,288.992 187.700 M127.078 194.321 C 125.605 195.806,124.400 197.149,124.400 197.307 C 124.400 197.465,125.676 196.321,127.235 194.765 C 128.794 193.209,129.999 191.866,129.913 191.779 C 129.827 191.693,128.551 192.837,127.078 194.321 M275.309 201.300 C 271.962 204.655,269.089 207.580,268.926 207.800 C 268.762 208.020,271.547 205.322,275.114 201.805 C 281.128 195.874,281.780 195.200,281.498 195.200 C 281.442 195.200,278.657 197.945,275.309 201.300 M116.679 204.743 C 112.785 208.671,109.600 212.003,109.600 212.146 C 109.600 212.289,112.840 209.158,116.800 205.189 C 123.266 198.708,124.299 197.600,123.879 197.600 C 123.812 197.600,120.572 200.814,116.679 204.743 M265.588 211.100 L 263.000 213.800 265.700 211.212 C 267.185 209.788,268.400 208.573,268.400 208.512 C 268.400 208.217,267.993 208.592,265.588 211.100 M93.900 227.511 C 86.475 234.938,80.400 241.150,80.400 241.314 C 80.400 241.479,86.520 235.483,94.000 227.988 C 106.061 215.905,107.910 213.989,107.500 214.003 C 107.445 214.005,101.325 220.084,93.900 227.511 M253.792 222.900 L 249.800 227.000 253.900 223.008 C 256.155 220.812,258.000 218.967,258.000 218.908 C 258.000 218.618,257.501 219.092,253.792 222.900 M239.800 236.800 C 237.167 239.440,235.103 241.600,235.213 241.600 C 235.323 241.600,237.567 239.440,240.200 236.800 C 242.833 234.160,244.897 232.000,244.787 232.000 C 244.677 232.000,242.433 234.160,239.800 236.800 M77.876 243.523 C 76.844 244.570,76.000 245.559,76.000 245.719 C 76.000 245.879,76.914 245.092,78.031 243.969 C 79.147 242.846,79.992 241.858,79.906 241.773 C 79.821 241.688,78.908 242.475,77.876 243.523 M229.591 247.100 L 226.200 250.600 229.700 247.209 C 232.951 244.059,233.382 243.600,233.091 243.600 C 233.031 243.600,231.456 245.175,229.591 247.100 M67.499 253.931 C 63.154 258.293,59.600 261.983,59.600 262.131 C 59.600 262.280,63.200 258.796,67.600 254.390 C 74.683 247.297,75.905 246.000,75.499 246.000 C 75.443 246.000,71.843 249.569,67.499 253.931 M219.561 257.024 C 216.172 260.447,213.316 263.372,213.214 263.524 C 213.112 263.676,215.947 260.922,219.514 257.405 C 223.081 253.887,226.000 250.962,226.000 250.905 C 226.000 250.569,225.151 251.376,219.561 257.024 M58.388 263.431 C 58.139 264.086,58.033 278.444,58.098 302.731 L 58.200 341.000 96.907 341.102 L 135.614 341.204 137.415 339.544 C 138.406 338.630,139.148 337.815,139.065 337.732 C 138.982 337.648,138.188 338.306,137.302 339.192 L 135.690 340.804 97.145 340.702 L 58.600 340.600 58.497 302.600 C 58.433 279.190,58.541 264.178,58.776 263.500 C 59.260 262.107,58.915 262.046,58.388 263.431 M204.591 272.100 L 201.400 275.400 204.700 272.209 C 207.765 269.246,208.182 268.800,207.891 268.800 C 207.830 268.800,206.345 270.285,204.591 272.100 M190.595 286.100 L 185.000 291.800 190.700 286.205 C 195.995 281.008,196.581 280.400,196.295 280.400 C 196.237 280.400,193.672 282.965,190.595 286.100 M180.388 296.300 L 177.800 299.000 180.500 296.412 C 181.985 294.988,183.200 293.773,183.200 293.712 C 183.200 293.417,182.793 293.792,180.388 296.300 M169.206 307.356 L 164.612 312.200 169.506 307.406 C 172.198 304.770,174.400 302.565,174.400 302.506 C 174.400 302.027,173.174 303.172,169.206 307.356 M155.392 321.300 L 151.400 325.400 155.500 321.408 C 159.308 317.699,159.782 317.200,159.492 317.200 C 159.433 317.200,157.588 319.045,155.392 321.300 M143.593 333.100 L 139.400 337.400 143.700 333.207 C 146.065 330.901,148.000 328.966,148.000 328.907 C 148.000 328.618,147.487 329.106,143.593 333.100 " stroke="none" fill="#242424" fill-rule="evenodd"></path><path id="path4" d="M281.600 45.600 C 280.811 45.853,281.022 45.923,282.600 45.932 C 284.062 45.941,284.385 45.851,283.800 45.600 C 282.851 45.192,282.873 45.192,281.600 45.600 M277.700 46.276 C 278.085 46.376,278.715 46.376,279.100 46.276 C 279.485 46.175,279.170 46.093,278.400 46.093 C 277.630 46.093,277.315 46.175,277.700 46.276 M286.500 46.276 C 286.885 46.376,287.515 46.376,287.900 46.276 C 288.285 46.175,287.970 46.093,287.200 46.093 C 286.430 46.093,286.115 46.175,286.500 46.276 M254.400 66.600 C 253.428 67.590,252.723 68.400,252.833 68.400 C 252.943 68.400,253.828 67.590,254.800 66.600 C 255.772 65.610,256.477 64.800,256.367 64.800 C 256.257 64.800,255.372 65.610,254.400 66.600 M313.200 69.000 C 314.617 70.430,315.867 71.600,315.977 71.600 C 316.087 71.600,315.017 70.430,313.600 69.000 C 312.183 67.570,310.933 66.400,310.823 66.400 C 310.713 66.400,311.783 67.570,313.200 69.000 M319.583 75.300 C 320.564 76.345,321.419 77.200,321.483 77.200 C 321.784 77.200,321.466 76.841,319.700 75.183 L 317.800 73.400 319.583 75.300 M323.800 79.600 C 324.883 80.700,325.860 81.600,325.970 81.600 C 326.080 81.600,325.283 80.700,324.200 79.600 C 323.117 78.500,322.140 77.600,322.030 77.600 C 321.920 77.600,322.717 78.500,323.800 79.600 M240.021 80.974 C 239.481 81.625,239.896 82.692,241.055 83.633 C 241.495 83.991,241.406 83.726,240.814 82.917 C 240.033 81.850,239.961 81.529,240.386 81.017 C 240.668 80.678,240.808 80.400,240.698 80.400 C 240.588 80.400,240.283 80.658,240.021 80.974 M248.600 91.200 C 251.454 94.060,253.878 96.400,253.988 96.400 C 254.098 96.400,251.854 94.060,249.000 91.200 C 246.146 88.340,243.722 86.000,243.612 86.000 C 243.502 86.000,245.746 88.340,248.600 91.200 M332.400 88.125 C 332.400 88.194,332.985 88.779,333.700 89.425 L 335.000 90.600 333.825 89.300 C 332.730 88.088,332.400 87.816,332.400 88.125 M260.200 102.800 C 263.494 106.100,266.280 108.800,266.390 108.800 C 266.500 108.800,263.894 106.100,260.600 102.800 C 257.306 99.500,254.520 96.800,254.410 96.800 C 254.300 96.800,256.906 99.500,260.200 102.800 M228.000 106.525 C 228.000 106.594,228.585 107.179,229.300 107.825 L 230.600 109.000 229.425 107.700 C 228.330 106.488,228.000 106.216,228.000 106.525 M272.393 114.900 C 276.287 118.894,276.800 119.382,276.800 119.093 C 276.800 119.034,274.865 117.099,272.500 114.793 L 268.200 110.600 272.393 114.900 M353.268 115.800 C 353.257 117.755,353.332 118.039,353.674 117.331 C 353.963 116.735,353.967 115.983,353.688 114.931 C 353.287 113.418,353.283 113.428,353.268 115.800 M352.860 120.620 C 352.827 121.291,352.576 122.101,352.303 122.420 C 352.029 122.740,352.133 122.710,352.535 122.354 C 353.025 121.919,353.207 121.331,353.092 120.554 L 352.920 119.400 352.860 120.620 M285.000 127.600 C 288.515 131.120,291.481 134.000,291.591 134.000 C 291.701 134.000,288.915 131.120,285.400 127.600 C 281.885 124.080,278.919 121.200,278.809 121.200 C 278.699 121.200,281.485 124.080,285.000 127.600 M344.192 132.100 L 340.200 136.200 344.300 132.208 C 346.555 130.012,348.400 128.167,348.400 128.108 C 348.400 127.818,347.901 128.292,344.192 132.100 M302.600 145.200 C 307.656 150.260,311.883 154.400,311.993 154.400 C 312.103 154.400,308.056 150.260,303.000 145.200 C 297.944 140.140,293.717 136.000,293.607 136.000 C 293.497 136.000,297.544 140.140,302.600 145.200 M260.000 138.525 C 260.000 138.594,260.585 139.179,261.300 139.825 L 262.600 141.000 261.425 139.700 C 260.330 138.488,260.000 138.216,260.000 138.525 M335.787 140.900 L 333.400 143.400 335.900 141.013 C 337.275 139.699,338.400 138.574,338.400 138.513 C 338.400 138.217,338.005 138.578,335.787 140.900 M326.987 150.100 L 324.600 152.600 327.100 150.213 C 328.475 148.899,329.600 147.774,329.600 147.713 C 329.600 147.417,329.205 147.778,326.987 150.100 M314.200 156.800 C 315.283 157.900,316.260 158.800,316.370 158.800 C 316.480 158.800,315.683 157.900,314.600 156.800 C 313.517 155.700,312.540 154.800,312.430 154.800 C 312.320 154.800,313.117 155.700,314.200 156.800 M278.000 156.525 C 278.000 156.594,278.585 157.179,279.300 157.825 L 280.600 159.000 279.425 157.700 C 278.330 156.488,278.000 156.216,278.000 156.525 M294.409 182.600 L 290.218 187.000 294.591 182.716 C 296.996 180.359,298.882 178.379,298.782 178.315 C 298.682 178.251,296.714 180.179,294.409 182.600 M282.595 194.500 L 277.000 200.200 282.700 194.605 C 287.995 189.408,288.581 188.800,288.295 188.800 C 288.237 188.800,285.672 191.365,282.595 194.500 M271.600 205.400 C 270.628 206.390,269.923 207.200,270.033 207.200 C 270.143 207.200,271.028 206.390,272.000 205.400 C 272.972 204.410,273.677 203.600,273.567 203.600 C 273.457 203.600,272.572 204.410,271.600 205.400 M264.989 212.100 L 262.200 215.000 265.100 212.211 C 267.794 209.620,268.183 209.200,267.889 209.200 C 267.828 209.200,266.523 210.505,264.989 212.100 M256.800 220.200 C 255.828 221.190,255.123 222.000,255.233 222.000 C 255.343 222.000,256.228 221.190,257.200 220.200 C 258.172 219.210,258.877 218.400,258.767 218.400 C 258.657 218.400,257.772 219.210,256.800 220.200 M247.395 229.700 L 241.800 235.400 247.500 229.805 C 252.795 224.608,253.381 224.000,253.095 224.000 C 253.037 224.000,250.472 226.565,247.395 229.700 M236.400 240.600 C 235.428 241.590,234.723 242.400,234.833 242.400 C 234.943 242.400,235.828 241.590,236.800 240.600 C 237.772 239.610,238.477 238.800,238.367 238.800 C 238.257 238.800,237.372 239.610,236.400 240.600 M230.592 246.500 L 227.000 250.200 230.700 246.608 C 232.735 244.633,234.400 242.968,234.400 242.908 C 234.400 242.618,233.928 243.064,230.592 246.500 M222.388 254.700 L 219.800 257.400 222.500 254.812 C 223.985 253.388,225.200 252.173,225.200 252.112 C 225.200 251.817,224.793 252.192,222.388 254.700 M214.989 262.100 L 212.200 265.000 215.100 262.211 C 217.794 259.620,218.183 259.200,217.889 259.200 C 217.828 259.200,216.523 260.505,214.989 262.100 M57.867 263.867 C 57.346 264.387,57.556 340.596,58.080 341.120 C 58.625 341.665,135.403 341.843,135.738 341.300 C 135.840 341.135,118.436 341.000,97.062 341.000 L 58.200 341.000 58.200 302.300 C 58.200 281.015,58.185 263.600,58.167 263.600 C 58.148 263.600,58.013 263.720,57.867 263.867 M208.391 268.700 L 205.000 272.200 208.500 268.809 C 211.751 265.659,212.182 265.200,211.891 265.200 C 211.831 265.200,210.256 266.775,208.391 268.700 M197.395 279.700 L 191.800 285.400 197.500 279.805 C 202.795 274.608,203.381 274.000,203.095 274.000 C 203.037 274.000,200.472 276.565,197.395 279.700 M181.389 295.700 L 178.600 298.600 181.500 295.811 C 184.194 293.220,184.583 292.800,184.289 292.800 C 184.228 292.800,182.923 294.105,181.389 295.700 M165.991 311.100 L 162.600 314.600 166.100 311.209 C 168.025 309.344,169.600 307.769,169.600 307.709 C 169.600 307.418,169.141 307.849,165.991 311.100 M160.185 316.900 L 158.200 319.000 160.300 317.015 C 161.455 315.923,162.400 314.978,162.400 314.915 C 162.400 314.617,162.029 314.949,160.185 316.900 M148.995 328.100 L 143.400 333.800 149.100 328.205 C 154.395 323.008,154.981 322.400,154.695 322.400 C 154.637 322.400,152.072 324.965,148.995 328.100 M138.000 339.000 C 137.028 339.990,136.323 340.800,136.433 340.800 C 136.543 340.800,137.428 339.990,138.400 339.000 C 139.372 338.010,140.077 337.200,139.967 337.200 C 139.857 337.200,138.972 338.010,138.000 339.000 " stroke="none" fill="#3c3c3c" fill-rule="evenodd"></path></g></svg>