<svg id="svg" version="1.1" xmlns="http://www.w3.org/2000/svg" xmlns:xlink="http://www.w3.org/1999/xlink" width="400" height="400" viewBox="0, 0, 400,400"><g id="svgg"><path id="path0" d="M281.855 44.600 C 281.982 44.930,282.407 45.200,282.800 45.200 C 283.193 45.200,283.618 44.930,283.745 44.600 C 283.917 44.151,283.680 44.000,282.800 44.000 C 281.920 44.000,281.683 44.151,281.855 44.600 M354.000 116.200 C 354.000 116.822,354.227 117.200,354.600 117.200 C 354.973 117.200,355.200 116.822,355.200 116.200 C 355.200 115.578,354.973 115.200,354.600 115.200 C 354.227 115.200,354.000 115.578,354.000 116.200 M56.800 302.400 C 56.800 326.667,56.936 339.200,57.200 339.200 C 57.464 339.200,57.600 326.667,57.600 302.400 C 57.600 278.133,57.464 265.600,57.200 265.600 C 56.936 265.600,56.800 278.133,56.800 302.400 M58.800 342.400 C 58.800 343.194,59.067 343.200,97.000 343.200 C 129.145 343.200,135.200 343.113,135.200 342.650 C 135.200 341.657,133.063 341.600,95.750 341.600 C 59.067 341.600,58.800 341.606,58.800 342.400 " stroke="none" fill="#545454" fill-rule="evenodd"></path><path id="path1" d="M279.400 46.188 C 276.640 46.668,274.863 47.429,272.834 49.000 C 269.776 51.367,240.000 81.023,240.000 81.702 C 240.000 82.396,316.539 158.955,317.413 159.136 C 318.144 159.288,322.156 155.248,341.973 134.400 C 343.123 133.190,345.760 130.459,347.832 128.331 C 349.904 126.202,351.600 124.261,351.600 124.016 C 351.600 123.772,351.854 123.173,352.165 122.686 C 353.840 120.058,353.694 112.249,351.898 108.400 C 350.648 105.722,295.687 51.063,291.350 48.184 C 289.377 46.875,283.923 45.336,282.400 45.658 C 282.290 45.682,280.940 45.920,279.400 46.188 M140.320 181.057 C 95.896 225.466,59.197 262.282,58.768 262.870 C 58.066 263.834,57.431 340.364,58.119 341.053 C 58.192 341.125,75.609 341.233,96.825 341.292 L 135.400 341.400 216.725 260.200 C 261.454 215.540,298.238 178.660,298.469 178.245 C 298.867 177.526,224.304 102.098,221.846 100.732 C 221.183 100.365,211.223 110.178,140.320 181.057 " stroke="none" fill="#e40424" fill-rule="evenodd"></path><path id="path2" d="M274.143 44.769 C 272.504 45.665,271.600 46.590,271.600 47.371 C 271.600 47.733,271.261 48.000,270.800 48.000 C 270.348 48.000,270.000 48.267,270.000 48.613 C 270.000 48.949,269.685 49.340,269.300 49.481 C 268.915 49.622,268.133 50.201,267.562 50.768 C 266.237 52.085,264.800 52.936,264.800 52.403 C 264.800 52.182,264.621 52.000,264.402 52.000 C 263.854 52.000,260.000 55.817,260.000 56.360 C 260.000 56.602,259.724 56.800,259.387 56.800 C 259.051 56.800,258.660 57.099,258.520 57.465 C 258.379 57.831,256.927 59.406,255.292 60.965 C 250.079 65.937,245.200 70.763,245.200 70.949 C 245.200 71.334,240.951 75.457,240.295 75.708 C 239.913 75.855,239.600 76.230,239.600 76.541 C 239.600 76.852,239.240 77.201,238.800 77.316 C 237.918 77.547,237.532 84.000,238.400 84.000 C 238.620 84.000,238.800 84.258,238.800 84.573 C 238.800 84.888,239.160 85.260,239.600 85.400 C 240.040 85.540,240.400 85.912,240.400 86.227 C 240.400 86.542,240.760 86.800,241.200 86.800 C 241.644 86.800,242.000 87.067,242.000 87.400 C 242.000 87.730,242.258 88.000,242.573 88.000 C 242.888 88.000,243.260 88.360,243.400 88.800 C 243.540 89.240,243.912 89.600,244.227 89.600 C 244.542 89.600,244.800 89.858,244.800 90.173 C 244.800 90.488,245.160 90.860,245.600 91.000 C 246.040 91.140,246.400 91.512,246.400 91.827 C 246.400 92.142,246.760 92.400,247.200 92.400 C 247.733 92.400,248.000 92.667,248.000 93.200 C 248.000 93.733,248.267 94.000,248.800 94.000 C 249.333 94.000,249.600 94.267,249.600 94.800 C 249.600 95.339,249.867 95.600,250.418 95.600 C 250.894 95.600,251.186 95.824,251.118 96.137 C 250.966 96.830,253.720 99.600,254.560 99.600 C 254.933 99.600,255.200 99.933,255.200 100.400 C 255.200 100.933,255.467 101.200,256.000 101.200 C 256.533 101.200,256.800 101.467,256.800 102.000 C 256.800 102.533,257.067 102.800,257.600 102.800 C 258.133 102.800,258.400 103.067,258.400 103.600 C 258.400 104.040,258.658 104.400,258.973 104.400 C 259.288 104.400,259.660 104.760,259.800 105.200 C 259.940 105.640,260.312 106.000,260.627 106.000 C 260.942 106.000,261.200 106.258,261.200 106.573 C 261.200 106.888,261.563 107.261,262.006 107.402 C 262.449 107.543,262.708 107.826,262.580 108.032 C 262.453 108.237,262.624 108.511,262.959 108.640 C 263.295 108.769,263.679 109.217,263.812 109.637 C 263.945 110.057,264.228 110.400,264.440 110.400 C 264.653 110.400,265.355 110.940,266.000 111.600 C 266.645 112.260,267.449 112.800,267.787 112.800 C 268.133 112.800,268.400 113.148,268.400 113.600 C 268.400 114.133,268.667 114.400,269.200 114.400 C 269.733 114.400,270.000 114.667,270.000 115.200 C 270.000 115.733,270.267 116.000,270.800 116.000 C 271.333 116.000,271.600 116.267,271.600 116.800 C 271.600 117.333,271.867 117.600,272.400 117.600 C 272.933 117.600,273.200 117.867,273.200 118.400 C 273.200 118.929,273.467 119.200,273.987 119.200 C 274.521 119.200,274.701 119.392,274.546 119.797 C 274.415 120.137,274.592 120.499,274.958 120.639 C 275.311 120.775,275.600 121.115,275.600 121.396 C 275.600 121.677,275.960 122.001,276.400 122.116 C 276.840 122.231,277.200 122.612,277.200 122.963 C 277.200 123.313,277.470 123.600,277.800 123.600 C 278.130 123.600,278.400 123.768,278.400 123.973 C 278.400 124.178,278.760 124.460,279.200 124.600 C 279.640 124.740,280.000 125.112,280.000 125.427 C 280.000 125.742,280.360 126.000,280.800 126.000 C 281.333 126.000,281.600 126.267,281.600 126.800 C 281.600 127.333,281.867 127.600,282.400 127.600 C 282.933 127.600,283.200 127.867,283.200 128.400 C 283.200 128.933,283.467 129.200,284.000 129.200 C 284.533 129.200,284.800 129.467,284.800 130.000 C 284.800 130.533,285.067 130.800,285.600 130.800 C 286.133 130.800,286.400 131.067,286.400 131.600 C 286.400 132.040,286.664 132.400,286.987 132.400 C 287.329 132.400,287.484 132.636,287.359 132.964 C 287.228 133.303,287.473 133.633,287.971 133.791 C 288.427 133.936,288.800 134.300,288.800 134.600 C 288.800 134.900,289.160 135.260,289.600 135.400 C 290.040 135.540,290.400 135.822,290.400 136.027 C 290.400 136.232,290.760 136.400,291.200 136.400 C 291.733 136.400,292.000 136.667,292.000 137.200 C 292.000 137.640,292.258 138.000,292.573 138.000 C 292.888 138.000,293.260 138.360,293.400 138.800 C 293.540 139.240,293.912 139.600,294.227 139.600 C 294.542 139.600,294.800 139.858,294.800 140.173 C 294.800 140.488,295.160 140.860,295.600 141.000 C 296.040 141.140,296.400 141.512,296.400 141.827 C 296.400 142.142,296.760 142.400,297.200 142.400 C 297.733 142.400,298.000 142.667,298.000 143.200 C 298.000 143.747,298.267 144.000,298.843 144.000 C 299.437 144.000,299.616 144.182,299.450 144.615 C 299.317 144.961,299.466 145.327,299.792 145.452 C 300.109 145.574,300.479 146.017,300.612 146.437 C 300.745 146.857,301.093 147.200,301.384 147.200 C 301.676 147.200,302.025 147.489,302.161 147.842 C 302.301 148.208,302.663 148.385,303.003 148.254 C 303.408 148.099,303.600 148.279,303.600 148.813 C 303.600 149.333,303.871 149.600,304.400 149.600 C 304.933 149.600,305.200 149.867,305.200 150.400 C 305.200 150.933,305.467 151.200,306.000 151.200 C 306.533 151.200,306.800 151.467,306.800 152.000 C 306.800 152.533,307.067 152.800,307.600 152.800 C 308.133 152.800,308.400 153.067,308.400 153.600 C 308.400 154.040,308.572 154.400,308.782 154.400 C 309.281 154.400,311.173 156.294,310.923 156.543 C 310.818 156.649,311.107 156.936,311.566 157.182 C 312.025 157.427,312.400 157.892,312.400 158.214 C 312.400 158.536,312.658 158.800,312.973 158.800 C 313.288 158.800,313.660 159.160,313.800 159.600 C 313.940 160.040,314.312 160.400,314.627 160.400 C 314.942 160.400,315.200 160.580,315.200 160.800 C 315.200 161.587,321.094 161.285,321.677 160.468 C 321.965 160.065,322.695 159.415,323.300 159.022 C 323.905 158.629,324.400 158.059,324.400 157.754 C 324.400 157.449,324.687 157.200,325.037 157.200 C 325.388 157.200,325.769 156.840,325.884 156.400 C 326.000 155.957,326.430 155.600,326.847 155.600 C 327.261 155.600,327.600 155.342,327.600 155.027 C 327.600 154.712,327.960 154.340,328.400 154.200 C 329.298 153.915,329.485 152.445,328.720 151.680 C 328.347 151.307,328.347 151.200,328.720 151.200 C 328.984 151.200,329.200 150.840,329.200 150.400 C 329.200 149.867,329.467 149.600,330.000 149.600 C 330.444 149.600,330.800 149.333,330.800 149.000 C 330.800 148.670,331.061 148.400,331.380 148.400 C 331.699 148.400,332.104 148.161,332.280 147.870 C 332.456 147.578,332.915 147.224,333.300 147.082 C 333.685 146.941,334.000 146.570,334.000 146.259 C 334.000 145.948,334.360 145.599,334.800 145.484 C 335.240 145.369,335.600 144.988,335.600 144.637 C 335.600 144.287,335.870 144.000,336.200 144.000 C 336.530 144.000,336.800 143.805,336.800 143.566 C 336.800 143.019,344.038 135.825,344.935 135.480 C 345.301 135.340,345.600 134.970,345.600 134.659 C 345.600 134.348,345.960 133.999,346.400 133.884 C 346.840 133.769,347.200 133.409,347.200 133.084 C 347.200 132.759,347.560 132.399,348.000 132.284 C 348.440 132.169,348.800 131.809,348.800 131.484 C 348.800 131.159,349.160 130.799,349.600 130.684 C 350.040 130.569,350.400 130.209,350.400 129.884 C 350.400 129.559,350.760 129.199,351.200 129.084 C 351.640 128.969,352.000 128.588,352.000 128.237 C 352.000 127.832,352.348 127.600,352.953 127.600 C 353.928 127.600,354.688 126.225,353.962 125.777 C 353.356 125.402,353.555 124.868,354.400 124.600 C 355.121 124.371,355.200 123.995,355.200 120.773 C 355.200 116.399,354.347 115.719,353.605 119.500 C 352.729 123.967,352.829 123.838,339.199 138.000 C 334.224 143.170,328.543 149.092,326.576 151.159 C 320.995 157.026,319.442 158.549,318.237 159.339 L 317.117 160.073 277.960 120.916 L 238.802 81.760 248.501 72.101 C 264.635 56.033,272.430 48.518,273.543 47.955 C 274.124 47.662,275.029 47.101,275.554 46.711 C 276.079 46.320,276.931 46.000,277.448 46.000 C 279.013 46.000,282.020 45.059,281.873 44.616 C 281.628 43.874,275.561 43.994,274.143 44.769 M283.784 44.427 C 283.639 44.661,283.583 44.899,283.660 44.954 C 284.056 45.241,287.218 46.001,288.046 46.009 C 288.571 46.014,289.450 46.370,290.000 46.800 C 290.550 47.230,291.235 47.586,291.523 47.591 C 291.810 47.596,295.220 50.705,299.101 54.500 C 302.982 58.295,306.458 61.670,306.827 62.000 C 310.518 65.303,351.669 106.795,351.851 107.398 C 351.985 107.839,352.315 108.470,352.585 108.800 C 352.854 109.130,353.299 110.705,353.574 112.300 C 354.380 116.989,355.259 116.304,355.114 111.100 C 355.004 107.149,354.966 106.995,354.067 106.868 C 353.196 106.744,353.182 106.702,353.852 106.212 C 354.701 105.591,354.069 103.600,353.023 103.600 C 352.696 103.600,352.235 103.240,352.000 102.800 C 351.765 102.360,351.308 102.000,350.986 102.000 C 350.664 102.000,350.400 101.864,350.400 101.698 C 350.400 101.235,345.655 96.400,345.200 96.400 C 344.980 96.400,344.800 96.230,344.800 96.022 C 344.800 95.814,343.900 94.758,342.800 93.676 C 341.700 92.593,340.800 91.497,340.800 91.241 C 340.800 90.985,340.485 90.655,340.100 90.508 C 339.257 90.187,328.800 79.693,328.800 79.168 C 328.800 78.966,328.530 78.800,328.200 78.800 C 327.870 78.800,327.600 78.524,327.600 78.187 C 327.600 77.851,327.285 77.460,326.900 77.319 C 326.188 77.059,319.992 70.886,316.000 66.460 C 314.790 65.118,313.666 64.015,313.503 64.010 C 313.028 63.994,307.385 58.260,307.092 57.495 C 306.945 57.113,306.570 56.800,306.259 56.800 C 305.948 56.800,305.595 56.425,305.475 55.967 C 305.313 55.345,304.972 55.153,304.129 55.209 C 301.720 55.370,301.104 55.227,301.359 54.563 C 301.522 54.138,301.336 53.856,300.802 53.716 C 300.361 53.601,300.000 53.320,300.000 53.091 C 300.000 52.439,296.935 49.600,296.231 49.600 C 295.867 49.600,295.600 49.262,295.600 48.800 C 295.600 48.267,295.333 48.000,294.800 48.000 C 294.302 48.000,294.000 47.733,294.000 47.294 C 294.000 45.117,284.930 42.572,283.784 44.427 M218.799 99.555 C 217.844 100.429,217.218 101.306,217.372 101.555 C 217.540 101.827,217.326 102.000,216.824 102.000 C 216.267 102.000,216.000 102.259,216.000 102.800 C 216.000 103.333,215.733 103.600,215.200 103.600 C 214.667 103.600,214.400 103.867,214.400 104.400 C 214.400 104.933,214.133 105.200,213.600 105.200 C 213.067 105.200,212.800 105.467,212.800 106.000 C 212.800 106.533,212.533 106.800,212.000 106.800 C 211.467 106.800,211.200 107.067,211.200 107.600 C 211.200 108.040,210.975 108.403,210.700 108.407 C 210.090 108.415,208.400 110.142,208.400 110.756 C 208.400 111.000,208.175 111.206,207.900 111.213 C 207.232 111.231,205.600 112.616,205.600 113.164 C 205.600 113.404,205.330 113.600,205.000 113.600 C 204.667 113.600,204.400 113.956,204.400 114.400 C 204.400 114.933,204.133 115.200,203.600 115.200 C 203.067 115.200,202.800 115.467,202.800 116.000 C 202.800 116.533,202.533 116.800,202.000 116.800 C 201.467 116.800,201.200 117.067,201.200 117.600 C 201.200 118.133,200.933 118.400,200.400 118.400 C 199.867 118.400,199.600 118.667,199.600 119.200 C 199.600 119.733,199.333 120.000,198.800 120.000 C 198.267 120.000,198.000 120.267,198.000 120.800 C 198.000 121.333,197.733 121.600,197.200 121.600 C 196.704 121.600,196.400 121.867,196.400 122.302 C 196.400 122.705,195.865 123.242,195.148 123.559 C 194.459 123.864,193.808 124.448,193.701 124.857 C 193.594 125.265,193.258 125.600,192.953 125.600 C 192.649 125.600,192.400 125.870,192.400 126.200 C 192.400 126.530,192.130 126.800,191.800 126.800 C 191.467 126.800,191.200 127.156,191.200 127.600 C 191.200 128.133,190.933 128.400,190.400 128.400 C 189.867 128.400,189.600 128.667,189.600 129.200 C 189.600 129.733,189.333 130.000,188.800 130.000 C 188.267 130.000,188.000 130.267,188.000 130.800 C 188.000 131.333,187.733 131.600,187.200 131.600 C 186.667 131.600,186.400 131.867,186.400 132.400 C 186.400 132.933,186.133 133.200,185.600 133.200 C 185.067 133.200,184.800 133.467,184.800 134.000 C 184.800 134.440,184.533 134.800,184.207 134.800 C 183.396 134.800,180.572 137.605,180.718 138.266 C 180.786 138.575,180.491 138.800,180.018 138.800 C 179.467 138.800,179.200 139.061,179.200 139.600 C 179.200 140.133,178.933 140.400,178.400 140.400 C 177.867 140.400,177.600 140.667,177.600 141.200 C 177.600 141.652,177.333 142.000,176.987 142.000 C 176.651 142.000,176.271 142.270,176.145 142.600 C 176.018 142.930,175.664 143.200,175.357 143.200 C 175.051 143.200,174.800 143.560,174.800 144.000 C 174.800 144.533,174.533 144.800,174.000 144.800 C 173.467 144.800,173.200 145.067,173.200 145.600 C 173.200 146.133,172.933 146.400,172.400 146.400 C 171.948 146.400,171.600 146.667,171.600 147.013 C 171.600 147.349,171.285 147.745,170.900 147.892 C 169.828 148.302,168.686 149.493,168.953 149.924 C 169.084 150.136,168.833 150.403,168.396 150.517 C 167.958 150.631,167.600 151.012,167.600 151.363 C 167.600 151.733,167.265 152.000,166.800 152.000 C 166.267 152.000,166.000 152.267,166.000 152.800 C 166.000 153.333,165.733 153.600,165.200 153.600 C 164.667 153.600,164.400 153.867,164.400 154.400 C 164.400 154.933,164.133 155.200,163.600 155.200 C 163.067 155.200,162.800 155.467,162.800 156.000 C 162.800 156.533,162.533 156.800,162.000 156.800 C 161.467 156.800,161.200 157.067,161.200 157.600 C 161.200 158.040,160.973 158.400,160.696 158.400 C 160.418 158.400,159.745 158.940,159.200 159.600 C 158.655 160.260,158.081 160.800,157.925 160.800 C 157.321 160.800,155.541 162.781,155.787 163.179 C 155.937 163.421,155.698 163.600,155.224 163.600 C 154.667 163.600,154.400 163.859,154.400 164.400 C 154.400 164.933,154.133 165.200,153.600 165.200 C 153.067 165.200,152.800 165.467,152.800 166.000 C 152.800 166.533,152.533 166.800,152.000 166.800 C 151.467 166.800,151.200 167.067,151.200 167.600 C 151.200 168.133,150.933 168.400,150.400 168.400 C 149.883 168.400,149.600 168.667,149.600 169.153 C 149.600 169.570,149.243 170.000,148.800 170.116 C 148.360 170.231,148.000 170.612,148.000 170.963 C 148.000 171.313,147.732 171.600,147.405 171.600 C 146.660 171.600,145.200 172.820,145.200 173.442 C 145.200 173.698,144.835 174.002,144.389 174.119 C 143.942 174.236,143.627 174.482,143.689 174.666 C 143.827 175.081,142.145 176.800,141.600 176.800 C 141.380 176.800,141.200 177.160,141.200 177.600 C 141.200 178.133,140.933 178.400,140.400 178.400 C 139.867 178.400,139.600 178.667,139.600 179.200 C 139.600 179.733,139.333 180.000,138.800 180.000 C 138.267 180.000,138.000 180.267,138.000 180.800 C 138.000 181.333,137.733 181.600,137.200 181.600 C 136.667 181.600,136.400 181.867,136.400 182.400 C 136.400 182.840,136.133 183.200,135.807 183.200 C 134.996 183.200,132.172 186.005,132.318 186.666 C 132.386 186.975,132.091 187.200,131.618 187.200 C 131.067 187.200,130.800 187.461,130.800 188.000 C 130.800 188.533,130.533 188.800,130.000 188.800 C 129.467 188.800,129.200 189.067,129.200 189.600 C 129.200 190.133,128.933 190.400,128.400 190.400 C 127.867 190.400,127.600 190.667,127.600 191.200 C 127.600 191.640,127.375 192.003,127.100 192.007 C 126.490 192.015,124.800 193.742,124.800 194.356 C 124.800 194.600,124.440 194.800,124.000 194.800 C 123.504 194.800,123.200 195.067,123.200 195.502 C 123.200 195.905,122.665 196.442,121.948 196.759 C 121.259 197.064,120.608 197.648,120.501 198.057 C 120.394 198.465,120.058 198.800,119.753 198.800 C 119.449 198.800,119.200 199.160,119.200 199.600 C 119.200 200.133,118.933 200.400,118.400 200.400 C 117.867 200.400,117.600 200.667,117.600 201.200 C 117.600 201.733,117.333 202.000,116.800 202.000 C 116.267 202.000,116.000 202.267,116.000 202.800 C 116.000 203.333,115.733 203.600,115.200 203.600 C 114.667 203.600,114.400 203.867,114.400 204.400 C 114.400 204.933,114.133 205.200,113.600 205.200 C 113.067 205.200,112.800 205.467,112.800 206.000 C 112.800 206.533,112.533 206.800,112.000 206.800 C 111.467 206.800,111.200 207.067,111.200 207.600 C 111.200 208.040,110.955 208.400,110.656 208.400 C 109.872 208.400,107.102 211.118,107.398 211.597 C 107.535 211.819,107.277 212.000,106.824 212.000 C 106.284 212.000,106.000 212.259,106.000 212.753 C 106.000 213.170,105.643 213.600,105.200 213.716 C 104.760 213.831,104.400 214.212,104.400 214.563 C 104.400 214.933,104.065 215.200,103.600 215.200 C 103.067 215.200,102.800 215.467,102.800 216.000 C 102.800 216.533,102.533 216.800,102.000 216.800 C 101.467 216.800,101.200 217.067,101.200 217.600 C 101.200 218.133,100.933 218.400,100.400 218.400 C 99.867 218.400,99.600 218.667,99.600 219.200 C 99.600 219.663,99.333 220.000,98.967 220.000 C 98.162 220.000,95.373 222.834,95.523 223.500 C 95.585 223.775,95.267 224.000,94.818 224.000 C 94.368 224.000,94.000 224.204,94.000 224.454 C 94.000 224.988,92.130 226.800,91.579 226.800 C 91.371 226.800,91.200 227.160,91.200 227.600 C 91.200 228.133,90.933 228.400,90.400 228.400 C 89.867 228.400,89.600 228.667,89.600 229.200 C 89.600 229.733,89.333 230.000,88.800 230.000 C 88.267 230.000,88.000 230.267,88.000 230.800 C 88.000 231.333,87.733 231.600,87.200 231.600 C 86.748 231.600,86.400 231.867,86.400 232.213 C 86.400 232.549,86.085 232.945,85.700 233.092 C 84.583 233.519,83.491 234.700,83.781 235.169 C 83.938 235.424,83.710 235.600,83.224 235.600 C 82.667 235.600,82.400 235.859,82.400 236.400 C 82.400 236.933,82.133 237.200,81.600 237.200 C 81.067 237.200,80.800 237.467,80.800 238.000 C 80.800 238.533,80.533 238.800,80.000 238.800 C 79.467 238.800,79.200 239.067,79.200 239.600 C 79.200 240.133,78.933 240.400,78.400 240.400 C 77.867 240.400,77.600 240.667,77.600 241.200 C 77.600 241.640,77.375 242.003,77.100 242.007 C 76.490 242.015,74.800 243.742,74.800 244.356 C 74.800 244.600,74.575 244.803,74.300 244.806 C 73.508 244.815,70.293 247.903,70.584 248.374 C 70.738 248.623,70.504 248.800,70.024 248.800 C 69.467 248.800,69.200 249.059,69.200 249.600 C 69.200 250.133,68.933 250.400,68.400 250.400 C 67.867 250.400,67.600 250.667,67.600 251.200 C 67.600 251.733,67.333 252.000,66.800 252.000 C 66.267 252.000,66.000 252.267,66.000 252.800 C 66.000 253.333,65.733 253.600,65.200 253.600 C 64.667 253.600,64.400 253.867,64.400 254.400 C 64.400 254.933,64.133 255.200,63.600 255.200 C 63.067 255.200,62.800 255.467,62.800 256.000 C 62.800 256.442,62.533 256.800,62.205 256.800 C 61.434 256.800,60.000 258.029,60.000 258.689 C 60.000 258.970,59.730 259.200,59.400 259.200 C 59.070 259.200,58.800 259.470,58.800 259.800 C 58.800 260.130,58.530 260.400,58.200 260.400 C 57.867 260.400,57.600 260.756,57.600 261.200 C 57.600 261.640,57.420 262.000,57.200 262.000 C 56.980 262.000,56.800 262.360,56.800 262.800 C 56.800 263.240,56.860 263.600,56.932 263.600 C 57.005 263.600,93.876 226.790,138.868 181.800 C 190.687 129.983,220.951 100.000,221.436 100.000 C 222.855 100.000,299.358 176.921,299.067 178.055 C 298.929 178.593,263.557 214.260,217.013 260.794 C 172.016 305.780,135.200 342.725,135.200 342.894 C 135.200 343.062,135.575 343.200,136.033 343.200 C 136.859 343.200,139.882 340.477,139.696 339.900 C 139.643 339.735,139.858 339.600,140.173 339.600 C 140.488 339.600,140.860 339.240,141.000 338.800 C 141.140 338.360,141.512 338.000,141.827 338.000 C 142.142 338.000,142.400 337.640,142.400 337.200 C 142.400 336.667,142.667 336.400,143.200 336.400 C 143.733 336.400,144.000 336.133,144.000 335.600 C 144.000 335.067,144.267 334.800,144.800 334.800 C 145.333 334.800,145.600 334.533,145.600 334.000 C 145.600 333.467,145.867 333.200,146.400 333.200 C 146.933 333.200,147.200 332.933,147.200 332.400 C 147.200 331.960,147.467 331.600,147.793 331.600 C 148.604 331.600,151.428 328.795,151.282 328.134 C 151.214 327.825,151.509 327.600,151.982 327.600 C 152.533 327.600,152.800 327.339,152.800 326.800 C 152.800 326.267,153.067 326.000,153.600 326.000 C 154.040 326.000,154.400 325.742,154.400 325.427 C 154.400 325.112,154.760 324.740,155.200 324.600 C 155.640 324.460,156.000 324.088,156.000 323.773 C 156.000 323.458,156.258 323.200,156.573 323.200 C 156.888 323.200,157.260 322.840,157.400 322.400 C 157.540 321.960,157.912 321.600,158.227 321.600 C 158.542 321.600,158.800 321.240,158.800 320.800 C 158.800 320.267,159.067 320.000,159.600 320.000 C 160.133 320.000,160.400 319.733,160.400 319.200 C 160.400 318.758,160.667 318.400,160.995 318.400 C 161.766 318.400,163.200 317.171,163.200 316.511 C 163.200 316.230,163.470 316.000,163.800 316.000 C 164.133 316.000,164.400 315.644,164.400 315.200 C 164.400 314.667,164.667 314.400,165.200 314.400 C 165.733 314.400,166.000 314.133,166.000 313.600 C 166.000 313.067,166.267 312.800,166.800 312.800 C 167.333 312.800,167.600 312.533,167.600 312.000 C 167.600 311.467,167.867 311.200,168.400 311.200 C 168.933 311.200,169.200 310.933,169.200 310.400 C 169.200 309.867,169.467 309.600,170.000 309.600 C 170.440 309.600,170.800 309.342,170.800 309.027 C 170.800 308.712,171.160 308.340,171.600 308.200 C 172.040 308.060,172.400 307.688,172.400 307.373 C 172.400 307.058,172.535 306.800,172.700 306.799 C 173.371 306.798,176.485 303.661,176.228 303.245 C 176.060 302.973,176.274 302.800,176.776 302.800 C 177.333 302.800,177.600 302.541,177.600 302.000 C 177.600 301.467,177.867 301.200,178.400 301.200 C 178.933 301.200,179.200 300.933,179.200 300.400 C 179.200 299.867,179.467 299.600,180.000 299.600 C 180.533 299.600,180.800 299.333,180.800 298.800 C 180.800 298.267,181.067 298.000,181.600 298.000 C 182.133 298.000,182.400 297.733,182.400 297.200 C 182.400 296.667,182.667 296.400,183.200 296.400 C 183.733 296.400,184.000 296.133,184.000 295.600 C 184.000 295.137,184.267 294.800,184.633 294.800 C 185.295 294.800,188.258 292.004,188.105 291.524 C 188.056 291.373,188.373 291.136,188.808 290.997 C 189.244 290.859,189.600 290.488,189.600 290.173 C 189.600 289.858,189.858 289.600,190.173 289.600 C 190.488 289.600,190.860 289.240,191.000 288.800 C 191.140 288.360,191.512 288.000,191.827 288.000 C 192.142 288.000,192.400 287.640,192.400 287.200 C 192.400 286.667,192.667 286.400,193.200 286.400 C 193.733 286.400,194.000 286.133,194.000 285.600 C 194.000 285.067,194.267 284.800,194.800 284.800 C 195.333 284.800,195.600 284.533,195.600 284.000 C 195.600 283.467,195.867 283.200,196.400 283.200 C 196.852 283.200,197.200 282.933,197.200 282.587 C 197.200 282.251,197.507 281.857,197.882 281.713 C 199.045 281.267,199.940 280.308,199.722 279.741 C 199.588 279.392,199.813 279.200,200.357 279.200 C 200.933 279.200,201.200 278.947,201.200 278.400 C 201.200 277.867,201.467 277.600,202.000 277.600 C 202.533 277.600,202.800 277.333,202.800 276.800 C 202.800 276.267,203.067 276.000,203.600 276.000 C 204.040 276.000,204.400 275.742,204.400 275.427 C 204.400 275.112,204.760 274.740,205.200 274.600 C 205.640 274.460,206.000 274.088,206.000 273.773 C 206.000 273.458,206.258 273.200,206.573 273.200 C 206.888 273.200,207.260 272.840,207.400 272.400 C 207.540 271.960,207.912 271.600,208.227 271.600 C 208.542 271.600,208.800 271.240,208.800 270.800 C 208.800 270.347,209.067 270.000,209.416 270.000 C 210.243 270.000,213.319 266.917,213.003 266.405 C 212.865 266.182,213.122 266.000,213.576 266.000 C 214.133 266.000,214.400 265.741,214.400 265.200 C 214.400 264.667,214.667 264.400,215.200 264.400 C 215.733 264.400,216.000 264.133,216.000 263.600 C 216.000 263.067,216.267 262.800,216.800 262.800 C 217.333 262.800,217.600 262.533,217.600 262.000 C 217.600 261.467,217.867 261.200,218.400 261.200 C 218.933 261.200,219.200 260.933,219.200 260.400 C 219.200 259.867,219.467 259.600,220.000 259.600 C 220.444 259.600,220.800 259.333,220.800 259.000 C 220.800 258.670,220.935 258.400,221.100 258.399 C 221.634 258.398,224.800 255.396,224.800 254.890 C 224.800 254.621,225.070 254.400,225.400 254.400 C 225.733 254.400,226.000 254.044,226.000 253.600 C 226.000 253.067,226.267 252.800,226.800 252.800 C 227.333 252.800,227.600 252.533,227.600 252.000 C 227.600 251.467,227.867 251.200,228.400 251.200 C 228.933 251.200,229.200 250.933,229.200 250.400 C 229.200 249.867,229.467 249.600,230.000 249.600 C 230.533 249.600,230.800 249.333,230.800 248.800 C 230.800 248.267,231.067 248.000,231.600 248.000 C 232.133 248.000,232.400 247.733,232.400 247.200 C 232.400 246.760,232.667 246.400,232.993 246.400 C 233.804 246.400,236.628 243.595,236.482 242.934 C 236.414 242.625,236.709 242.400,237.182 242.400 C 237.632 242.400,238.000 242.142,238.000 241.827 C 238.000 241.512,238.360 241.140,238.800 241.000 C 239.240 240.860,239.600 240.488,239.600 240.173 C 239.600 239.858,239.858 239.600,240.173 239.600 C 240.488 239.600,240.860 239.240,241.000 238.800 C 241.140 238.360,241.512 238.000,241.827 238.000 C 242.142 238.000,242.400 237.640,242.400 237.200 C 242.400 236.667,242.667 236.400,243.200 236.400 C 243.733 236.400,244.000 236.133,244.000 235.600 C 244.000 235.067,244.267 234.800,244.800 234.800 C 245.333 234.800,245.600 234.533,245.600 234.000 C 245.600 233.558,245.867 233.200,246.195 233.200 C 246.966 233.200,248.400 231.971,248.400 231.311 C 248.400 231.030,248.670 230.800,249.000 230.800 C 249.333 230.800,249.600 230.444,249.600 230.000 C 249.600 229.467,249.867 229.200,250.400 229.200 C 250.933 229.200,251.200 228.933,251.200 228.400 C 251.200 227.867,251.467 227.600,252.000 227.600 C 252.533 227.600,252.800 227.333,252.800 226.800 C 252.800 226.267,253.067 226.000,253.600 226.000 C 254.040 226.000,254.400 225.742,254.400 225.427 C 254.400 225.112,254.760 224.740,255.200 224.600 C 255.640 224.460,256.000 224.088,256.000 223.773 C 256.000 223.458,256.258 223.200,256.573 223.200 C 256.888 223.200,257.260 222.840,257.400 222.400 C 257.540 221.960,257.814 221.600,258.010 221.600 C 258.679 221.600,261.679 218.451,261.415 218.025 C 261.263 217.778,261.497 217.600,261.976 217.600 C 262.533 217.600,262.800 217.341,262.800 216.800 C 262.800 216.267,263.067 216.000,263.600 216.000 C 264.133 216.000,264.400 215.733,264.400 215.200 C 264.400 214.667,264.667 214.400,265.200 214.400 C 265.733 214.400,266.000 214.133,266.000 213.600 C 266.000 213.067,266.267 212.800,266.800 212.800 C 267.333 212.800,267.600 212.533,267.600 212.000 C 267.600 211.467,267.867 211.200,268.400 211.200 C 268.933 211.200,269.200 210.933,269.200 210.400 C 269.200 209.937,269.467 209.600,269.833 209.600 C 270.515 209.600,273.456 206.797,273.296 206.300 C 273.243 206.135,273.458 206.000,273.773 206.000 C 274.088 206.000,274.460 205.640,274.600 205.200 C 274.740 204.760,275.112 204.400,275.427 204.400 C 275.742 204.400,276.000 204.040,276.000 203.600 C 276.000 203.067,276.267 202.800,276.800 202.800 C 277.333 202.800,277.600 202.533,277.600 202.000 C 277.600 201.467,277.867 201.200,278.400 201.200 C 278.933 201.200,279.200 200.933,279.200 200.400 C 279.200 199.867,279.467 199.600,280.000 199.600 C 280.533 199.600,280.800 199.333,280.800 198.800 C 280.800 198.267,281.067 198.000,281.600 198.000 C 282.052 198.000,282.400 197.733,282.400 197.387 C 282.400 197.051,282.707 196.657,283.082 196.513 C 284.245 196.067,285.140 195.108,284.922 194.541 C 284.788 194.192,285.013 194.000,285.557 194.000 C 286.133 194.000,286.400 193.747,286.400 193.200 C 286.400 192.667,286.667 192.400,287.200 192.400 C 287.640 192.400,288.000 192.142,288.000 191.827 C 288.000 191.512,288.360 191.140,288.800 191.000 C 289.240 190.860,289.600 190.488,289.600 190.173 C 289.600 189.858,289.858 189.600,290.173 189.600 C 290.488 189.600,290.860 189.240,291.000 188.800 C 291.140 188.360,291.512 188.000,291.827 188.000 C 292.142 188.000,292.400 187.640,292.400 187.200 C 292.400 186.667,292.667 186.400,293.200 186.400 C 293.733 186.400,294.000 186.133,294.000 185.600 C 294.000 185.147,294.267 184.800,294.616 184.800 C 295.443 184.800,298.519 181.717,298.203 181.205 C 298.065 180.982,298.291 180.800,298.704 180.800 C 299.948 180.800,301.200 178.992,301.200 177.197 C 301.200 175.900,301.059 175.600,300.447 175.600 C 300.030 175.600,299.600 175.243,299.484 174.800 C 299.369 174.360,298.988 174.000,298.637 174.000 C 298.287 174.000,298.000 173.724,298.000 173.387 C 298.000 173.051,297.695 172.658,297.322 172.515 C 296.495 172.197,294.187 169.864,293.862 169.016 C 293.731 168.677,293.349 168.400,293.013 168.400 C 292.676 168.400,292.400 168.061,292.400 167.647 C 292.400 167.230,292.043 166.800,291.600 166.684 C 291.160 166.569,290.800 166.188,290.800 165.837 C 290.800 165.487,290.638 165.200,290.440 165.200 C 290.241 165.200,289.025 164.165,287.737 162.900 C 286.450 161.635,284.754 160.049,283.970 159.375 C 283.185 158.701,282.427 157.846,282.284 157.475 C 282.142 157.104,281.749 156.800,281.413 156.800 C 281.067 156.800,280.800 156.452,280.800 156.000 C 280.800 155.467,280.533 155.200,280.000 155.200 C 279.467 155.200,279.200 154.933,279.200 154.400 C 279.200 153.867,278.933 153.600,278.400 153.600 C 277.867 153.600,277.600 153.333,277.600 152.800 C 277.600 152.267,277.333 152.000,276.800 152.000 C 276.267 152.000,276.000 151.733,276.000 151.200 C 276.000 150.760,275.792 150.400,275.538 150.400 C 275.284 150.400,273.929 149.230,272.527 147.800 C 271.125 146.370,269.802 145.200,269.589 145.200 C 269.375 145.200,269.200 144.936,269.200 144.614 C 269.200 144.292,268.840 143.835,268.400 143.600 C 267.960 143.365,267.600 142.908,267.600 142.586 C 267.600 142.264,267.240 142.000,266.800 142.000 C 266.267 142.000,266.000 141.733,266.000 141.200 C 266.000 140.667,265.733 140.400,265.200 140.400 C 264.667 140.400,264.400 140.133,264.400 139.600 C 264.400 139.067,264.133 138.800,263.600 138.800 C 263.067 138.800,262.800 138.533,262.800 138.000 C 262.800 137.560,262.545 137.200,262.234 137.200 C 261.713 137.200,258.800 134.668,258.800 134.215 C 258.800 133.780,250.514 125.600,250.073 125.600 C 249.813 125.600,249.600 125.324,249.600 124.987 C 249.600 124.651,249.295 124.258,248.922 124.115 C 248.095 123.797,245.787 121.464,245.462 120.616 C 245.331 120.277,244.949 120.000,244.613 120.000 C 244.267 120.000,244.000 119.652,244.000 119.200 C 244.000 118.667,243.733 118.400,243.200 118.400 C 242.683 118.400,242.400 118.133,242.400 117.647 C 242.400 117.230,242.043 116.800,241.600 116.684 C 241.160 116.569,240.800 116.188,240.800 115.837 C 240.800 115.487,240.633 115.200,240.429 115.200 C 240.225 115.200,238.497 113.670,236.588 111.800 C 234.680 109.930,232.957 108.400,232.759 108.400 C 232.562 108.400,232.400 108.040,232.400 107.600 C 232.400 107.067,232.133 106.800,231.600 106.800 C 231.067 106.800,230.800 106.533,230.800 106.000 C 230.800 105.467,230.533 105.200,230.000 105.200 C 229.467 105.200,229.200 104.933,229.200 104.400 C 229.200 103.867,228.933 103.600,228.400 103.600 C 227.867 103.600,227.600 103.333,227.600 102.800 C 227.600 102.267,227.333 102.000,226.800 102.000 C 226.360 102.000,226.000 101.813,226.000 101.584 C 226.000 101.355,225.251 100.455,224.335 99.584 C 222.165 97.520,221.032 97.514,218.799 99.555 M56.800 342.157 C 56.800 343.003,56.989 343.200,57.800 343.200 C 58.533 343.200,58.800 342.987,58.800 342.400 C 58.800 341.960,58.635 341.600,58.433 341.600 C 58.231 341.600,57.781 341.491,57.433 341.357 C 56.955 341.174,56.800 341.371,56.800 342.157 " stroke="none" fill="#5c5c5c" fill-rule="evenodd"></path><path id="path3" d="M310.200 66.000 C 312.171 67.980,313.873 69.600,313.983 69.600 C 314.093 69.600,312.571 67.980,310.600 66.000 C 308.629 64.020,306.927 62.400,306.817 62.400 C 306.707 62.400,308.229 64.020,310.200 66.000 M246.600 89.200 C 248.792 91.400,250.675 93.200,250.785 93.200 C 250.895 93.200,249.192 91.400,247.000 89.200 C 244.808 87.000,242.925 85.200,242.815 85.200 C 242.705 85.200,244.408 87.000,246.600 89.200 M255.600 98.200 C 256.346 98.970,257.047 99.600,257.157 99.600 C 257.267 99.600,256.746 98.970,256.000 98.200 C 255.254 97.430,254.553 96.800,254.443 96.800 C 254.333 96.800,254.854 97.430,255.600 98.200 M262.200 104.800 C 264.833 107.440,267.077 109.600,267.187 109.600 C 267.297 109.600,265.233 107.440,262.600 104.800 C 259.967 102.160,257.723 100.000,257.613 100.000 C 257.503 100.000,259.567 102.160,262.200 104.800 M221.650 100.500 C 221.750 100.555,239.195 117.880,260.416 139.000 L 299.000 177.400 260.601 138.900 C 239.481 117.725,222.036 100.400,221.834 100.400 C 221.632 100.400,221.549 100.445,221.650 100.500 M352.265 109.200 C 352.520 109.530,352.808 110.340,352.905 111.000 L 353.080 112.200 353.140 110.949 C 353.177 110.177,352.932 109.488,352.500 109.149 C 351.891 108.671,351.860 108.678,352.265 109.200 M270.600 113.200 C 271.459 114.080,272.252 114.800,272.362 114.800 C 272.472 114.800,271.859 114.080,271.000 113.200 C 270.141 112.320,269.348 111.600,269.238 111.600 C 269.128 111.600,269.741 112.320,270.600 113.200 M274.200 116.800 C 275.059 117.680,275.852 118.400,275.962 118.400 C 276.072 118.400,275.459 117.680,274.600 116.800 C 273.741 115.920,272.948 115.200,272.838 115.200 C 272.728 115.200,273.341 115.920,274.200 116.800 M281.000 123.600 C 283.633 126.240,285.877 128.400,285.987 128.400 C 286.097 128.400,284.033 126.240,281.400 123.600 C 278.767 120.960,276.523 118.800,276.413 118.800 C 276.303 118.800,278.367 120.960,281.000 123.600 M345.988 130.300 L 343.400 133.000 346.100 130.412 C 347.585 128.988,348.800 127.773,348.800 127.712 C 348.800 127.417,348.393 127.792,345.988 130.300 M296.600 139.200 C 298.792 141.400,300.675 143.200,300.785 143.200 C 300.895 143.200,299.192 141.400,297.000 139.200 C 294.808 137.000,292.925 135.200,292.815 135.200 C 292.705 135.200,294.408 137.000,296.600 139.200 M336.800 139.800 C 335.828 140.790,335.123 141.600,335.233 141.600 C 335.343 141.600,336.228 140.790,337.200 139.800 C 338.172 138.810,338.877 138.000,338.767 138.000 C 338.657 138.000,337.772 138.810,336.800 139.800 M305.600 148.200 C 306.346 148.970,307.047 149.600,307.157 149.600 C 307.267 149.600,306.746 148.970,306.000 148.200 C 305.254 147.430,304.553 146.800,304.443 146.800 C 304.333 146.800,304.854 147.430,305.600 148.200 M311.600 154.200 C 313.681 156.290,315.474 158.000,315.584 158.000 C 315.694 158.000,314.081 156.290,312.000 154.200 C 309.919 152.110,308.126 150.400,308.016 150.400 C 307.906 150.400,309.519 152.110,311.600 154.200 M217.200 259.900 L 136.200 341.000 217.300 260.000 C 261.905 215.451,298.400 178.956,298.400 178.900 C 298.400 178.621,292.508 184.498,217.200 259.900 M73.381 247.700 L 71.800 249.400 73.500 247.819 C 75.081 246.348,75.384 246.000,75.081 246.000 C 75.016 246.000,74.251 246.765,73.381 247.700 M57.300 264.265 C 56.652 264.526,56.660 265.061,57.314 265.312 C 57.621 265.430,57.829 265.205,57.829 264.755 C 57.829 264.340,57.822 264.014,57.814 264.032 C 57.806 264.049,57.575 264.154,57.300 264.265 M57.300 339.465 C 56.652 339.726,56.660 340.261,57.314 340.512 C 57.621 340.630,57.829 340.405,57.829 339.955 C 57.829 339.540,57.822 339.214,57.814 339.232 C 57.806 339.249,57.575 339.354,57.300 339.465 " stroke="none" fill="#bc1434" fill-rule="evenodd"></path><path id="path4" d="M281.900 45.482 C 282.395 45.578,283.205 45.578,283.700 45.482 C 284.195 45.387,283.790 45.309,282.800 45.309 C 281.810 45.309,281.405 45.387,281.900 45.482 M275.725 46.700 C 275.306 47.085,275.160 47.272,275.403 47.116 C 275.645 46.960,276.283 46.656,276.822 46.441 C 277.440 46.194,277.559 46.041,277.144 46.025 C 276.784 46.011,276.145 46.315,275.725 46.700 M288.899 46.578 C 289.503 46.893,290.223 47.268,290.499 47.410 C 290.774 47.553,290.550 47.298,290.000 46.844 C 289.450 46.389,288.730 46.015,288.400 46.011 C 288.070 46.008,288.294 46.263,288.899 46.578 M271.906 49.190 C 269.489 51.318,267.200 53.622,267.200 53.928 C 267.200 54.065,268.325 53.086,269.700 51.753 C 271.075 50.419,272.719 48.939,273.354 48.464 C 273.989 47.989,274.329 47.600,274.110 47.600 C 273.892 47.600,272.900 48.315,271.906 49.190 M292.246 48.466 C 292.881 48.943,296.203 52.093,299.628 55.466 C 303.054 58.840,306.009 61.600,306.195 61.600 C 306.381 61.600,306.458 61.550,306.367 61.489 C 306.275 61.427,303.015 58.277,299.123 54.489 C 295.230 50.700,291.831 47.600,291.569 47.600 C 291.307 47.600,291.611 47.990,292.246 48.466 M264.800 55.872 C 263.913 56.810,263.897 56.878,264.653 56.476 C 265.122 56.226,265.611 55.747,265.740 55.411 C 266.054 54.594,265.968 54.636,264.800 55.872 M253.993 66.700 L 249.400 71.400 254.100 66.807 C 258.466 62.540,258.982 62.000,258.693 62.000 C 258.635 62.000,256.520 64.115,253.993 66.700 M326.198 81.502 C 336.758 92.116,345.471 100.800,345.562 100.800 C 345.931 100.800,340.563 95.372,324.200 79.202 L 307.000 62.204 326.198 81.502 M244.164 76.398 C 238.704 81.898,238.738 81.832,240.487 83.413 L 241.800 84.600 240.700 83.378 C 239.188 81.699,239.033 81.980,244.494 76.506 C 247.186 73.808,249.284 71.600,249.158 71.600 C 249.031 71.600,246.784 73.759,244.164 76.398 M255.400 98.400 C 258.915 101.920,261.881 104.800,261.991 104.800 C 262.101 104.800,259.315 101.920,255.800 98.400 C 252.285 94.880,249.319 92.000,249.209 92.000 C 249.099 92.000,251.885 94.880,255.400 98.400 M217.072 103.548 C 215.163 105.500,213.600 107.232,213.600 107.398 C 213.600 107.563,215.208 106.056,217.173 104.049 C 219.139 102.042,221.074 100.400,221.474 100.400 C 222.511 100.400,298.800 176.761,298.800 177.798 C 298.800 178.615,139.386 338.502,136.240 340.840 C 135.382 341.478,134.930 342.000,135.236 342.000 C 136.062 342.000,298.781 179.168,299.067 178.055 C 299.370 176.875,222.851 100.000,221.373 100.000 C 220.859 100.000,219.230 101.344,217.072 103.548 M351.632 107.638 C 351.614 107.989,352.005 108.619,352.500 109.038 C 353.392 109.794,353.394 109.793,352.752 109.000 C 352.396 108.560,352.005 107.930,351.884 107.600 C 351.697 107.091,351.658 107.096,351.632 107.638 M271.394 114.311 C 274.251 117.220,276.665 119.600,276.758 119.600 C 277.065 119.600,272.656 115.052,269.400 112.011 C 267.640 110.367,268.537 111.402,271.394 114.311 M203.000 117.604 C 199.040 121.560,195.925 124.798,196.078 124.799 C 196.231 124.799,199.621 121.560,203.611 117.600 C 207.601 113.640,210.716 110.402,210.533 110.405 C 210.350 110.408,206.960 113.647,203.000 117.604 M353.502 114.600 C 353.617 116.360,353.777 117.875,353.856 117.967 C 354.123 118.275,353.909 113.812,353.598 112.600 C 353.424 111.919,353.382 112.785,353.502 114.600 M352.171 123.098 C 351.754 123.924,350.780 125.320,350.006 126.199 L 348.600 127.799 350.094 126.427 C 351.407 125.221,353.394 122.060,353.053 121.719 C 352.984 121.651,352.587 122.271,352.171 123.098 M287.794 130.714 C 290.651 133.621,293.067 136.000,293.164 136.000 C 293.473 136.000,283.808 126.242,282.876 125.614 C 282.724 125.511,284.937 127.806,287.794 130.714 M192.841 127.814 C 191.520 129.319,191.195 130.034,192.219 129.185 C 192.932 128.593,194.546 126.400,194.269 126.400 C 194.166 126.400,193.524 127.036,192.841 127.814 M344.093 132.506 C 341.622 134.985,339.600 137.130,339.600 137.273 C 339.600 137.416,341.615 135.474,344.077 132.957 C 346.539 130.439,348.639 128.294,348.743 128.190 C 348.848 128.085,348.855 128.000,348.760 128.000 C 348.665 128.000,346.565 130.028,344.093 132.506 M183.264 137.400 C 179.897 140.810,177.259 143.600,177.401 143.600 C 177.689 143.600,189.600 131.672,189.600 131.384 C 189.600 131.005,189.246 131.341,183.264 137.400 M304.596 147.506 C 308.554 151.518,311.867 154.800,311.959 154.800 C 312.284 154.800,307.742 150.144,302.600 145.206 C 298.654 141.418,299.136 141.972,304.596 147.506 M332.591 144.500 L 329.400 147.800 332.700 144.609 C 334.515 142.855,336.000 141.370,336.000 141.309 C 336.000 141.018,335.554 141.435,332.591 144.500 M170.231 150.406 C 166.728 153.923,163.992 156.800,164.152 156.800 C 164.312 156.800,167.309 153.920,170.812 150.400 C 174.316 146.880,177.051 144.003,176.891 144.006 C 176.731 144.010,173.734 146.890,170.231 150.406 M325.130 152.228 C 322.858 154.553,320.927 156.668,320.838 156.928 C 320.749 157.188,321.261 156.770,321.975 156.000 C 322.689 155.230,324.722 153.115,326.493 151.300 C 328.263 149.485,329.610 148.000,329.485 148.000 C 329.361 148.000,327.401 149.903,325.130 152.228 M151.700 168.939 C 147.025 173.632,143.200 177.628,143.200 177.821 C 143.200 178.013,145.135 176.188,147.500 173.764 C 149.865 171.341,153.823 167.343,156.297 164.879 C 158.770 162.416,160.660 160.402,160.497 160.404 C 160.333 160.406,156.375 164.247,151.700 168.939 M134.700 185.939 C 131.235 189.420,128.400 192.394,128.400 192.548 C 128.400 192.701,131.280 189.935,134.800 186.400 C 140.442 180.734,141.509 179.584,141.100 179.605 C 141.045 179.608,138.165 182.458,134.700 185.939 M118.650 202.000 C 115.158 205.520,112.422 208.400,112.571 208.400 C 112.719 208.400,115.708 205.520,119.212 202.000 C 122.717 198.480,125.452 195.600,125.291 195.600 C 125.130 195.600,122.142 198.480,118.650 202.000 M102.907 217.700 C 97.991 222.595,93.771 226.960,93.528 227.400 C 93.285 227.840,95.227 226.033,97.843 223.385 C 100.459 220.737,104.815 216.372,107.522 213.685 C 110.229 210.998,112.309 208.800,112.144 208.800 C 111.979 208.800,107.822 212.805,102.907 217.700 M87.097 233.513 C 84.070 236.531,81.595 239.144,81.597 239.319 C 81.599 239.495,84.120 237.108,87.200 234.014 C 92.087 229.105,93.141 227.956,92.700 228.013 C 92.645 228.020,90.124 230.495,87.097 233.513 M79.817 240.878 C 78.885 241.855,78.819 242.018,79.508 241.649 C 79.989 241.392,80.572 240.826,80.805 240.391 C 81.369 239.336,81.217 239.411,79.817 240.878 M66.631 254.009 C 61.160 259.513,56.801 264.134,56.944 264.278 C 57.088 264.421,57.879 263.750,58.702 262.787 C 59.526 261.824,64.007 257.203,68.660 252.518 C 73.313 247.833,76.998 244.000,76.849 244.000 C 76.701 244.000,72.103 248.504,66.631 254.009 M57.190 265.463 C 57.761 265.746,57.761 339.054,57.190 339.337 C 56.965 339.449,57.010 339.494,57.290 339.437 C 58.042 339.284,58.042 265.516,57.290 265.363 C 57.009 265.307,56.965 265.351,57.190 265.463 M56.800 340.800 C 56.800 341.020,56.845 341.241,56.900 341.292 C 57.179 341.549,133.897 341.756,133.738 341.500 C 133.636 341.335,116.564 341.200,95.800 341.200 C 71.063 341.200,57.962 341.062,57.800 340.800 C 57.664 340.580,57.383 340.400,57.176 340.400 C 56.969 340.400,56.800 340.580,56.800 340.800 " stroke="none" fill="#b41c34" fill-rule="evenodd"></path></g></svg>