<svg id="svg" version="1.1" xmlns="http://www.w3.org/2000/svg" xmlns:xlink="http://www.w3.org/1999/xlink" width="400" height="400" viewBox="0, 0, 400,400"><g id="svgg"><path id="path0" d="M190.400 23.600 C 190.400 23.841,188.741 24.000,186.224 24.000 C 183.927 24.000,181.953 24.153,181.838 24.339 C 181.723 24.525,179.867 24.795,177.714 24.939 C 175.561 25.082,173.170 25.358,172.400 25.551 C 171.630 25.744,169.920 26.118,168.600 26.381 C 165.809 26.938,163.336 27.563,162.200 27.998 C 161.760 28.167,160.050 28.705,158.400 29.193 C 156.750 29.682,155.087 30.244,154.705 30.441 C 154.323 30.638,153.659 30.800,153.229 30.800 C 152.799 30.800,152.336 30.980,152.200 31.200 C 152.064 31.420,151.603 31.600,151.176 31.600 C 150.749 31.600,150.400 31.780,150.400 32.000 C 150.400 32.220,149.961 32.400,149.424 32.400 C 148.887 32.400,148.336 32.580,148.200 32.800 C 148.064 33.020,147.603 33.200,147.176 33.200 C 146.749 33.200,146.400 33.380,146.400 33.600 C 146.400 33.820,145.950 34.000,145.400 34.000 C 144.850 34.000,144.400 34.180,144.400 34.400 C 144.400 34.620,144.040 34.800,143.600 34.800 C 143.160 34.800,142.800 34.980,142.800 35.200 C 142.800 35.420,142.440 35.600,142.000 35.600 C 141.560 35.600,141.200 35.780,141.200 36.000 C 141.200 36.220,140.840 36.400,140.400 36.400 C 139.960 36.400,139.600 36.580,139.600 36.800 C 139.600 37.020,139.240 37.200,138.800 37.200 C 138.360 37.200,138.000 37.380,138.000 37.600 C 138.000 37.820,137.640 38.000,137.200 38.000 C 136.760 38.000,136.400 38.180,136.400 38.400 C 136.400 38.620,136.040 38.800,135.600 38.800 C 135.160 38.800,134.800 38.980,134.800 39.200 C 134.800 39.420,134.440 39.600,134.000 39.600 C 133.560 39.600,133.200 39.780,133.200 40.000 C 133.200 40.220,132.840 40.400,132.400 40.400 C 131.960 40.400,131.600 40.580,131.600 40.800 C 131.600 41.020,131.240 41.200,130.800 41.200 C 130.360 41.200,130.000 41.380,130.000 41.600 C 130.000 41.820,129.802 42.000,129.560 42.000 C 129.070 42.000,124.497 44.717,123.671 45.499 C 123.381 45.775,122.984 46.000,122.790 46.000 C 122.595 46.000,121.986 46.450,121.436 47.000 C 120.886 47.550,120.230 48.000,119.979 48.000 C 119.727 48.000,119.017 48.540,118.400 49.200 C 117.783 49.860,117.063 50.400,116.800 50.400 C 116.537 50.400,115.817 50.940,115.200 51.600 C 114.583 52.260,113.910 52.800,113.703 52.800 C 113.496 52.800,112.499 53.565,111.486 54.500 C 110.473 55.435,108.811 56.920,107.794 57.800 C 103.154 61.812,93.276 71.962,92.381 73.637 C 92.098 74.166,91.357 75.077,90.733 75.660 C 90.110 76.244,89.600 76.830,89.600 76.964 C 89.600 77.098,89.060 77.772,88.400 78.463 C 87.740 79.154,87.200 79.922,87.200 80.171 C 87.200 80.420,86.840 80.883,86.400 81.200 C 85.960 81.517,85.600 82.031,85.600 82.341 C 85.600 82.652,85.284 83.197,84.897 83.553 C 84.511 83.909,83.940 84.695,83.630 85.300 C 83.319 85.905,82.915 86.400,82.732 86.400 C 82.550 86.400,82.400 86.678,82.400 87.017 C 82.400 87.356,82.040 88.020,81.600 88.492 C 81.160 88.964,80.800 89.587,80.800 89.875 C 80.800 90.164,80.620 90.400,80.400 90.400 C 80.180 90.400,80.000 90.678,80.000 91.017 C 80.000 91.356,79.647 92.012,79.215 92.476 C 78.305 93.453,74.800 100.549,74.800 101.415 C 74.800 101.737,74.620 102.000,74.400 102.000 C 74.180 102.000,74.000 102.360,74.000 102.800 C 74.000 103.240,73.820 103.600,73.600 103.600 C 73.380 103.600,73.200 103.960,73.200 104.400 C 73.200 104.840,73.020 105.200,72.800 105.200 C 72.580 105.200,72.400 105.560,72.400 106.000 C 72.400 106.440,72.220 106.800,72.000 106.800 C 71.780 106.800,71.600 107.340,71.600 108.000 C 71.600 108.660,71.464 109.200,71.298 109.200 C 71.131 109.200,70.760 109.785,70.471 110.500 C 70.183 111.215,69.779 112.113,69.574 112.495 C 69.368 112.877,69.200 113.462,69.200 113.795 C 69.200 114.128,69.020 114.400,68.800 114.400 C 68.580 114.400,68.400 114.940,68.400 115.600 C 68.400 116.260,68.220 116.800,68.000 116.800 C 67.780 116.800,67.600 117.340,67.600 118.000 C 67.600 118.660,67.420 119.200,67.200 119.200 C 66.980 119.200,66.800 119.819,66.800 120.576 C 66.800 121.333,66.620 122.064,66.400 122.200 C 66.180 122.336,66.000 122.966,66.000 123.600 C 66.000 124.234,65.820 124.864,65.600 125.000 C 65.380 125.136,65.200 125.856,65.200 126.600 C 65.200 127.344,65.020 128.064,64.800 128.200 C 64.580 128.336,64.400 129.146,64.400 130.000 C 64.400 130.854,64.239 131.652,64.042 131.774 C 63.684 131.995,63.363 133.646,62.948 137.400 C 62.826 138.500,62.563 139.571,62.363 139.780 C 62.163 139.989,62.000 141.258,62.000 142.600 C 62.000 143.942,61.832 145.211,61.627 145.420 C 60.470 146.600,60.476 178.179,61.634 179.380 C 61.835 179.589,62.000 180.883,62.000 182.256 C 62.000 183.629,62.180 184.864,62.400 185.000 C 62.620 185.136,62.800 186.126,62.800 187.200 C 62.800 188.274,62.980 189.264,63.200 189.400 C 63.420 189.536,63.600 190.346,63.600 191.200 C 63.600 192.054,63.780 192.864,64.000 193.000 C 64.220 193.136,64.400 193.957,64.400 194.824 C 64.400 195.691,64.580 196.400,64.800 196.400 C 65.020 196.400,65.200 196.972,65.200 197.672 C 65.200 198.935,65.778 201.165,66.449 202.495 C 66.642 202.877,66.800 203.541,66.800 203.971 C 66.800 204.401,66.980 204.864,67.200 205.000 C 67.420 205.136,67.600 205.687,67.600 206.224 C 67.600 206.761,67.780 207.200,68.000 207.200 C 68.220 207.200,68.400 207.740,68.400 208.400 C 68.400 209.060,68.580 209.600,68.800 209.600 C 69.020 209.600,69.200 210.140,69.200 210.800 C 69.200 211.460,69.380 212.000,69.600 212.000 C 69.820 212.000,70.000 212.360,70.000 212.800 C 70.000 213.240,70.180 213.600,70.400 213.600 C 70.620 213.600,70.800 214.140,70.800 214.800 C 70.800 215.460,70.980 216.000,71.200 216.000 C 71.420 216.000,71.600 216.360,71.600 216.800 C 71.600 217.240,71.780 217.600,72.000 217.600 C 72.220 217.600,72.400 218.050,72.400 218.600 C 72.400 219.150,72.580 219.600,72.800 219.600 C 73.020 219.600,73.200 219.949,73.200 220.376 C 73.200 220.803,73.380 221.264,73.600 221.400 C 73.820 221.536,74.000 221.982,74.000 222.390 C 74.000 222.799,74.135 223.193,74.300 223.267 C 74.465 223.340,75.484 225.200,76.565 227.400 C 77.646 229.600,78.681 231.460,78.865 231.533 C 79.049 231.607,79.200 232.012,79.200 232.433 C 79.200 232.855,79.380 233.200,79.600 233.200 C 79.820 233.200,80.000 233.436,80.000 233.725 C 80.000 234.013,80.315 234.598,80.700 235.025 C 81.085 235.451,81.655 236.295,81.968 236.900 C 82.280 237.505,82.685 238.000,82.868 238.000 C 83.050 238.000,83.200 238.236,83.200 238.525 C 83.200 238.813,83.560 239.436,84.000 239.908 C 84.440 240.380,84.800 240.954,84.800 241.183 C 84.800 241.412,84.980 241.600,85.200 241.600 C 85.420 241.600,85.600 241.848,85.600 242.152 C 85.600 242.455,86.320 243.445,87.200 244.352 C 88.080 245.259,88.800 246.181,88.800 246.400 C 88.800 246.619,89.520 247.541,90.400 248.448 C 91.280 249.355,92.000 250.262,92.000 250.465 C 92.000 250.668,92.380 251.231,92.844 251.717 C 93.308 252.203,94.368 253.500,95.199 254.600 C 96.031 255.700,97.361 257.220,98.155 257.978 C 98.950 258.737,99.600 259.513,99.600 259.704 C 99.600 259.896,100.500 260.929,101.600 262.000 C 102.700 263.071,103.600 264.124,103.600 264.339 C 103.600 264.554,104.680 265.827,106.000 267.168 C 107.320 268.508,108.400 269.761,108.400 269.952 C 108.400 270.349,111.836 274.398,114.797 277.492 C 115.899 278.643,116.800 279.752,116.800 279.957 C 116.800 280.162,117.880 281.427,119.200 282.768 C 120.520 284.108,121.600 285.396,121.600 285.629 C 121.600 285.861,122.500 286.929,123.600 288.000 C 124.700 289.071,125.600 290.057,125.600 290.191 C 125.600 290.510,126.234 291.266,128.300 293.413 C 129.235 294.384,130.000 295.345,130.000 295.549 C 130.000 295.752,130.857 296.795,131.905 297.865 C 132.953 298.935,134.253 300.438,134.793 301.205 C 135.332 301.972,136.455 303.261,137.287 304.069 C 138.119 304.876,138.800 305.650,138.800 305.788 C 138.800 305.925,139.565 306.837,140.500 307.813 C 142.481 309.881,142.768 310.229,143.705 311.688 C 144.089 312.287,144.990 313.367,145.708 314.088 C 146.426 314.810,147.454 316.030,147.994 316.800 C 148.533 317.570,149.655 318.861,150.487 319.669 C 151.319 320.476,152.001 321.286,152.002 321.469 C 152.003 321.651,153.083 322.838,154.402 324.107 C 155.721 325.377,156.800 326.598,156.800 326.821 C 156.800 327.044,157.385 327.827,158.100 328.560 C 158.815 329.294,159.760 330.401,160.200 331.021 C 161.465 332.804,162.899 334.512,164.095 335.660 C 164.703 336.244,165.202 336.874,165.205 337.060 C 165.209 337.247,166.289 338.458,167.605 339.750 C 168.922 341.043,170.000 342.269,170.000 342.476 C 170.000 342.683,170.900 343.729,172.000 344.800 C 173.100 345.871,174.000 346.895,174.000 347.074 C 174.001 347.393,174.959 348.587,177.163 351.016 C 177.769 351.684,178.431 352.525,178.633 352.883 C 178.835 353.242,179.945 354.525,181.100 355.734 C 182.255 356.943,183.200 358.050,183.200 358.192 C 183.200 358.335,184.100 359.329,185.200 360.400 C 186.300 361.471,187.200 362.550,187.200 362.796 C 187.200 363.043,188.280 364.304,189.600 365.600 C 190.920 366.896,192.000 368.156,192.000 368.401 C 192.000 368.646,192.744 369.641,193.654 370.612 C 194.564 371.583,195.595 372.787,195.944 373.288 C 198.970 377.626,201.014 377.643,204.010 373.356 C 204.334 372.891,205.455 371.572,206.500 370.425 C 207.545 369.277,208.400 368.176,208.400 367.978 C 208.400 367.780,209.390 366.627,210.600 365.417 C 211.810 364.207,212.800 363.022,212.800 362.783 C 212.800 362.544,213.700 361.471,214.800 360.400 C 215.900 359.329,216.800 358.335,216.800 358.192 C 216.800 358.050,217.745 356.943,218.900 355.734 C 220.055 354.525,221.165 353.242,221.367 352.883 C 221.569 352.525,222.231 351.684,222.837 351.016 C 225.041 348.587,225.999 347.393,226.000 347.074 C 226.000 346.895,226.900 345.871,228.000 344.800 C 229.100 343.729,230.000 342.683,230.000 342.476 C 230.000 342.269,231.078 341.043,232.395 339.750 C 233.711 338.458,234.791 337.259,234.795 337.087 C 234.798 336.914,235.411 336.163,236.157 335.416 C 236.903 334.670,238.028 333.374,238.657 332.537 C 240.156 330.542,241.198 329.290,242.300 328.159 C 242.795 327.652,243.200 327.052,243.200 326.826 C 243.200 326.600,244.279 325.377,245.598 324.107 C 246.917 322.838,247.997 321.651,247.998 321.469 C 247.999 321.286,248.681 320.476,249.513 319.669 C 250.345 318.861,251.464 317.578,251.999 316.817 C 252.535 316.056,253.744 314.629,254.687 313.645 C 255.629 312.662,256.400 311.728,256.400 311.571 C 256.400 311.413,256.895 310.741,257.500 310.076 C 260.388 306.905,261.200 305.956,261.200 305.755 C 261.200 305.635,261.881 304.876,262.713 304.069 C 263.545 303.261,264.668 301.972,265.207 301.205 C 265.747 300.438,267.047 298.935,268.095 297.865 C 269.143 296.795,270.000 295.743,270.000 295.528 C 270.000 295.313,270.681 294.476,271.514 293.669 C 272.347 292.861,273.562 291.480,274.214 290.600 C 274.866 289.720,276.075 288.339,276.900 287.531 C 277.725 286.724,278.400 285.870,278.400 285.634 C 278.400 285.398,279.480 284.108,280.800 282.768 C 282.120 281.427,283.200 280.162,283.200 279.957 C 283.200 279.752,284.101 278.643,285.203 277.492 C 288.164 274.398,291.600 270.349,291.600 269.952 C 291.600 269.761,292.680 268.508,294.000 267.168 C 295.320 265.827,296.400 264.554,296.400 264.339 C 296.400 264.124,297.300 263.071,298.400 262.000 C 299.500 260.929,300.400 259.896,300.400 259.704 C 300.400 259.513,301.050 258.737,301.845 257.978 C 302.639 257.220,303.975 255.700,304.813 254.600 C 305.651 253.500,306.801 252.077,307.368 251.438 C 307.936 250.799,308.400 250.130,308.400 249.951 C 308.400 249.773,309.030 248.997,309.800 248.227 C 310.570 247.457,311.200 246.641,311.200 246.414 C 311.200 246.187,311.920 245.259,312.800 244.352 C 313.680 243.445,314.400 242.455,314.400 242.152 C 314.400 241.848,314.580 241.600,314.800 241.600 C 315.020 241.600,315.200 241.330,315.200 241.000 C 315.200 240.670,315.350 240.400,315.532 240.400 C 315.715 240.400,316.120 239.905,316.432 239.300 C 316.745 238.695,317.315 237.851,317.700 237.425 C 318.085 236.998,318.400 236.496,318.400 236.308 C 318.400 236.120,318.760 235.580,319.200 235.108 C 319.640 234.636,320.000 234.013,320.000 233.725 C 320.000 233.436,320.180 233.200,320.400 233.200 C 320.620 233.200,320.800 232.840,320.800 232.400 C 320.800 231.960,320.935 231.597,321.100 231.594 C 321.265 231.591,322.300 229.746,323.400 227.494 C 324.500 225.242,325.535 223.340,325.700 223.267 C 325.865 223.193,326.000 222.799,326.000 222.390 C 326.000 221.982,326.180 221.536,326.400 221.400 C 326.620 221.264,326.800 220.803,326.800 220.376 C 326.800 219.949,326.980 219.600,327.200 219.600 C 327.420 219.600,327.600 219.150,327.600 218.600 C 327.600 218.050,327.780 217.600,328.000 217.600 C 328.220 217.600,328.400 217.240,328.400 216.800 C 328.400 216.360,328.580 216.000,328.800 216.000 C 329.020 216.000,329.200 215.460,329.200 214.800 C 329.200 214.140,329.380 213.600,329.600 213.600 C 329.820 213.600,330.000 213.240,330.000 212.800 C 330.000 212.360,330.180 212.000,330.400 212.000 C 330.620 212.000,330.800 211.460,330.800 210.800 C 330.800 210.140,330.980 209.600,331.200 209.600 C 331.420 209.600,331.600 209.060,331.600 208.400 C 331.600 207.740,331.780 207.200,332.000 207.200 C 332.220 207.200,332.400 206.761,332.400 206.224 C 332.400 205.687,332.580 205.136,332.800 205.000 C 333.020 204.864,333.200 204.401,333.200 203.971 C 333.200 203.541,333.358 202.877,333.551 202.495 C 334.222 201.165,334.800 198.935,334.800 197.672 C 334.800 196.972,334.980 196.400,335.200 196.400 C 335.420 196.400,335.600 195.691,335.600 194.824 C 335.600 193.957,335.780 193.136,336.000 193.000 C 336.220 192.864,336.400 192.054,336.400 191.200 C 336.400 190.346,336.580 189.536,336.800 189.400 C 337.020 189.264,337.200 188.274,337.200 187.200 C 337.200 186.126,337.380 185.136,337.600 185.000 C 337.820 184.864,338.000 183.629,338.000 182.256 C 338.000 180.883,338.165 179.589,338.366 179.380 C 339.524 178.179,339.530 146.600,338.373 145.420 C 338.168 145.211,338.000 143.942,338.000 142.600 C 338.000 141.258,337.837 139.989,337.637 139.780 C 337.437 139.571,337.174 138.500,337.052 137.400 C 336.637 133.646,336.316 131.995,335.958 131.774 C 335.761 131.652,335.600 130.854,335.600 130.000 C 335.600 129.146,335.420 128.336,335.200 128.200 C 334.980 128.064,334.800 127.344,334.800 126.600 C 334.800 125.856,334.620 125.136,334.400 125.000 C 334.180 124.864,334.000 124.234,334.000 123.600 C 334.000 122.966,333.820 122.336,333.600 122.200 C 333.380 122.064,333.200 121.333,333.200 120.576 C 333.200 119.819,333.020 119.200,332.800 119.200 C 332.580 119.200,332.400 118.660,332.400 118.000 C 332.400 117.340,332.220 116.800,332.000 116.800 C 331.780 116.800,331.600 116.260,331.600 115.600 C 331.600 114.940,331.420 114.400,331.200 114.400 C 330.980 114.400,330.800 114.128,330.800 113.795 C 330.800 113.462,330.632 112.877,330.426 112.495 C 330.221 112.113,329.817 111.215,329.529 110.500 C 329.240 109.785,328.869 109.200,328.702 109.200 C 328.536 109.200,328.400 108.660,328.400 108.000 C 328.400 107.340,328.220 106.800,328.000 106.800 C 327.780 106.800,327.600 106.440,327.600 106.000 C 327.600 105.560,327.420 105.200,327.200 105.200 C 326.980 105.200,326.800 104.840,326.800 104.400 C 326.800 103.960,326.620 103.600,326.400 103.600 C 326.180 103.600,326.000 103.240,326.000 102.800 C 326.000 102.360,325.820 102.000,325.600 102.000 C 325.380 102.000,325.200 101.737,325.200 101.415 C 325.200 100.549,321.695 93.453,320.785 92.476 C 320.353 92.012,320.000 91.356,320.000 91.017 C 320.000 90.678,319.820 90.400,319.600 90.400 C 319.380 90.400,319.200 90.164,319.200 89.875 C 319.200 89.587,318.840 88.964,318.400 88.492 C 317.960 88.020,317.600 87.356,317.600 87.017 C 317.600 86.678,317.450 86.400,317.268 86.400 C 317.085 86.400,316.681 85.905,316.370 85.300 C 316.060 84.695,315.489 83.909,315.103 83.553 C 314.716 83.197,314.400 82.652,314.400 82.341 C 314.400 82.031,314.040 81.517,313.600 81.200 C 313.160 80.883,312.800 80.420,312.800 80.171 C 312.800 79.922,312.260 79.154,311.600 78.463 C 310.940 77.772,310.400 77.107,310.400 76.985 C 310.400 76.863,309.946 76.310,309.392 75.756 C 308.838 75.202,308.074 74.265,307.694 73.674 C 306.348 71.581,296.661 61.652,292.206 57.800 C 291.189 56.920,289.527 55.435,288.514 54.500 C 287.501 53.565,286.504 52.800,286.297 52.800 C 286.090 52.800,285.417 52.260,284.800 51.600 C 284.183 50.940,283.463 50.400,283.200 50.400 C 282.937 50.400,282.217 49.860,281.600 49.200 C 280.983 48.540,280.273 48.000,280.021 48.000 C 279.770 48.000,279.114 47.550,278.564 47.000 C 278.014 46.450,277.405 46.000,277.210 46.000 C 277.016 46.000,276.619 45.775,276.329 45.499 C 275.503 44.717,270.930 42.000,270.440 42.000 C 270.198 42.000,270.000 41.820,270.000 41.600 C 270.000 41.380,269.640 41.200,269.200 41.200 C 268.760 41.200,268.400 41.020,268.400 40.800 C 268.400 40.580,268.040 40.400,267.600 40.400 C 267.160 40.400,266.800 40.220,266.800 40.000 C 266.800 39.780,266.440 39.600,266.000 39.600 C 265.560 39.600,265.200 39.420,265.200 39.200 C 265.200 38.980,264.840 38.800,264.400 38.800 C 263.960 38.800,263.600 38.620,263.600 38.400 C 263.600 38.180,263.240 38.000,262.800 38.000 C 262.360 38.000,262.000 37.820,262.000 37.600 C 262.000 37.380,261.640 37.200,261.200 37.200 C 260.760 37.200,260.400 37.020,260.400 36.800 C 260.400 36.580,260.040 36.400,259.600 36.400 C 259.160 36.400,258.800 36.220,258.800 36.000 C 258.800 35.780,258.440 35.600,258.000 35.600 C 257.560 35.600,257.200 35.420,257.200 35.200 C 257.200 34.980,256.840 34.800,256.400 34.800 C 255.960 34.800,255.600 34.620,255.600 34.400 C 255.600 34.180,255.150 34.000,254.600 34.000 C 254.050 34.000,253.600 33.820,253.600 33.600 C 253.600 33.380,253.251 33.200,252.824 33.200 C 252.397 33.200,251.936 33.020,251.800 32.800 C 251.664 32.580,251.113 32.400,250.576 32.400 C 250.039 32.400,249.600 32.220,249.600 32.000 C 249.600 31.780,249.251 31.600,248.824 31.600 C 248.397 31.600,247.936 31.420,247.800 31.200 C 247.664 30.980,247.201 30.800,246.771 30.800 C 246.341 30.800,245.677 30.638,245.295 30.441 C 244.913 30.244,243.250 29.682,241.600 29.193 C 239.950 28.705,238.240 28.167,237.800 27.998 C 236.664 27.563,234.191 26.938,231.400 26.381 C 230.080 26.118,228.370 25.744,227.600 25.551 C 226.830 25.358,224.439 25.082,222.286 24.939 C 220.133 24.795,218.277 24.525,218.162 24.339 C 218.047 24.153,216.073 24.000,213.776 24.000 C 211.259 24.000,209.600 23.841,209.600 23.600 C 209.600 23.344,206.133 23.200,200.000 23.200 C 193.867 23.200,190.400 23.344,190.400 23.600 M205.400 102.400 C 205.536 102.620,206.796 102.800,208.200 102.800 C 209.604 102.800,210.864 102.980,211.000 103.200 C 211.136 103.420,211.766 103.600,212.400 103.600 C 213.034 103.600,213.664 103.780,213.800 104.000 C 213.936 104.220,214.543 104.400,215.148 104.400 C 215.754 104.400,216.995 104.760,217.906 105.200 C 218.816 105.640,219.718 106.000,219.910 106.000 C 220.101 106.000,221.415 106.547,222.829 107.215 C 224.243 107.883,226.073 108.738,226.895 109.115 C 227.718 109.492,228.393 109.935,228.395 110.100 C 228.398 110.265,228.670 110.400,229.000 110.400 C 229.330 110.400,229.600 110.580,229.600 110.800 C 229.600 111.020,229.830 111.200,230.112 111.200 C 230.393 111.200,230.883 111.560,231.200 112.000 C 231.517 112.440,232.007 112.800,232.288 112.800 C 232.569 112.800,233.541 113.520,234.448 114.400 C 235.355 115.280,236.258 116.000,236.456 116.000 C 237.118 116.000,241.801 120.978,243.797 123.804 C 244.884 125.342,245.869 126.690,245.987 126.800 C 246.105 126.910,246.456 127.495,246.768 128.100 C 247.080 128.705,247.485 129.200,247.668 129.200 C 247.850 129.200,248.000 129.560,248.000 130.000 C 248.000 130.440,248.135 130.801,248.300 130.803 C 248.659 130.807,249.600 132.744,249.600 133.480 C 249.600 133.766,249.780 134.000,250.000 134.000 C 250.220 134.000,250.400 134.360,250.400 134.800 C 250.400 135.240,250.580 135.600,250.800 135.600 C 251.020 135.600,251.200 135.872,251.200 136.205 C 251.200 136.793,251.367 137.218,252.338 139.095 C 252.592 139.587,252.800 140.352,252.800 140.795 C 252.800 141.238,252.980 141.600,253.200 141.600 C 253.420 141.600,253.600 142.320,253.600 143.200 C 253.600 144.080,253.780 144.800,254.000 144.800 C 254.220 144.800,254.400 145.520,254.400 146.400 C 254.400 147.280,254.580 148.000,254.800 148.000 C 255.035 148.000,255.200 149.400,255.200 151.400 C 255.200 153.400,255.365 154.800,255.600 154.800 C 255.825 154.800,256.000 155.925,256.000 157.376 C 256.000 158.793,255.820 160.064,255.600 160.200 C 255.380 160.336,255.200 161.866,255.200 163.600 C 255.200 165.334,255.020 166.864,254.800 167.000 C 254.580 167.136,254.400 168.047,254.400 169.024 C 254.400 170.001,254.220 170.800,254.000 170.800 C 253.780 170.800,253.600 171.520,253.600 172.400 C 253.600 173.280,253.420 174.000,253.200 174.000 C 252.980 174.000,252.800 174.272,252.800 174.605 C 252.800 174.938,252.620 175.568,252.400 176.005 C 252.180 176.442,251.820 177.158,251.600 177.595 C 251.380 178.032,251.200 178.662,251.200 178.995 C 251.200 179.328,251.020 179.600,250.800 179.600 C 250.580 179.600,250.400 180.050,250.400 180.600 C 250.400 181.150,250.220 181.600,250.000 181.600 C 249.780 181.600,249.600 181.960,249.600 182.400 C 249.600 182.840,249.420 183.200,249.200 183.200 C 248.980 183.200,248.800 183.520,248.800 183.912 C 248.800 184.303,248.440 184.883,248.000 185.200 C 247.560 185.517,247.200 186.097,247.200 186.488 C 247.200 186.880,247.042 187.200,246.849 187.200 C 246.655 187.200,246.273 187.740,246.000 188.400 C 245.727 189.060,245.375 189.600,245.219 189.600 C 245.063 189.600,244.680 190.095,244.368 190.700 C 244.055 191.305,243.620 192.000,243.400 192.244 C 240.883 195.037,240.400 195.611,240.400 195.808 C 240.400 196.171,238.473 198.000,238.089 198.000 C 237.898 198.000,236.778 198.900,235.600 200.000 C 234.422 201.100,233.260 202.000,233.018 202.000 C 232.775 202.000,232.317 202.360,232.000 202.800 C 231.683 203.240,231.169 203.600,230.859 203.600 C 230.548 203.600,230.003 203.929,229.647 204.330 C 229.291 204.732,228.415 205.316,227.700 205.628 C 226.985 205.940,226.400 206.331,226.400 206.498 C 226.400 206.664,226.040 206.800,225.600 206.800 C 225.160 206.800,224.800 206.980,224.800 207.200 C 224.800 207.420,224.440 207.600,224.000 207.600 C 223.560 207.600,223.200 207.759,223.200 207.953 C 223.200 208.148,222.795 208.403,222.300 208.520 C 221.805 208.637,219.870 209.286,218.000 209.961 C 216.130 210.637,214.231 211.192,213.780 211.195 C 213.329 211.198,212.789 211.362,212.580 211.559 C 210.868 213.176,189.132 213.176,187.420 211.559 C 187.211 211.362,186.671 211.198,186.220 211.195 C 185.769 211.192,183.870 210.637,182.000 209.961 C 180.130 209.286,178.195 208.637,177.700 208.520 C 177.205 208.403,176.800 208.148,176.800 207.953 C 176.800 207.759,176.440 207.600,176.000 207.600 C 175.560 207.600,175.200 207.420,175.200 207.200 C 175.200 206.980,174.840 206.800,174.400 206.800 C 173.960 206.800,173.600 206.664,173.600 206.498 C 173.600 206.331,173.015 205.940,172.300 205.628 C 171.585 205.316,170.709 204.732,170.353 204.330 C 169.997 203.929,169.452 203.600,169.141 203.600 C 168.831 203.600,168.317 203.240,168.000 202.800 C 167.683 202.360,167.225 202.000,166.982 202.000 C 166.740 202.000,165.578 201.100,164.400 200.000 C 163.222 198.900,162.102 198.000,161.911 198.000 C 161.517 198.000,159.600 196.167,159.600 195.790 C 159.600 195.654,159.375 195.311,159.100 195.028 C 157.521 193.400,156.130 191.664,155.632 190.700 C 155.320 190.095,154.937 189.600,154.781 189.600 C 154.625 189.600,154.273 189.060,154.000 188.400 C 153.727 187.740,153.345 187.200,153.151 187.200 C 152.958 187.200,152.800 186.880,152.800 186.488 C 152.800 186.097,152.440 185.517,152.000 185.200 C 151.560 184.883,151.200 184.303,151.200 183.912 C 151.200 183.520,151.020 183.200,150.800 183.200 C 150.580 183.200,150.400 182.840,150.400 182.400 C 150.400 181.960,150.220 181.600,150.000 181.600 C 149.780 181.600,149.600 181.150,149.600 180.600 C 149.600 180.050,149.420 179.600,149.200 179.600 C 148.980 179.600,148.800 179.328,148.800 178.995 C 148.800 178.662,148.620 178.032,148.400 177.595 C 148.180 177.158,147.820 176.442,147.600 176.005 C 147.380 175.568,147.200 174.938,147.200 174.605 C 147.200 174.272,147.020 174.000,146.800 174.000 C 146.580 174.000,146.400 173.280,146.400 172.400 C 146.400 171.520,146.220 170.800,146.000 170.800 C 145.780 170.800,145.600 170.001,145.600 169.024 C 145.600 168.047,145.420 167.136,145.200 167.000 C 144.980 166.864,144.800 165.334,144.800 163.600 C 144.800 161.866,144.620 160.336,144.400 160.200 C 144.180 160.064,144.000 158.793,144.000 157.376 C 144.000 155.925,144.175 154.800,144.400 154.800 C 144.635 154.800,144.800 153.400,144.800 151.400 C 144.800 149.400,144.965 148.000,145.200 148.000 C 145.420 148.000,145.600 147.280,145.600 146.400 C 145.600 145.520,145.780 144.800,146.000 144.800 C 146.220 144.800,146.400 144.080,146.400 143.200 C 146.400 142.320,146.580 141.600,146.800 141.600 C 147.020 141.600,147.200 141.238,147.200 140.795 C 147.200 140.352,147.380 139.632,147.600 139.195 C 147.820 138.758,148.180 138.042,148.400 137.605 C 148.620 137.168,148.800 136.538,148.800 136.205 C 148.800 135.872,148.980 135.600,149.200 135.600 C 149.420 135.600,149.600 135.240,149.600 134.800 C 149.600 134.360,149.780 134.000,150.000 134.000 C 150.220 134.000,150.400 133.766,150.400 133.480 C 150.400 132.744,151.341 130.807,151.700 130.803 C 151.865 130.801,152.000 130.440,152.000 130.000 C 152.000 129.560,152.150 129.200,152.332 129.200 C 152.515 129.200,152.920 128.705,153.232 128.100 C 153.544 127.495,153.895 126.910,154.013 126.800 C 154.131 126.690,155.054 125.429,156.065 123.997 C 158.033 121.209,162.890 116.000,163.521 116.000 C 163.731 116.000,164.645 115.280,165.552 114.400 C 166.459 113.520,167.431 112.800,167.712 112.800 C 167.993 112.800,168.483 112.440,168.800 112.000 C 169.117 111.560,169.607 111.200,169.888 111.200 C 170.170 111.200,170.400 111.020,170.400 110.800 C 170.400 110.580,170.670 110.400,171.000 110.400 C 171.330 110.400,171.602 110.265,171.605 110.100 C 171.607 109.935,172.282 109.492,173.105 109.115 C 173.927 108.738,175.757 107.883,177.171 107.215 C 178.585 106.547,179.899 106.000,180.090 106.000 C 180.282 106.000,181.184 105.640,182.094 105.200 C 183.005 104.760,184.246 104.400,184.852 104.400 C 185.457 104.400,186.064 104.220,186.200 104.000 C 186.336 103.780,186.966 103.600,187.600 103.600 C 188.234 103.600,188.864 103.420,189.000 103.200 C 189.136 102.980,190.396 102.800,191.800 102.800 C 193.204 102.800,194.464 102.620,194.600 102.400 C 194.744 102.167,196.996 102.000,200.000 102.000 C 203.004 102.000,205.256 102.167,205.400 102.400 " stroke="none" fill="#040404" fill-rule="evenodd"></path><path id="path1" d="" stroke="none" fill="#080404" fill-rule="evenodd"></path><path id="path2" d="" stroke="none" fill="#080404" fill-rule="evenodd"></path><path id="path3" d="" stroke="none" fill="#080404" fill-rule="evenodd"></path><path id="path4" d="" stroke="none" fill="#080404" fill-rule="evenodd"></path></g></svg>