<svg id="svg" version="1.1" xmlns="http://www.w3.org/2000/svg" xmlns:xlink="http://www.w3.org/1999/xlink" width="400" height="400" viewBox="0, 0, 400,400"><g id="svgg"><path id="path0" d="M211.307 19.099 C 211.159 19.483,210.670 20.190,210.219 20.668 C 209.769 21.147,208.860 22.215,208.200 23.042 C 207.540 23.869,205.875 25.675,204.500 27.055 C 200.754 30.815,200.534 30.310,210.203 40.089 C 214.711 44.647,218.400 48.534,218.400 48.725 C 218.400 49.364,221.912 52.800,222.566 52.800 C 223.459 52.800,224.781 52.003,226.050 50.700 C 226.639 50.095,227.333 49.600,227.592 49.600 C 227.851 49.600,228.754 48.880,229.600 48.000 C 230.446 47.120,231.349 46.400,231.608 46.400 C 232.261 46.400,235.600 42.803,235.600 42.099 C 235.600 41.783,235.240 41.431,234.800 41.316 C 234.360 41.201,234.000 40.848,234.000 40.531 C 234.000 40.215,232.920 38.896,231.600 37.600 C 230.280 36.304,229.200 35.056,229.200 34.827 C 229.200 34.597,225.870 31.063,221.800 26.973 C 217.730 22.884,214.400 19.282,214.400 18.969 C 214.400 18.093,211.648 18.209,211.307 19.099 M227.457 34.267 C 229.468 36.430,231.929 39.206,232.926 40.435 L 234.739 42.671 233.137 44.035 C 232.256 44.786,231.205 45.670,230.801 46.000 C 230.398 46.330,229.690 46.915,229.229 47.300 C 228.768 47.685,228.295 48.000,228.179 48.000 C 228.062 48.000,227.569 48.377,227.083 48.838 C 225.991 49.874,222.957 52.000,222.571 52.000 C 222.182 52.000,220.000 49.688,220.000 49.275 C 220.000 48.838,215.140 43.593,208.300 36.648 C 205.275 33.576,202.803 30.959,202.807 30.831 C 202.819 30.461,204.826 28.093,207.100 25.766 C 208.255 24.584,209.200 23.522,209.200 23.405 C 209.200 23.161,211.024 21.040,212.191 19.926 C 213.039 19.117,215.666 21.585,227.457 34.267 M240.800 57.600 C 240.250 58.030,239.519 58.386,239.176 58.391 C 238.834 58.396,238.204 58.664,237.776 58.987 C 237.349 59.310,236.685 59.580,236.300 59.587 C 235.915 59.594,235.600 59.780,235.600 60.000 C 235.600 60.220,235.240 60.400,234.800 60.400 C 234.360 60.400,234.000 60.580,234.000 60.800 C 234.000 61.020,233.752 61.200,233.449 61.200 C 233.146 61.200,232.658 61.489,232.365 61.842 C 232.073 62.195,231.420 62.640,230.916 62.832 C 229.787 63.261,229.714 64.000,230.800 64.000 C 231.240 64.000,231.600 63.820,231.600 63.600 C 231.600 63.380,231.870 63.200,232.200 63.200 C 232.530 63.200,232.800 63.020,232.800 62.800 C 232.800 62.580,233.070 62.400,233.400 62.400 C 233.730 62.400,234.000 62.220,234.000 62.000 C 234.000 61.780,234.360 61.600,234.800 61.600 C 235.240 61.600,235.600 61.420,235.600 61.200 C 235.600 60.980,235.960 60.800,236.400 60.800 C 236.840 60.800,237.200 60.654,237.200 60.475 C 237.200 60.296,237.830 59.902,238.600 59.600 C 239.370 59.298,240.000 58.904,240.000 58.725 C 240.000 58.546,240.360 58.400,240.800 58.400 C 241.240 58.400,241.600 58.220,241.600 58.000 C 241.600 57.780,241.960 57.600,242.400 57.600 C 242.840 57.600,243.200 57.420,243.200 57.200 C 243.200 56.542,241.869 56.763,240.800 57.600 M243.600 57.171 C 243.600 57.376,243.870 57.813,244.200 58.143 C 244.530 58.473,244.800 59.026,244.800 59.371 C 244.800 59.717,244.980 60.000,245.200 60.000 C 245.420 60.000,245.600 60.360,245.600 60.800 C 245.600 61.240,245.780 61.600,246.000 61.600 C 246.220 61.600,246.400 61.949,246.400 62.376 C 246.400 62.803,246.580 63.264,246.800 63.400 C 247.020 63.536,247.200 63.997,247.200 64.424 C 247.200 64.851,247.380 65.200,247.600 65.200 C 247.820 65.200,248.000 65.650,248.000 66.200 C 248.000 66.750,248.180 67.200,248.400 67.200 C 248.620 67.200,248.800 67.740,248.800 68.400 C 248.800 69.060,248.980 69.600,249.200 69.600 C 249.420 69.600,249.600 70.140,249.600 70.800 C 249.600 71.460,249.780 72.000,250.000 72.000 C 250.220 72.000,250.400 72.630,250.400 73.400 C 250.400 74.170,250.580 74.800,250.800 74.800 C 251.020 74.800,251.200 75.430,251.200 76.200 C 251.200 76.970,251.380 77.600,251.600 77.600 C 252.388 77.600,251.868 74.117,250.751 71.905 C 250.558 71.523,250.400 70.758,250.400 70.205 C 250.400 69.652,250.220 69.200,250.000 69.200 C 249.780 69.200,249.600 68.786,249.600 68.280 C 249.600 67.226,248.747 65.208,248.300 65.203 C 248.135 65.201,248.000 64.750,248.000 64.200 C 248.000 63.650,247.820 63.200,247.600 63.200 C 247.380 63.200,247.200 62.750,247.200 62.200 C 247.200 61.650,247.054 61.200,246.875 61.200 C 246.696 61.200,246.302 60.570,246.000 59.800 C 245.698 59.030,245.304 58.400,245.125 58.400 C 244.946 58.400,244.800 58.040,244.800 57.600 C 244.800 57.156,244.533 56.800,244.200 56.800 C 243.870 56.800,243.600 56.967,243.600 57.171 M230.256 65.478 C 229.898 65.835,229.935 67.599,230.300 67.603 C 230.701 67.607,231.600 69.581,231.600 70.456 C 231.600 70.839,231.780 71.264,232.000 71.400 C 232.220 71.536,232.400 71.997,232.400 72.424 C 232.400 72.851,232.580 73.200,232.800 73.200 C 233.020 73.200,233.200 73.650,233.200 74.200 C 233.200 74.750,233.380 75.200,233.600 75.200 C 234.098 75.200,234.122 73.825,233.641 72.895 C 233.047 71.748,231.200 66.615,231.200 66.114 C 231.200 65.536,230.601 65.132,230.256 65.478 M234.000 76.600 C 234.000 77.150,234.180 77.600,234.400 77.600 C 234.620 77.600,234.800 77.150,234.800 76.600 C 234.800 76.050,234.620 75.600,234.400 75.600 C 234.180 75.600,234.000 76.050,234.000 76.600 M234.800 79.400 C 234.800 80.170,234.980 80.800,235.200 80.800 C 235.420 80.800,235.600 80.170,235.600 79.400 C 235.600 78.630,235.420 78.000,235.200 78.000 C 234.980 78.000,234.800 78.630,234.800 79.400 M252.000 79.976 C 252.000 80.869,252.180 81.600,252.400 81.600 C 252.620 81.600,252.800 80.981,252.800 80.224 C 252.800 79.467,252.620 78.736,252.400 78.600 C 252.158 78.451,252.000 78.996,252.000 79.976 M235.600 82.576 C 235.600 83.333,235.780 84.064,236.000 84.200 C 236.242 84.349,236.400 83.804,236.400 82.824 C 236.400 81.931,236.220 81.200,236.000 81.200 C 235.780 81.200,235.600 81.819,235.600 82.576 M252.800 85.176 C 252.800 86.792,252.971 88.000,253.200 88.000 C 253.425 88.000,253.600 86.875,253.600 85.424 C 253.600 84.007,253.420 82.736,253.200 82.600 C 252.948 82.444,252.800 83.396,252.800 85.176 M236.400 86.800 C 236.400 87.680,236.580 88.400,236.800 88.400 C 237.020 88.400,237.200 87.680,237.200 86.800 C 237.200 85.920,237.020 85.200,236.800 85.200 C 236.580 85.200,236.400 85.920,236.400 86.800 M237.200 89.800 C 237.200 90.350,237.380 90.800,237.600 90.800 C 237.820 90.800,238.000 90.350,238.000 89.800 C 238.000 89.250,237.820 88.800,237.600 88.800 C 237.380 88.800,237.200 89.250,237.200 89.800 M252.734 89.587 C 252.655 89.818,250.016 89.997,246.300 90.022 C 241.132 90.057,240.000 90.168,240.000 90.636 C 240.000 91.078,240.473 91.169,242.100 91.044 C 243.255 90.955,246.315 90.863,248.900 90.841 C 252.707 90.808,253.600 90.690,253.600 90.224 C 253.600 89.530,252.924 89.033,252.734 89.587 M236.900 104.198 C 236.304 104.875,236.230 106.800,236.800 106.800 C 237.020 106.800,237.200 106.462,237.200 106.049 C 237.200 105.636,237.470 105.074,237.800 104.800 C 238.130 104.526,238.400 104.144,238.400 103.951 C 238.400 103.409,237.458 103.564,236.900 104.198 M238.800 103.996 C 238.800 104.459,241.859 104.554,242.136 104.100 C 242.236 103.935,241.527 103.753,240.559 103.696 C 239.574 103.638,238.800 103.770,238.800 103.996 M244.600 104.800 C 244.453 105.038,244.929 105.200,245.776 105.200 C 246.559 105.200,247.200 105.020,247.200 104.800 C 247.200 104.580,246.671 104.400,246.024 104.400 C 245.377 104.400,244.736 104.580,244.600 104.800 M252.221 106.100 C 252.795 107.976,253.121 108.255,253.406 107.117 C 253.717 105.881,253.412 105.200,252.549 105.200 C 252.109 105.200,252.020 105.443,252.221 106.100 M235.867 107.467 C 235.445 107.888,235.556 110.000,236.000 110.000 C 236.220 110.000,236.400 109.370,236.400 108.600 C 236.400 107.161,236.327 107.006,235.867 107.467 M252.000 110.176 C 252.000 111.179,252.180 112.000,252.400 112.000 C 252.620 112.000,252.800 111.291,252.800 110.424 C 252.800 109.557,252.620 108.736,252.400 108.600 C 252.156 108.449,252.000 109.063,252.000 110.176 M234.800 111.800 C 234.800 112.570,234.620 113.200,234.400 113.200 C 234.180 113.200,234.000 113.830,234.000 114.600 C 234.000 115.370,233.820 116.000,233.600 116.000 C 233.380 116.000,233.200 116.540,233.200 117.200 C 233.200 117.860,233.020 118.400,232.800 118.400 C 232.580 118.400,232.400 118.940,232.400 119.600 C 232.400 120.260,232.253 120.800,232.072 120.800 C 231.892 120.800,231.496 121.711,231.193 122.825 C 230.890 123.939,230.497 124.940,230.321 125.049 C 230.144 125.158,230.000 125.687,230.000 126.224 C 230.000 126.761,229.820 127.200,229.600 127.200 C 229.380 127.200,229.200 127.562,229.200 128.005 C 229.200 128.448,228.994 129.141,228.741 129.545 C 227.984 130.758,228.616 132.179,230.188 132.795 C 230.964 133.100,231.600 133.496,231.600 133.675 C 231.600 133.854,231.872 134.000,232.205 134.000 C 232.793 134.000,233.218 134.167,235.095 135.138 C 236.194 135.706,236.800 135.728,236.800 135.200 C 236.800 134.980,236.440 134.800,236.000 134.800 C 235.560 134.800,235.200 134.620,235.200 134.400 C 235.200 134.180,234.840 134.000,234.400 134.000 C 233.960 134.000,233.600 133.820,233.600 133.600 C 233.600 133.380,233.240 133.200,232.800 133.200 C 232.360 133.200,232.000 133.020,232.000 132.800 C 232.000 132.580,231.758 132.400,231.462 132.400 C 230.738 132.400,229.600 131.097,229.600 130.269 C 229.600 129.901,229.801 129.600,230.047 129.600 C 230.309 129.600,230.413 129.182,230.300 128.590 C 230.177 127.943,230.325 127.458,230.713 127.241 C 231.083 127.033,231.236 126.580,231.104 126.076 C 230.982 125.608,231.104 125.169,231.387 125.060 C 231.917 124.857,232.556 122.670,232.427 121.500 C 232.384 121.115,232.541 120.800,232.775 120.800 C 233.009 120.800,233.200 120.260,233.200 119.600 C 233.200 118.940,233.380 118.400,233.600 118.400 C 233.820 118.400,234.000 117.860,234.000 117.200 C 234.000 116.540,234.180 116.000,234.400 116.000 C 234.620 116.000,234.800 115.370,234.800 114.600 C 234.800 113.830,234.980 113.200,235.200 113.200 C 235.420 113.200,235.600 112.570,235.600 111.800 C 235.600 111.030,235.420 110.400,235.200 110.400 C 234.980 110.400,234.800 111.030,234.800 111.800 M251.200 114.200 C 251.200 115.190,251.020 116.000,250.800 116.000 C 250.580 116.000,250.400 116.630,250.400 117.400 C 250.400 118.170,250.220 118.800,250.000 118.800 C 249.780 118.800,249.600 119.430,249.600 120.200 C 249.600 120.970,249.420 121.600,249.200 121.600 C 248.980 121.600,248.800 122.140,248.800 122.800 C 248.800 123.460,248.620 124.000,248.400 124.000 C 248.180 124.000,248.000 124.450,248.000 125.000 C 248.000 125.550,248.180 126.000,248.400 126.000 C 248.620 126.000,248.800 125.638,248.800 125.195 C 248.800 124.752,248.980 124.032,249.200 123.595 C 249.420 123.158,249.780 122.442,250.000 122.005 C 250.220 121.568,250.400 120.769,250.400 120.229 C 250.400 119.689,250.580 119.136,250.800 119.000 C 251.020 118.864,251.200 118.133,251.200 117.376 C 251.200 116.619,251.380 116.000,251.600 116.000 C 251.820 116.000,252.000 115.190,252.000 114.200 C 252.000 113.210,251.820 112.400,251.600 112.400 C 251.380 112.400,251.200 113.210,251.200 114.200 M247.200 127.400 C 247.200 127.950,247.020 128.400,246.800 128.400 C 246.580 128.400,246.400 128.850,246.400 129.400 C 246.400 129.950,246.220 130.400,246.000 130.400 C 245.780 130.400,245.600 130.850,245.600 131.400 C 245.600 131.950,245.420 132.400,245.200 132.400 C 244.980 132.400,244.800 132.850,244.800 133.400 C 244.800 133.950,244.620 134.400,244.400 134.400 C 244.180 134.400,244.000 134.758,244.000 135.195 C 244.000 136.415,242.771 137.674,242.114 137.129 C 241.821 136.885,241.465 136.802,241.323 136.944 C 241.181 137.086,240.769 136.933,240.406 136.606 C 239.542 135.824,237.200 135.345,237.200 135.950 C 237.200 136.197,237.560 136.400,238.000 136.400 C 238.440 136.400,238.800 136.580,238.800 136.800 C 238.800 137.020,239.160 137.200,239.600 137.200 C 240.040 137.200,240.400 137.380,240.400 137.600 C 240.400 137.820,240.760 138.000,241.200 138.000 C 241.640 138.000,242.000 138.193,242.000 138.428 C 242.000 139.447,243.802 138.579,243.927 137.500 C 243.996 136.895,244.221 136.400,244.427 136.400 C 244.632 136.400,244.800 136.040,244.800 135.600 C 244.800 135.160,244.980 134.800,245.200 134.800 C 245.420 134.800,245.600 134.260,245.600 133.600 C 245.600 132.940,245.780 132.400,246.000 132.400 C 246.220 132.400,246.400 132.040,246.400 131.600 C 246.400 131.160,246.580 130.800,246.800 130.800 C 247.020 130.800,247.200 130.260,247.200 129.600 C 247.200 128.940,247.380 128.400,247.600 128.400 C 247.820 128.400,248.000 127.950,248.000 127.400 C 248.000 126.850,247.820 126.400,247.600 126.400 C 247.380 126.400,247.200 126.850,247.200 127.400 M221.280 143.680 C 221.016 143.944,220.800 144.394,220.800 144.680 C 220.800 144.966,220.620 145.200,220.400 145.200 C 220.180 145.200,220.000 145.470,220.000 145.800 C 220.000 146.130,219.820 146.400,219.600 146.400 C 219.380 146.400,219.200 146.720,219.200 147.112 C 219.200 147.503,218.840 148.083,218.400 148.400 C 217.960 148.717,217.600 149.257,217.600 149.600 C 217.600 149.943,217.240 150.483,216.800 150.800 C 216.360 151.117,216.000 151.657,216.000 152.000 C 216.000 152.343,215.640 152.883,215.200 153.200 C 214.760 153.517,214.400 154.057,214.400 154.400 C 214.400 154.743,214.040 155.283,213.600 155.600 C 213.160 155.917,212.800 156.497,212.800 156.888 C 212.800 157.280,212.620 157.600,212.400 157.600 C 212.180 157.600,212.000 157.842,212.000 158.138 C 212.000 158.434,211.684 158.962,211.299 159.311 C 210.913 159.660,210.073 160.947,209.432 162.173 C 208.791 163.398,208.117 164.400,207.933 164.400 C 207.750 164.400,207.600 164.760,207.600 165.200 C 207.600 165.640,207.420 166.000,207.200 166.000 C 206.980 166.000,206.800 166.360,206.800 166.800 C 206.800 167.240,206.620 167.600,206.400 167.600 C 206.180 167.600,206.000 167.870,206.000 168.200 C 206.000 168.530,206.103 168.800,206.229 168.800 C 206.698 168.800,207.600 167.635,207.600 167.029 C 207.600 166.683,207.780 166.400,208.000 166.400 C 208.220 166.400,208.400 166.130,208.400 165.800 C 208.400 165.470,208.580 165.200,208.800 165.200 C 209.020 165.200,209.200 164.930,209.200 164.600 C 209.200 164.270,209.380 164.000,209.600 164.000 C 209.820 164.000,210.000 163.730,210.000 163.400 C 210.000 163.070,210.180 162.800,210.400 162.800 C 210.620 162.800,210.800 162.530,210.800 162.200 C 210.800 161.870,210.980 161.600,211.200 161.600 C 211.420 161.600,211.600 161.364,211.600 161.075 C 211.600 160.787,211.960 160.164,212.400 159.692 C 212.840 159.220,213.200 158.742,213.200 158.631 C 213.200 158.519,214.398 156.576,215.862 154.314 C 217.326 152.051,219.032 149.390,219.652 148.400 C 220.272 147.410,220.964 146.383,221.189 146.117 C 221.415 145.851,221.600 145.457,221.600 145.240 C 221.600 144.230,225.417 145.339,225.933 146.500 C 226.007 146.665,226.235 146.800,226.441 146.800 C 226.646 146.800,228.000 147.520,229.448 148.400 C 230.897 149.280,232.210 150.000,232.366 150.000 C 232.522 150.000,233.166 150.538,233.796 151.195 L 234.941 152.391 233.970 154.495 C 233.437 155.653,232.685 156.949,232.300 157.375 C 231.915 157.801,231.376 158.656,231.103 159.275 C 230.829 159.894,230.469 160.400,230.302 160.400 C 230.136 160.400,230.000 160.586,230.000 160.813 C 230.000 161.041,228.740 163.105,227.200 165.400 C 225.660 167.695,224.400 169.693,224.400 169.840 C 224.400 169.986,224.084 170.397,223.697 170.753 C 223.311 171.109,222.740 171.895,222.430 172.500 C 222.119 173.105,221.715 173.600,221.532 173.600 C 221.350 173.600,221.200 173.791,221.200 174.023 C 221.200 174.967,218.648 177.600,217.733 177.600 C 217.220 177.600,216.800 177.420,216.800 177.200 C 216.800 176.980,216.530 176.800,216.200 176.800 C 215.870 176.800,215.600 176.662,215.600 176.494 C 215.600 176.326,214.880 175.744,214.000 175.200 C 213.120 174.656,212.400 174.074,212.400 173.906 C 212.400 173.738,212.222 173.600,212.005 173.600 C 211.654 173.600,211.035 173.165,209.445 171.800 C 208.596 171.072,206.436 169.600,206.216 169.600 C 205.628 169.600,206.147 170.702,207.112 171.503 C 209.378 173.384,211.322 174.800,211.637 174.800 C 211.817 174.800,212.414 175.250,212.964 175.800 C 213.514 176.350,214.202 176.800,214.494 176.800 C 214.785 176.800,215.283 177.160,215.600 177.600 C 216.301 178.573,220.000 178.791,220.000 177.859 C 220.000 177.562,220.540 176.754,221.200 176.063 C 221.860 175.372,222.400 174.714,222.400 174.600 C 222.400 174.246,225.307 170.208,225.664 170.067 C 225.849 169.993,226.000 169.671,226.000 169.350 C 226.000 169.029,226.360 168.380,226.800 167.908 C 227.240 167.436,227.600 166.813,227.600 166.525 C 227.600 166.236,227.780 166.000,228.000 166.000 C 228.220 166.000,228.400 165.680,228.400 165.288 C 228.400 164.897,228.760 164.317,229.200 164.000 C 229.640 163.683,230.000 163.143,230.000 162.800 C 230.000 162.457,230.360 161.917,230.800 161.600 C 231.240 161.283,231.600 160.786,231.600 160.495 C 231.600 160.204,231.960 159.580,232.400 159.108 C 232.840 158.636,233.200 158.013,233.200 157.725 C 233.200 157.436,233.380 157.200,233.600 157.200 C 233.820 157.200,234.000 156.930,234.000 156.600 C 234.000 156.270,234.180 156.000,234.400 156.000 C 234.620 156.000,234.800 155.651,234.800 155.224 C 234.800 154.797,234.980 154.336,235.200 154.200 C 236.586 153.344,234.073 148.800,232.213 148.800 C 231.876 148.800,231.600 148.620,231.600 148.400 C 231.600 148.180,231.364 148.000,231.075 148.000 C 230.787 148.000,230.164 147.640,229.692 147.200 C 229.220 146.760,228.556 146.400,228.217 146.400 C 227.878 146.400,227.600 146.220,227.600 146.000 C 227.600 145.780,227.336 145.600,227.014 145.600 C 226.692 145.600,225.576 145.060,224.536 144.400 C 222.445 143.074,221.987 142.973,221.280 143.680 M195.462 181.531 C 195.098 181.934,194.800 182.442,194.800 182.662 C 194.800 182.881,194.364 183.470,193.832 183.970 C 193.300 184.470,192.648 185.401,192.384 186.040 C 192.119 186.678,191.745 187.200,191.551 187.200 C 191.358 187.200,191.200 187.443,191.200 187.741 C 191.200 188.038,190.660 188.846,190.000 189.537 C 189.340 190.228,188.800 191.052,188.800 191.369 C 188.800 191.687,188.469 192.051,188.064 192.180 C 187.659 192.308,187.075 192.905,186.767 193.507 C 186.458 194.108,185.889 194.891,185.503 195.247 C 185.116 195.603,184.800 196.053,184.799 196.247 C 184.799 196.441,184.259 197.230,183.600 198.000 C 182.941 198.770,182.401 199.585,182.401 199.812 C 182.400 200.038,182.040 200.483,181.600 200.800 C 181.160 201.117,180.800 201.631,180.800 201.941 C 180.800 202.252,180.468 202.797,180.063 203.153 C 177.836 205.107,178.909 209.600,181.603 209.600 C 181.821 209.600,182.000 209.780,182.000 210.000 C 182.000 210.220,182.198 210.400,182.440 210.400 C 182.681 210.400,183.383 210.940,184.000 211.600 C 184.617 212.260,185.343 212.800,185.614 212.800 C 185.884 212.800,186.397 213.116,186.753 213.503 C 187.109 213.889,187.895 214.460,188.500 214.770 C 189.105 215.081,189.600 215.485,189.600 215.668 C 189.600 215.850,190.153 216.000,190.829 216.000 C 192.118 216.000,193.200 215.232,193.200 214.317 C 193.200 214.020,193.560 213.517,194.000 213.200 C 194.440 212.883,194.800 212.438,194.800 212.212 C 194.801 211.985,195.206 211.320,195.700 210.734 C 197.445 208.665,197.821 208.186,198.787 206.800 C 199.323 206.030,200.086 205.109,200.481 204.753 C 200.876 204.397,201.200 203.940,201.200 203.738 C 201.200 203.535,201.733 202.747,202.384 201.985 C 203.035 201.223,203.575 200.415,203.584 200.188 C 203.593 199.962,203.960 199.517,204.400 199.200 C 204.840 198.883,205.200 198.385,205.200 198.094 C 205.200 197.802,205.636 197.128,206.169 196.595 C 206.702 196.062,207.254 195.260,207.396 194.813 C 207.538 194.366,207.787 194.000,207.950 194.000 C 208.113 194.000,208.565 193.277,208.955 192.392 L 209.665 190.785 208.272 189.392 C 207.507 188.627,206.758 188.000,206.609 188.000 C 206.459 188.000,205.646 187.280,204.800 186.400 C 203.954 185.520,203.051 184.800,202.792 184.800 C 202.533 184.800,201.844 184.305,201.260 183.700 C 200.677 183.095,199.705 182.345,199.100 182.032 C 198.495 181.720,198.000 181.315,198.000 181.132 C 198.000 180.505,196.124 180.800,195.462 181.531 M198.652 182.923 C 202.883 185.886,203.908 186.672,204.860 187.679 C 205.444 188.295,206.039 188.800,206.182 188.800 C 206.799 188.800,208.972 191.233,208.599 191.506 C 208.379 191.668,207.944 192.295,207.632 192.900 C 207.320 193.505,206.915 194.000,206.732 194.000 C 206.550 194.000,206.400 194.225,206.400 194.500 C 206.399 194.775,205.934 195.540,205.365 196.200 C 204.796 196.860,204.037 197.895,203.679 198.500 C 203.321 199.105,202.886 199.600,202.714 199.600 C 202.541 199.600,202.400 199.780,202.400 199.999 C 202.400 200.458,199.564 204.533,199.105 204.733 C 198.937 204.807,198.800 205.045,198.800 205.262 C 198.800 205.479,198.575 205.894,198.300 206.184 C 197.160 207.385,196.400 208.433,196.400 208.805 C 196.400 209.022,196.220 209.200,196.000 209.200 C 195.780 209.200,195.600 209.430,195.600 209.712 C 195.600 209.993,195.240 210.483,194.800 210.800 C 194.360 211.117,194.000 211.515,194.000 211.684 C 194.000 211.970,193.730 212.331,191.908 214.486 C 191.205 215.318,188.800 214.904,188.800 213.951 C 188.800 213.758,188.607 213.600,188.371 213.600 C 188.136 213.600,187.706 213.375,187.416 213.100 C 186.417 212.151,185.190 211.200,184.967 211.200 C 184.844 211.200,184.506 210.975,184.216 210.700 C 183.104 209.645,181.978 208.800,181.684 208.800 C 181.515 208.800,181.117 208.440,180.800 208.000 C 180.483 207.560,179.993 207.200,179.712 207.200 C 178.846 207.200,179.147 206.305,180.908 203.644 C 181.839 202.238,182.780 200.808,183.000 200.466 C 183.220 200.124,183.686 199.516,184.036 199.115 C 184.386 198.714,184.925 197.895,185.233 197.293 C 185.542 196.692,186.111 195.909,186.497 195.553 C 186.884 195.197,187.201 194.747,187.202 194.553 C 187.203 194.359,187.743 193.625,188.402 192.922 C 189.061 192.219,189.600 191.454,189.600 191.222 C 189.600 190.990,189.780 190.800,190.000 190.800 C 190.220 190.800,190.400 190.570,190.400 190.288 C 190.400 190.007,190.760 189.517,191.200 189.200 C 191.640 188.883,192.000 188.393,192.000 188.112 C 192.000 187.830,192.180 187.600,192.400 187.600 C 192.620 187.600,192.800 187.422,192.800 187.205 C 192.800 186.844,193.528 185.828,194.627 184.655 C 194.861 184.405,195.377 183.705,195.773 183.100 C 196.629 181.791,197.003 181.768,198.652 182.923 M168.400 219.112 C 168.400 219.503,168.040 220.083,167.600 220.400 C 167.160 220.717,166.800 221.297,166.800 221.688 C 166.800 222.080,166.620 222.400,166.400 222.400 C 166.180 222.400,166.000 222.694,166.000 223.053 C 166.000 223.412,165.671 223.997,165.270 224.353 C 164.868 224.709,164.284 225.585,163.972 226.300 C 163.660 227.015,163.297 227.600,163.165 227.600 C 163.034 227.600,162.495 228.455,161.968 229.500 C 161.442 230.545,160.905 231.490,160.776 231.600 C 160.647 231.710,159.848 233.195,159.000 234.900 C 158.152 236.605,157.310 238.000,157.129 238.000 C 156.948 238.000,156.800 238.360,156.800 238.800 C 156.800 239.240,156.620 239.600,156.400 239.600 C 156.180 239.600,156.000 239.878,156.000 240.217 C 156.000 240.556,155.640 241.220,155.200 241.692 C 154.760 242.164,154.400 242.787,154.400 243.075 C 154.400 243.364,154.220 243.600,154.000 243.600 C 153.780 243.600,153.600 244.328,153.600 245.218 C 153.600 246.935,154.944 248.800,156.182 248.800 C 156.522 248.800,156.800 248.980,156.800 249.200 C 156.800 249.420,157.145 249.600,157.567 249.600 C 157.988 249.600,158.393 249.736,158.467 249.902 C 158.540 250.068,159.860 250.807,161.400 251.544 C 162.940 252.281,164.513 253.045,164.895 253.242 C 166.266 253.949,168.855 253.676,169.084 252.800 C 169.199 252.360,169.452 252.000,169.647 252.000 C 169.841 252.000,170.000 251.640,170.000 251.200 C 170.000 250.760,170.180 250.400,170.400 250.400 C 170.620 250.400,170.800 250.040,170.800 249.600 C 170.800 249.160,170.980 248.800,171.200 248.800 C 171.420 248.800,171.600 248.440,171.600 248.000 C 171.600 247.560,171.780 247.200,172.000 247.200 C 172.220 247.200,172.400 246.840,172.400 246.400 C 172.400 245.960,172.542 245.600,172.716 245.600 C 173.061 245.600,175.200 241.570,175.200 240.922 C 175.200 240.703,175.560 240.198,176.000 239.800 C 176.440 239.402,176.800 238.834,176.800 238.538 C 176.800 238.242,176.980 238.000,177.200 238.000 C 177.420 238.000,177.600 237.680,177.600 237.288 C 177.600 236.897,177.960 236.317,178.400 236.000 C 178.840 235.683,179.200 235.103,179.200 234.712 C 179.200 234.320,179.380 234.000,179.600 234.000 C 179.820 234.000,180.000 233.680,180.000 233.288 C 180.000 232.897,180.360 232.317,180.800 232.000 C 181.240 231.683,181.600 231.103,181.600 230.712 C 181.600 230.320,181.780 230.000,182.000 230.000 C 182.220 230.000,182.400 229.730,182.400 229.400 C 182.400 228.396,181.699 228.729,181.136 230.000 C 180.844 230.660,180.469 231.200,180.302 231.200 C 180.136 231.200,180.000 231.470,180.000 231.800 C 180.000 232.130,179.854 232.400,179.675 232.400 C 179.496 232.400,179.102 233.030,178.800 233.800 C 178.498 234.570,178.104 235.200,177.925 235.200 C 177.746 235.200,177.600 235.470,177.600 235.800 C 177.600 236.130,177.420 236.400,177.200 236.400 C 176.980 236.400,176.800 236.670,176.800 237.000 C 176.800 237.330,176.620 237.600,176.400 237.600 C 176.180 237.600,176.000 237.960,176.000 238.400 C 176.000 238.840,175.850 239.200,175.668 239.200 C 175.485 239.200,175.080 239.695,174.768 240.300 C 174.456 240.905,174.111 241.490,174.001 241.600 C 173.890 241.710,173.426 242.520,172.970 243.400 C 171.880 245.501,171.049 246.952,170.795 247.200 C 170.682 247.310,170.151 248.300,169.615 249.400 C 167.988 252.742,167.108 253.364,165.295 252.450 C 162.320 250.952,161.047 250.400,160.562 250.400 C 160.253 250.400,160.000 250.220,160.000 250.000 C 160.000 249.780,159.640 249.600,159.200 249.600 C 158.760 249.600,158.400 249.420,158.400 249.200 C 158.400 248.980,158.216 248.800,157.991 248.800 C 156.641 248.800,154.400 246.646,154.400 245.347 C 154.400 244.606,154.580 244.000,154.800 244.000 C 155.020 244.000,155.200 243.730,155.200 243.400 C 155.200 243.070,155.380 242.800,155.600 242.800 C 155.820 242.800,156.000 242.440,156.000 242.000 C 156.000 241.560,156.146 241.200,156.325 241.200 C 156.504 241.200,156.898 240.570,157.200 239.800 C 157.502 239.030,157.896 238.400,158.075 238.400 C 158.254 238.400,158.400 238.130,158.400 237.800 C 158.400 237.470,158.546 237.200,158.725 237.200 C 158.904 237.200,159.298 236.570,159.600 235.800 C 159.902 235.030,160.262 234.400,160.400 234.400 C 160.538 234.400,160.898 233.770,161.200 233.000 C 161.502 232.230,161.896 231.600,162.075 231.600 C 162.254 231.600,162.400 231.345,162.400 231.033 C 162.400 230.722,162.535 230.407,162.700 230.333 C 162.865 230.260,163.437 229.390,163.970 228.400 C 164.504 227.410,165.051 226.510,165.185 226.400 C 165.320 226.290,165.963 225.156,166.615 223.879 C 168.048 221.073,169.954 218.781,170.256 219.500 C 170.372 219.775,170.688 220.000,170.958 220.000 C 171.228 220.000,171.798 220.315,172.225 220.700 C 172.651 221.085,173.495 221.655,174.100 221.968 C 174.705 222.280,175.200 222.685,175.200 222.868 C 175.200 223.050,175.443 223.200,175.741 223.200 C 176.038 223.200,176.846 223.740,177.537 224.400 C 178.228 225.060,178.974 225.600,179.196 225.600 C 179.418 225.600,179.600 225.750,179.600 225.932 C 179.600 226.115,180.042 226.501,180.582 226.790 C 181.122 227.079,181.634 227.605,181.720 227.958 C 181.856 228.518,181.916 228.509,182.185 227.888 C 182.405 227.382,182.220 226.941,181.547 226.364 C 181.026 225.917,180.194 225.202,179.697 224.776 C 179.200 224.349,178.565 224.000,178.285 224.000 C 178.006 224.000,177.517 223.640,177.200 223.200 C 176.883 222.760,176.343 222.400,176.000 222.400 C 175.657 222.400,175.117 222.040,174.800 221.600 C 174.483 221.160,173.993 220.800,173.712 220.800 C 173.430 220.800,173.200 220.653,173.200 220.474 C 173.200 220.008,170.069 218.400,169.162 218.400 C 168.698 218.400,168.400 218.678,168.400 219.112 M147.053 260.681 C 146.525 261.209,146.832 261.685,147.574 261.491 C 148.022 261.374,148.438 261.523,148.562 261.844 C 148.850 262.595,150.400 262.558,150.400 261.800 C 150.400 261.460,150.042 261.200,149.574 261.200 C 149.119 261.200,148.423 261.026,148.026 260.814 C 147.630 260.602,147.192 260.542,147.053 260.681 M145.754 262.575 C 145.622 262.919,145.612 263.455,145.732 263.767 C 145.852 264.079,145.691 264.433,145.375 264.554 C 145.059 264.676,144.800 265.195,144.800 265.707 C 144.800 266.220,144.605 266.835,144.366 267.074 C 143.855 267.585,144.023 269.194,144.600 269.316 C 144.820 269.362,145.056 268.815,145.125 268.100 C 145.194 267.385,145.419 266.800,145.625 266.800 C 145.831 266.800,146.000 266.271,146.000 265.624 C 146.000 264.977,146.180 264.336,146.400 264.200 C 146.919 263.879,146.917 262.520,146.397 262.198 C 146.176 262.061,145.886 262.231,145.754 262.575 M150.881 262.442 C 151.058 262.975,153.650 263.917,154.322 263.693 C 154.585 263.605,154.800 263.728,154.800 263.967 C 154.800 264.205,155.340 264.400,156.000 264.400 C 156.660 264.400,157.200 264.580,157.200 264.800 C 157.200 265.020,157.560 265.200,158.000 265.200 C 158.440 265.200,158.800 265.020,158.800 264.800 C 158.800 264.580,158.440 264.400,158.000 264.400 C 157.560 264.400,157.200 264.220,157.200 264.000 C 157.200 263.780,156.748 263.600,156.195 263.600 C 155.642 263.600,154.787 263.392,154.295 263.138 C 152.408 262.162,151.991 262.000,151.372 262.000 C 151.021 262.000,150.800 262.199,150.881 262.442 M159.200 265.572 C 159.200 265.777,159.605 266.002,160.100 266.072 C 161.063 266.209,161.758 269.600,160.823 269.600 C 160.590 269.600,160.400 270.230,160.400 271.000 C 160.400 271.770,160.220 272.400,160.000 272.400 C 159.780 272.400,159.600 273.030,159.600 273.800 C 159.600 274.570,159.420 275.200,159.200 275.200 C 158.980 275.200,158.800 275.920,158.800 276.800 C 158.800 277.680,158.980 278.400,159.200 278.400 C 159.420 278.400,159.600 277.680,159.600 276.800 C 159.600 275.920,159.780 275.200,160.000 275.200 C 160.220 275.200,160.400 274.570,160.400 273.800 C 160.400 273.030,160.580 272.400,160.800 272.400 C 161.020 272.400,161.200 271.770,161.200 271.000 C 161.200 270.230,161.380 269.600,161.600 269.600 C 162.216 269.600,162.074 266.416,161.429 265.771 C 160.792 265.135,159.200 264.992,159.200 265.572 M143.467 270.267 C 142.894 270.839,143.179 272.783,143.800 272.545 C 144.142 272.413,144.400 271.817,144.400 271.157 C 144.400 270.048,144.034 269.699,143.467 270.267 M142.667 273.467 C 142.086 274.047,142.377 276.384,143.000 276.145 C 143.370 276.003,143.600 275.395,143.600 274.557 C 143.600 273.271,143.260 272.874,142.667 273.467 M142.000 278.600 C 142.000 279.590,142.180 280.400,142.400 280.400 C 142.620 280.400,142.800 279.590,142.800 278.600 C 142.800 277.610,142.620 276.800,142.400 276.800 C 142.180 276.800,142.000 277.610,142.000 278.600 M158.028 281.100 C 158.065 282.145,157.950 283.360,157.773 283.800 C 157.499 284.480,157.541 284.526,158.056 284.108 C 158.786 283.516,159.089 279.200,158.401 279.200 C 158.133 279.200,157.987 279.943,158.028 281.100 M141.200 283.376 C 141.200 284.793,141.020 286.064,140.800 286.200 C 140.580 286.336,140.400 287.877,140.400 289.624 C 140.400 291.475,140.567 292.800,140.800 292.800 C 141.033 292.800,141.200 291.467,141.200 289.600 C 141.200 287.733,141.367 286.400,141.600 286.400 C 141.829 286.400,142.000 285.200,142.000 283.600 C 142.000 282.000,141.829 280.800,141.600 280.800 C 141.375 280.800,141.200 281.925,141.200 283.376 M157.473 285.061 C 156.944 285.589,157.191 287.200,157.800 287.200 C 158.130 287.200,158.397 286.885,158.394 286.500 C 158.386 285.591,157.822 284.711,157.473 285.061 M153.600 308.000 C 153.600 308.220,154.230 308.400,155.000 308.400 C 155.770 308.400,156.400 308.220,156.400 308.000 C 156.400 307.780,155.770 307.600,155.000 307.600 C 154.230 307.600,153.600 307.780,153.600 308.000 M147.400 309.158 C 143.637 310.218,143.226 310.403,142.777 311.242 C 142.325 312.088,142.613 313.600,143.227 313.600 C 143.432 313.600,143.600 313.227,143.600 312.771 C 143.600 311.644,144.530 310.800,145.771 310.800 C 146.337 310.800,146.800 310.620,146.800 310.400 C 146.800 310.180,147.430 310.000,148.200 310.000 C 148.970 310.000,149.600 309.820,149.600 309.600 C 149.600 309.380,150.230 309.200,151.000 309.200 C 151.770 309.200,152.400 309.020,152.400 308.800 C 152.400 308.220,150.163 308.380,147.400 309.158 M157.200 308.712 C 157.200 308.883,157.560 309.283,158.000 309.600 C 158.440 309.917,158.800 310.497,158.800 310.888 C 158.800 311.280,158.980 311.600,159.200 311.600 C 159.420 311.600,159.600 311.960,159.600 312.400 C 159.600 312.840,159.780 313.200,160.000 313.200 C 160.220 313.200,160.400 313.740,160.400 314.400 C 160.400 315.060,160.580 315.600,160.800 315.600 C 161.020 315.600,161.200 316.050,161.200 316.600 C 161.200 317.150,161.380 317.600,161.600 317.600 C 161.820 317.600,162.000 318.050,162.000 318.600 C 162.000 319.150,162.180 319.600,162.400 319.600 C 162.620 319.600,162.800 320.050,162.800 320.600 C 162.800 321.150,162.980 321.600,163.200 321.600 C 163.420 321.600,163.600 321.960,163.600 322.400 C 163.600 322.840,163.780 323.200,164.000 323.200 C 164.220 323.200,164.400 323.560,164.400 324.000 C 164.400 324.440,164.580 324.800,164.800 324.800 C 165.020 324.800,165.200 325.160,165.200 325.600 C 165.200 326.040,165.380 326.400,165.600 326.400 C 165.820 326.400,166.000 326.655,166.000 326.967 C 166.000 327.278,166.135 327.593,166.300 327.667 C 166.465 327.740,167.014 328.610,167.521 329.600 C 168.743 331.990,169.528 333.005,169.881 332.653 C 170.040 332.494,169.920 331.967,169.615 331.482 C 169.310 330.997,168.687 329.880,168.230 329.000 C 167.774 328.120,167.310 327.310,167.199 327.200 C 167.089 327.090,166.744 326.505,166.432 325.900 C 166.120 325.295,165.715 324.800,165.532 324.800 C 165.350 324.800,165.200 324.440,165.200 324.000 C 165.200 323.560,165.020 323.200,164.800 323.200 C 164.580 323.200,164.400 322.840,164.400 322.400 C 164.400 321.960,164.220 321.600,164.000 321.600 C 163.780 321.600,163.600 321.161,163.600 320.624 C 163.600 320.087,163.420 319.536,163.200 319.400 C 162.980 319.264,162.800 318.803,162.800 318.376 C 162.800 317.949,162.620 317.600,162.400 317.600 C 162.180 317.600,162.000 317.060,162.000 316.400 C 162.000 315.740,161.820 315.200,161.600 315.200 C 161.380 315.200,161.200 314.750,161.200 314.200 C 161.200 313.650,161.020 313.200,160.800 313.200 C 160.580 313.200,160.400 312.750,160.400 312.200 C 160.400 311.650,160.220 311.200,160.000 311.200 C 159.780 311.200,159.600 310.932,159.600 310.605 C 159.600 309.834,158.371 308.400,157.711 308.400 C 157.430 308.400,157.200 308.540,157.200 308.712 M143.200 315.143 C 143.200 315.808,143.380 316.464,143.600 316.600 C 143.820 316.736,144.000 317.163,144.000 317.548 C 144.000 317.934,144.360 318.995,144.800 319.906 C 145.240 320.816,145.600 321.716,145.600 321.906 C 145.600 322.095,145.960 322.995,146.400 323.906 C 146.840 324.816,147.200 325.840,147.200 326.181 C 147.200 326.521,147.380 326.800,147.600 326.800 C 147.820 326.800,148.000 327.160,148.000 327.600 C 148.000 328.040,148.180 328.400,148.400 328.400 C 148.620 328.400,148.800 328.760,148.800 329.200 C 148.800 329.640,148.980 330.000,149.200 330.000 C 149.420 330.000,149.600 330.416,149.600 330.925 C 149.600 331.433,149.960 332.236,150.400 332.708 C 150.840 333.180,151.200 333.844,151.200 334.183 C 151.200 334.522,151.380 334.800,151.600 334.800 C 151.820 334.800,152.000 335.160,152.000 335.600 C 152.000 336.040,152.180 336.400,152.400 336.400 C 152.620 336.400,152.800 336.760,152.800 337.200 C 152.800 337.640,152.936 338.000,153.102 338.000 C 153.269 338.000,153.663 338.585,153.978 339.300 C 154.782 341.125,155.360 341.600,156.774 341.600 C 158.021 341.600,162.000 339.713,162.000 339.121 C 162.000 338.945,162.320 338.800,162.712 338.800 C 163.103 338.800,163.683 338.440,164.000 338.000 C 164.317 337.560,164.897 337.200,165.288 337.200 C 165.680 337.200,166.000 337.020,166.000 336.800 C 166.000 336.580,166.236 336.400,166.525 336.400 C 166.813 336.400,167.436 336.040,167.908 335.600 C 168.380 335.160,168.954 334.800,169.183 334.800 C 169.412 334.800,169.600 334.620,169.600 334.400 C 169.600 333.687,168.479 333.974,166.720 335.139 C 165.774 335.765,164.375 336.620,163.612 337.039 C 162.849 337.457,161.870 338.115,161.437 338.500 C 161.003 338.885,160.413 339.200,160.125 339.200 C 159.836 339.200,159.600 339.380,159.600 339.600 C 159.600 339.820,159.240 340.000,158.800 340.000 C 158.360 340.000,158.000 340.180,158.000 340.400 C 158.000 340.620,157.616 340.800,157.147 340.800 C 156.260 340.800,154.401 338.973,154.400 338.100 C 154.400 337.825,154.220 337.600,154.000 337.600 C 153.780 337.600,153.600 337.255,153.600 336.833 C 153.600 336.412,153.455 336.007,153.278 335.933 C 153.101 335.860,152.000 333.820,150.831 331.400 C 149.662 328.980,148.540 326.896,148.339 326.768 C 148.138 326.640,148.088 326.237,148.228 325.871 C 148.383 325.466,148.250 325.117,147.886 324.978 C 147.543 324.846,147.370 324.438,147.479 324.019 C 147.584 323.618,147.474 323.169,147.235 323.022 C 146.996 322.874,146.800 322.403,146.800 321.976 C 146.800 321.549,146.620 321.200,146.400 321.200 C 146.180 321.200,146.000 320.761,146.000 320.224 C 146.000 319.687,145.820 319.136,145.600 319.000 C 145.380 318.864,145.200 318.313,145.200 317.776 C 145.200 317.239,145.031 316.800,144.825 316.800 C 144.619 316.800,144.394 316.229,144.325 315.531 C 144.159 313.846,143.200 313.516,143.200 315.143 M176.637 344.524 C 176.217 344.786,174.449 346.395,172.709 348.100 C 170.969 349.805,169.372 351.200,169.159 351.200 C 168.332 351.200,166.000 353.995,166.000 354.987 C 166.000 355.544,166.157 356.000,166.349 356.000 C 166.541 356.000,169.684 358.970,173.334 362.600 C 176.984 366.230,180.071 369.200,180.194 369.200 C 180.317 369.200,181.375 370.145,182.545 371.300 C 185.506 374.223,186.715 375.200,187.370 375.200 C 187.680 375.200,188.014 375.425,188.112 375.700 C 188.210 375.975,188.424 376.076,188.588 375.924 C 188.876 375.656,187.097 373.600,186.577 373.600 C 186.347 373.600,184.888 372.264,179.586 367.200 C 178.780 366.430,176.878 364.649,175.360 363.241 C 170.007 358.279,166.800 355.114,166.800 354.792 C 166.800 354.614,168.006 353.417,169.480 352.134 C 170.955 350.850,173.043 348.945,174.121 347.900 C 175.199 346.855,176.318 346.000,176.607 346.000 C 176.897 346.000,177.214 345.775,177.313 345.500 C 177.605 344.683,179.146 345.820,183.682 350.200 C 185.961 352.400,188.629 354.900,189.613 355.756 C 198.599 363.578,199.546 364.824,198.000 366.800 C 197.570 367.350,197.214 367.949,197.209 368.131 C 197.204 368.314,196.521 369.124,195.692 369.931 C 194.863 370.739,193.491 372.255,192.644 373.300 C 191.797 374.345,190.855 375.200,190.552 375.200 C 190.248 375.200,190.000 375.380,190.000 375.600 C 190.000 376.637,191.590 375.780,193.400 373.767 C 194.500 372.543,195.940 370.969,196.600 370.268 C 197.260 369.567,198.055 368.500,198.368 367.897 C 198.680 367.294,199.085 366.800,199.268 366.800 C 200.311 366.800,199.558 363.237,198.300 362.225 C 194.721 359.344,193.665 358.405,191.414 356.100 C 190.072 354.725,188.839 353.600,188.675 353.600 C 188.511 353.600,186.227 351.440,183.600 348.800 C 178.864 344.041,178.131 343.591,176.637 344.524 " stroke="none" fill="#767676" fill-rule="evenodd"></path><path id="path1" d="M211.968 20.922 C 211.436 21.485,209.830 23.340,208.400 25.044 C 206.970 26.749,205.240 28.774,204.555 29.545 L 203.311 30.946 208.777 36.373 C 214.857 42.408,219.942 47.980,222.242 51.125 C 222.630 51.656,222.840 51.595,223.840 50.668 C 224.474 50.081,225.101 49.600,225.235 49.600 C 225.368 49.600,225.910 49.220,226.439 48.755 C 226.967 48.290,228.027 47.435,228.794 46.855 C 230.243 45.759,232.116 44.184,233.056 43.271 C 233.647 42.697,233.780 41.747,233.300 41.533 C 233.135 41.460,232.010 40.234,230.800 38.809 C 229.590 37.384,226.260 33.788,223.400 30.818 C 220.540 27.847,217.016 24.176,215.568 22.658 L 212.937 19.900 211.968 20.922 M238.600 60.167 C 230.809 64.244,230.719 64.336,231.838 67.051 C 232.987 69.840,233.661 71.389,234.034 72.095 C 234.235 72.477,234.400 73.141,234.400 73.571 C 234.400 74.001,234.580 74.464,234.800 74.600 C 235.020 74.736,235.200 75.276,235.200 75.800 C 235.200 76.324,235.380 76.864,235.600 77.000 C 235.820 77.136,236.000 77.766,236.000 78.400 C 236.000 79.034,236.161 79.652,236.358 79.774 C 236.716 79.995,237.037 81.646,237.452 85.400 C 237.574 86.500,237.837 87.571,238.037 87.780 C 238.237 87.989,238.400 88.594,238.400 89.125 C 238.400 90.025,238.500 90.069,239.900 89.793 C 240.725 89.631,243.830 89.386,246.800 89.249 L 252.200 89.000 252.131 86.600 C 252.092 85.280,251.862 83.030,251.619 81.600 C 251.376 80.170,251.074 78.280,250.947 77.400 C 250.821 76.520,250.556 75.629,250.359 75.420 C 250.162 75.211,250.000 74.547,250.000 73.944 C 250.000 73.341,249.820 72.736,249.600 72.600 C 249.380 72.464,249.200 72.001,249.200 71.571 C 249.200 71.141,249.020 70.432,248.800 69.995 C 248.580 69.558,248.220 68.842,248.000 68.405 C 247.780 67.968,247.600 67.355,247.600 67.043 C 247.600 66.731,247.261 65.784,246.846 64.938 C 246.431 64.092,245.504 62.185,244.786 60.700 C 243.242 57.507,243.620 57.539,238.600 60.167 M238.100 105.252 C 237.825 105.531,237.600 106.253,237.600 106.856 C 237.600 107.459,237.440 108.052,237.244 108.173 C 237.049 108.294,236.779 109.024,236.644 109.796 C 236.510 110.568,236.290 111.832,236.156 112.604 C 236.021 113.376,235.751 114.106,235.556 114.227 C 235.360 114.348,235.200 114.966,235.200 115.600 C 235.200 116.234,235.020 116.864,234.800 117.000 C 234.580 117.136,234.400 117.676,234.400 118.200 C 234.400 118.724,234.220 119.264,234.000 119.400 C 233.780 119.536,233.600 119.999,233.600 120.429 C 233.600 120.859,233.424 121.523,233.208 121.905 C 232.719 122.773,230.400 129.791,230.400 130.405 C 230.400 131.260,234.090 133.600,235.438 133.600 C 235.747 133.600,236.000 133.780,236.000 134.000 C 236.000 134.220,236.242 134.400,236.539 134.400 C 236.835 134.400,237.600 134.650,238.239 134.956 C 242.511 137.003,242.385 136.971,243.004 136.154 C 243.318 135.739,243.580 135.173,243.587 134.895 C 243.594 134.617,243.759 134.077,243.953 133.695 C 244.148 133.313,244.508 132.505,244.753 131.900 C 244.999 131.295,245.401 130.305,245.647 129.700 C 245.892 129.095,246.252 128.287,246.447 127.905 C 246.641 127.523,246.800 126.859,246.800 126.429 C 246.800 125.999,246.980 125.536,247.200 125.400 C 247.420 125.264,247.600 124.724,247.600 124.200 C 247.600 123.676,247.780 123.136,248.000 123.000 C 248.220 122.864,248.400 122.401,248.400 121.971 C 248.400 121.541,248.562 120.877,248.761 120.495 C 248.960 120.113,249.332 118.990,249.588 118.000 C 249.844 117.010,250.222 115.647,250.427 114.972 C 250.632 114.296,250.800 113.207,250.800 112.552 C 250.800 111.896,250.967 111.189,251.170 110.980 C 251.374 110.771,251.590 109.618,251.651 108.418 L 251.762 106.236 249.781 106.138 C 247.673 106.034,242.323 105.407,240.000 104.993 C 239.097 104.833,238.422 104.924,238.100 105.252 M221.838 145.958 C 221.487 146.346,221.200 146.774,221.200 146.910 C 221.200 147.046,218.950 150.582,216.200 154.768 C 213.450 158.955,211.200 162.564,211.200 162.790 C 211.200 163.015,211.020 163.200,210.800 163.200 C 210.580 163.200,210.400 163.383,210.400 163.606 C 210.400 164.031,207.617 168.440,207.110 168.818 C 206.759 169.080,207.324 169.579,211.446 172.648 C 213.181 173.939,214.690 175.087,214.800 175.198 C 214.910 175.309,215.405 175.625,215.900 175.900 C 216.395 176.175,217.165 176.625,217.612 176.900 C 218.170 177.243,218.515 177.268,218.712 176.979 C 224.338 168.743,229.600 160.740,229.600 160.419 C 229.600 160.189,229.780 160.000,230.000 160.000 C 230.220 160.000,230.400 159.764,230.400 159.475 C 230.400 159.187,230.715 158.597,231.100 158.163 C 235.208 153.542,234.646 151.827,227.768 148.000 C 222.597 145.123,222.594 145.122,221.838 145.958 M193.963 186.300 C 192.572 188.225,191.291 189.860,191.116 189.933 C 190.942 190.007,190.800 190.237,190.800 190.445 C 190.800 190.653,189.933 191.943,188.874 193.311 C 187.815 194.680,185.836 197.420,184.476 199.400 C 183.116 201.380,181.453 203.785,180.780 204.745 C 180.108 205.705,179.612 206.529,179.679 206.575 C 179.745 206.621,180.430 207.090,181.200 207.616 C 181.970 208.143,182.838 208.805,183.129 209.087 C 183.420 209.370,184.860 210.450,186.329 211.487 C 187.798 212.524,189.090 213.469,189.200 213.586 C 190.577 215.057,194.975 211.250,196.752 207.047 C 196.913 206.667,197.862 205.467,198.700 204.584 C 198.975 204.294,199.200 203.956,199.200 203.833 C 199.200 203.710,199.458 203.292,199.774 202.905 C 200.893 201.531,203.067 198.556,205.354 195.270 C 208.092 191.336,208.078 190.902,205.144 188.600 C 204.022 187.720,202.429 186.415,201.604 185.700 C 200.778 184.985,199.982 184.400,199.835 184.400 C 199.687 184.400,199.180 184.040,198.708 183.600 C 197.265 182.256,196.623 182.621,193.963 186.300 M169.280 220.480 C 169.016 220.744,168.800 221.194,168.800 221.480 C 168.800 221.766,168.620 222.000,168.400 222.000 C 168.180 222.000,168.000 222.193,168.000 222.428 C 168.000 222.663,167.460 223.641,166.800 224.600 C 166.140 225.559,165.600 226.461,165.600 226.604 C 165.600 226.747,164.998 227.795,164.261 228.932 C 163.525 230.069,162.152 232.350,161.211 234.000 C 160.270 235.650,159.162 237.585,158.750 238.300 C 157.791 239.962,156.616 242.019,155.600 243.812 C 154.264 246.170,154.801 246.836,160.000 249.272 C 161.210 249.838,163.233 250.794,164.495 251.396 C 167.400 252.780,167.492 252.734,169.378 248.949 C 170.242 247.217,171.635 244.672,172.474 243.293 C 173.313 241.914,174.000 240.687,174.000 240.565 C 174.000 240.444,174.540 239.559,175.200 238.600 C 175.860 237.641,176.400 236.743,176.400 236.606 C 176.400 236.469,177.120 235.296,178.000 234.000 C 178.880 232.704,179.604 231.499,179.609 231.322 C 179.614 231.145,179.970 230.550,180.400 230.000 C 181.456 228.650,181.397 227.939,180.150 226.995 C 175.479 223.459,174.539 222.808,174.100 222.804 C 173.825 222.802,173.600 222.641,173.600 222.446 C 173.600 222.251,172.978 221.796,172.217 221.435 C 171.456 221.074,170.726 220.603,170.593 220.389 C 170.272 219.870,169.862 219.898,169.280 220.480 M147.421 262.766 C 147.066 263.340,145.766 267.852,144.818 271.800 C 144.342 273.780,143.864 275.760,143.754 276.200 C 143.158 278.588,142.342 284.654,141.775 290.909 L 141.494 294.018 148.847 293.909 L 156.200 293.800 156.237 292.400 C 156.257 291.630,156.429 289.740,156.619 288.200 C 156.809 286.660,156.988 284.860,157.017 284.200 C 157.046 283.540,157.297 281.830,157.574 280.400 C 157.851 278.970,158.163 277.260,158.266 276.600 C 158.370 275.940,158.609 275.040,158.797 274.600 C 158.986 274.160,159.231 273.350,159.342 272.800 C 159.453 272.250,159.754 271.080,160.010 270.200 C 160.764 267.607,160.709 266.640,159.800 266.490 C 159.360 266.418,158.550 266.164,158.000 265.926 C 152.927 263.730,147.776 262.191,147.421 262.766 M152.600 309.383 C 152.380 309.449,151.480 309.695,150.600 309.930 C 143.356 311.862,143.808 311.419,144.975 315.434 C 145.789 318.234,147.115 321.779,149.077 326.400 C 149.982 328.533,153.369 335.373,153.632 335.600 C 153.760 335.710,154.119 336.385,154.430 337.100 C 154.741 337.815,155.131 338.400,155.298 338.400 C 155.464 338.400,155.600 338.648,155.600 338.951 C 155.600 341.190,157.093 340.697,164.114 336.140 C 166.266 334.743,168.201 333.600,168.414 333.600 C 169.072 333.600,168.845 332.812,167.688 331.072 C 167.076 330.152,166.311 328.860,165.988 328.200 C 165.665 327.540,165.311 326.910,165.201 326.800 C 164.723 326.324,164.000 324.761,164.000 324.205 C 164.000 323.872,163.820 323.600,163.600 323.600 C 163.380 323.600,163.200 323.240,163.200 322.800 C 163.200 322.360,163.020 322.000,162.800 322.000 C 162.580 322.000,162.400 321.728,162.400 321.395 C 162.400 321.062,162.241 320.477,162.047 320.095 C 161.852 319.713,161.471 318.860,161.200 318.200 C 160.929 317.540,160.548 316.687,160.353 316.305 C 160.159 315.923,160.000 315.336,160.000 315.000 C 160.000 314.664,159.835 314.077,159.634 313.695 C 159.432 313.313,158.975 312.327,158.617 311.505 C 157.731 309.467,155.246 308.590,152.600 309.383 M174.677 348.249 C 172.983 349.675,170.693 351.745,169.588 352.850 L 167.579 354.859 175.310 362.393 C 183.368 370.247,188.929 375.200,189.689 375.200 C 190.691 375.200,198.400 366.068,198.400 364.881 C 198.400 364.651,196.842 363.054,194.938 361.332 C 193.034 359.609,189.117 355.950,186.234 353.200 C 183.350 350.450,180.264 347.628,179.374 346.929 L 177.757 345.657 174.677 348.249 " stroke="none" fill="#040404" fill-rule="evenodd"></path><path id="path2" d="M215.600 22.200 C 216.346 22.970,217.047 23.600,217.157 23.600 C 217.267 23.600,216.746 22.970,216.000 22.200 C 215.254 21.430,214.553 20.800,214.443 20.800 C 214.333 20.800,214.854 21.430,215.600 22.200 M229.200 36.525 C 229.200 36.594,229.785 37.179,230.500 37.825 L 231.800 39.000 230.625 37.700 C 229.530 36.488,229.200 36.216,229.200 36.525 M230.000 64.800 C 230.000 65.240,230.084 65.600,230.186 65.600 C 230.288 65.600,230.565 65.240,230.800 64.800 C 231.142 64.161,231.104 64.000,230.614 64.000 C 230.267 64.000,230.000 64.347,230.000 64.800 M233.106 71.818 C 233.210 72.365,233.428 72.894,233.590 72.994 C 233.752 73.094,233.799 72.729,233.694 72.182 C 233.590 71.635,233.372 71.106,233.210 71.006 C 233.048 70.906,233.001 71.271,233.106 71.818 M252.158 82.300 C 252.275 82.685,252.419 84.582,252.480 86.516 C 252.540 88.450,252.652 89.843,252.729 89.613 C 252.806 89.383,253.033 89.297,253.234 89.421 C 253.435 89.545,253.600 89.292,253.600 88.857 C 253.600 88.422,253.430 88.007,253.222 87.933 C 253.013 87.860,252.807 86.405,252.763 84.700 C 252.719 82.995,252.517 81.600,252.315 81.600 C 252.112 81.600,252.041 81.915,252.158 82.300 M242.000 104.655 C 242.000 104.970,242.423 105.200,243.000 105.200 C 243.550 105.200,244.000 105.041,244.000 104.847 C 244.000 104.652,243.550 104.407,243.000 104.302 C 242.329 104.174,242.000 104.290,242.000 104.655 M233.200 119.400 C 233.200 119.950,233.269 120.400,233.353 120.400 C 233.438 120.400,233.593 119.950,233.698 119.400 C 233.803 118.850,233.734 118.400,233.545 118.400 C 233.355 118.400,233.200 118.850,233.200 119.400 M235.200 134.413 C 235.200 134.626,235.560 134.800,236.000 134.800 C 236.440 134.800,236.800 134.980,236.800 135.200 C 236.800 135.420,237.205 135.599,237.700 135.598 C 238.582 135.595,238.580 135.585,237.600 135.076 C 235.925 134.207,235.200 134.006,235.200 134.413 M207.701 190.232 C 208.086 190.690,208.281 191.185,208.134 191.332 C 207.987 191.480,208.077 191.600,208.333 191.600 C 209.065 191.600,208.883 190.994,207.900 190.162 C 207.001 189.401,207.001 189.401,207.701 190.232 M160.561 250.287 C 160.979 250.395,161.930 250.824,162.673 251.241 C 163.416 251.658,164.244 251.999,164.512 251.998 C 164.780 251.997,164.114 251.547,163.032 250.998 C 161.950 250.449,160.780 250.021,160.432 250.046 C 159.983 250.079,160.020 250.149,160.561 250.287 M155.600 264.661 C 155.930 264.770,156.560 265.009,157.000 265.193 C 158.592 265.859,159.200 265.968,159.200 265.587 C 159.200 265.374,158.750 265.200,158.200 265.200 C 157.650 265.200,157.200 265.020,157.200 264.800 C 157.200 264.580,156.705 264.414,156.100 264.432 C 155.495 264.449,155.270 264.552,155.600 264.661 M157.200 284.224 C 157.200 284.787,157.365 285.145,157.566 285.021 C 157.767 284.897,158.019 285.021,158.125 285.298 C 158.231 285.574,158.299 285.407,158.276 284.928 C 158.253 284.448,158.061 284.162,157.849 284.293 C 157.628 284.430,157.573 284.247,157.719 283.866 C 157.860 283.500,157.801 283.200,157.587 283.200 C 157.374 283.200,157.200 283.661,157.200 284.224 M156.400 291.200 C 156.400 291.707,156.656 291.988,157.100 291.968 C 157.518 291.950,157.599 291.856,157.300 291.735 C 157.025 291.624,156.800 291.358,156.800 291.143 C 156.800 290.928,157.008 290.881,157.262 291.038 C 157.548 291.215,157.615 291.148,157.438 290.862 C 156.987 290.132,156.400 290.323,156.400 291.200 M166.656 328.788 C 167.042 329.441,167.411 329.923,167.475 329.859 C 167.688 329.645,166.606 327.606,166.277 327.603 C 166.100 327.601,166.270 328.134,166.656 328.788 M168.937 332.581 C 169.115 333.043,169.028 333.463,168.714 333.662 C 168.329 333.906,168.365 333.989,168.857 333.994 C 169.782 334.002,170.018 333.106,169.274 332.411 C 168.718 331.892,168.680 331.911,168.937 332.581 M171.400 359.600 C 172.259 360.480,173.052 361.200,173.162 361.200 C 173.272 361.200,172.659 360.480,171.800 359.600 C 170.941 358.720,170.148 358.000,170.038 358.000 C 169.928 358.000,170.541 358.720,171.400 359.600 " stroke="none" fill="#545454" fill-rule="evenodd"></path><path id="path3" d="M212.400 20.024 C 212.400 20.257,212.557 20.350,212.749 20.232 C 212.941 20.113,215.842 22.910,219.195 26.447 C 222.549 29.984,225.227 32.697,225.146 32.476 C 224.548 30.834,212.400 18.965,212.400 20.024 M210.800 21.458 C 210.800 21.673,210.411 22.288,209.935 22.825 C 209.459 23.361,208.604 24.340,208.035 25.000 L 207.000 26.200 208.337 25.000 C 209.990 23.516,211.369 21.636,211.044 21.310 C 210.910 21.176,210.800 21.243,210.800 21.458 M205.766 27.700 C 203.931 29.703,202.952 30.966,203.464 30.668 C 203.973 30.371,207.371 26.400,207.116 26.400 C 207.028 26.400,206.421 26.985,205.766 27.700 M230.605 38.500 C 231.676 39.765,232.621 40.800,232.704 40.800 C 233.027 40.800,231.205 38.538,229.965 37.400 C 229.125 36.629,229.354 37.023,230.605 38.500 M233.600 42.348 C 233.600 42.795,232.894 43.553,231.341 44.775 C 230.756 45.235,230.360 45.693,230.460 45.794 C 230.561 45.894,231.500 45.190,232.548 44.228 C 233.665 43.202,234.276 42.371,234.026 42.216 C 233.792 42.071,233.600 42.131,233.600 42.348 M216.269 44.600 C 217.172 45.700,218.330 46.960,218.842 47.400 C 219.354 47.840,219.034 47.300,218.131 46.200 C 217.228 45.100,216.070 43.840,215.558 43.400 C 215.046 42.960,215.366 43.500,216.269 44.600 M228.385 47.232 L 227.000 48.463 228.288 47.613 C 229.430 46.859,230.293 46.000,229.908 46.000 C 229.832 46.000,229.147 46.554,228.385 47.232 M220.713 49.833 C 220.957 50.291,221.466 50.921,221.844 51.233 C 222.469 51.749,222.491 51.725,222.087 50.967 C 221.843 50.509,221.334 49.879,220.956 49.567 C 220.331 49.051,220.309 49.075,220.713 49.833 M239.200 59.441 C 237.330 60.406,236.000 61.196,236.245 61.198 C 236.489 61.199,238.089 60.480,239.800 59.600 C 243.649 57.620,243.299 57.576,244.582 60.200 C 245.782 62.652,245.977 62.862,245.698 61.400 C 245.593 60.850,245.348 60.400,245.153 60.400 C 244.959 60.400,244.800 60.132,244.800 59.805 C 244.800 57.386,243.365 57.293,239.200 59.441 M232.624 63.013 C 232.196 63.336,232.027 63.600,232.247 63.600 C 232.467 63.600,232.996 63.336,233.424 63.013 C 233.851 62.690,234.020 62.425,233.800 62.425 C 233.580 62.425,233.051 62.690,232.624 63.013 M250.800 77.980 C 250.800 78.960,251.316 79.660,251.650 79.134 C 252.132 78.373,252.082 78.117,251.400 77.855 C 251.070 77.729,250.800 77.785,250.800 77.980 M236.028 79.876 C 236.118 80.915,236.744 81.796,236.772 80.924 C 236.787 80.442,236.620 79.936,236.400 79.800 C 236.180 79.664,236.013 79.698,236.028 79.876 M251.634 82.400 C 251.622 82.950,251.787 83.670,252.000 84.000 C 252.509 84.787,252.509 83.384,252.000 82.200 C 251.685 81.467,251.654 81.484,251.634 82.400 M237.050 84.400 C 237.375 86.641,237.602 86.960,237.594 85.167 C 237.591 84.415,237.408 83.530,237.188 83.200 C 236.909 82.781,236.867 83.142,237.050 84.400 M237.454 87.870 C 237.703 88.051,238.007 88.560,238.128 89.000 C 238.301 89.631,238.332 89.595,238.274 88.831 C 238.233 88.299,237.930 87.790,237.600 87.701 C 237.204 87.594,237.154 87.651,237.454 87.870 M246.266 89.259 C 238.487 89.620,238.304 90.000,245.910 90.000 C 249.758 90.000,252.049 89.845,252.216 89.573 C 252.600 88.953,252.719 88.960,246.266 89.259 M238.981 90.370 C 239.107 90.573,238.893 90.822,238.505 90.923 C 237.968 91.063,238.015 91.118,238.700 91.154 C 239.254 91.182,239.600 90.969,239.600 90.600 C 239.600 90.270,239.409 90.000,239.176 90.000 C 238.943 90.000,238.856 90.166,238.981 90.370 M237.949 105.100 C 237.452 105.734,237.466 105.748,238.096 105.254 C 238.558 104.892,239.233 104.801,240.096 104.983 C 241.913 105.366,247.403 106.020,249.800 106.140 C 251.750 106.237,251.798 106.269,251.704 107.420 C 251.614 108.521,251.633 108.539,251.997 107.684 C 252.268 107.045,252.238 106.530,251.897 105.984 C 251.373 105.145,250.800 104.944,250.800 105.600 C 250.800 106.198,248.825 106.083,248.190 105.448 C 247.887 105.144,247.750 104.784,247.886 104.648 C 248.022 104.511,247.923 104.400,247.667 104.400 C 247.410 104.400,247.200 104.580,247.200 104.800 C 247.200 105.029,246.000 105.200,244.400 105.200 C 242.800 105.200,241.600 105.029,241.600 104.800 C 241.600 104.090,238.544 104.341,237.949 105.100 M237.246 106.667 C 237.221 106.924,237.084 107.464,236.941 107.867 C 236.740 108.436,236.794 108.497,237.179 108.142 C 237.452 107.891,237.589 107.351,237.484 106.942 C 237.379 106.534,237.272 106.410,237.246 106.667 M251.092 111.042 C 250.931 111.202,250.800 111.609,250.800 111.947 C 250.800 112.397,250.918 112.442,251.245 112.115 C 251.490 111.870,251.621 111.463,251.537 111.210 C 251.452 110.957,251.252 110.881,251.092 111.042 M245.373 130.243 C 245.238 130.659,244.940 131.450,244.710 132.000 C 244.481 132.550,244.115 133.450,243.898 134.000 C 243.680 134.550,243.239 135.540,242.918 136.200 L 242.333 137.400 243.158 136.400 C 243.611 135.850,243.986 135.085,243.991 134.700 C 243.996 134.315,244.180 134.000,244.400 134.000 C 244.620 134.000,244.800 133.550,244.800 133.000 C 244.800 132.450,244.959 132.000,245.153 132.000 C 245.348 132.000,245.602 131.505,245.718 130.900 C 245.967 129.606,245.728 129.150,245.373 130.243 M229.600 130.504 C 229.600 130.781,229.960 131.232,230.400 131.507 C 230.874 131.803,231.200 131.843,231.200 131.603 C 231.200 131.382,231.020 131.200,230.800 131.200 C 230.580 131.200,230.400 130.930,230.400 130.600 C 230.400 130.270,230.220 130.000,230.000 130.000 C 229.780 130.000,229.600 130.227,229.600 130.504 M223.699 145.778 C 224.303 146.093,224.978 146.463,225.199 146.599 C 225.419 146.736,225.599 146.702,225.597 146.524 C 225.593 146.171,223.697 145.198,223.020 145.202 C 222.789 145.204,223.094 145.463,223.699 145.778 M226.400 147.220 C 227.787 148.161,228.578 148.435,227.600 147.636 C 227.050 147.186,226.420 146.817,226.200 146.815 C 225.980 146.813,226.070 146.996,226.400 147.220 M219.273 149.400 C 219.022 149.950,218.883 150.400,218.963 150.400 C 219.043 150.400,219.403 149.950,219.763 149.400 C 220.124 148.850,220.263 148.400,220.073 148.400 C 219.884 148.400,219.523 148.850,219.273 149.400 M232.736 151.140 C 233.648 151.992,233.903 152.523,233.744 153.240 C 233.575 154.001,233.620 154.075,233.959 153.600 C 234.706 152.555,233.247 150.000,231.903 150.000 C 231.690 150.000,232.065 150.513,232.736 151.140 M212.233 160.229 C 211.419 161.455,210.839 162.670,210.945 162.929 C 211.077 163.254,211.147 163.236,211.168 162.872 C 211.186 162.582,211.709 161.592,212.332 160.672 C 213.773 158.544,214.088 158.000,213.880 158.000 C 213.788 158.000,213.047 159.003,212.233 160.229 M209.624 164.518 C 209.323 165.003,208.815 165.805,208.493 166.300 C 208.171 166.795,207.995 167.200,208.101 167.200 C 208.383 167.200,210.486 163.953,210.315 163.781 C 210.235 163.702,209.924 164.033,209.624 164.518 M223.316 170.200 C 221.320 173.170,219.803 175.597,219.944 175.593 C 220.085 175.589,221.460 173.676,223.000 171.341 C 226.972 165.320,227.299 164.800,227.112 164.800 C 227.020 164.800,225.312 167.230,223.316 170.200 M206.964 168.326 L 206.128 169.025 207.064 169.731 C 207.579 170.120,208.000 170.268,208.000 170.061 C 208.000 169.855,207.717 169.577,207.370 169.444 C 206.797 169.224,206.797 169.146,207.370 168.573 C 208.484 167.459,208.204 167.289,206.964 168.326 M208.405 170.680 C 208.408 170.856,209.038 171.407,209.805 171.904 C 211.603 173.068,211.600 172.800,209.800 171.427 C 209.030 170.840,208.402 170.503,208.405 170.680 M211.605 173.104 C 211.610 173.435,214.409 175.331,214.594 175.129 C 214.659 175.058,214.012 174.507,213.156 173.904 C 212.300 173.301,211.602 172.941,211.605 173.104 M215.600 176.020 C 216.987 176.961,217.778 177.235,216.800 176.436 C 216.250 175.986,215.620 175.617,215.400 175.615 C 215.180 175.613,215.270 175.796,215.600 176.020 M194.492 185.029 C 193.997 185.783,193.672 186.400,193.769 186.400 C 194.047 186.400,195.704 183.971,195.539 183.806 C 195.457 183.724,194.986 184.274,194.492 185.029 M201.960 185.977 C 202.927 186.878,203.812 187.521,203.926 187.407 C 204.040 187.293,204.058 187.153,203.967 187.096 C 203.875 187.039,202.990 186.395,202.000 185.666 L 200.200 184.341 201.960 185.977 M192.071 188.243 C 190.805 190.197,191.137 190.285,192.496 188.356 C 193.099 187.500,193.459 186.802,193.296 186.805 C 193.133 186.808,192.582 187.455,192.071 188.243 M205.900 189.181 C 207.878 191.135,207.960 191.652,206.580 193.462 C 206.018 194.198,205.703 194.798,205.880 194.795 C 206.374 194.787,208.000 192.100,208.000 191.290 C 208.000 190.894,207.145 189.879,206.100 189.036 L 204.200 187.502 205.900 189.181 M190.119 190.890 C 189.212 192.062,189.156 192.537,190.023 191.711 C 190.536 191.222,190.856 190.723,190.735 190.601 C 190.613 190.480,190.336 190.610,190.119 190.890 M202.344 199.500 C 201.052 201.060,200.719 201.600,201.051 201.595 C 201.243 201.592,201.807 200.962,202.304 200.195 C 203.272 198.701,203.292 198.356,202.344 199.500 M183.529 200.300 C 182.405 201.622,181.043 203.744,181.500 203.462 C 181.945 203.187,184.497 199.600,184.248 199.600 C 184.180 199.600,183.856 199.915,183.529 200.300 M197.489 206.005 C 196.726 206.896,196.584 207.381,197.198 207.001 C 197.590 206.759,198.546 205.200,198.303 205.200 C 198.234 205.200,197.868 205.562,197.489 206.005 M180.727 207.800 C 181.381 208.350,182.156 208.800,182.451 208.800 C 182.745 208.800,182.323 208.350,181.514 207.800 C 180.705 207.250,179.929 206.800,179.791 206.800 C 179.652 206.800,180.073 207.250,180.727 207.800 M194.149 210.700 C 192.886 212.405,191.684 214.025,191.477 214.300 C 191.271 214.575,191.197 214.800,191.314 214.800 C 191.430 214.800,192.149 213.945,192.912 212.900 C 193.674 211.855,194.862 210.235,195.552 209.300 C 196.241 208.365,196.724 207.600,196.625 207.600 C 196.526 207.600,195.412 208.995,194.149 210.700 M184.200 210.400 C 185.031 211.060,185.820 211.595,185.955 211.589 C 186.327 211.573,183.452 209.223,183.045 209.211 C 182.850 209.205,183.369 209.740,184.200 210.400 M169.149 220.300 C 168.650 220.936,168.665 220.949,169.308 220.445 C 169.917 219.966,170.115 219.980,170.739 220.545 C 171.137 220.905,171.629 221.196,171.831 221.191 C 172.225 221.182,170.372 219.624,169.949 219.609 C 169.811 219.604,169.451 219.915,169.149 220.300 M177.600 224.946 C 177.600 225.056,178.140 225.530,178.800 226.000 C 179.460 226.470,180.000 226.764,180.000 226.654 C 180.000 226.544,179.460 226.070,178.800 225.600 C 178.140 225.130,177.600 224.836,177.600 224.946 M163.737 229.004 C 163.483 229.552,163.437 229.901,163.635 229.778 C 164.163 229.452,164.882 227.999,164.514 228.003 C 164.341 228.005,163.992 228.455,163.737 229.004 M161.304 233.074 C 160.617 234.553,160.894 234.625,161.744 233.188 C 162.130 232.534,162.300 232.001,162.123 232.003 C 161.945 232.005,161.577 232.487,161.304 233.074 M177.857 234.194 C 177.055 235.400,176.400 236.498,176.400 236.632 C 176.400 236.767,176.061 237.354,175.646 237.938 C 174.369 239.736,172.613 243.162,173.564 242.000 C 174.014 241.450,174.386 240.852,174.391 240.672 C 174.396 240.492,174.940 239.559,175.600 238.600 C 176.260 237.641,176.800 236.741,176.800 236.600 C 176.800 236.459,177.309 235.592,177.932 234.672 C 179.373 232.544,179.688 232.000,179.480 232.000 C 179.388 232.000,178.658 232.987,177.857 234.194 M160.000 235.367 C 160.000 235.678,159.865 235.993,159.700 236.067 C 159.535 236.140,159.022 236.920,158.561 237.800 C 158.099 238.680,157.222 240.300,156.611 241.400 C 156.001 242.500,155.686 243.220,155.913 243.000 C 156.139 242.780,156.702 241.925,157.162 241.100 C 158.946 237.905,159.638 236.714,160.254 235.774 C 160.648 235.173,160.721 234.800,160.446 234.800 C 160.201 234.800,160.000 235.055,160.000 235.367 M170.633 246.508 C 170.019 247.658,169.699 248.420,169.921 248.200 C 170.498 247.629,172.067 244.734,171.894 244.561 C 171.814 244.481,171.247 245.357,170.633 246.508 M147.251 262.360 C 146.949 262.551,146.769 262.871,146.851 263.070 C 146.933 263.270,147.315 263.111,147.700 262.717 C 148.434 261.965,148.186 261.767,147.251 262.360 M146.267 264.667 C 146.120 264.813,146.011 265.308,146.025 265.767 C 146.049 266.533,146.082 266.523,146.434 265.642 C 146.826 264.663,146.744 264.189,146.267 264.667 M145.125 268.500 C 145.056 269.215,144.817 269.769,144.592 269.731 C 144.347 269.689,144.254 270.326,144.360 271.331 C 144.530 272.953,144.543 272.966,144.819 271.800 C 144.976 271.140,145.287 269.835,145.510 268.900 C 145.733 267.965,145.766 267.200,145.583 267.200 C 145.400 267.200,145.194 267.785,145.125 268.500 M160.454 268.805 C 160.158 269.792,159.755 271.013,159.558 271.519 C 159.361 272.024,159.200 272.843,159.200 273.339 C 159.200 273.834,159.043 274.411,158.851 274.620 C 158.369 275.144,157.985 278.457,158.438 278.176 C 158.637 278.053,158.800 277.254,158.800 276.400 C 158.800 275.546,158.980 274.736,159.200 274.600 C 159.420 274.464,159.600 273.834,159.600 273.200 C 159.600 272.566,159.780 271.936,160.000 271.800 C 160.220 271.664,160.400 271.059,160.400 270.456 C 160.400 269.853,160.597 269.163,160.838 268.922 C 161.078 268.682,161.211 268.153,161.133 267.747 C 161.045 267.288,160.788 267.688,160.454 268.805 M143.867 273.467 C 143.720 273.613,143.621 274.378,143.646 275.167 L 143.692 276.600 144.004 275.000 C 144.331 273.319,144.305 273.028,143.867 273.467 M142.800 279.176 C 142.800 280.263,142.620 281.264,142.400 281.400 C 142.180 281.536,142.030 283.028,142.066 284.724 L 142.132 287.800 142.440 284.800 C 142.609 283.150,142.904 280.765,143.095 279.500 C 143.286 278.235,143.298 277.200,143.121 277.200 C 142.944 277.200,142.800 278.089,142.800 279.176 M157.536 280.600 C 157.280 282.544,157.365 283.168,157.824 282.710 C 157.947 282.587,157.992 281.612,157.924 280.543 L 157.800 278.600 157.536 280.600 M156.850 286.200 C 156.818 286.640,156.675 287.703,156.533 288.562 C 156.346 289.694,156.403 290.046,156.738 289.839 C 156.992 289.681,157.200 289.203,157.200 288.776 C 157.200 288.349,157.425 287.997,157.700 287.994 C 158.064 287.989,158.075 287.908,157.740 287.694 C 157.488 287.532,157.197 286.950,157.095 286.400 C 156.953 285.638,156.895 285.590,156.850 286.200 M141.276 291.300 C 141.234 292.345,141.020 293.200,140.800 293.200 C 140.580 293.200,140.760 293.560,141.200 294.000 C 142.185 294.985,155.738 295.258,156.107 294.300 C 156.257 293.909,154.707 293.825,148.970 293.917 L 141.641 294.034 141.496 291.717 C 141.358 289.502,141.348 289.484,141.276 291.300 M156.400 292.557 C 156.400 292.864,156.631 293.203,156.914 293.312 C 157.221 293.430,157.429 293.205,157.429 292.755 C 157.429 292.340,157.197 292.000,156.914 292.000 C 156.631 292.000,156.400 292.251,156.400 292.557 M153.440 308.865 C 153.733 309.339,156.400 309.283,156.400 308.803 C 156.400 308.584,155.687 308.434,154.817 308.468 C 153.946 308.502,153.326 308.681,153.440 308.865 M150.400 309.531 C 150.400 309.713,150.940 309.782,151.600 309.685 C 152.260 309.588,152.800 309.440,152.800 309.355 C 152.800 309.270,152.260 309.200,151.600 309.200 C 150.940 309.200,150.400 309.349,150.400 309.531 M157.287 309.625 C 157.665 309.845,158.265 310.695,158.621 311.513 C 158.976 312.331,159.432 313.313,159.634 313.695 C 159.835 314.077,160.000 314.664,160.000 315.000 C 160.000 315.593,160.166 316.016,161.138 317.895 C 161.392 318.387,161.600 319.051,161.600 319.371 C 161.600 319.691,161.754 320.048,161.942 320.164 C 162.130 320.281,162.199 319.929,162.094 319.382 C 161.990 318.835,161.746 318.290,161.552 318.170 C 161.359 318.051,161.200 317.513,161.200 316.976 C 161.200 316.439,161.020 316.000,160.800 316.000 C 160.580 316.000,160.400 315.638,160.400 315.195 C 160.400 314.752,160.241 314.077,160.047 313.695 C 159.852 313.313,159.455 312.460,159.164 311.800 C 158.494 310.281,157.603 309.196,157.038 309.212 C 156.797 309.219,156.909 309.405,157.287 309.625 M147.452 310.316 C 147.344 310.490,147.873 310.561,148.628 310.473 C 149.383 310.385,150.000 310.242,150.000 310.156 C 150.000 309.855,147.645 310.003,147.452 310.316 M144.500 311.470 C 143.583 312.109,143.252 313.600,144.027 313.600 C 144.262 313.600,144.350 313.272,144.222 312.870 C 144.000 312.170,144.636 311.642,146.400 311.061 C 146.803 310.928,146.737 310.860,146.200 310.853 C 145.760 310.847,144.995 311.124,144.500 311.470 M144.400 314.910 C 144.400 315.483,144.587 316.068,144.816 316.210 C 145.089 316.379,145.138 316.077,144.960 315.334 C 144.592 313.801,144.400 313.656,144.400 314.910 M166.794 334.418 C 166.247 334.839,165.980 335.180,166.200 335.178 C 166.729 335.173,168.191 334.058,167.965 333.831 C 167.868 333.734,167.341 333.998,166.794 334.418 M155.164 339.133 C 156.067 340.820,156.699 340.978,158.613 339.993 C 159.599 339.486,160.326 338.992,160.229 338.895 C 160.132 338.799,159.329 339.126,158.444 339.623 C 156.768 340.565,155.600 340.289,155.600 338.951 C 155.600 338.648,155.414 338.400,155.186 338.400 C 154.908 338.400,154.901 338.642,155.164 339.133 M176.900 345.798 C 176.130 346.673,176.308 347.007,177.143 346.252 C 177.811 345.647,177.937 345.642,178.400 346.200 C 178.683 346.540,179.010 346.723,179.128 346.606 C 179.331 346.402,178.022 345.223,177.600 345.228 C 177.490 345.229,177.175 345.486,176.900 345.798 M173.528 348.839 L 171.400 350.878 173.700 348.990 C 174.965 347.952,176.000 347.035,176.000 346.951 C 176.000 346.566,175.506 346.944,173.528 348.839 M180.571 347.897 C 181.215 348.609,181.830 349.104,181.938 348.996 C 182.045 348.888,182.058 348.755,181.967 348.700 C 181.875 348.645,181.260 348.151,180.600 347.601 L 179.400 346.603 180.571 347.897 M188.906 355.700 C 191.082 357.845,193.043 359.600,193.262 359.600 C 193.482 359.600,193.063 359.108,192.331 358.506 C 191.599 357.905,190.904 357.320,190.786 357.206 C 190.669 357.093,189.307 355.830,187.761 354.400 C 186.214 352.970,186.729 353.555,188.906 355.700 M168.271 353.526 C 166.886 354.972,166.835 354.813,169.468 357.277 C 170.715 358.445,172.487 360.120,173.407 361.000 C 174.326 361.880,176.335 363.770,177.870 365.200 C 179.405 366.630,177.715 364.891,174.113 361.336 L 167.564 354.873 168.624 353.812 C 169.208 353.229,169.608 352.674,169.513 352.580 C 169.419 352.486,168.860 352.911,168.271 353.526 M196.383 362.500 C 198.041 364.266,198.400 364.584,198.400 364.283 C 198.400 364.219,197.545 363.364,196.500 362.383 L 194.600 360.600 196.383 362.500 M194.700 370.177 C 193.655 371.368,192.800 372.442,192.800 372.563 C 192.800 372.782,195.348 370.018,196.360 368.700 C 197.473 367.251,196.530 368.090,194.700 370.177 M183.622 370.700 C 183.634 370.865,184.219 371.438,184.922 371.974 L 186.200 372.949 185.025 371.674 C 183.803 370.349,183.585 370.197,183.622 370.700 M186.400 373.180 C 186.400 373.411,186.535 373.601,186.700 373.602 C 186.865 373.603,187.596 374.162,188.324 374.845 C 189.052 375.527,189.723 376.011,189.814 375.919 C 189.906 375.828,189.175 375.080,188.190 374.257 C 187.206 373.434,186.400 372.949,186.400 373.180 " stroke="none" fill="#373737" fill-rule="evenodd"></path><path id="path4" d="M221.400 28.400 C 222.483 29.500,223.460 30.400,223.570 30.400 C 223.680 30.400,222.883 29.500,221.800 28.400 C 220.717 27.300,219.740 26.400,219.630 26.400 C 219.520 26.400,220.317 27.300,221.400 28.400 M202.800 30.655 C 202.800 30.868,203.475 31.663,204.300 32.422 L 205.800 33.800 204.400 32.204 C 203.630 31.327,202.955 30.532,202.900 30.438 C 202.845 30.344,202.800 30.441,202.800 30.655 M235.600 79.376 C 235.600 79.913,235.747 80.444,235.928 80.555 C 236.108 80.667,236.177 80.227,236.082 79.579 C 235.872 78.149,235.600 78.035,235.600 79.376 M236.400 108.600 C 236.400 109.370,236.470 110.000,236.556 110.000 C 236.642 110.000,236.786 109.370,236.876 108.600 C 236.966 107.830,236.896 107.200,236.720 107.200 C 236.544 107.200,236.400 107.830,236.400 108.600 M235.600 111.600 C 235.600 112.260,235.670 112.800,235.755 112.800 C 235.840 112.800,235.988 112.260,236.085 111.600 C 236.182 110.940,236.113 110.400,235.931 110.400 C 235.749 110.400,235.600 110.940,235.600 111.600 M146.406 261.476 C 146.396 262.231,147.130 262.484,147.897 261.991 C 148.543 261.576,148.538 261.559,147.832 261.783 C 147.397 261.921,146.923 261.804,146.738 261.514 C 146.506 261.148,146.410 261.137,146.406 261.476 M141.467 287.467 C 141.320 287.613,141.215 288.198,141.234 288.767 C 141.268 289.781,141.275 289.779,141.621 288.620 C 141.985 287.403,141.931 287.002,141.467 287.467 " stroke="none" fill="#4c4c4c" fill-rule="evenodd"></path></g></svg>