<svg id="svg" version="1.1" xmlns="http://www.w3.org/2000/svg" xmlns:xlink="http://www.w3.org/1999/xlink" width="400" height="400" viewBox="0, 0, 400,400"><g id="svgg"><path id="path0" d="M184.921 20.781 C 184.758 21.405,184.306 21.585,182.658 21.681 C 180.727 21.793,180.607 21.862,180.710 22.800 C 180.843 24.011,179.428 24.800,177.120 24.800 C 175.874 24.800,175.600 24.942,175.600 25.588 C 175.600 26.183,175.136 26.511,173.700 26.929 C 172.415 27.304,171.754 27.728,171.657 28.241 C 171.441 29.386,170.905 29.879,169.591 30.142 C 168.657 30.329,168.400 30.592,168.400 31.363 C 168.400 32.139,168.167 32.374,167.300 32.473 C 166.487 32.567,166.164 32.852,166.064 33.565 C 165.900 34.722,165.099 35.600,164.208 35.600 C 163.849 35.600,163.375 36.126,163.148 36.776 C 162.892 37.512,162.413 37.999,161.869 38.076 C 161.238 38.166,160.899 38.611,160.629 39.700 C 160.336 40.888,160.069 41.200,159.344 41.200 C 158.168 41.200,157.600 42.288,157.600 44.542 C 157.600 46.211,157.516 46.355,156.400 46.600 C 155.219 46.859,155.200 46.903,155.200 49.432 C 155.200 50.844,155.032 52.000,154.827 52.000 C 154.621 52.000,154.396 52.481,154.327 53.069 C 154.191 54.216,153.200 54.888,153.200 53.833 C 153.200 52.882,152.528 53.072,152.252 54.100 C 151.872 55.519,151.972 85.737,152.359 86.348 C 152.642 86.794,152.780 86.765,153.101 86.192 C 153.608 85.285,154.512 85.817,154.189 86.834 C 154.020 87.366,154.137 87.600,154.573 87.600 C 155.070 87.600,155.200 88.080,155.200 89.920 C 155.200 92.325,155.648 93.200,156.880 93.200 C 157.467 93.200,157.600 93.534,157.600 95.014 C 157.600 97.054,158.529 98.800,159.614 98.800 C 160.091 98.800,160.426 99.207,160.600 100.000 C 160.804 100.930,161.081 101.200,161.832 101.200 C 162.632 101.200,162.800 101.400,162.800 102.351 C 162.800 103.594,163.340 104.229,164.597 104.462 C 165.035 104.543,165.621 105.083,165.898 105.662 C 166.175 106.240,166.852 106.827,167.401 106.965 C 168.187 107.162,168.400 107.470,168.400 108.408 C 168.400 109.532,168.491 109.600,170.000 109.600 C 171.511 109.600,171.600 109.667,171.600 110.800 C 171.600 111.867,171.733 112.000,172.800 112.000 C 173.460 112.000,174.000 112.180,174.000 112.400 C 174.000 112.620,174.367 112.800,174.815 112.800 C 175.466 112.800,175.607 113.022,175.515 113.900 C 175.403 114.974,175.454 115.003,177.700 115.120 C 179.578 115.218,180.000 115.368,180.000 115.940 C 180.000 117.073,180.846 117.600,182.666 117.600 C 184.890 117.600,187.359 118.727,186.748 119.463 C 185.815 120.587,188.406 120.800,203.000 120.800 C 217.868 120.800,219.686 120.636,219.354 119.322 C 219.117 118.381,220.791 117.600,223.047 117.600 C 225.340 117.600,226.000 117.282,226.000 116.177 C 226.000 115.317,226.189 115.230,228.300 115.120 C 230.386 115.011,230.613 114.910,230.736 114.035 C 230.926 112.693,231.654 112.081,233.242 111.930 C 234.387 111.820,234.620 111.628,234.727 110.700 C 234.836 109.747,235.030 109.600,236.177 109.600 C 237.327 109.600,237.531 109.443,237.740 108.400 C 237.926 107.470,238.194 107.200,238.932 107.200 C 239.661 107.200,239.971 106.899,240.253 105.916 C 240.504 105.040,240.936 104.553,241.611 104.387 C 242.343 104.206,242.574 103.909,242.500 103.243 C 242.368 102.066,243.402 101.055,244.456 101.331 C 245.140 101.509,245.254 101.392,245.112 100.652 C 244.931 99.704,245.610 98.800,246.503 98.800 C 247.549 98.800,248.000 97.812,248.000 95.520 C 248.000 93.215,248.008 93.200,249.186 93.200 C 250.648 93.200,251.200 92.289,251.200 89.873 C 251.200 88.430,251.351 88.054,252.000 87.884 C 252.785 87.679,252.800 87.338,252.800 70.070 C 252.800 52.196,252.745 51.200,251.757 51.200 C 251.366 51.200,251.200 50.681,251.200 49.462 C 251.200 47.630,250.564 46.727,248.919 46.226 C 248.167 45.997,248.021 45.627,247.919 43.679 C 247.811 41.615,247.709 41.387,246.835 41.264 C 245.536 41.080,244.800 40.272,244.800 39.029 C 244.800 38.152,244.622 38.000,243.600 38.000 C 242.533 38.000,242.400 37.867,242.400 36.800 C 242.400 35.902,242.215 35.600,241.664 35.600 C 240.948 35.600,240.000 34.124,240.000 33.008 C 240.000 32.701,239.511 32.397,238.903 32.327 C 238.171 32.242,237.631 31.834,237.281 31.100 C 236.930 30.363,236.447 30.000,235.821 30.000 C 234.859 30.000,234.217 29.100,234.356 27.946 C 234.414 27.462,233.939 27.202,232.517 26.942 C 230.988 26.661,230.600 26.429,230.600 25.795 C 230.600 25.115,230.288 24.982,228.449 24.877 C 226.059 24.741,225.149 24.120,225.300 22.728 C 225.393 21.867,225.237 21.791,223.142 21.681 C 221.294 21.584,220.846 21.420,220.679 20.781 C 220.359 19.557,185.241 19.556,184.921 20.781 M212.200 42.800 C 212.459 43.981,212.503 44.000,215.032 44.000 C 217.427 44.000,217.600 44.061,217.606 44.900 C 217.615 46.203,218.034 46.664,219.500 46.982 C 220.733 47.249,220.976 47.561,220.832 48.689 C 220.798 48.957,221.270 49.303,221.881 49.456 C 223.209 49.789,224.000 50.508,224.000 51.381 C 224.000 51.732,224.432 52.184,224.959 52.384 C 225.736 52.680,225.971 53.138,226.200 54.800 C 226.429 56.462,226.664 56.920,227.441 57.216 C 228.319 57.549,228.402 57.809,228.423 60.290 C 228.461 64.695,228.854 66.224,229.911 66.075 C 230.743 65.958,230.800 66.100,230.795 68.275 C 230.787 71.447,230.476 72.478,229.607 72.202 C 228.809 71.949,228.410 74.160,228.403 78.872 C 228.400 81.338,228.330 81.554,227.500 81.672 C 226.888 81.759,226.557 82.120,226.466 82.800 C 226.393 83.350,226.168 83.971,225.966 84.180 C 225.765 84.389,225.600 84.897,225.600 85.309 C 225.600 86.221,224.683 87.200,223.829 87.200 C 223.404 87.200,223.200 87.570,223.200 88.339 C 223.200 89.297,222.945 89.579,221.600 90.107 C 220.487 90.544,220.000 90.976,220.000 91.525 C 220.000 92.151,219.608 92.385,218.100 92.659 C 216.565 92.939,216.175 93.177,216.072 93.902 C 215.926 94.928,215.249 95.149,211.800 95.297 C 209.653 95.389,209.387 95.495,209.272 96.300 C 209.192 96.867,208.868 97.200,208.396 97.200 C 207.984 97.200,207.536 97.380,207.400 97.600 C 207.076 98.124,199.324 98.124,199.000 97.600 C 198.864 97.380,198.416 97.200,198.004 97.200 C 197.532 97.200,197.208 96.867,197.128 96.300 C 197.011 95.479,196.735 95.382,194.000 95.200 C 190.673 94.978,189.721 94.618,190.377 93.828 C 190.907 93.189,190.518 92.800,189.352 92.800 C 188.185 92.800,186.400 91.994,186.400 91.467 C 186.400 90.697,185.072 89.600,184.138 89.600 C 183.392 89.600,183.200 89.385,183.200 88.547 C 183.200 87.968,182.873 87.203,182.472 86.847 C 182.072 86.491,181.628 85.885,181.485 85.500 C 181.342 85.115,180.949 84.800,180.613 84.800 C 180.164 84.800,180.000 84.369,180.000 83.187 C 180.000 81.942,179.818 81.507,179.204 81.280 C 178.213 80.913,176.683 78.029,177.162 77.431 C 177.549 76.947,177.407 62.569,177.004 61.540 C 176.862 61.178,176.938 60.762,177.173 60.617 C 177.408 60.472,177.601 59.868,177.603 59.276 C 177.604 58.501,177.940 58.010,178.803 57.519 C 179.879 56.906,180.000 56.638,180.000 54.858 C 180.000 53.029,180.089 52.847,181.170 52.470 C 182.033 52.170,182.375 51.765,182.470 50.933 C 182.574 50.032,182.842 49.762,183.800 49.597 C 184.634 49.453,185.001 49.160,185.002 48.637 C 185.004 47.820,185.634 47.365,187.215 47.038 C 187.925 46.891,188.382 46.404,188.741 45.414 C 189.248 44.012,189.271 44.000,191.626 44.000 C 193.997 44.000,194.000 43.999,194.000 42.800 L 194.000 41.600 202.968 41.600 L 211.936 41.600 212.200 42.800 M191.680 133.680 C 191.416 133.944,191.200 134.407,191.200 134.709 C 191.200 135.580,190.147 136.400,189.029 136.400 C 188.152 136.400,188.000 136.578,188.000 137.600 C 188.000 138.648,187.858 138.800,186.880 138.800 C 184.903 138.800,184.800 139.200,184.800 146.906 C 184.800 154.431,185.028 155.591,186.514 155.613 C 187.684 155.630,188.675 156.419,189.174 157.733 C 189.533 158.675,189.795 158.800,191.419 158.800 C 193.316 158.800,194.400 159.444,194.400 160.571 C 194.400 161.108,195.098 161.200,199.150 161.200 L 203.900 161.200 204.136 160.020 C 204.361 158.897,204.481 158.835,206.673 158.720 C 208.863 158.606,208.990 158.541,209.327 157.361 C 209.607 156.379,209.985 156.046,211.140 155.761 L 212.600 155.400 212.719 152.921 C 212.821 150.769,212.953 150.406,213.719 150.167 C 215.432 149.633,215.980 145.729,214.400 145.316 C 213.838 145.169,213.600 144.770,213.600 143.977 C 213.600 143.356,213.420 142.736,213.200 142.600 C 212.980 142.464,212.800 141.553,212.800 140.576 C 212.800 138.869,212.753 138.800,211.600 138.800 C 210.533 138.800,210.400 138.667,210.400 137.600 C 210.400 136.472,210.306 136.400,208.843 136.400 C 207.256 136.400,206.800 135.955,206.800 134.410 C 206.800 134.012,206.515 133.576,206.167 133.443 C 204.922 132.965,192.186 133.174,191.680 133.680 M192.082 177.091 C 190.989 177.225,190.805 177.386,191.009 178.028 C 191.325 179.024,190.447 179.898,188.961 180.068 C 188.255 180.148,187.800 180.435,187.800 180.800 C 187.800 181.576,187.016 182.400,186.278 182.400 C 184.958 182.400,184.779 183.416,184.890 190.253 L 185.000 197.000 186.100 197.127 C 187.112 197.243,187.405 197.616,187.226 198.563 C 187.128 199.087,188.051 199.587,189.129 199.594 C 190.349 199.602,191.317 200.602,191.018 201.545 C 190.710 202.513,192.266 202.790,198.044 202.796 C 204.254 202.802,206.000 202.501,206.000 201.426 C 206.000 200.201,206.750 199.600,208.280 199.600 C 209.464 199.600,209.600 199.483,209.600 198.461 C 209.600 197.503,209.855 197.221,211.200 196.693 L 212.800 196.064 212.800 189.865 L 212.800 183.666 211.225 182.933 C 210.096 182.408,209.614 181.916,209.525 181.200 C 209.435 180.480,209.120 180.162,208.400 180.064 C 207.140 179.892,205.963 178.863,206.097 178.051 C 206.271 177.001,197.616 176.408,192.082 177.091 M191.475 221.058 C 191.324 221.210,191.200 221.676,191.200 222.095 C 191.200 223.153,190.247 224.000,189.055 224.000 C 188.259 224.000,188.027 224.226,187.927 225.100 C 187.832 225.926,187.551 226.234,186.800 226.338 C 184.864 226.606,184.800 226.858,184.805 234.149 C 184.812 242.296,184.884 242.667,186.518 243.026 C 187.943 243.339,188.800 244.069,188.800 244.971 C 188.800 245.371,189.155 245.600,189.776 245.600 C 190.313 245.600,190.864 245.780,191.000 246.000 C 191.136 246.220,191.765 246.400,192.397 246.400 C 193.354 246.400,193.568 246.584,193.673 247.500 L 193.800 248.600 199.400 248.600 L 205.000 248.600 205.127 247.500 C 205.226 246.636,205.462 246.400,206.227 246.400 C 206.762 246.400,207.200 246.220,207.200 246.000 C 207.200 245.780,207.740 245.600,208.400 245.600 C 209.461 245.600,209.600 245.464,209.600 244.424 C 209.600 243.354,209.735 243.237,211.100 243.124 L 212.600 243.000 212.723 240.849 C 212.838 238.828,213.445 237.600,214.329 237.600 C 215.907 237.600,215.451 229.749,213.859 229.522 C 213.162 229.423,212.962 229.060,212.800 227.600 C 212.666 226.391,212.403 225.782,212.000 225.746 C 211.670 225.717,211.175 225.672,210.900 225.646 C 210.625 225.621,210.400 225.240,210.400 224.800 C 210.400 224.207,210.133 224.000,209.371 224.000 C 208.130 224.000,207.104 223.062,207.044 221.873 C 207.000 220.993,192.309 220.224,191.475 221.058 M184.316 262.228 C 182.870 263.988,182.358 264.201,179.091 264.400 C 175.855 264.597,175.798 264.618,175.673 265.700 C 175.559 266.697,175.390 266.804,173.873 266.840 C 171.448 266.898,170.224 267.331,170.059 268.189 C 169.838 269.339,169.055 269.927,167.558 270.070 C 166.413 270.180,166.180 270.372,166.073 271.300 C 165.963 272.261,165.774 272.400,164.581 272.400 C 163.421 272.400,163.176 272.566,162.952 273.500 C 162.584 275.042,162.052 275.600,160.951 275.600 C 160.259 275.600,160.000 275.823,160.000 276.421 C 160.000 276.973,159.608 277.378,158.800 277.660 C 157.790 278.012,157.600 278.290,157.600 279.413 C 157.600 280.571,157.455 280.764,156.500 280.873 C 155.636 280.973,155.373 281.236,155.274 282.099 C 155.184 282.878,154.861 283.270,154.164 283.445 C 152.783 283.791,152.000 285.096,152.000 287.050 C 152.000 288.548,151.875 288.765,150.800 289.140 C 149.663 289.536,149.600 289.674,149.600 291.752 C 149.600 293.595,149.472 293.987,148.800 294.200 C 147.396 294.645,147.617 327.200,149.024 327.200 C 149.361 327.200,149.599 327.814,149.677 328.884 C 149.781 330.305,149.956 330.605,150.800 330.801 C 151.653 331.000,151.833 331.318,152.025 332.972 C 152.251 334.923,153.379 336.400,154.644 336.400 C 155.013 336.400,155.200 336.872,155.200 337.800 C 155.200 338.788,155.380 339.200,155.810 339.200 C 156.145 339.200,156.593 339.655,156.804 340.210 C 157.015 340.766,157.461 341.325,157.794 341.453 C 158.142 341.587,158.400 342.178,158.400 342.843 C 158.400 343.808,158.565 344.000,159.392 344.000 C 160.145 344.000,160.448 344.266,160.648 345.100 C 161.014 346.633,161.547 347.200,162.622 347.200 C 163.334 347.200,163.576 347.454,163.673 348.300 C 163.773 349.164,164.036 349.427,164.900 349.527 C 165.829 349.633,166.000 349.841,166.000 350.861 C 166.000 351.836,166.232 352.157,167.200 352.522 C 168.123 352.871,168.400 353.223,168.400 354.049 C 168.400 354.881,168.669 355.215,169.600 355.540 C 170.260 355.770,170.800 356.210,170.800 356.517 C 170.800 356.825,171.160 357.402,171.600 357.800 C 172.040 358.198,172.400 358.862,172.400 359.275 C 172.400 359.687,172.715 360.144,173.100 360.290 C 174.083 360.662,174.689 361.328,174.862 362.225 C 174.943 362.648,175.503 363.230,176.105 363.519 C 176.752 363.829,177.200 364.367,177.200 364.834 C 177.200 365.269,177.515 365.722,177.900 365.841 C 179.341 366.287,179.800 366.718,179.808 367.633 C 179.814 368.348,180.127 368.664,181.108 368.945 C 182.104 369.231,182.400 369.537,182.400 370.279 C 182.400 370.989,182.715 371.351,183.600 371.660 C 184.562 371.995,184.800 372.309,184.800 373.239 C 184.800 374.028,185.002 374.400,185.429 374.400 C 186.406 374.400,187.240 375.400,186.707 375.933 C 186.386 376.254,186.474 376.453,187.033 376.665 C 188.113 377.074,188.800 377.830,188.800 378.609 C 188.800 378.975,189.160 379.369,189.600 379.484 C 190.040 379.599,190.400 379.942,190.400 380.247 C 190.400 380.682,191.274 380.799,194.500 380.797 C 198.961 380.793,199.600 380.408,199.600 377.720 C 199.600 376.964,199.814 376.800,200.800 376.800 C 201.867 376.800,202.000 376.667,202.000 375.600 C 202.000 374.711,202.187 374.400,202.720 374.400 C 203.706 374.400,204.400 373.623,204.400 372.520 C 204.400 371.859,204.631 371.600,205.220 371.600 C 205.777 371.600,206.225 371.158,206.614 370.227 C 207.043 369.202,207.468 368.822,208.294 368.727 C 209.212 368.622,209.421 368.383,209.524 367.324 C 209.625 366.275,209.838 366.027,210.724 365.924 C 211.495 365.835,211.812 365.561,211.843 364.957 C 211.866 364.494,212.271 363.729,212.743 363.257 C 213.214 362.786,213.600 362.130,213.600 361.800 C 213.600 361.470,213.842 361.200,214.138 361.200 C 214.935 361.200,216.149 359.739,215.623 359.414 C 215.014 359.038,216.029 358.107,217.235 357.936 C 217.981 357.831,218.227 357.523,218.319 356.580 C 218.410 355.650,218.718 355.255,219.619 354.915 C 220.403 354.620,220.800 354.191,220.800 353.642 C 220.800 353.111,221.132 352.732,221.729 352.582 C 222.320 352.434,222.838 351.849,223.155 350.974 C 223.491 350.045,223.906 349.600,224.436 349.600 C 224.919 349.600,225.377 349.187,225.629 348.524 C 225.854 347.933,226.389 347.203,226.819 346.902 C 227.248 346.601,227.600 346.005,227.600 345.577 C 227.600 345.150,227.864 344.800,228.186 344.800 C 228.821 344.800,229.719 343.453,229.338 343.072 C 229.001 342.735,230.124 341.712,231.021 341.539 C 231.526 341.442,231.787 341.055,231.792 340.396 C 231.798 339.656,232.141 339.250,233.125 338.817 C 233.989 338.437,234.393 338.016,234.285 337.605 C 234.094 336.871,234.765 336.142,235.822 335.939 C 236.649 335.780,237.100 334.554,237.160 332.300 C 237.186 331.341,237.391 330.800,237.730 330.800 C 239.099 330.800,239.922 329.048,240.208 325.522 C 240.464 322.380,240.574 322.032,241.345 321.922 C 242.631 321.738,242.913 298.859,241.634 298.525 C 240.602 298.255,240.477 297.839,240.157 293.606 C 239.886 290.005,239.601 289.380,238.832 290.700 C 238.475 291.314,238.423 291.320,238.412 290.749 C 238.405 290.391,238.130 289.874,237.800 289.600 C 237.470 289.326,237.200 288.516,237.200 287.800 C 237.200 287.084,236.930 286.274,236.600 286.000 C 236.270 285.726,236.000 285.636,236.000 285.800 C 236.000 285.964,235.722 285.867,235.382 285.585 C 235.042 285.303,234.866 284.805,234.991 284.478 C 235.117 284.151,234.916 283.549,234.545 283.140 C 234.175 282.730,233.989 282.278,234.132 282.134 C 234.586 281.681,233.541 280.800,232.551 280.800 C 231.825 280.800,231.600 280.582,231.600 279.880 C 231.600 278.849,230.919 278.000,230.091 278.000 C 229.179 278.000,228.381 276.979,228.893 276.467 C 229.382 275.978,228.935 275.727,227.200 275.520 C 226.479 275.433,226.161 275.121,226.062 274.400 C 225.872 273.031,225.334 272.470,224.071 272.324 C 223.238 272.227,222.972 271.956,222.873 271.100 C 222.761 270.125,222.580 269.999,221.273 269.987 C 219.454 269.972,218.224 269.118,218.500 268.063 C 218.709 267.262,217.377 266.815,214.749 266.804 C 214.171 266.802,213.474 266.530,213.200 266.200 C 212.803 265.721,212.803 265.600,213.200 265.600 C 213.597 265.600,213.597 265.479,213.200 265.000 C 212.838 264.564,211.867 264.398,209.651 264.391 C 206.479 264.382,205.214 263.851,204.671 262.300 C 204.316 261.288,185.143 261.221,184.316 262.228 M199.751 292.900 C 200.023 293.175,200.364 293.715,200.510 294.100 C 200.703 294.610,201.221 294.800,202.416 294.800 C 204.289 294.800,205.246 295.532,205.100 296.855 C 205.030 297.493,205.240 297.815,205.800 297.927 C 206.944 298.155,207.600 298.782,207.600 299.649 C 207.600 300.133,207.884 300.400,208.400 300.400 C 209.385 300.400,209.285 299.608,209.425 308.464 L 209.543 315.928 208.571 316.171 C 207.938 316.331,207.600 316.701,207.600 317.236 C 207.600 318.212,206.708 319.200,205.829 319.200 C 205.399 319.200,205.200 319.574,205.200 320.379 C 205.200 321.519,205.131 321.562,203.100 321.679 C 201.069 321.796,201.004 321.836,201.129 322.900 C 201.221 323.688,201.079 324.000,200.629 324.000 C 200.283 324.000,200.000 324.180,200.000 324.400 C 200.000 325.260,189.010 324.895,188.207 324.008 C 187.649 323.391,187.593 323.091,187.955 322.654 C 188.574 321.908,187.759 321.600,185.167 321.600 C 183.261 321.600,183.200 321.564,183.200 320.434 C 183.200 319.518,182.939 319.152,181.984 318.734 C 181.010 318.306,180.812 318.020,180.991 317.300 C 181.150 316.663,181.037 316.400,180.608 316.400 C 180.149 316.400,180.000 315.932,180.000 314.489 C 180.000 312.467,179.168 310.800,178.158 310.800 C 177.681 310.800,177.586 310.302,177.681 308.300 C 177.794 305.932,177.853 305.800,178.800 305.800 C 179.756 305.800,179.805 305.682,179.918 303.100 C 180.009 301.037,180.176 300.400,180.628 300.400 C 180.954 300.400,181.394 299.941,181.608 299.380 C 181.823 298.813,182.503 298.183,183.139 297.961 C 184.068 297.637,184.247 297.379,184.094 296.581 C 183.958 295.867,184.083 295.600,184.553 295.600 C 184.909 295.600,185.200 295.420,185.200 295.200 C 185.200 294.980,185.839 294.800,186.621 294.800 C 187.840 294.800,188.101 294.630,188.460 293.600 L 188.878 292.400 194.068 292.400 C 197.689 292.400,199.406 292.551,199.751 292.900 " stroke="none" fill="#040404" fill-rule="evenodd"></path><path id="path1" d="" stroke="none" fill="#080404" fill-rule="evenodd"></path><path id="path2" d="" stroke="none" fill="#080404" fill-rule="evenodd"></path><path id="path3" d="" stroke="none" fill="#080404" fill-rule="evenodd"></path><path id="path4" d="" stroke="none" fill="#080404" fill-rule="evenodd"></path></g></svg>