<svg id="svg" version="1.1" xmlns="http://www.w3.org/2000/svg" xmlns:xlink="http://www.w3.org/1999/xlink" width="400" height="400" viewBox="0, 0, 400,400"><g id="svgg"><path id="path0" d="M76.260 0.597 C 75.928 0.929,75.546 1.200,75.410 1.200 C 74.902 1.200,73.200 3.188,73.200 3.782 C 73.200 4.122,73.020 4.400,72.800 4.400 C 72.580 4.400,72.400 5.120,72.400 6.000 C 72.400 6.880,72.220 7.600,72.000 7.600 C 71.739 7.600,71.600 14.733,71.600 28.200 C 71.600 41.667,71.739 48.800,72.000 48.800 C 72.220 48.800,72.400 49.340,72.400 50.000 C 72.400 50.660,72.580 51.200,72.800 51.200 C 73.020 51.200,73.200 51.470,73.200 51.799 C 73.200 52.129,73.830 53.066,74.600 53.882 C 75.370 54.699,76.000 55.509,76.000 55.683 C 76.000 55.858,76.540 56.000,77.200 56.000 C 77.860 56.000,78.400 56.180,78.400 56.400 C 78.400 56.663,87.400 56.800,104.600 56.800 C 121.800 56.800,130.800 56.937,130.800 57.200 C 130.800 57.446,132.800 57.600,136.000 57.600 C 138.860 57.600,141.200 57.752,141.200 57.938 C 141.200 58.125,143.585 58.397,146.500 58.544 C 149.415 58.692,151.860 58.989,151.933 59.206 C 152.007 59.423,152.952 59.600,154.033 59.600 C 155.115 59.600,156.000 59.780,156.000 60.000 C 156.000 60.220,156.810 60.400,157.800 60.400 C 158.790 60.400,159.600 60.580,159.600 60.800 C 159.600 61.020,160.140 61.200,160.800 61.200 C 161.460 61.200,162.000 61.380,162.000 61.600 C 162.000 61.820,162.540 62.000,163.200 62.000 C 163.860 62.000,164.400 62.180,164.400 62.400 C 164.400 62.620,164.940 62.800,165.600 62.800 C 166.260 62.800,166.800 62.980,166.800 63.200 C 166.800 63.420,167.340 63.600,168.000 63.600 C 168.660 63.600,169.200 63.780,169.200 64.000 C 169.200 64.220,169.740 64.400,170.400 64.400 C 171.060 64.400,171.600 64.580,171.600 64.800 C 171.600 65.020,171.960 65.200,172.400 65.200 C 172.840 65.200,173.200 65.380,173.200 65.600 C 173.200 65.820,173.548 66.000,173.973 66.000 C 174.398 66.000,174.860 66.360,175.000 66.800 C 175.140 67.240,175.602 67.600,176.027 67.600 C 176.452 67.600,176.800 67.780,176.800 68.000 C 176.800 68.220,177.160 68.400,177.600 68.400 C 178.040 68.400,178.400 68.580,178.400 68.800 C 178.400 69.020,178.760 69.200,179.200 69.200 C 179.640 69.200,180.000 69.380,180.000 69.600 C 180.000 69.820,180.320 70.000,180.712 70.000 C 181.103 70.000,181.683 70.360,182.000 70.800 C 182.317 71.240,182.821 71.600,183.120 71.600 C 183.418 71.600,184.354 72.320,185.200 73.200 C 186.046 74.080,187.007 74.800,187.336 74.800 C 188.040 74.800,191.200 77.732,191.200 78.386 C 191.200 78.852,191.582 79.377,193.100 81.001 C 193.595 81.530,194.000 82.202,194.000 82.494 C 194.000 82.785,194.360 83.283,194.800 83.600 C 195.240 83.917,195.600 84.457,195.600 84.800 C 195.600 85.143,195.960 85.683,196.400 86.000 C 196.840 86.317,197.200 86.717,197.200 86.888 C 197.200 87.060,170.650 87.200,138.200 87.200 C 99.133 87.200,79.200 87.335,79.200 87.600 C 79.200 87.820,78.660 88.000,78.000 88.000 C 77.340 88.000,76.800 88.180,76.800 88.400 C 76.800 88.620,76.440 88.800,76.000 88.800 C 75.560 88.800,75.200 88.972,75.200 89.182 C 75.200 89.392,74.750 90.014,74.200 90.564 C 73.650 91.114,73.200 91.752,73.200 91.982 C 73.200 92.212,73.020 92.400,72.800 92.400 C 72.580 92.400,72.400 93.120,72.400 94.000 C 72.400 94.880,72.220 95.600,72.000 95.600 C 71.740 95.600,71.600 101.200,71.600 111.600 C 71.600 122.000,71.740 127.600,72.000 127.600 C 72.220 127.600,72.400 128.320,72.400 129.200 C 72.400 130.080,72.580 130.800,72.800 130.800 C 73.020 130.800,73.200 131.078,73.200 131.418 C 73.200 131.758,73.650 132.486,74.200 133.036 C 74.750 133.586,75.200 134.208,75.200 134.418 C 75.200 134.628,75.560 134.800,76.000 134.800 C 76.440 134.800,76.800 134.980,76.800 135.200 C 76.800 135.420,77.700 135.600,78.800 135.600 C 79.900 135.600,80.800 135.780,80.800 136.000 C 80.800 136.265,101.133 136.400,141.000 136.400 L 201.200 136.400 201.200 137.600 C 201.200 138.260,201.020 138.800,200.800 138.800 C 200.580 138.800,200.400 139.340,200.400 140.000 C 200.400 140.660,200.220 141.200,200.000 141.200 C 199.780 141.200,199.600 141.470,199.600 141.800 C 199.600 142.130,199.420 142.400,199.200 142.400 C 198.980 142.400,198.800 142.760,198.800 143.200 C 198.800 143.640,198.620 144.000,198.400 144.000 C 198.180 144.000,198.000 144.360,198.000 144.800 C 198.000 145.240,197.820 145.600,197.600 145.600 C 197.380 145.600,197.200 145.960,197.200 146.400 C 197.200 146.840,197.020 147.200,196.800 147.200 C 196.580 147.200,196.400 147.520,196.400 147.912 C 196.400 148.303,196.040 148.883,195.600 149.200 C 195.160 149.517,194.800 150.057,194.800 150.400 C 194.800 150.743,194.440 151.283,194.000 151.600 C 193.560 151.917,193.200 152.414,193.200 152.705 C 193.200 153.286,192.840 153.771,190.900 155.808 C 190.185 156.559,189.600 157.449,189.600 157.787 C 189.600 158.124,189.428 158.400,189.218 158.400 C 189.008 158.400,188.386 158.850,187.836 159.400 C 187.286 159.950,186.636 160.400,186.392 160.400 C 186.148 160.400,185.071 161.300,184.000 162.400 C 182.929 163.500,181.842 164.400,181.586 164.400 C 181.330 164.400,180.617 164.940,180.000 165.600 C 179.383 166.260,178.591 166.800,178.240 166.800 C 177.888 166.800,177.600 166.980,177.600 167.200 C 177.600 167.420,177.280 167.600,176.888 167.600 C 176.497 167.600,175.917 167.960,175.600 168.400 C 175.283 168.840,174.793 169.200,174.512 169.200 C 174.230 169.200,174.000 169.380,174.000 169.600 C 174.000 169.820,173.640 170.000,173.200 170.000 C 172.760 170.000,172.400 170.180,172.400 170.400 C 172.400 170.620,172.040 170.800,171.600 170.800 C 171.160 170.800,170.800 170.980,170.800 171.200 C 170.800 171.420,170.440 171.600,170.000 171.600 C 169.560 171.600,169.200 171.780,169.200 172.000 C 169.200 172.220,168.840 172.400,168.400 172.400 C 167.960 172.400,167.600 172.580,167.600 172.800 C 167.600 173.020,167.060 173.200,166.400 173.200 C 165.740 173.200,165.200 173.380,165.200 173.600 C 165.200 173.820,164.840 174.000,164.400 174.000 C 163.960 174.000,163.600 174.159,163.600 174.354 C 163.600 174.549,162.613 174.831,161.406 174.982 C 160.200 175.133,159.109 175.423,158.983 175.628 C 158.856 175.833,158.313 176.000,157.776 176.000 C 157.239 176.000,156.800 176.180,156.800 176.400 C 156.800 176.620,156.260 176.800,155.600 176.800 C 154.940 176.800,154.400 176.980,154.400 177.200 C 154.400 177.420,153.500 177.600,152.400 177.600 C 151.300 177.600,150.400 177.780,150.400 178.000 C 150.400 178.220,149.680 178.400,148.800 178.400 C 147.920 178.400,147.200 178.580,147.200 178.800 C 147.200 179.020,146.300 179.200,145.200 179.200 C 144.100 179.200,143.200 179.380,143.200 179.600 C 143.200 179.820,142.210 180.000,141.000 180.000 C 139.790 180.000,138.800 180.180,138.800 180.400 C 138.800 180.637,137.333 180.800,135.200 180.800 C 133.067 180.800,131.600 180.963,131.600 181.200 C 131.600 181.448,129.400 181.600,125.800 181.600 C 122.200 181.600,120.000 181.752,120.000 182.000 C 120.000 182.262,112.667 182.400,98.800 182.400 C 84.933 182.400,77.600 182.538,77.600 182.800 C 77.600 183.020,77.280 183.200,76.888 183.200 C 76.497 183.200,75.912 183.586,75.588 184.058 C 75.265 184.530,74.415 185.514,73.700 186.245 C 72.729 187.237,72.400 187.931,72.400 188.987 C 72.400 189.764,72.220 190.400,72.000 190.400 C 71.739 190.400,71.600 197.267,71.600 210.200 C 71.600 223.133,71.739 230.000,72.000 230.000 C 72.220 230.000,72.400 230.540,72.400 231.200 C 72.400 231.860,72.580 232.400,72.800 232.400 C 73.020 232.400,73.200 232.678,73.200 233.018 C 73.200 233.358,73.650 234.086,74.200 234.636 C 74.750 235.186,75.200 235.908,75.200 236.240 C 75.200 236.806,77.294 238.958,81.971 243.200 C 83.063 244.190,83.966 245.227,83.978 245.505 C 83.990 245.782,85.890 247.899,88.200 250.209 C 90.510 252.519,92.404 254.722,92.409 255.105 C 92.414 255.487,93.160 256.430,94.066 257.200 C 96.917 259.621,102.000 264.747,102.000 265.200 C 102.000 265.439,103.440 267.059,105.200 268.800 C 106.960 270.541,108.400 272.198,108.399 272.483 C 108.399 272.767,109.749 274.287,111.399 275.860 C 113.050 277.433,114.400 278.926,114.400 279.177 C 114.400 279.429,115.840 281.059,117.600 282.800 C 119.360 284.541,120.800 286.160,120.800 286.397 C 120.800 286.634,121.970 287.992,123.400 289.415 C 124.830 290.838,126.000 292.189,126.000 292.418 C 126.000 292.647,127.440 294.259,129.200 296.000 C 130.960 297.741,132.400 299.362,132.400 299.602 C 132.400 299.842,133.660 301.281,135.200 302.800 C 136.740 304.319,138.005 305.795,138.012 306.081 C 138.019 306.366,138.570 307.050,139.237 307.600 C 141.572 309.524,143.200 311.335,143.200 312.005 C 143.200 312.247,144.280 313.504,145.600 314.800 C 146.920 316.096,148.000 317.356,148.000 317.600 C 148.000 317.844,149.080 319.104,150.400 320.400 C 151.720 321.696,152.800 322.996,152.800 323.290 C 152.800 323.583,153.182 324.088,153.648 324.412 C 155.135 325.443,157.600 327.921,157.600 328.386 C 157.600 328.912,158.013 329.437,160.300 331.813 C 161.235 332.784,162.000 333.774,162.000 334.012 C 162.000 334.250,163.080 335.504,164.400 336.800 C 165.720 338.096,166.800 339.396,166.800 339.690 C 166.800 339.983,167.183 340.488,167.651 340.812 C 169.115 341.823,172.400 345.127,172.400 345.587 C 172.400 345.829,172.985 346.641,173.700 347.392 C 175.588 349.374,176.000 349.914,176.000 350.405 C 176.000 350.647,177.080 351.904,178.400 353.200 C 179.720 354.496,180.800 355.763,180.800 356.017 C 180.800 356.487,182.429 358.124,183.956 359.188 C 184.420 359.512,184.800 360.019,184.800 360.314 C 184.800 360.610,185.700 361.729,186.800 362.800 C 187.900 363.871,188.800 364.944,188.800 365.185 C 188.800 365.425,189.565 366.416,190.500 367.387 C 192.783 369.759,193.200 370.288,193.200 370.809 C 193.200 371.053,194.100 372.129,195.200 373.200 C 196.300 374.271,197.200 375.261,197.200 375.400 C 197.200 375.539,198.100 376.529,199.200 377.600 C 200.300 378.671,201.200 379.750,201.200 379.996 C 201.200 380.243,202.280 381.504,203.600 382.800 C 204.920 384.096,206.000 385.343,206.000 385.571 C 206.000 385.799,206.810 386.831,207.800 387.865 C 208.790 388.898,209.600 389.927,209.600 390.151 C 209.600 390.376,210.500 391.404,211.600 392.437 C 212.700 393.470,213.600 394.518,213.600 394.766 C 213.600 395.014,214.631 396.248,215.891 397.509 L 218.183 399.800 251.202 399.800 L 284.221 399.800 286.111 397.911 C 287.150 396.871,288.000 395.746,288.000 395.411 C 288.000 395.075,288.180 394.800,288.400 394.800 C 288.620 394.800,288.800 394.080,288.800 393.200 C 288.800 392.320,288.980 391.600,289.200 391.600 C 289.420 391.600,289.600 390.970,289.600 390.200 C 289.600 389.430,289.420 388.800,289.200 388.800 C 288.980 388.800,288.800 388.300,288.800 387.688 C 288.800 387.035,288.470 386.339,288.000 386.000 C 287.560 385.683,287.200 385.181,287.200 384.886 C 287.200 384.590,286.300 383.471,285.200 382.400 C 284.100 381.329,283.200 380.249,283.200 380.000 C 283.200 379.751,282.300 378.671,281.200 377.600 C 280.100 376.529,279.200 375.536,279.200 375.395 C 279.200 375.253,278.480 374.446,277.600 373.600 C 276.720 372.754,276.000 371.861,276.000 371.614 C 276.000 371.114,275.594 370.580,273.700 368.592 C 272.985 367.841,272.400 367.029,272.400 366.787 C 272.400 366.546,271.500 365.471,270.400 364.400 C 269.300 363.329,268.400 362.246,268.400 361.995 C 268.400 361.743,267.680 360.846,266.800 360.000 C 265.920 359.154,265.200 358.347,265.200 358.205 C 265.200 358.064,264.300 357.071,263.200 356.000 C 262.100 354.929,261.200 353.854,261.200 353.613 C 261.200 353.371,260.615 352.559,259.900 351.808 C 258.006 349.820,257.600 349.286,257.600 348.786 C 257.600 348.539,256.880 347.646,256.000 346.800 C 255.120 345.954,254.400 345.051,254.400 344.792 C 254.400 344.314,252.782 342.683,251.244 341.612 C 250.780 341.288,250.400 340.781,250.400 340.486 C 250.400 340.190,249.500 339.071,248.400 338.000 C 247.300 336.929,246.400 335.849,246.400 335.600 C 246.400 335.351,245.500 334.271,244.400 333.200 C 243.300 332.129,242.400 331.062,242.400 330.829 C 242.400 330.365,241.307 328.998,239.300 326.952 C 238.585 326.223,238.000 325.519,238.000 325.387 C 238.000 325.256,237.100 324.271,236.000 323.200 C 234.900 322.129,234.000 321.049,234.000 320.800 C 234.000 320.551,233.100 319.471,232.000 318.400 C 230.900 317.329,230.000 316.250,230.000 316.004 C 230.000 315.757,228.920 314.496,227.600 313.200 C 226.280 311.904,225.200 310.594,225.200 310.287 C 225.200 309.981,224.395 309.026,223.411 308.165 C 222.427 307.304,221.617 306.365,221.611 306.078 C 221.605 305.791,220.520 304.496,219.200 303.200 C 217.880 301.904,216.800 300.643,216.800 300.396 C 216.800 300.150,215.900 299.071,214.800 298.000 C 213.700 296.929,212.800 295.846,212.800 295.595 C 212.800 295.343,212.086 294.476,211.213 293.669 C 210.340 292.861,209.395 291.984,209.113 291.719 C 208.167 290.832,207.600 290.037,207.600 289.598 C 207.600 289.358,206.340 287.919,204.800 286.400 C 203.260 284.881,202.000 283.440,202.000 283.197 C 202.000 282.954,200.920 281.696,199.600 280.400 C 198.280 279.104,197.195 277.809,197.188 277.522 C 197.181 277.235,196.633 276.550,195.970 276.000 C 193.236 273.734,191.600 272.027,191.600 271.439 C 191.600 271.096,190.430 269.645,189.000 268.215 C 187.570 266.785,186.400 265.424,186.400 265.190 C 186.400 264.957,184.960 263.341,183.200 261.600 C 181.440 259.859,180.000 258.333,180.000 258.210 C 180.000 258.086,178.875 256.821,177.500 255.398 C 173.212 250.959,172.400 250.036,172.400 249.596 C 172.400 249.067,165.315 242.000,164.785 242.000 C 164.573 242.000,164.400 241.727,164.400 241.394 C 164.400 241.060,163.095 239.451,161.500 237.819 C 156.729 232.935,156.803 233.200,160.200 233.200 C 161.667 233.200,162.800 233.026,162.800 232.800 C 162.800 232.578,163.867 232.400,165.200 232.400 C 166.533 232.400,167.600 232.222,167.600 232.000 C 167.600 231.780,168.500 231.600,169.600 231.600 C 170.700 231.600,171.600 231.420,171.600 231.200 C 171.600 230.980,172.410 230.800,173.400 230.800 C 174.390 230.800,175.200 230.620,175.200 230.400 C 175.200 230.180,176.100 230.000,177.200 230.000 C 178.300 230.000,179.200 229.820,179.200 229.600 C 179.200 229.380,179.740 229.200,180.400 229.200 C 181.060 229.200,181.600 229.020,181.600 228.800 C 181.600 228.580,182.320 228.400,183.200 228.400 C 184.080 228.400,184.800 228.220,184.800 228.000 C 184.800 227.780,185.520 227.600,186.400 227.600 C 187.280 227.600,188.000 227.420,188.000 227.200 C 188.000 226.980,188.540 226.800,189.200 226.800 C 189.860 226.800,190.400 226.620,190.400 226.400 C 190.400 226.180,190.850 226.000,191.400 226.000 C 191.950 226.000,192.400 225.838,192.400 225.639 C 192.400 225.441,193.480 225.153,194.800 225.000 C 196.120 224.847,197.200 224.559,197.200 224.361 C 197.200 224.162,197.560 224.000,198.000 224.000 C 198.440 224.000,198.800 223.820,198.800 223.600 C 198.800 223.380,199.340 223.200,200.000 223.200 C 200.660 223.200,201.200 223.020,201.200 222.800 C 201.200 222.580,201.560 222.400,202.000 222.400 C 202.440 222.400,202.800 222.220,202.800 222.000 C 202.800 221.780,203.160 221.600,203.600 221.600 C 204.040 221.600,204.400 221.420,204.400 221.200 C 204.400 220.980,204.940 220.800,205.600 220.800 C 206.260 220.800,206.800 220.620,206.800 220.400 C 206.800 220.180,207.160 220.000,207.600 220.000 C 208.040 220.000,208.400 219.820,208.400 219.600 C 208.400 219.380,208.670 219.200,209.000 219.200 C 209.330 219.200,209.600 219.020,209.600 218.800 C 209.600 218.580,209.960 218.400,210.400 218.400 C 210.840 218.400,211.200 218.220,211.200 218.000 C 211.200 217.780,211.560 217.600,212.000 217.600 C 212.440 217.600,212.800 217.420,212.800 217.200 C 212.800 216.980,213.120 216.800,213.512 216.800 C 213.903 216.800,214.483 216.440,214.800 216.000 C 215.117 215.560,215.697 215.200,216.088 215.200 C 216.480 215.200,216.800 215.020,216.800 214.800 C 216.800 214.580,217.160 214.400,217.600 214.400 C 218.040 214.400,218.400 214.220,218.400 214.000 C 218.400 213.780,218.720 213.600,219.112 213.600 C 219.503 213.600,220.083 213.240,220.400 212.800 C 220.717 212.360,221.257 212.000,221.600 212.000 C 221.943 212.000,222.483 211.640,222.800 211.200 C 223.117 210.760,223.685 210.400,224.061 210.400 C 224.438 210.400,224.860 210.040,225.000 209.600 C 225.140 209.160,225.589 208.800,225.998 208.800 C 226.408 208.800,227.013 208.530,227.343 208.200 C 227.673 207.870,228.150 207.600,228.403 207.600 C 228.656 207.600,229.554 206.880,230.400 206.000 C 231.246 205.120,232.141 204.400,232.391 204.400 C 232.640 204.400,233.904 203.320,235.200 202.000 C 236.496 200.680,237.791 199.592,238.078 199.582 C 238.365 199.571,239.230 198.843,240.000 197.963 C 240.770 197.084,242.165 195.567,243.100 194.592 C 244.035 193.618,244.800 192.546,244.800 192.211 C 244.800 191.875,244.968 191.600,245.173 191.600 C 245.721 191.600,249.600 187.732,249.600 187.186 C 249.600 186.930,250.140 186.217,250.800 185.600 C 251.460 184.983,252.000 184.263,252.000 184.000 C 252.000 183.737,252.540 183.017,253.200 182.400 C 253.860 181.783,254.400 180.991,254.400 180.640 C 254.400 180.288,254.580 180.000,254.800 180.000 C 255.020 180.000,255.200 179.680,255.200 179.288 C 255.200 178.897,255.560 178.317,256.000 178.000 C 256.440 177.683,256.800 177.143,256.800 176.800 C 256.800 176.457,257.159 175.918,257.598 175.601 C 258.037 175.285,258.507 174.435,258.643 173.713 C 258.778 172.991,259.049 172.400,259.245 172.400 C 259.440 172.400,259.600 172.040,259.600 171.600 C 259.600 171.160,259.780 170.800,260.000 170.800 C 260.220 170.800,260.400 170.440,260.400 170.000 C 260.400 169.560,260.580 169.200,260.800 169.200 C 261.020 169.200,261.200 168.840,261.200 168.400 C 261.200 167.960,261.380 167.600,261.600 167.600 C 261.820 167.600,262.000 167.240,262.000 166.800 C 262.000 166.360,262.180 166.000,262.400 166.000 C 262.620 166.000,262.800 165.640,262.800 165.200 C 262.800 164.760,262.980 164.400,263.200 164.400 C 263.420 164.400,263.600 163.860,263.600 163.200 C 263.600 162.540,263.780 162.000,264.000 162.000 C 264.220 162.000,264.400 161.640,264.400 161.200 C 264.400 160.760,264.580 160.400,264.800 160.400 C 265.020 160.400,265.200 159.950,265.200 159.400 C 265.200 158.850,265.380 158.400,265.600 158.400 C 265.820 158.400,266.000 158.040,266.000 157.600 C 266.000 157.160,266.180 156.800,266.400 156.800 C 266.620 156.800,266.800 156.260,266.800 155.600 C 266.800 154.940,266.980 154.400,267.200 154.400 C 267.420 154.400,267.600 153.680,267.600 152.800 C 267.600 151.920,267.780 151.200,268.000 151.200 C 268.220 151.200,268.400 150.660,268.400 150.000 C 268.400 149.340,268.580 148.800,268.800 148.800 C 269.020 148.800,269.200 148.080,269.200 147.200 C 269.200 146.320,269.380 145.600,269.600 145.600 C 269.820 145.600,270.000 144.700,270.000 143.600 C 270.000 142.500,270.180 141.600,270.400 141.600 C 270.620 141.600,270.800 140.790,270.800 139.800 C 270.800 138.810,270.980 138.000,271.200 138.000 C 271.420 138.000,271.600 137.640,271.600 137.200 C 271.600 136.409,271.867 136.400,295.400 136.400 C 311.000 136.400,319.200 136.262,319.200 136.000 C 319.200 135.780,320.100 135.600,321.200 135.600 C 322.300 135.600,323.200 135.420,323.200 135.200 C 323.200 134.980,323.560 134.800,324.000 134.800 C 324.440 134.800,324.800 134.628,324.800 134.418 C 324.800 134.208,325.250 133.586,325.800 133.036 C 326.350 132.486,326.800 131.758,326.800 131.418 C 326.800 131.078,326.980 130.800,327.200 130.800 C 327.420 130.800,327.600 130.080,327.600 129.200 C 327.600 128.320,327.780 127.600,328.000 127.600 C 328.260 127.600,328.400 121.867,328.400 111.200 C 328.400 100.533,328.260 94.800,328.000 94.800 C 327.780 94.800,327.600 94.260,327.600 93.600 C 327.600 92.940,327.420 92.400,327.200 92.400 C 326.980 92.400,326.800 92.212,326.800 91.982 C 326.800 91.752,326.350 91.114,325.800 90.564 C 325.250 90.014,324.800 89.392,324.800 89.182 C 324.800 88.972,324.440 88.800,324.000 88.800 C 323.560 88.800,323.200 88.620,323.200 88.400 C 323.200 88.180,322.660 88.000,322.000 88.000 C 321.340 88.000,320.800 87.820,320.800 87.600 C 320.800 87.338,312.257 87.200,295.971 87.200 C 268.545 87.200,270.000 87.344,270.000 84.629 C 270.000 83.843,269.820 83.200,269.600 83.200 C 269.380 83.200,269.200 82.480,269.200 81.600 C 269.200 80.720,269.020 80.000,268.800 80.000 C 268.580 80.000,268.400 79.280,268.400 78.400 C 268.400 77.520,268.220 76.800,268.000 76.800 C 267.780 76.800,267.600 76.350,267.600 75.800 C 267.600 75.250,267.420 74.800,267.200 74.800 C 266.980 74.800,266.800 74.260,266.800 73.600 C 266.800 72.940,266.620 72.400,266.400 72.400 C 266.180 72.400,266.000 72.040,266.000 71.600 C 266.000 71.160,265.820 70.800,265.600 70.800 C 265.380 70.800,265.200 70.260,265.200 69.600 C 265.200 68.940,265.020 68.400,264.800 68.400 C 264.580 68.400,264.400 67.860,264.400 67.200 C 264.400 66.540,264.220 66.000,264.000 66.000 C 263.780 66.000,263.600 65.640,263.600 65.200 C 263.600 64.760,263.420 64.400,263.200 64.400 C 262.980 64.400,262.800 64.040,262.800 63.600 C 262.800 63.160,262.620 62.800,262.400 62.800 C 262.180 62.800,262.000 62.440,262.000 62.000 C 262.000 61.560,261.820 61.200,261.600 61.200 C 261.380 61.200,261.200 60.840,261.200 60.400 C 261.200 59.960,261.020 59.600,260.800 59.600 C 260.580 59.600,260.400 59.330,260.400 59.000 C 260.400 58.670,260.220 58.400,260.000 58.400 C 259.780 58.400,259.600 58.040,259.600 57.600 C 259.600 57.160,259.423 56.800,259.208 56.800 C 258.992 56.800,258.693 56.305,258.544 55.700 C 258.394 55.095,257.941 54.309,257.536 53.953 C 257.131 53.597,256.800 53.052,256.800 52.741 C 256.800 52.431,256.440 51.917,256.000 51.600 C 255.560 51.283,255.200 50.743,255.200 50.400 C 255.200 50.057,254.840 49.517,254.400 49.200 C 253.960 48.883,253.600 48.483,253.600 48.312 C 253.600 48.140,268.540 48.000,286.800 48.000 C 308.667 48.000,320.000 47.863,320.000 47.600 C 320.000 47.380,320.680 47.200,321.512 47.200 C 322.565 47.200,323.198 46.957,323.600 46.400 C 323.917 45.960,324.407 45.600,324.688 45.600 C 324.970 45.600,325.200 45.280,325.200 44.888 C 325.200 44.497,325.560 43.917,326.000 43.600 C 326.440 43.283,326.800 42.613,326.800 42.112 C 326.800 41.610,326.980 41.200,327.200 41.200 C 327.461 41.200,327.600 35.067,327.600 23.600 C 327.600 12.133,327.461 6.000,327.200 6.000 C 326.980 6.000,326.800 5.640,326.800 5.200 C 326.800 4.760,326.620 4.400,326.400 4.400 C 326.180 4.400,326.000 4.122,326.000 3.783 C 326.000 3.444,325.817 2.949,325.593 2.683 C 325.369 2.417,324.813 1.750,324.359 1.200 L 323.533 0.200 200.197 0.097 C 90.777 0.006,76.794 0.063,76.260 0.597 " stroke="none" fill="#040404" fill-rule="evenodd"></path><path id="path1" d="" stroke="none" fill="#080404" fill-rule="evenodd"></path><path id="path2" d="" stroke="none" fill="#080404" fill-rule="evenodd"></path><path id="path3" d="" stroke="none" fill="#080404" fill-rule="evenodd"></path><path id="path4" d="" stroke="none" fill="#080404" fill-rule="evenodd"></path></g></svg>